<svg width="78" height="66" viewBox="0 0 78 66" fill="none" xmlns="http://www.w3.org/2000/svg">
    <path
        d="M51.5234 44.0469C53.4332 40.4881 53.6097 36.2112 52.398 31.7578C50.9176 26.3174 46.8453 21.4387 41.4972 19.6533C36.149 17.8639 29.9945 19.1357 25.4929 22.534C21.0555 25.8841 18.0264 32.2112 18.9572 38.141C18.9572 38.141 12.947 41.8763 13.7053 43.2404C13.8979 44.0148 19.0695 43.8463 21.0194 43.3929L21.0073 43.3407C23.4507 48.3478 28.1369 53.0901 35.9444 53.3911C41.778 53.6157 48.0409 50.5344 51.5234 44.0509V44.0469Z"
        fill="#408273" />
    <path
        d="M26.2114 29.28C25.9907 29.629 22.9937 33.8979 25.9867 40.7104C25.9867 40.7104 28.5224 47.194 34.5887 46.4879L47.0503 41.2601L39.7362 22.4474C39.7362 22.4474 39.0862 22.0622 37.8104 22.8365C36.5345 23.6069 26.8734 28.2489 26.2154 29.284L26.2114 29.28Z"
        fill="#083B30" />
    <path
        d="M35.5196 23.9697C34.7653 24.6076 34.1795 25.422 33.8465 26.3528C33.1966 28.1503 32.7231 31.2677 34.5246 35.4764C37.2408 41.8235 41.297 43.2478 44.4906 41.7794C48.4145 39.9739 68.4389 42.3812 68.5873 42.1686C69.2293 41.2458 56.4788 3.92519 53.9311 5.06463C51.5038 6.1479 40.7875 19.5122 35.5236 23.9737L35.5196 23.9697Z"
        fill="#18A88B" />
    <path
        d="M68.2521 43.6301C73.6357 41.5851 74.6798 31.187 70.5843 20.4053C66.4887 9.62362 58.8043 2.54117 53.4207 4.5862C48.0371 6.63124 46.993 17.0293 51.0885 27.811C55.1841 38.5927 62.8685 45.6752 68.2521 43.6301Z"
        fill="#2ACF83" />
    <path
        d="M71.2191 37.743C70.5892 39.6849 69.53 41.061 68.0535 41.6227C63.5399 43.3359 56.8638 36.7721 53.1325 26.9585C49.4053 17.1449 50.0392 7.80071 54.5488 6.08754C56.7073 5.26907 59.3633 6.34432 61.9551 8.76361C61.9551 8.76361 61.9591 8.76361 61.9591 8.76763C64.7796 11.4036 67.5239 15.6363 69.4658 20.7478C71.9733 27.3517 72.507 33.743 71.2151 37.739L71.2191 37.743Z"
        fill="#2ACF83" />
    <path
        d="M51.6924 22.2799C51.6924 22.2799 58.3846 20.1936 59.0225 20.4945C59.6604 20.7954 62.8942 27.6321 62.2001 28.27C61.506 28.9079 55.4557 31.9812 55.4557 31.9812C55.4557 31.9812 52.0414 26.1315 51.6964 22.2799H51.6924Z"
        fill="#18A88B" />
    <path
        d="M62.0833 23.7058C63.0262 25.8403 63.0583 27.8985 62.1516 28.2997C61.2448 28.7009 59.7443 27.2927 58.8014 25.1582C57.8586 23.0238 57.8265 20.9656 58.7332 20.5644C59.64 20.1632 61.1405 21.5714 62.0833 23.7058Z"
        fill="#083B30" />
    <path
        d="M36.2614 45.8932C36.2614 45.8932 42.5845 57.1672 44.9556 58.2064C47.3268 59.2455 52.2215 54.8041 52.2215 54.8041L42.8172 43.2773C42.8172 43.2773 35.8241 45.1229 36.2614 45.8932Z"
        fill="#18A88B" />
    <path
        d="M70.9624 37.8135C70.9665 37.8376 70.7097 38.2869 70.6696 38.3712C70.5933 38.5397 70.5091 38.7082 70.4208 38.8727C70.2643 39.1656 70.0918 39.4505 69.8832 39.7072C69.5662 40.1004 69.1771 40.4134 68.7317 40.6501C67.9453 41.0673 67.0747 41.3642 66.18 41.3522C64.1499 41.3241 62.2923 40.0483 60.8479 38.7363C58.7416 36.8225 57.0886 34.4353 55.7205 31.9518C53.9913 28.8104 52.6873 25.4161 51.8568 21.9296C51.1306 18.8804 50.7294 15.6667 51.1065 12.5413C51.3593 10.463 52.0173 7.95143 53.8829 6.72774C56.555 4.97847 59.7968 7.10889 61.7667 8.95446C63.9011 10.9525 65.5902 13.4039 66.9824 15.9636C68.7558 19.2214 70.0758 22.7481 70.8782 26.367C71.5603 29.4443 71.9254 32.7262 71.3958 35.8596C71.2914 36.4735 71.147 37.0793 70.9584 37.6731C70.8541 38.0021 71.3677 38.1425 71.472 37.8135C72.4148 34.8446 72.2824 31.5867 71.8251 28.5456C71.2393 24.6618 69.9955 20.8704 68.2864 17.3398C66.838 14.3427 65.0125 11.45 62.6574 9.07884C60.6754 7.08482 57.5941 4.76181 54.6051 5.7849C52.5268 6.49504 51.4355 8.59337 50.926 10.5994C50.1597 13.6085 50.3683 16.8423 50.8899 19.8714C51.5439 23.6668 52.8157 27.374 54.5289 30.8204C55.9251 33.6289 57.6583 36.3491 59.8931 38.5638C61.4257 40.0844 63.3475 41.5448 65.5501 41.8336C67.488 42.0904 69.6264 41.1877 70.6656 39.5146C70.8541 39.2097 71.0146 38.8888 71.1631 38.5638C71.2754 38.315 71.5282 37.9459 71.472 37.6731C71.4038 37.3361 70.8902 37.4805 70.9584 37.8135H70.9624Z"
        fill="#083B30" />
    <path
        d="M60.9646 41.6439C54.0517 35.6056 49.2934 26.7549 48.6033 17.5472C48.3866 14.6544 48.6635 11.6975 49.847 9.02145C49.9834 8.70851 49.5261 8.4397 49.3856 8.75264C47.3194 13.4227 47.841 18.7949 49.1249 23.6095C50.3365 28.1431 52.4188 32.4441 55.2192 36.2115C56.796 38.3339 58.5934 40.2838 60.5874 42.025C60.8442 42.2497 61.2254 41.8726 60.9646 41.6479V41.6439Z"
        fill="#083B30" />
    <path
        d="M46.1033 41.2038C43.1704 39.4746 40.7792 36.9109 39.2827 33.8537C37.5735 30.3631 37.1322 26.327 37.9627 22.5395C38.0349 22.2065 37.5214 22.0621 37.4492 22.3991C36.1613 28.2808 37.9146 34.5116 42.1514 38.8046C43.2467 39.9159 44.4904 40.8748 45.8345 41.6692C46.1314 41.8458 46.4002 41.3844 46.1033 41.2078V41.2038Z"
        fill="#083B30" />
    <path
        d="M28.5892 49.8395C28.9489 42.432 23.2356 36.1356 15.8282 35.7759C8.42074 35.4162 2.12425 41.1295 1.76456 48.5369C1.40487 55.9443 7.11818 62.2408 14.5256 62.6005C21.933 62.9602 28.2295 57.2469 28.5892 49.8395Z"
        fill="#2ACF83" />
    <path
        d="M20.2912 61.4253C27.4219 59.3873 31.5503 51.9547 29.5124 44.8241C27.4744 37.6934 20.0418 33.565 12.9112 35.6029C5.78053 37.6409 1.65208 45.0735 3.69003 52.2041C5.72797 59.3348 13.1606 63.4632 20.2912 61.4253Z"
        fill="#2ACF83" />
    <path
        d="M18.737 62.006C17.7231 62.1642 16.6879 62.207 15.6398 62.1343C12.0036 61.8776 8.68404 60.2178 6.29701 57.4672C1.36467 51.7862 1.9764 43.1493 7.65736 38.2169C13.3426 33.2846 21.9753 33.8963 26.9076 39.5773C31.84 45.2625 31.2282 53.8952 25.5473 58.8275C23.588 60.5301 21.2395 61.6124 18.737 62.006ZM14.5404 35.4748C12.1748 35.847 9.88184 36.8609 7.94398 38.542C2.44268 43.3161 1.85234 51.6793 6.6264 57.1806C8.94071 59.8457 12.1534 61.4499 15.674 61.7022C19.1947 61.9504 22.5998 60.8125 25.2649 58.5024C30.7662 53.7284 31.3566 45.3652 26.5825 39.8639C23.4896 36.3005 18.891 34.7947 14.5404 35.4748Z"
        fill="#083B30" />
    <path
        d="M18.5405 60.792C14.4509 61.4337 10.126 60.0177 7.2171 56.6682C2.72538 51.4963 3.28149 43.6336 8.45768 39.1419C13.6296 34.6502 21.4922 35.2063 25.984 40.3825C30.4757 45.5544 29.9196 53.417 24.7434 57.9088C22.921 59.4916 20.765 60.4455 18.5405 60.792ZM7.5465 56.3816C11.8799 61.3738 19.4645 61.9128 24.4611 57.5794C29.4533 53.2459 29.9923 45.657 25.6588 40.6648C23.5584 38.2478 20.6452 36.7891 17.4497 36.5624C14.2541 36.3356 11.1655 37.3666 8.74429 39.467C3.75206 43.8005 3.21305 51.3893 7.5465 56.3816Z"
        fill="#083B30" />
    <path
        d="M3.58142 52.154C3.08519 52.2781 2.62319 52.492 2.21252 52.8C2.09701 52.8856 2.0799 53.0738 2.17402 53.1807C2.27668 53.2919 2.43496 53.3091 2.55474 53.2192C2.59752 53.185 2.64458 53.1551 2.69163 53.1208C2.7173 53.1037 2.74297 53.0866 2.77291 53.0695C2.81997 53.0396 2.73869 53.0866 2.7943 53.0567C2.88841 53.0011 2.9868 52.9454 3.08947 52.8984C3.19214 52.8513 3.29481 52.8085 3.39748 52.77C3.44881 52.7529 3.50442 52.7358 3.55576 52.7187C3.5087 52.7315 3.55576 52.7187 3.57715 52.7144C3.60709 52.7059 3.63704 52.6973 3.67126 52.6888C3.80815 52.6545 3.92793 52.5305 3.89798 52.3808C3.87232 52.2482 3.73542 52.1198 3.58998 52.154H3.58142Z"
        fill="#083B30" />
    <path
        d="M4.83037 55.11C4.34697 55.2854 3.89352 55.5549 3.50852 55.8971C3.40157 55.9912 3.37163 56.1666 3.47002 56.2779C3.56413 56.3848 3.73952 56.419 3.85074 56.3164C3.94058 56.2351 4.03469 56.1581 4.13308 56.0896C4.18442 56.0511 4.24003 56.0126 4.29136 55.9784C4.31275 55.9656 4.32986 55.9527 4.35125 55.9399C4.37692 55.9228 4.37692 55.9228 4.35125 55.9399C4.36408 55.9314 4.37692 55.9228 4.39403 55.9142C4.60364 55.7902 4.82181 55.6875 5.04854 55.6062C5.18115 55.5592 5.24532 55.371 5.18543 55.2469C5.11698 55.1057 4.97154 55.0587 4.82609 55.11H4.83037Z"
        fill="#083B30" />
    <path
        d="M6.95188 58.1084C6.69093 58.4506 6.42998 58.7971 6.16903 59.1394C6.08347 59.2506 6.10914 59.4388 6.22892 59.5201C6.35298 59.6014 6.51554 59.58 6.60965 59.4602C6.8706 59.118 7.13154 58.7715 7.39249 58.4293C7.47805 58.318 7.45238 58.1298 7.3326 58.0485C7.20854 57.9672 7.04599 57.9886 6.95188 58.1084Z"
        fill="#083B30" />
    <path
        d="M10.2162 60.36C10.1564 60.5739 10.0836 60.7835 9.98952 60.9888C9.94674 61.0872 9.89541 61.1856 9.84407 61.284C9.84407 61.2883 9.83124 61.3182 9.82696 61.3182C9.83124 61.3182 9.85263 61.2712 9.83124 61.3097C9.81841 61.3311 9.80557 61.3567 9.79274 61.3781C9.7628 61.4294 9.73285 61.4808 9.69863 61.5321C9.62163 61.6519 9.63018 61.8273 9.75852 61.9128C9.87402 61.9898 10.058 61.9813 10.1392 61.853C10.3916 61.4508 10.5927 61.0188 10.721 60.5568C10.7424 60.484 10.7467 60.4156 10.7168 60.3472C10.6911 60.2873 10.6312 60.2274 10.567 60.206C10.4387 60.1632 10.2547 60.2145 10.2162 60.36Z"
        fill="#083B30" />
    <path
        d="M13.3131 61.7908C13.3345 61.8335 13.3516 61.8806 13.3688 61.9277C13.3602 61.9063 13.3559 61.8806 13.3474 61.8592C13.3688 61.9362 13.3816 62.0175 13.3859 62.0988C13.3859 62.0731 13.3859 62.0517 13.3859 62.026C13.3859 62.1073 13.3773 62.1886 13.3602 62.2656C13.3645 62.2442 13.373 62.2185 13.3773 62.1972C13.3645 62.2485 13.3474 62.2998 13.326 62.3512C13.3217 62.364 13.3131 62.3768 13.3089 62.3854C13.2875 62.4282 13.3431 62.3298 13.3174 62.3725C13.3046 62.3939 13.2875 62.4196 13.2704 62.441C13.1848 62.5565 13.2062 62.7404 13.3303 62.8217C13.4543 62.903 13.6211 62.8859 13.711 62.7618C13.9591 62.4239 14.0061 61.949 13.8179 61.5726C13.7538 61.4443 13.5955 61.3673 13.4586 61.4357C13.3303 61.4999 13.2532 61.6582 13.3217 61.795L13.3131 61.7908Z"
        fill="#083B30" />
    <path
        d="M2.97374 48.9537C2.55023 49.2061 2.12673 49.4542 1.70322 49.7066C1.58344 49.7793 1.49788 49.9248 1.56633 50.066C1.62622 50.1857 1.79305 50.2799 1.92567 50.2028C2.34917 49.9505 2.77268 49.7023 3.19618 49.45C3.31596 49.3772 3.40152 49.2318 3.33308 49.0906C3.27319 48.9708 3.10635 48.8767 2.97374 48.9537Z"
        fill="#083B30" />
    <path
        d="M3.29027 45.5937C2.83682 45.7691 2.38765 45.9402 1.9342 46.1156C1.80159 46.167 1.73314 46.3509 1.79731 46.475C1.86575 46.6119 2.01548 46.6632 2.15665 46.6119C2.6101 46.4365 3.05927 46.2654 3.51272 46.09C3.64533 46.0386 3.71378 45.8547 3.64961 45.7306C3.58117 45.5937 3.43144 45.5424 3.29027 45.5937Z"
        fill="#083B30" />
    <path
        d="M4.54767 42.1758C4.11133 42.2228 3.68355 42.3597 3.29854 42.5693C3.17449 42.6378 3.09321 42.7918 3.16165 42.9287C3.22582 43.0527 3.38838 43.1383 3.52099 43.0656C3.70066 42.9672 3.88888 42.8859 4.08139 42.826C4.08994 42.826 4.16266 42.7961 4.0985 42.8217C4.12416 42.8132 4.14983 42.8089 4.1755 42.8003C4.22255 42.7875 4.26961 42.7747 4.31667 42.7661C4.41933 42.7447 4.52628 42.7276 4.62895 42.7148C4.77012 42.6977 4.88134 42.5437 4.85567 42.4068C4.82573 42.2571 4.69739 42.1629 4.54767 42.1801V42.1758Z"
        fill="#083B30" />
    <path
        d="M6.96084 38.9229C6.62289 38.863 6.26355 38.9143 5.95555 39.064C5.82721 39.1239 5.75449 39.2908 5.81865 39.4234C5.88282 39.5517 6.0411 39.6244 6.17799 39.5603C6.24644 39.5261 6.31916 39.4961 6.39616 39.4747C6.37477 39.4833 6.34911 39.4876 6.32772 39.4961C6.4475 39.4619 6.57155 39.4405 6.69561 39.4405C6.66994 39.4405 6.64855 39.4405 6.62289 39.4405C6.717 39.4405 6.80683 39.4448 6.90095 39.4619C7.04212 39.4876 7.19184 39.3635 7.20039 39.2223C7.20895 39.0683 7.11056 38.9485 6.96084 38.9229Z"
        fill="#083B30" />
    <path
        d="M17.548 61.9732C17.5523 62.0031 17.5566 62.0288 17.5566 62.0587C17.5566 62.0331 17.5566 62.0117 17.5566 61.986C17.5566 62.0331 17.5523 62.0759 17.5394 62.1229C17.5437 62.1015 17.5523 62.0759 17.5566 62.0545C17.5437 62.0972 17.5266 62.14 17.5052 62.1828C17.5181 62.1614 17.5266 62.1443 17.5394 62.1229C17.5223 62.1571 17.5009 62.1871 17.4753 62.2127C17.4539 62.2427 17.4411 62.2726 17.4325 62.3069C17.4197 62.3411 17.4197 62.3753 17.4239 62.4138C17.4325 62.478 17.4753 62.555 17.5309 62.5892C17.5908 62.6277 17.6635 62.6534 17.7319 62.6363C17.7533 62.6277 17.779 62.6234 17.8004 62.6149C17.8432 62.5935 17.8817 62.5678 17.9073 62.5293C17.9458 62.4823 17.9758 62.4309 18.0057 62.3753C18.0271 62.3368 18.04 62.2983 18.0528 62.2598C18.0699 62.1999 18.0827 62.14 18.087 62.0801C18.087 62.016 18.087 61.9518 18.0785 61.8919C18.0656 61.8235 18.0271 61.755 17.9715 61.7165C17.9159 61.678 17.8346 61.6524 17.7705 61.6695C17.702 61.6823 17.6336 61.7165 17.5951 61.7764C17.5566 61.8363 17.5352 61.9047 17.548 61.9775V61.9732Z"
        fill="#083B30" />
    <path
        d="M18.2027 42.5172C18.3781 42.59 18.4894 42.6712 18.5364 42.7611C18.5835 42.8509 18.6006 42.9493 18.592 43.052C18.5835 43.1589 18.5578 43.2573 18.5193 43.3471C18.4765 43.437 18.4166 43.5054 18.3396 43.5439C18.2797 43.5739 18.2113 43.591 18.13 43.5952C18.0487 43.5995 17.9717 43.591 17.8947 43.5653C17.3771 43.3942 16.9108 43.3215 16.4959 43.3557C16.0809 43.3856 15.6703 43.5097 15.2639 43.7193C14.8061 43.9589 14.4425 44.2455 14.1687 44.5834C13.895 44.9214 13.7324 45.2722 13.6725 45.6358C13.6169 45.9994 13.6725 46.3502 13.8522 46.6881C13.9934 46.9576 14.1944 47.1672 14.4554 47.3212C14.7206 47.4752 15.0756 47.5651 15.5291 47.5993C15.9825 47.6292 16.5686 47.5993 17.2873 47.5009C18.0915 47.3726 18.7931 47.3512 19.392 47.4325C19.9909 47.5137 20.4871 47.6806 20.8849 47.9373C21.2828 48.1939 21.5951 48.5361 21.8218 48.9768C22.1255 49.5628 22.2496 50.1532 22.1854 50.7392C22.1255 51.3253 21.8902 51.8771 21.4796 52.3905C21.0732 52.9038 20.4999 53.353 19.7642 53.738C19.315 53.969 18.8658 54.1401 18.4166 54.2471C17.9675 54.354 17.544 54.4053 17.1418 54.3968C16.7397 54.3925 16.3675 54.3369 16.0253 54.2385C15.9355 54.2086 15.8542 54.1701 15.7815 54.1187C15.7088 54.0674 15.6617 54.0118 15.6275 53.9519C15.5804 53.8621 15.5633 53.7722 15.5719 53.6781C15.5804 53.584 15.6061 53.4942 15.6489 53.4086C15.6917 53.323 15.7558 53.2589 15.8328 53.2161C15.9227 53.169 16.0125 53.1477 16.098 53.1434C16.1836 53.1434 16.2991 53.1648 16.4317 53.2075C16.6413 53.276 16.9108 53.3017 17.2317 53.2931C17.5568 53.2845 17.8905 53.2375 18.2412 53.1562C18.592 53.0749 18.9129 52.9594 19.2123 52.8011C20.008 52.3862 20.5555 51.8942 20.8593 51.321C21.163 50.7478 21.163 50.1703 20.8593 49.5971C20.6924 49.2805 20.47 49.0324 20.1834 48.8613C19.8968 48.6859 19.5118 48.5875 19.0241 48.5618C18.5364 48.5361 17.9033 48.5746 17.1247 48.6773C16.3633 48.7671 15.7045 48.7843 15.1398 48.7244C14.5794 48.6645 14.1089 48.5148 13.7324 48.2795C13.356 48.0442 13.0608 47.7191 12.8469 47.2999C12.5731 46.7737 12.4747 46.2218 12.5517 45.6529C12.6287 45.0839 12.8597 44.5406 13.2447 44.0316C13.6297 43.5225 14.1474 43.099 14.7933 42.7653C15.1698 42.5686 15.5505 42.4274 15.9355 42.3418C16.3205 42.2563 16.7055 42.2306 17.0905 42.2648C17.4755 42.2991 17.8391 42.3846 18.1899 42.5172H18.2027ZM13.8094 42.0124C13.741 41.8841 13.711 41.7686 13.7153 41.6659C13.7153 41.5633 13.7495 41.4734 13.8008 41.3922C13.8565 41.3152 13.9249 41.251 14.0147 41.2039C14.1559 41.1312 14.2928 41.1184 14.4297 41.1612C14.5666 41.2039 14.6821 41.3194 14.7805 41.5077C15.0842 42.1194 15.435 42.8552 15.8243 43.7193C16.2178 44.5834 16.6285 45.5074 17.0606 46.4956C17.4926 47.4838 17.929 48.4763 18.3696 49.473C18.8102 50.4697 19.238 51.4151 19.6444 52.3135C20.055 53.2118 20.4315 53.9947 20.778 54.662C20.8678 54.8331 20.8892 54.9828 20.8464 55.1197C20.8037 55.2566 20.7181 55.355 20.5898 55.4235C20.44 55.5005 20.2989 55.5176 20.162 55.4748C20.0251 55.432 19.9139 55.3251 19.824 55.1582C19.4775 54.4909 19.1011 53.708 18.6904 52.8097C18.2797 51.9114 17.8562 50.9617 17.4156 49.9692C16.975 48.9725 16.5344 47.9843 16.098 46.9961C15.6617 46.0122 15.2468 45.0839 14.8575 44.2241C14.4639 43.36 14.1174 42.6242 13.8137 42.0124H13.8094Z"
        fill="#083B30" />
    <g opacity="0.3">
        <path
            d="M22.4678 40.0781C22.6133 40.1166 22.763 40.1209 22.8999 40.2107C22.9256 40.3775 22.917 40.5144 22.8528 40.6257C22.6817 40.4588 22.5063 40.3005 22.3309 40.1423C22.3694 40.1166 22.4122 40.0952 22.4636 40.0781H22.4678ZM26.7499 54.5286C26.7499 54.5286 26.7243 54.5329 26.7072 54.5372C26.6173 54.7511 26.5147 54.965 26.4077 55.1703C26.8441 55.4954 27.1563 54.8024 26.7457 54.5286H26.7499ZM21.5952 39.5263C21.7149 39.6204 21.8347 39.7145 21.9545 39.8129C21.9074 39.522 21.7492 39.4621 21.5952 39.5263ZM24.765 42.8287C24.8763 42.9827 24.9832 43.1368 25.0901 43.295C25.1714 43.0769 25.1073 42.8929 24.765 42.8287ZM26.1981 56.0473C26.2865 55.8704 26.3307 55.6822 26.3307 55.4826C26.3093 55.4655 26.2879 55.4569 26.2665 55.4484C26.1425 55.6708 26.0056 55.8933 25.8602 56.1114C25.9286 56.1243 26.0355 56.1071 26.1981 56.0473ZM25.7746 42.1785C25.6163 41.9304 25.3981 41.8363 25.1073 42.0031C25.0688 42.0972 25.0345 42.2384 25.0217 42.3539C25.2142 42.5207 25.4153 42.6277 25.689 42.4994C25.719 42.3967 25.7489 42.2855 25.7746 42.1828V42.1785ZM22.1128 39.2525C22.7972 39.3209 22.7416 38.5295 22.1042 38.5766C21.8347 38.7691 21.8262 39.0643 22.1128 39.2525ZM25.7019 40.1551C25.5693 40.0097 25.4366 39.8728 25.2998 39.7359C25.2869 39.7744 25.2784 39.8172 25.2826 39.8642C25.381 39.9669 25.488 40.0695 25.612 40.2022C25.6463 40.1893 25.6762 40.1722 25.7062 40.1594L25.7019 40.1551ZM17.0435 37.2376C17.7365 36.7499 16.5259 36.1125 16.5944 37.0665C16.7099 37.259 16.8895 37.212 17.0435 37.2376ZM15.4522 36.874C15.3025 36.9253 15.2083 36.9938 15.1485 37.0708C15.3324 37.0751 15.5206 37.0879 15.7046 37.105C15.6318 37.0194 15.542 36.9596 15.4479 36.8783L15.4522 36.874ZM27.798 47.4959C27.7125 47.4403 27.6483 47.3975 27.5884 47.359C27.6611 46.9526 27.0622 47.1066 27.0408 47.4531C27.0622 47.5215 27.0793 47.5943 27.0964 47.6627C27.0964 47.6627 27.0964 47.6713 27.1007 47.6713C27.3831 47.9194 27.597 47.8039 27.798 47.4916V47.4959ZM23.7854 39.9327C23.7811 40.0653 23.7768 40.1679 23.7683 40.2877C23.871 40.4374 24.0934 40.4032 24.2645 40.4717C24.3586 40.4032 24.41 40.2963 24.4656 40.1808C24.41 40.0695 24.3544 39.954 24.2987 39.8471C24.102 39.7487 23.9308 39.7829 23.7854 39.9327ZM20.9193 38.4097C21.116 38.7734 21.5652 38.6878 21.5994 38.2729C21.5567 38.1787 21.5139 38.0932 21.4625 37.9905C21.1674 37.8066 20.9235 38.1231 20.9193 38.4097ZM23.3876 39.8C23.4346 39.6803 23.4731 39.5947 23.5073 39.5091C23.4261 39.3166 23.2849 39.2097 23.0881 39.1413C22.6304 39.3765 22.8785 40.061 23.3918 39.8H23.3876ZM17.5312 37.4344C17.7622 37.4986 17.9889 37.5756 18.2199 37.6568C18.2328 37.1264 17.8221 37.0537 17.5312 37.4344ZM28.2386 46.3965C27.7638 45.8018 27.1649 46.8841 28.1274 46.8799C28.1231 46.666 28.4012 46.5761 28.2386 46.3965ZM16.2949 36.2109C16.0939 36.2195 15.8971 36.228 15.696 36.2452C15.6917 36.2879 15.6875 36.3264 15.6832 36.3692C15.7431 36.4462 15.8072 36.5189 15.8671 36.6002C16.2479 36.7157 16.3591 36.4377 16.2949 36.2109ZM19.2466 36.7842C19.114 37.1221 19.1012 37.4815 19.5675 37.4258C20.0209 37.1649 19.6701 36.6473 19.2466 36.7842ZM13.0908 37.2333C13.1721 37.1606 13.2363 37.0751 13.3304 37.0066C13.2705 36.8826 13.2234 36.8013 13.1593 36.7286C12.9967 36.7756 12.8384 36.8312 12.6759 36.8868C12.6759 37.0152 12.7358 37.1649 12.8128 37.2932C12.9069 37.2718 13.001 37.2505 13.0951 37.2333H13.0908ZM25.612 41.2631C25.8901 42.1015 26.72 41.4385 25.9842 40.9764C25.796 41.0107 25.689 41.1219 25.612 41.2631ZM24.4656 57.8226C24.5469 57.7584 24.6281 57.6942 24.7094 57.6258C24.8035 57.5445 24.8934 57.4589 24.9875 57.3734C24.9447 57.3648 24.9062 57.3648 24.8677 57.3691C24.7394 57.5103 24.6025 57.6472 24.4656 57.7841C24.4656 57.7969 24.4656 57.814 24.4656 57.8268V57.8226ZM28.8803 47.4702C28.8632 47.252 28.8418 47.0339 28.8119 46.8157C28.4397 47.098 28.645 47.4146 28.8803 47.4702ZM25.3853 43.757C25.4409 43.8469 25.4965 43.9367 25.5479 44.0265C25.5992 44.0565 25.6505 44.0822 25.7019 44.1121C25.8302 44.0565 25.9457 44.0052 26.0698 43.9538C26.1724 43.4405 25.535 43.3293 25.3853 43.757ZM26.8569 44.0993C26.6473 44.0822 26.5018 44.172 26.3478 44.2918C26.2409 44.9933 27.4515 44.6939 26.8569 44.0993ZM28.3285 50.3107C28.2044 50.2636 28.0846 50.2166 27.9777 50.1738C27.8066 50.2551 27.8451 50.4347 27.751 50.5331C27.7937 50.6315 27.8322 50.7214 27.8665 50.7984C28.2172 50.9909 28.5381 50.6657 28.3285 50.3107ZM23.4603 40.7241C23.3491 40.8224 23.2635 40.8695 23.1865 40.9508C23.332 41.1005 23.4731 41.2502 23.6143 41.4085C23.6271 41.4 23.64 41.3957 23.6528 41.3828C23.8624 41.0791 23.871 40.8139 23.456 40.7241H23.4603ZM23.148 38.0333C22.9769 37.9263 22.8058 37.828 22.6304 37.7296C22.4122 37.9135 22.5406 38.3156 22.8742 38.2985C23.0624 38.2686 23.1395 38.1531 23.1437 38.0333H23.148ZM21.0946 37.0152C20.9492 36.9596 20.8038 36.9082 20.6583 36.8569C20.6968 36.9253 20.7439 36.9895 20.7567 37.0708C20.9107 37.0879 21.0219 37.0622 21.0989 37.0152H21.0946ZM17.6809 36.2409C17.5868 36.2323 17.4884 36.228 17.3943 36.2238C17.4927 36.2751 17.5997 36.2837 17.6809 36.2409ZM28.2643 52.3427C28.3285 52.1501 28.3884 51.9619 28.444 51.7651C28.1274 51.6496 27.905 52.2271 28.2643 52.3427ZM28.645 50.9609C28.6236 50.9909 28.6022 51.0208 28.5809 51.0593C28.5937 51.0636 28.6022 51.0764 28.6151 51.085C28.6236 51.0422 28.6322 51.0037 28.6407 50.9609H28.645ZM26.1211 45.0789C26.1981 45.2329 26.2665 45.3826 26.335 45.5366C26.3778 45.5281 26.4163 45.5238 26.4548 45.5281C26.4548 45.2286 26.3393 45.1217 26.1211 45.0789ZM10.8193 37.905C10.738 37.9648 10.661 38.0205 10.584 38.0761C10.6781 38.029 10.7765 37.9862 10.8706 37.9435C10.8535 37.9306 10.8407 37.9221 10.8193 37.9092V37.905ZM19.76 38.337C19.8198 38.367 19.8797 38.4012 19.9396 38.4311C19.9182 38.3969 19.8883 38.3627 19.8498 38.337C19.8198 38.3327 19.7899 38.3327 19.76 38.337ZM28.5295 45.8917C28.5766 45.8917 28.6151 45.8917 28.6536 45.8874C28.6108 45.6778 28.5595 45.4639 28.5039 45.2586C28.2044 45.3741 28.2386 45.8275 28.5338 45.896L28.5295 45.8917ZM23.8367 38.8974C23.9308 38.8204 24.0079 38.7562 24.0934 38.6878C23.9437 38.5766 23.794 38.4654 23.6442 38.3584C23.4132 38.491 23.2892 38.8247 23.8367 38.8974ZM27.0964 53.6431C27.0708 53.6474 27.0537 53.6559 27.0323 53.6645C26.9895 53.8057 26.9382 53.9468 26.8868 54.088C26.9424 54.1693 27.028 54.2463 27.1392 54.2976C27.5499 54.0623 27.5884 53.7372 27.0964 53.6431ZM27.7467 51.5513C27.6825 51.44 27.6526 51.3245 27.6611 51.1919C27.597 51.1919 27.5413 51.1876 27.4815 51.1834C27.4729 51.3844 27.4515 51.5855 27.4301 51.7823C27.5756 51.9534 27.6953 51.6967 27.7467 51.547V51.5513ZM27.8921 53.3009C27.9477 53.1768 27.9991 53.0485 28.0461 52.9202C28.0333 52.9073 28.0205 52.8988 28.0119 52.8859C27.9007 52.6592 27.3745 52.7191 27.5071 53.0143C27.5242 53.2881 27.7167 53.3651 27.8921 53.3009ZM8.66754 39.2482C8.66754 39.2482 8.6547 39.2439 8.65042 39.2396C8.60765 39.2781 8.56487 39.3166 8.52637 39.3551C8.57342 39.3166 8.62476 39.2867 8.67181 39.2482H8.66754ZM18.6563 37.8194C18.8188 37.8878 18.9857 37.9563 19.1482 38.0333C19.1525 38.0076 19.1611 37.982 19.1653 37.952C19.0113 37.8536 18.8317 37.8665 18.6734 37.7638C18.6691 37.7852 18.6648 37.8023 18.6606 37.8194H18.6563ZM24.2517 41.9903C24.4271 42.0074 24.5469 41.9689 24.6837 41.9133C24.8292 41.4684 24.611 41.2716 24.179 41.4427C24.1576 41.6481 24.2774 41.8063 24.2517 41.9903ZM18.7974 36.5189C18.7204 36.4591 18.652 36.4034 18.575 36.3478C18.5194 36.3393 18.4681 36.3307 18.4124 36.3264C18.3483 36.3564 18.2798 36.3821 18.2071 36.4163C18.1943 36.5232 18.1814 36.6259 18.1729 36.7328C18.2584 36.8269 18.3312 36.8654 18.4467 36.9382C18.575 36.8098 18.7803 36.7756 18.8017 36.5232L18.7974 36.5189ZM24.8762 39.338C24.7479 39.2225 24.6153 39.107 24.4827 38.9958C24.4399 39.0728 24.4228 39.1755 24.4656 39.2824C24.5939 39.5947 24.765 39.5177 24.8805 39.338H24.8762ZM28.8375 49.7802C28.8504 49.6562 28.8632 49.5321 28.8717 49.4038C28.5509 49.0787 27.9905 49.6989 28.6536 49.9128C28.7135 49.8701 28.7776 49.8316 28.8375 49.7802ZM27.4216 49.207C27.6226 49.3567 27.8023 49.3268 28.0076 49.2369C28.0975 48.6209 27.4387 48.5653 27.4216 49.207ZM20.1492 37.4472C19.8883 37.8665 20.2177 38.136 20.6284 37.9092C20.654 37.6183 20.4359 37.3061 20.1492 37.4472ZM22.1684 37.4857C21.9887 37.3959 21.8048 37.3103 21.6208 37.2291C21.6165 37.2333 21.608 37.2376 21.6037 37.2419C21.3941 37.5542 21.8946 37.7552 22.117 37.5585C22.1384 37.5328 22.1513 37.5071 22.1641 37.4815L22.1684 37.4857ZM9.57016 38.5081C9.42471 38.6108 9.28354 38.7177 9.14237 38.8333C9.1766 38.8375 9.2151 38.8418 9.24932 38.8418C9.36482 38.7648 9.47605 38.6921 9.59155 38.6194C9.59155 38.5766 9.58299 38.5381 9.57016 38.5081ZM27.4643 49.9171C27.4643 49.9171 27.4772 49.8957 27.4815 49.8786C27.4729 49.8786 27.4686 49.8701 27.4601 49.8658C27.4601 49.8829 27.4601 49.9 27.4601 49.9128L27.4643 49.9171ZM25.3383 40.6086C25.2099 40.4888 25.073 40.416 24.9019 40.4246C24.4741 40.9764 25.1885 41.3743 25.3383 40.6086ZM14.7463 36.7927C14.6993 36.6516 14.6565 36.5232 14.6094 36.3821C14.464 36.4077 14.3143 36.4377 14.1688 36.4676C14.1218 36.5189 14.1004 36.5831 14.1303 36.6644C14.1688 36.8483 14.2202 36.8697 14.4512 36.7799C14.464 36.8441 14.4726 36.8826 14.4811 36.9211C14.6223 36.9553 14.6693 36.8441 14.7421 36.7884L14.7463 36.7927ZM28.5295 48.3215C28.8076 47.9108 28.4482 47.6584 28.0376 47.8424C28.0162 47.9365 27.9991 47.9964 27.982 48.0563C28.1231 48.253 28.3627 48.2017 28.5295 48.3215ZM11.692 37.2804C11.5337 37.3531 11.3754 37.4258 11.2171 37.5071C11.3455 37.5585 11.4866 37.5328 11.6021 37.5841C11.7176 37.4986 11.662 37.3873 11.6962 37.2804H11.692ZM25.3468 57.0269C25.458 56.9157 25.5735 56.8002 25.6805 56.6847C25.642 56.629 25.5949 56.5905 25.5393 56.5606C25.4238 56.7146 25.2998 56.8686 25.1714 57.0183C25.2185 57.044 25.2784 57.044 25.3425 57.0269H25.3468ZM26.5532 43.0341C26.5617 42.9442 26.5703 42.8672 26.5788 42.7945C26.5403 42.7304 26.5018 42.6662 26.459 42.5935C25.5693 42.3368 26.1254 43.325 26.5532 43.0341ZM27.4087 45.0874C27.4943 45.1302 27.5798 45.173 27.674 45.2201C27.7424 45.1773 27.8151 45.1302 27.9092 45.0746C27.8878 44.5142 27.3061 44.4843 27.4087 45.0874ZM27.3018 43.7485C27.443 43.6758 27.5713 43.6159 27.6012 43.4533C27.4472 43.2865 27.4216 43.2694 27.1563 43.1624C27.1435 43.4576 26.8398 43.603 27.3018 43.7485ZM27.1093 42.016C27.0366 41.9005 26.9638 41.785 26.8868 41.6695C26.8526 41.6566 26.8141 41.6395 26.7799 41.6267C26.3222 42.063 26.9082 42.3924 27.1093 42.016ZM27.0023 46.2296C27.0922 46.1227 27.182 46.0115 27.2804 45.896C27.0194 45.2329 26.4377 46.0157 27.0023 46.2296ZM28.1958 44.2747C28.1488 44.142 28.0975 44.0094 28.0461 43.8768C28.0205 43.8854 27.9905 43.8939 27.9648 43.8982C27.9221 44.0608 28.0247 44.1634 28.0504 44.3046C28.1146 44.296 28.1573 44.2918 28.2001 44.2747H28.1958Z"
            fill="#083B30" />
    </g>
</svg>