<svg width="91" height="116" viewBox="0 0 91 116" fill="none" xmlns="http://www.w3.org/2000/svg">
    <path
        d="M60.1102 54.6543C62.3382 50.1483 62.5442 44.7329 61.1306 39.0939C59.4034 32.2053 54.6525 26.0279 48.413 23.7672C42.1736 21.5015 34.9933 23.1119 29.7416 27.4147C24.5647 31.6566 21.0307 39.668 22.1166 47.1764C22.1166 47.1764 15.1049 51.906 15.9895 53.6332C16.2142 54.6137 22.2477 54.4003 24.5225 53.8263L24.5085 53.7602C27.3591 60.1002 32.8262 66.1049 41.9349 66.4859C48.7407 66.7704 56.0473 62.8689 60.1102 54.6594V54.6543Z"
        fill="#408273" />
    <path
        d="M30.5794 35.9544C30.3219 36.3963 26.8254 41.8016 30.3173 50.4276C30.3173 50.4276 33.2755 58.6371 40.3528 57.743L54.8911 51.1236L46.3581 27.3029C46.3581 27.3029 45.5999 26.8152 44.1114 27.7957C42.6229 28.7711 31.3517 34.6488 30.5841 35.9595L30.5794 35.9544Z"
        fill="#083B30" />
    <path
        d="M41.4381 29.2297C40.5581 30.0374 39.8747 31.0687 39.4862 32.2473C38.7279 34.5232 38.1756 38.4704 40.2773 43.7995C43.4461 51.8362 48.1784 53.6396 51.9042 51.7803C56.482 49.4943 79.8436 52.5423 80.0167 52.2731C80.7657 51.1047 65.8903 3.84938 62.918 5.29214C60.0862 6.66377 47.5839 23.5857 41.4428 29.2347L41.4381 29.2297Z"
        fill="#18A88B" />
    <path
        d="M79.6267 54.1258C85.9075 51.5363 87.1256 38.3703 82.3475 24.7185C77.5694 11.0668 68.6043 2.09897 62.3236 4.68839C56.0428 7.27781 54.8246 20.4439 59.6027 34.0956C64.3809 47.7474 73.3459 56.7152 79.6267 54.1258Z"
        fill="#2ACF83" />
    <path
        d="M83.0879 46.6696C82.3531 49.1284 81.1174 50.8709 79.3948 51.5821C74.129 53.7513 66.3403 45.4402 61.9872 33.0142C57.6388 20.5883 58.3783 8.75666 63.6395 6.58745C66.1577 5.55111 69.2564 6.91258 72.2801 9.97589C72.2801 9.97589 72.2848 9.97589 72.2848 9.98097C75.5754 13.3186 78.777 18.6781 81.0425 25.1502C83.9679 33.5121 84.5905 41.6047 83.0833 46.6645L83.0879 46.6696Z"
        fill="#2ACF83" />
    <path
        d="M60.3062 27.0912C60.3062 27.0912 68.1136 24.4495 68.8579 24.8305C69.6021 25.2116 73.3748 33.8681 72.565 34.6758C71.7552 35.4836 64.6967 39.3749 64.6967 39.3749C64.6967 39.3749 60.7134 31.9681 60.3108 27.0912H60.3062Z"
        fill="#18A88B" />
    <path
        d="M72.4299 28.8982C73.5298 31.6008 73.5673 34.2069 72.5094 34.7149C71.4516 35.2229 69.701 33.4398 68.601 30.7372C67.5011 28.0345 67.4636 25.4284 68.5215 24.9204C69.5793 24.4124 71.3299 26.1955 72.4299 28.8982Z"
        fill="#083B30" />
    <path
        d="M42.3045 56.99C42.3045 56.99 49.6813 71.2651 52.4476 72.5809C55.2139 73.8966 60.9244 68.2729 60.9244 68.2729L49.9528 53.6777C49.9528 53.6777 41.7943 56.0146 42.3045 56.99Z"
        fill="#18A88B" />
    <path
        d="M82.7873 46.7595C82.792 46.79 82.4924 47.359 82.4456 47.4656C82.3567 47.679 82.2584 47.8924 82.1554 48.1006C81.9729 48.4715 81.7716 48.8322 81.5282 49.1573C81.1584 49.6552 80.7044 50.0514 80.1848 50.3511C79.2674 50.8795 78.2517 51.2554 77.2079 51.2402C74.8394 51.2046 72.6723 49.5891 70.9872 47.9279C68.5298 45.5047 66.6013 42.482 65.0052 39.3374C62.9878 35.3597 61.4666 31.0619 60.4976 26.6473C59.6504 22.7864 59.1824 18.7172 59.6223 14.7598C59.9172 12.1283 60.6849 8.94816 62.8614 7.39872C65.9788 5.18379 69.7608 7.88134 72.0591 10.2182C74.5492 12.7481 76.5198 15.852 78.144 19.0932C80.2129 23.2182 81.7529 27.6836 82.689 32.2659C83.4848 36.1624 83.9107 40.3179 83.2929 44.2855C83.1712 45.0627 83.0026 45.8298 82.7827 46.5817C82.661 46.9983 83.2601 47.1761 83.3818 46.7595C84.4818 43.0002 84.3273 38.8751 83.7937 35.0244C83.1103 30.1069 81.6593 25.3061 79.6653 20.8356C77.9755 17.0408 75.8458 13.378 73.0982 10.3757C70.7859 7.85085 67.1911 4.90947 63.704 6.2049C61.2793 7.10408 60.0062 9.76098 59.4117 12.301C58.5177 16.1111 58.7611 20.2057 59.3696 24.0412C60.1325 28.847 61.6163 33.541 63.615 37.9048C65.2439 41.4609 67.266 44.9053 69.8732 47.7095C71.6612 49.6348 73.9033 51.484 76.473 51.8498C78.7338 52.1749 81.2286 51.0319 82.441 48.9135C82.661 48.5274 82.8482 48.121 83.0214 47.7095C83.1524 47.3945 83.4473 46.9271 83.3818 46.5817C83.3022 46.155 82.7031 46.3378 82.7827 46.7595H82.7873Z"
        fill="#083B30" />
    <path
        d="M71.124 51.6123C63.059 43.9668 57.5077 32.76 56.7026 21.1011C56.4498 17.4384 56.7728 13.6943 58.1536 10.3059C58.3128 9.90964 57.7792 9.56927 57.6153 9.96552C55.2048 15.8788 55.8133 22.6811 57.3111 28.7772C58.7247 34.5177 61.154 39.9636 64.4211 44.7339C66.2607 47.4212 68.3576 49.8902 70.684 52.095C70.9835 52.3794 71.4282 51.9019 71.124 51.6174V51.6123Z"
        fill="#083B30" />
    <path
        d="M53.7867 51.0576C50.3651 48.8681 47.5754 45.6219 45.8295 41.7508C43.8355 37.3311 43.3206 32.2205 44.2895 27.4249C44.3738 27.0033 43.7746 26.8204 43.6904 27.2471C42.1879 34.6946 44.2333 42.584 49.1762 48.0197C50.454 49.4269 51.9051 50.6411 53.4731 51.6469C53.8195 51.8704 54.1331 51.2862 53.7867 51.0627V51.0576Z"
        fill="#083B30" />
    <path
        d="M33.354 61.9869C33.7736 52.6077 27.1082 44.6351 18.4663 44.1796C9.82435 43.7242 2.47853 50.9584 2.05889 60.3376C1.63925 69.7169 8.30472 77.6895 16.9466 78.145C25.5885 78.6004 32.9344 71.3662 33.354 61.9869Z"
        fill="#2ACF83" />
    <path
        d="M23.6729 76.6567C31.9919 74.0763 36.8083 64.6651 34.4307 55.6363C32.0532 46.6075 23.3819 41.3801 15.0629 43.9605C6.74388 46.5409 1.92741 55.9521 4.30499 64.9809C6.68257 74.0097 15.3539 79.2372 23.6729 76.6567Z"
        fill="#2ACF83" />
    <path
        d="M21.8592 77.3902C20.6764 77.5906 19.4686 77.6448 18.2459 77.5527C14.0037 77.2277 10.1309 75.126 7.34607 71.6432C1.59172 64.45 2.3054 53.5139 8.93313 47.2685C15.5658 41.0232 25.6372 41.7978 31.3915 48.991C37.1459 56.1897 36.4322 67.1203 29.8045 73.3657C27.5187 75.5215 24.7788 76.8919 21.8592 77.3902ZM16.9633 43.7965C14.2034 44.2677 11.5283 45.5515 9.26751 47.6802C2.8494 53.7251 2.16067 64.3145 7.73036 71.2803C10.4304 74.6548 14.1784 76.686 18.2858 77.0056C22.3932 77.3198 26.3658 75.879 29.4751 72.954C35.8932 66.9091 36.5819 56.3197 31.0122 49.3539C27.4039 44.8419 22.0389 42.9353 16.9633 43.7965Z"
        fill="#083B30" />
    <path
        d="M21.6307 75.8557C16.8595 76.6682 11.8139 74.8753 8.42016 70.6342C3.17987 64.0855 3.82867 54.1298 9.86748 48.4424C15.9013 42.755 25.0743 43.4591 30.3146 50.0132C35.5549 56.5619 34.9061 66.5175 28.8673 72.205C26.7412 74.2091 24.2259 75.417 21.6307 75.8557ZM8.80445 70.2712C13.8601 76.5924 22.7087 77.2749 28.5379 71.7879C34.3621 66.3009 34.991 56.6919 29.9353 50.3707C27.4849 47.3103 24.0862 45.4633 20.3581 45.1762C16.63 44.8891 13.0266 46.1945 10.2019 48.8541C4.37765 54.3411 3.74881 63.9501 8.80445 70.2712Z"
        fill="#083B30" />
    <path
        d="M4.17839 64.9173C3.59946 65.0743 3.06046 65.3452 2.58135 65.7352C2.4466 65.8435 2.42664 66.0818 2.53643 66.2172C2.65621 66.3581 2.84087 66.3797 2.98061 66.266C3.03052 66.2226 3.08542 66.1847 3.14031 66.1414C3.17026 66.1197 3.2002 66.0981 3.23514 66.0764C3.29004 66.0385 3.19521 66.0981 3.26009 66.0602C3.36989 65.9897 3.48468 65.9193 3.60445 65.8597C3.72423 65.8002 3.84401 65.746 3.96379 65.6972C4.02368 65.6756 4.08856 65.6539 4.14845 65.6322C4.09355 65.6485 4.14845 65.6322 4.1734 65.6268C4.20834 65.616 4.24327 65.6052 4.2832 65.5943C4.4429 65.551 4.58264 65.3939 4.54771 65.2043C4.51776 65.0364 4.35806 64.8739 4.18837 64.9173H4.17839Z"
        fill="#083B30" />
    <path
        d="M5.63493 68.6603C5.07097 68.8824 4.54195 69.2236 4.09278 69.6569C3.96801 69.7761 3.93308 69.9982 4.04786 70.139C4.15766 70.2744 4.36228 70.3178 4.49204 70.1878C4.59685 70.0849 4.70664 69.9874 4.82143 69.9007C4.88132 69.8519 4.9462 69.8032 5.00609 69.7599C5.03104 69.7436 5.05101 69.7274 5.07596 69.7111C5.1059 69.6894 5.1059 69.6894 5.07596 69.7111C5.09093 69.7003 5.1059 69.6894 5.12587 69.6786C5.37042 69.5215 5.62494 69.3915 5.88945 69.2886C6.04417 69.229 6.11903 68.9907 6.04916 68.8336C5.96931 68.6549 5.79962 68.5953 5.62993 68.6603H5.63493Z"
        fill="#083B30" />
    <path
        d="M8.111 72.4576C7.80656 72.8909 7.50213 73.3297 7.19769 73.763C7.09788 73.9038 7.12782 74.1421 7.26756 74.2451C7.41229 74.348 7.60194 74.3209 7.71174 74.1692C8.01618 73.7359 8.32061 73.2972 8.62505 72.8638C8.72486 72.723 8.69492 72.4847 8.55518 72.3818C8.41044 72.2788 8.2208 72.3059 8.111 72.4576Z"
        fill="#083B30" />
    <path
        d="M11.9191 75.3053C11.8492 75.5761 11.7644 75.8415 11.6546 76.1015C11.6047 76.2261 11.5448 76.3507 11.4849 76.4752C11.4849 76.4807 11.4699 76.5186 11.465 76.5186C11.4699 76.5186 11.4949 76.459 11.4699 76.5077C11.455 76.5348 11.44 76.5673 11.425 76.5944C11.3901 76.6594 11.3552 76.7244 11.3152 76.7894C11.2254 76.9411 11.2354 77.1631 11.3851 77.2715C11.5199 77.369 11.7345 77.3581 11.8293 77.1956C12.1237 76.6865 12.3583 76.1394 12.508 75.5544C12.533 75.4623 12.538 75.3757 12.503 75.289C12.4731 75.2132 12.4032 75.1373 12.3284 75.1103C12.1786 75.0561 11.964 75.1211 11.9191 75.3053Z"
        fill="#083B30" />
    <path
        d="M15.532 77.1186C15.5569 77.1728 15.5769 77.2324 15.5969 77.292C15.5869 77.2649 15.5819 77.2324 15.5719 77.2053C15.5969 77.3028 15.6118 77.4057 15.6168 77.5086C15.6168 77.4761 15.6168 77.4491 15.6168 77.4166C15.6168 77.5195 15.6069 77.6224 15.5869 77.7199C15.5919 77.6928 15.6019 77.6603 15.6069 77.6332C15.5919 77.6982 15.5719 77.7632 15.547 77.8282C15.542 77.8445 15.532 77.8607 15.527 77.8716C15.5021 77.9257 15.5669 77.8011 15.537 77.8553C15.522 77.8824 15.5021 77.9149 15.4821 77.942C15.3823 78.0882 15.4072 78.3211 15.552 78.424C15.6967 78.527 15.8913 78.5053 15.9961 78.3482C16.2856 77.9203 16.3405 77.3191 16.1209 76.8424C16.046 76.6799 15.8614 76.5824 15.7017 76.6691C15.552 76.7503 15.4621 76.9507 15.542 77.1241L15.532 77.1186Z"
        fill="#083B30" />
    <path
        d="M3.46942 60.8655C2.97534 61.185 2.48125 61.4992 1.98717 61.8188C1.84743 61.9109 1.74761 62.095 1.82747 62.2738C1.89734 62.4254 2.09198 62.5446 2.24669 62.4471C2.74077 62.1275 3.23486 61.8134 3.72894 61.4938C3.86868 61.4017 3.9685 61.2175 3.88865 61.0388C3.81878 60.8871 3.62414 60.768 3.46942 60.8655Z"
        fill="#083B30" />
    <path
        d="M3.83904 56.6126C3.31002 56.8347 2.78599 57.0514 2.25697 57.2734C2.10226 57.3384 2.02241 57.5713 2.09727 57.7284C2.17712 57.9018 2.3518 57.9668 2.51649 57.9018C3.04551 57.6797 3.56954 57.463 4.09856 57.2409C4.25328 57.1759 4.33313 56.943 4.25827 56.7859C4.17841 56.6126 4.00374 56.5476 3.83904 56.6126Z"
        fill="#083B30" />
    <path
        d="M5.30527 52.2832C4.79622 52.3428 4.29714 52.5161 3.84797 52.7815C3.70324 52.8682 3.60841 53.0632 3.68827 53.2365C3.76313 53.3936 3.95278 53.5019 4.10749 53.4099C4.3171 53.2853 4.5367 53.1824 4.76128 53.1065C4.77126 53.1065 4.8561 53.0686 4.78124 53.1011C4.81119 53.0903 4.84113 53.0849 4.87108 53.074C4.92597 53.0578 4.98087 53.0415 5.03577 53.0307C5.15555 53.0036 5.28032 52.9819 5.4001 52.9657C5.56479 52.944 5.69455 52.749 5.66461 52.5757C5.62967 52.3861 5.47995 52.267 5.30527 52.2886V52.2832Z"
        fill="#083B30" />
    <path
        d="M8.12072 48.1638C7.72645 48.0879 7.30722 48.1529 6.94789 48.3425C6.79817 48.4183 6.71332 48.6296 6.78819 48.7975C6.86305 48.96 7.04771 49.0521 7.20741 48.9708C7.28726 48.9275 7.3721 48.8896 7.46194 48.8625C7.43698 48.8733 7.40704 48.8788 7.38209 48.8896C7.52183 48.8463 7.66656 48.8192 7.81129 48.8192C7.78135 48.8192 7.75639 48.8192 7.72645 48.8192C7.83624 48.8192 7.94105 48.8246 8.05085 48.8463C8.21554 48.8788 8.39022 48.7217 8.4002 48.5429C8.41018 48.3479 8.29539 48.1963 8.12072 48.1638Z"
        fill="#083B30" />
    <path
        d="M20.4734 77.3504C20.4784 77.3883 20.4834 77.4208 20.4834 77.4587C20.4834 77.4262 20.4834 77.3992 20.4834 77.3667C20.4834 77.4262 20.4784 77.4804 20.4634 77.54C20.4684 77.5129 20.4784 77.4804 20.4834 77.4533C20.4684 77.5075 20.4484 77.5616 20.4235 77.6158C20.4385 77.5887 20.4484 77.5671 20.4634 77.54C20.4435 77.5833 20.4185 77.6212 20.3886 77.6537C20.3636 77.6916 20.3486 77.7296 20.3387 77.7729C20.3237 77.8162 20.3237 77.8596 20.3287 77.9083C20.3386 77.9896 20.3886 78.0871 20.4534 78.1304C20.5233 78.1791 20.6082 78.2116 20.688 78.19C20.713 78.1791 20.7429 78.1737 20.7679 78.1629C20.8178 78.1358 20.8627 78.1033 20.8926 78.0546C20.9375 77.995 20.9725 77.93 21.0074 77.8596C21.0324 77.8108 21.0473 77.7621 21.0623 77.7133C21.0823 77.6375 21.0972 77.5616 21.1022 77.4858C21.1022 77.4046 21.1022 77.3233 21.0923 77.2475C21.0773 77.1608 21.0324 77.0742 20.9675 77.0254C20.9026 76.9767 20.8078 76.9442 20.7329 76.9658C20.6531 76.9821 20.5732 77.0254 20.5283 77.1012C20.4834 77.1771 20.4584 77.2637 20.4734 77.3558V77.3504Z"
        fill="#083B30" />
    <path
        d="M21.2361 52.7168C21.4408 52.8088 21.5705 52.9118 21.6254 53.0255C21.6803 53.1393 21.7003 53.2638 21.6903 53.3938C21.6803 53.5292 21.6504 53.6538 21.6055 53.7676C21.5555 53.8813 21.4857 53.968 21.3958 54.0167C21.326 54.0547 21.2461 54.0763 21.1513 54.0817C21.0565 54.0872 20.9666 54.0763 20.8768 54.0438C20.2729 53.8272 19.7289 53.7351 19.2448 53.7784C18.7607 53.8163 18.2816 53.9734 17.8075 54.2388C17.2735 54.5421 16.8493 54.9051 16.5299 55.333C16.2104 55.7609 16.0208 56.205 15.9509 56.6655C15.886 57.1259 15.9509 57.57 16.1605 57.9979C16.3252 58.3392 16.5598 58.6046 16.8642 58.7996C17.1737 58.9946 17.5879 59.1083 18.1169 59.1517C18.6459 59.1896 19.3297 59.1517 20.1681 59.0271C21.1064 58.8646 21.9249 58.8375 22.6236 58.9404C23.3223 59.0433 23.9012 59.2546 24.3653 59.5796C24.8295 59.9046 25.1938 60.3379 25.4583 60.8958C25.8127 61.6379 25.9574 62.3854 25.8825 63.1274C25.8127 63.8695 25.5382 64.5683 25.0591 65.2182C24.5849 65.8682 23.9162 66.437 23.0578 66.9245C22.5337 67.217 22.0097 67.4336 21.4857 67.569C20.9616 67.7045 20.4676 67.7695 19.9984 67.7586C19.5293 67.7532 19.0951 67.6828 18.6958 67.5582C18.591 67.5203 18.4962 67.4715 18.4114 67.4065C18.3265 67.3415 18.2716 67.2711 18.2317 67.1953C18.1768 67.0816 18.1568 66.9678 18.1668 66.8486C18.1768 66.7295 18.2068 66.6157 18.2567 66.5074C18.3066 66.3991 18.3814 66.3178 18.4713 66.2636C18.5761 66.2041 18.6809 66.177 18.7807 66.1716C18.8805 66.1716 19.0153 66.1986 19.17 66.2528C19.4145 66.3395 19.7289 66.372 20.1032 66.3611C20.4825 66.3503 20.8718 66.2907 21.2811 66.1878C21.6903 66.0849 22.0646 65.9387 22.414 65.7382C23.3422 65.2128 23.9811 64.5899 24.3354 63.8641C24.6897 63.1383 24.6897 62.407 24.3354 61.6812C24.1408 61.2804 23.8812 60.9662 23.5469 60.7496C23.2125 60.5275 22.7633 60.4029 22.1944 60.3704C21.6254 60.3379 20.8868 60.3866 19.9785 60.5166C19.0901 60.6304 18.3215 60.6521 17.6628 60.5762C17.009 60.5004 16.46 60.3108 16.0208 60.0129C15.5816 59.715 15.2372 59.3033 14.9877 58.7725C14.6683 58.1063 14.5535 57.4075 14.6433 56.6871C14.7332 55.9667 15.0027 55.2788 15.4519 54.6342C15.901 53.9897 16.5049 53.4534 17.2585 53.0309C17.6977 52.7818 18.1419 52.603 18.591 52.4947C19.0402 52.3863 19.4894 52.3538 19.9385 52.3972C20.3877 52.4405 20.8119 52.5488 21.2212 52.7168H21.2361ZM16.1106 52.0776C16.0308 51.9151 15.9958 51.7689 16.0008 51.6389C16.0008 51.5089 16.0408 51.3951 16.1006 51.2922C16.1655 51.1947 16.2454 51.1134 16.3502 51.0539C16.5149 50.9618 16.6746 50.9455 16.8343 50.9997C16.994 51.0539 17.1287 51.2001 17.2435 51.4384C17.5979 52.213 18.0071 53.1447 18.4613 54.2388C18.9204 55.333 19.3995 56.503 19.9036 57.7542C20.4077 59.0054 20.9167 60.2621 21.4308 61.5241C21.9448 62.7862 22.4439 63.9833 22.918 65.1207C23.3971 66.2582 23.8363 67.2495 24.2406 68.0945C24.3454 68.3111 24.3703 68.5007 24.3204 68.674C24.2705 68.8474 24.1707 68.9719 24.021 69.0586C23.8463 69.1561 23.6816 69.1778 23.5219 69.1236C23.3622 69.0694 23.2324 68.934 23.1276 68.7228C22.7234 67.8778 22.2842 66.8866 21.8051 65.7491C21.326 64.6116 20.8319 63.4091 20.3178 62.1525C19.8038 60.8904 19.2897 59.6392 18.7807 58.3879C18.2716 57.1421 17.7875 55.9667 17.3334 54.878C16.8742 53.7838 16.47 52.8522 16.1156 52.0776H16.1106Z"
        fill="#083B30" />
    <g opacity="0.3">
        <path
            d="M26.2126 49.6271C26.3823 49.6758 26.557 49.6812 26.7167 49.795C26.7466 50.0062 26.7367 50.1796 26.6618 50.3204C26.4622 50.1091 26.2575 49.9087 26.0529 49.7083C26.0978 49.6758 26.1478 49.6487 26.2076 49.6271H26.2126ZM31.2084 67.9243C31.2084 67.9243 31.1784 67.9297 31.1585 67.9351C31.0537 68.206 30.9339 68.4768 30.8091 68.7368C31.3182 69.1485 31.6825 68.271 31.2034 67.9243H31.2084ZM25.1945 48.9283C25.3343 49.0475 25.474 49.1667 25.6137 49.2912C25.5588 48.9229 25.3742 48.8471 25.1945 48.9283ZM28.8927 53.1099C29.0224 53.3049 29.1472 53.4999 29.272 53.7003C29.3668 53.4241 29.2919 53.1912 28.8927 53.1099ZM30.5646 69.8472C30.6677 69.6233 30.7193 69.385 30.7193 69.1322C30.6943 69.1105 30.6694 69.0997 30.6444 69.0889C30.4997 69.3705 30.34 69.6522 30.1703 69.9284C30.2502 69.9447 30.3749 69.923 30.5646 69.8472ZM30.0705 52.2866C29.8858 51.9724 29.6313 51.8533 29.2919 52.0645C29.247 52.1837 29.2071 52.3624 29.1921 52.5087C29.4167 52.7199 29.6513 52.8554 29.9707 52.6929C30.0056 52.5629 30.0405 52.422 30.0705 52.292V52.2866ZM25.7984 48.5817C26.5969 48.6683 26.532 47.6663 25.7884 47.7258C25.474 47.9696 25.464 48.3433 25.7984 48.5817ZM29.9856 49.7246C29.8309 49.5404 29.6762 49.3671 29.5165 49.1937C29.5015 49.2425 29.4916 49.2967 29.4965 49.3562C29.6113 49.4862 29.7361 49.6162 29.8808 49.7841C29.9208 49.7679 29.9557 49.7462 29.9906 49.73L29.9856 49.7246ZM19.8844 46.0305C20.6929 45.413 19.2805 44.6059 19.3603 45.8138C19.4951 46.0575 19.7047 45.998 19.8844 46.0305ZM18.0278 45.57C17.8531 45.635 17.7433 45.7217 17.6734 45.8192C17.888 45.8246 18.1076 45.8409 18.3222 45.8625C18.2374 45.7542 18.1326 45.6784 18.0228 45.5755L18.0278 45.57ZM32.4311 59.0194C32.3313 58.949 32.2564 58.8948 32.1866 58.8461C32.2714 58.3315 31.5727 58.5265 31.5478 58.9653C31.5727 59.0519 31.5927 59.144 31.6126 59.2307C31.6126 59.2307 31.6126 59.2415 31.6176 59.2415C31.947 59.5557 32.1965 59.4094 32.4311 59.014V59.0194ZM27.7498 49.4429C27.7448 49.6108 27.7398 49.7408 27.7298 49.8925C27.8496 50.0821 28.1091 50.0387 28.3087 50.1254C28.4185 50.0387 28.4784 49.9033 28.5433 49.7571C28.4784 49.6162 28.4136 49.47 28.3487 49.3346C28.1191 49.21 27.9195 49.2533 27.7498 49.4429ZM24.406 47.5146C24.6356 47.975 25.1596 47.8667 25.1995 47.3413C25.1496 47.2221 25.0997 47.1138 25.0398 46.9838C24.6954 46.7509 24.411 47.1517 24.406 47.5146ZM27.2856 49.275C27.3405 49.1233 27.3855 49.015 27.4254 48.9067C27.3306 48.6629 27.1659 48.5275 26.9363 48.4408C26.4023 48.7387 26.6917 49.6054 27.2906 49.275H27.2856ZM20.4533 46.2796C20.7228 46.3609 20.9873 46.4584 21.2568 46.5613C21.2718 45.8896 20.7927 45.7975 20.4533 46.2796ZM32.9452 57.6274C32.3912 56.8745 31.6925 58.2449 32.8154 58.2394C32.8104 57.9686 33.1348 57.8549 32.9452 57.6274ZM19.011 44.7305C18.7764 44.7413 18.5468 44.7521 18.3123 44.7738C18.3073 44.828 18.3023 44.8767 18.2973 44.9309C18.3672 45.0284 18.442 45.1205 18.5119 45.2234C18.9561 45.3696 19.0858 45.0175 19.011 44.7305ZM22.4546 45.4563C22.2999 45.8842 22.2849 46.3392 22.8289 46.2688C23.3579 45.9384 22.9487 45.283 22.4546 45.4563ZM15.2729 46.025C15.3677 45.933 15.4426 45.8246 15.5524 45.738C15.4825 45.5809 15.4276 45.478 15.3527 45.3859C15.1631 45.4455 14.9784 45.5159 14.7888 45.5863C14.7888 45.7488 14.8587 45.9384 14.9485 46.1009C15.0583 46.0738 15.1681 46.0467 15.2779 46.025H15.2729ZM29.8808 51.1275C30.2052 52.1891 31.1734 51.3495 30.315 50.7645C30.0954 50.8079 29.9707 50.9487 29.8808 51.1275ZM28.5433 72.0951C28.6381 72.0138 28.733 71.9326 28.8278 71.8459C28.9376 71.743 29.0424 71.6347 29.1522 71.5263C29.1023 71.5155 29.0574 71.5155 29.0124 71.5209C28.8627 71.6997 28.703 71.873 28.5433 72.0463C28.5433 72.0626 28.5433 72.0842 28.5433 72.1005V72.0951ZM33.6938 58.9869C33.6738 58.7107 33.6489 58.4344 33.6139 58.1582C33.1797 58.5157 33.4193 58.9165 33.6938 58.9869ZM29.6163 54.2853C29.6812 54.3991 29.7461 54.5128 29.806 54.6266C29.8659 54.6645 29.9258 54.697 29.9856 54.7349C30.1354 54.6645 30.2701 54.5995 30.4148 54.5345C30.5346 53.8845 29.791 53.7437 29.6163 54.2853ZM31.3331 54.7187C31.0886 54.697 30.9189 54.8107 30.7392 54.9624C30.6145 55.8507 32.0269 55.4716 31.3331 54.7187ZM33.05 62.5835C32.9052 62.524 32.7655 62.4644 32.6407 62.4102C32.4411 62.5131 32.486 62.7406 32.3762 62.8652C32.4261 62.9898 32.471 63.1035 32.511 63.201C32.9202 63.4448 33.2945 63.0331 33.05 62.5835ZM27.3705 50.445C27.2407 50.5696 27.1409 50.6291 27.0511 50.7321C27.2208 50.9216 27.3855 51.1112 27.5502 51.3116C27.5651 51.3008 27.5801 51.2954 27.5951 51.2791C27.8396 50.8945 27.8496 50.5587 27.3655 50.445H27.3705ZM27.0062 47.0379C26.8065 46.9025 26.6069 46.7779 26.4023 46.6534C26.1478 46.8863 26.2975 47.3954 26.6868 47.3738C26.9063 47.3358 26.9962 47.1896 27.0012 47.0379H27.0062ZM24.6106 45.7488C24.4409 45.6784 24.2712 45.6134 24.1015 45.5484C24.1465 45.635 24.2014 45.7163 24.2163 45.8192C24.396 45.8409 24.5258 45.8084 24.6156 45.7488H24.6106ZM20.628 44.7684C20.5182 44.7576 20.4034 44.7521 20.2936 44.7467C20.4084 44.8117 20.5332 44.8226 20.628 44.7684ZM32.9751 65.1564C33.05 64.9127 33.1198 64.6744 33.1847 64.4252C32.8154 64.2789 32.5559 65.0102 32.9751 65.1564ZM33.4193 63.4069C33.3943 63.4448 33.3694 63.4827 33.3444 63.5315C33.3594 63.5369 33.3694 63.5531 33.3843 63.5639C33.3943 63.5098 33.4043 63.461 33.4143 63.4069H33.4193ZM30.4747 55.9591C30.5646 56.1541 30.6444 56.3436 30.7243 56.5386C30.7742 56.5278 30.8191 56.5224 30.864 56.5278C30.864 56.1486 30.7293 56.0132 30.4747 55.9591ZM12.6228 46.8754C12.528 46.9513 12.4381 47.0217 12.3483 47.0921C12.4581 47.0325 12.5729 46.9784 12.6827 46.9242C12.6627 46.9079 12.6478 46.8971 12.6228 46.8809V46.8754ZM23.0535 47.4225C23.1234 47.4604 23.1932 47.5038 23.2631 47.5417C23.2381 47.4983 23.2032 47.455 23.1583 47.4225C23.1234 47.4171 23.0884 47.4171 23.0535 47.4225ZM33.2845 56.9882C33.3394 56.9882 33.3843 56.9882 33.4293 56.9828C33.3794 56.7174 33.3195 56.4466 33.2546 56.1866C32.9052 56.3328 32.9452 56.907 33.2895 56.9936L33.2845 56.9882ZM27.8097 48.1321C27.9195 48.0346 28.0093 47.9533 28.1091 47.8667C27.9344 47.7258 27.7598 47.585 27.5851 47.4496C27.3156 47.6175 27.1709 48.04 27.8097 48.1321ZM31.6126 66.8031C31.5827 66.8085 31.5627 66.8193 31.5378 66.8302C31.4879 67.0089 31.428 67.1876 31.3681 67.3664C31.433 67.4693 31.5328 67.5668 31.6625 67.6318C32.1416 67.3339 32.1866 66.9222 31.6126 66.8031ZM32.3712 64.1544C32.2964 64.0135 32.2614 63.8673 32.2714 63.6994C32.1965 63.6994 32.1317 63.6939 32.0618 63.6885C32.0518 63.9431 32.0269 64.1977 32.0019 64.4469C32.1716 64.6635 32.3113 64.3385 32.3712 64.1489V64.1544ZM32.5409 66.3697C32.6058 66.2127 32.6657 66.0502 32.7206 65.8877C32.7056 65.8714 32.6906 65.8606 32.6807 65.8443C32.5509 65.5573 31.937 65.6331 32.0917 66.0068C32.1117 66.3535 32.3363 66.451 32.5409 66.3697ZM10.1124 48.5762C10.1124 48.5762 10.0975 48.5708 10.0925 48.5654C10.0426 48.6142 9.99267 48.6629 9.94775 48.7117C10.0027 48.6629 10.0625 48.625 10.1174 48.5762H10.1124ZM21.7659 46.7671C21.9555 46.8538 22.1502 46.9404 22.3398 47.0379C22.3448 47.0054 22.3548 46.9729 22.3598 46.935C22.1801 46.8104 21.9705 46.8267 21.7858 46.6967C21.7808 46.7238 21.7758 46.7454 21.7709 46.7671H21.7659ZM28.2938 52.0483C28.4984 52.0699 28.6381 52.0212 28.7978 51.9508C28.9675 51.3875 28.713 51.1383 28.2089 51.355C28.184 51.615 28.3237 51.8154 28.2938 52.0483ZM21.9306 45.1205C21.8407 45.0446 21.7609 44.9742 21.671 44.9038C21.6062 44.893 21.5463 44.8821 21.4814 44.8767C21.4065 44.9146 21.3267 44.9471 21.2418 44.9905C21.2269 45.1259 21.2119 45.2559 21.2019 45.3913C21.3017 45.5105 21.3866 45.5592 21.5213 45.6513C21.671 45.4888 21.9106 45.4455 21.9356 45.1259L21.9306 45.1205ZM29.0224 48.69C28.8727 48.5437 28.718 48.3975 28.5633 48.2567C28.5134 48.3542 28.4934 48.4842 28.5433 48.6196C28.693 49.015 28.8927 48.9175 29.0274 48.69H29.0224ZM33.6439 61.9119C33.6588 61.7548 33.6738 61.5977 33.6838 61.4352C33.3095 61.0236 32.6557 61.809 33.4293 62.0798C33.4991 62.0256 33.574 61.9769 33.6439 61.9119ZM31.9919 61.1861C32.2265 61.3756 32.4361 61.3377 32.6757 61.224C32.7805 60.444 32.0119 60.3736 31.9919 61.1861ZM23.5076 46.2959C23.2032 46.8267 23.5875 47.1679 24.0666 46.8809C24.0966 46.5125 23.842 46.1171 23.5076 46.2959ZM25.8633 46.3446C25.6537 46.2309 25.4391 46.1225 25.2245 46.0196C25.2195 46.025 25.2095 46.0305 25.2045 46.0359C24.96 46.4313 25.5439 46.6859 25.8034 46.4367C25.8283 46.4042 25.8433 46.3717 25.8583 46.3392L25.8633 46.3446ZM11.1655 47.6392C10.9958 47.7692 10.8311 47.9046 10.6664 48.0508C10.7063 48.0563 10.7513 48.0617 10.7912 48.0617C10.9259 47.9642 11.0557 47.8721 11.1905 47.78C11.1905 47.7258 11.1805 47.6771 11.1655 47.6392ZM32.0418 62.0852C32.0418 62.0852 32.0568 62.0581 32.0618 62.0365C32.0518 62.0365 32.0468 62.0256 32.0368 62.0202C32.0368 62.0419 32.0368 62.0636 32.0368 62.0798L32.0418 62.0852ZM29.5614 50.2987C29.4117 50.1471 29.252 50.055 29.0524 50.0658C28.5533 50.7645 29.3868 51.2683 29.5614 50.2987ZM17.2043 45.4671C17.1494 45.2884 17.0995 45.1259 17.0446 44.9471C16.8749 44.9796 16.7002 45.0175 16.5306 45.0555C16.4757 45.1205 16.4507 45.2017 16.4856 45.3046C16.5306 45.5375 16.5905 45.5646 16.86 45.4509C16.8749 45.5321 16.8849 45.5809 16.8949 45.6296C17.0596 45.673 17.1145 45.5321 17.1993 45.4617L17.2043 45.4671ZM33.2845 60.0648C33.6089 59.5448 33.1897 59.2253 32.7106 59.4582C32.6856 59.5773 32.6657 59.6532 32.6457 59.729C32.8104 59.9782 33.0899 59.9132 33.2845 60.0648ZM13.6409 46.0846C13.4563 46.1767 13.2716 46.2688 13.0869 46.3717C13.2367 46.4367 13.4014 46.4042 13.5361 46.4692C13.6709 46.3609 13.606 46.22 13.6459 46.0846H13.6409ZM29.5714 71.0876C29.7012 70.9468 29.8359 70.8005 29.9607 70.6543C29.9158 70.5839 29.8609 70.5351 29.796 70.4972C29.6612 70.6922 29.5165 70.8872 29.3668 71.0768C29.4217 71.1093 29.4916 71.1093 29.5664 71.0876H29.5714ZM30.9788 53.3699C30.9888 53.2562 30.9988 53.1587 31.0087 53.0666C30.9638 52.9854 30.9189 52.9041 30.869 52.812C29.8309 52.487 30.4797 53.7383 30.9788 53.3699ZM31.977 55.9699C32.0768 56.0241 32.1766 56.0782 32.2864 56.1378C32.3662 56.0836 32.4511 56.0241 32.5609 55.9536C32.5359 55.2441 31.8572 55.2062 31.977 55.9699ZM31.8522 54.2745C32.0169 54.1824 32.1666 54.1066 32.2015 53.9008C32.0219 53.6895 31.9919 53.6678 31.6825 53.5324C31.6675 53.9062 31.3132 54.0903 31.8522 54.2745ZM31.6276 52.0808C31.5428 51.9345 31.4579 51.7883 31.3681 51.642C31.3282 51.6258 31.2832 51.6041 31.2433 51.5879C30.7093 52.1404 31.393 52.5574 31.6276 52.0808ZM31.5028 57.4161C31.6076 57.2807 31.7124 57.1399 31.8272 56.9936C31.5228 56.1541 30.8441 57.1453 31.5028 57.4161ZM32.8953 54.9407C32.8404 54.7728 32.7805 54.6049 32.7206 54.437C32.6906 54.4478 32.6557 54.4587 32.6258 54.4641C32.5758 54.6699 32.6956 54.7999 32.7256 54.9787C32.8004 54.9678 32.8503 54.9624 32.9002 54.9407H32.8953Z"
            fill="#083B30" />
    </g>
    <path
        d="M45.3814 95.9889C44.9617 86.6096 51.6272 78.637 60.2691 78.1816C68.911 77.7261 76.2568 84.9603 76.6765 94.3396C77.0961 103.719 70.4306 111.691 61.7887 112.147C53.1468 112.602 45.801 105.368 45.3814 95.9889Z"
        fill="#2ACF83" />
    <path
        d="M55.0625 110.661C46.7435 108.08 41.927 98.669 44.3046 89.6402C46.6822 80.6114 55.3535 75.384 63.6725 77.9644C71.9915 80.5449 76.8079 89.956 74.4304 98.9848C72.0528 108.014 63.3815 113.241 55.0625 110.661Z"
        fill="#2ACF83" />
    <path
        d="M56.8762 111.394C58.059 111.595 59.2667 111.649 60.4895 111.557C64.7316 111.232 68.6044 109.13 71.3893 105.647C77.1436 98.4539 76.4299 87.5178 69.8022 81.2724C63.1695 75.0271 53.0982 75.8017 47.3438 82.9949C41.5895 90.1936 42.3032 101.124 48.9309 107.37C51.2166 109.525 53.9566 110.896 56.8762 111.394ZM61.7721 77.8004C64.532 78.2717 67.207 79.5554 69.4678 81.6841C75.886 87.729 76.5747 98.3184 71.005 105.284C68.305 108.659 64.5569 110.69 60.4495 111.01C56.3422 111.324 52.3695 109.883 49.2603 106.958C42.8422 100.913 42.1534 90.3236 47.7231 83.3578C51.3314 78.8458 56.6965 76.9392 61.7721 77.8004Z"
        fill="#083B30" />
    <path
        d="M57.1047 109.858C61.8758 110.67 66.9215 108.877 70.3152 104.636C75.5555 98.0875 74.9067 88.1318 68.8679 82.4443C62.834 76.7569 53.661 77.4611 48.4207 84.0152C43.1804 90.5638 43.8292 100.52 49.8681 106.207C51.9941 108.211 54.5095 109.419 57.1047 109.858ZM69.9309 104.273C64.8753 110.594 56.0267 111.277 50.1974 105.79C44.3732 100.303 43.7444 90.6938 48.8 84.3727C51.2505 81.3123 54.6492 79.4652 58.3773 79.1781C62.1054 78.8911 65.7087 80.1965 68.5335 82.856C74.3577 88.343 74.9865 97.952 69.9309 104.273Z"
        fill="#083B30" />
    <path
        d="M74.557 98.9192C75.1359 99.0763 75.6749 99.3471 76.154 99.7371C76.2888 99.8454 76.3087 100.084 76.1989 100.219C76.0791 100.36 75.8945 100.382 75.7547 100.268C75.7048 100.225 75.6499 100.187 75.595 100.143C75.5651 100.122 75.5351 100.1 75.5002 100.078C75.4453 100.04 75.5401 100.1 75.4753 100.062C75.3655 99.9917 75.2507 99.9213 75.1309 99.8617C75.0111 99.8021 74.8913 99.7479 74.7716 99.6992C74.7117 99.6775 74.6468 99.6559 74.5869 99.6342C74.6418 99.6504 74.5869 99.6342 74.562 99.6288C74.527 99.6179 74.4921 99.6071 74.4522 99.5963C74.2925 99.5529 74.1527 99.3959 74.1876 99.2063C74.2176 99.0384 74.3773 98.8759 74.547 98.9192H74.557Z"
        fill="#083B30" />
    <path
        d="M73.1004 102.662C73.6644 102.884 74.1934 103.226 74.6426 103.659C74.7673 103.778 74.8023 104 74.6875 104.141C74.5777 104.276 74.3731 104.32 74.2433 104.19C74.1385 104.087 74.0287 103.989 73.9139 103.903C73.854 103.854 73.7892 103.805 73.7293 103.762C73.7043 103.746 73.6843 103.729 73.6594 103.713C73.6294 103.691 73.6294 103.691 73.6594 103.713C73.6444 103.702 73.6294 103.691 73.6095 103.681C73.3649 103.523 73.1104 103.393 72.8459 103.291C72.6912 103.231 72.6163 102.993 72.6862 102.836C72.766 102.657 72.9357 102.597 73.1054 102.662H73.1004Z"
        fill="#083B30" />
    <path
        d="M70.6244 106.46C70.9288 106.893 71.2332 107.332 71.5377 107.765C71.6375 107.906 71.6075 108.144 71.4678 108.247C71.3231 108.35 71.1334 108.323 71.0236 108.171C70.7192 107.738 70.4147 107.299 70.1103 106.866C70.0105 106.725 70.0404 106.487 70.1802 106.384C70.3249 106.281 70.5146 106.308 70.6244 106.46Z"
        fill="#083B30" />
    <path
        d="M66.8162 109.307C66.8861 109.578 66.971 109.843 67.0808 110.103C67.1307 110.228 67.1905 110.353 67.2504 110.477C67.2504 110.483 67.2654 110.521 67.2704 110.521C67.2654 110.521 67.2405 110.461 67.2654 110.51C67.2804 110.537 67.2954 110.569 67.3103 110.596C67.3453 110.661 67.3802 110.726 67.4201 110.791C67.51 110.943 67.5 111.165 67.3503 111.273C67.2155 111.371 67.0009 111.36 66.9061 111.198C66.6116 110.688 66.3771 110.141 66.2273 109.556C66.2024 109.464 66.1974 109.378 66.2323 109.291C66.2623 109.215 66.3321 109.139 66.407 109.112C66.5567 109.058 66.7713 109.123 66.8162 109.307Z"
        fill="#083B30" />
    <path
        d="M63.2034 111.121C63.1784 111.175 63.1584 111.234 63.1385 111.294C63.1485 111.267 63.1534 111.234 63.1634 111.207C63.1385 111.305 63.1235 111.408 63.1185 111.511C63.1185 111.478 63.1185 111.451 63.1185 111.419C63.1185 111.521 63.1285 111.624 63.1485 111.722C63.1435 111.695 63.1335 111.662 63.1285 111.635C63.1435 111.7 63.1634 111.765 63.1884 111.83C63.1934 111.846 63.2034 111.863 63.2083 111.874C63.2333 111.928 63.1684 111.803 63.1984 111.857C63.2133 111.884 63.2333 111.917 63.2533 111.944C63.3531 112.09 63.3281 112.323 63.1834 112.426C63.0387 112.529 62.844 112.507 62.7392 112.35C62.4498 111.922 62.3949 111.321 62.6144 110.844C62.6893 110.682 62.874 110.584 63.0337 110.671C63.1834 110.752 63.2732 110.953 63.1934 111.126L63.2034 111.121Z"
        fill="#083B30" />
    <path
        d="M75.2659 94.8674C75.76 95.187 76.2541 95.5012 76.7482 95.8207C76.8879 95.9128 76.9877 96.097 76.9079 96.2757C76.838 96.4274 76.6434 96.5466 76.4887 96.4491C75.9946 96.1295 75.5005 95.8153 75.0064 95.4957C74.8667 95.4037 74.7669 95.2195 74.8467 95.0407C74.9166 94.8891 75.1112 94.7699 75.2659 94.8674Z"
        fill="#083B30" />
    <path
        d="M74.8963 90.6146C75.4253 90.8366 75.9494 91.0533 76.4784 91.2754C76.6331 91.3404 76.7129 91.5733 76.6381 91.7304C76.5582 91.9037 76.3836 91.9687 76.2189 91.9037C75.6898 91.6816 75.1658 91.465 74.6368 91.2429C74.4821 91.1779 74.4022 90.945 74.4771 90.7879C74.5569 90.6146 74.7316 90.5496 74.8963 90.6146Z"
        fill="#083B30" />
    <path
        d="M73.4301 86.2852C73.9391 86.3447 74.4382 86.5181 74.8874 86.7835C75.0321 86.8701 75.1269 87.0651 75.0471 87.2385C74.9722 87.3956 74.7826 87.5039 74.6279 87.4118C74.4182 87.2872 74.1987 87.1843 73.9741 87.1085C73.9641 87.1085 73.8792 87.0706 73.9541 87.1031C73.9242 87.0922 73.8942 87.0868 73.8643 87.076C73.8094 87.0597 73.7545 87.0435 73.6996 87.0326C73.5798 87.0056 73.455 86.9839 73.3353 86.9676C73.1706 86.946 73.0408 86.751 73.0707 86.5777C73.1057 86.3881 73.2554 86.2689 73.4301 86.2906V86.2852Z"
        fill="#083B30" />
    <path
        d="M70.6146 82.1657C71.0089 82.0899 71.4281 82.1549 71.7875 82.3445C71.9372 82.4203 72.022 82.6315 71.9472 82.7995C71.8723 82.962 71.6876 83.054 71.5279 82.9728C71.4481 82.9295 71.3632 82.8915 71.2734 82.8645C71.2984 82.8753 71.3283 82.8807 71.3533 82.8915C71.2135 82.8482 71.0688 82.8211 70.9241 82.8211C70.954 82.8211 70.979 82.8211 71.0089 82.8211C70.8991 82.8211 70.7943 82.8265 70.6845 82.8482C70.5198 82.8807 70.3451 82.7236 70.3352 82.5449C70.3252 82.3499 70.44 82.1982 70.6146 82.1657Z"
        fill="#083B30" />
    <path
        d="M58.262 111.352C58.257 111.39 58.252 111.423 58.252 111.461C58.252 111.428 58.252 111.401 58.252 111.369C58.252 111.428 58.257 111.482 58.2719 111.542C58.2669 111.515 58.257 111.482 58.252 111.455C58.2669 111.509 58.2869 111.564 58.3119 111.618C58.2969 111.591 58.2869 111.569 58.2719 111.542C58.2919 111.585 58.3169 111.623 58.3468 111.656C58.3717 111.694 58.3867 111.732 58.3967 111.775C58.4117 111.818 58.4117 111.862 58.4067 111.91C58.3967 111.992 58.3468 112.089 58.2819 112.132C58.212 112.181 58.1272 112.214 58.0473 112.192C58.0224 112.181 57.9924 112.176 57.9675 112.165C57.9176 112.138 57.8727 112.105 57.8427 112.057C57.7978 111.997 57.7629 111.932 57.7279 111.862C57.703 111.813 57.688 111.764 57.673 111.715C57.6531 111.639 57.6381 111.564 57.6331 111.488C57.6331 111.407 57.6331 111.325 57.6431 111.249C57.6581 111.163 57.703 111.076 57.7679 111.027C57.8327 110.979 57.9276 110.946 58.0024 110.968C58.0823 110.984 58.1621 111.027 58.2071 111.103C58.252 111.179 58.2769 111.266 58.262 111.358V111.352Z"
        fill="#083B30" />
    <path
        d="M65.6528 92.2145C65.6442 92.4387 65.5975 92.5976 65.5126 92.6911C65.4277 92.7847 65.3197 92.8499 65.1955 92.8894C65.0662 92.931 64.9395 92.9499 64.8172 92.9509C64.693 92.9473 64.5865 92.9151 64.5076 92.8501C64.4463 92.7995 64.3962 92.7336 64.3556 92.6478C64.3151 92.5619 64.2914 92.4746 64.2878 92.3791C64.2622 91.738 64.1436 91.1992 63.9218 90.7667C63.7051 90.3321 63.3798 89.9469 62.956 89.6069C62.4745 89.2257 61.979 88.9685 61.4625 88.8329C60.946 88.6973 60.4632 88.6881 60.0102 88.796C59.559 88.9085 59.1716 89.1352 58.8536 89.49C58.599 89.7707 58.4409 90.0877 58.3743 90.443C58.3096 90.803 58.3595 91.2296 58.5178 91.7363C58.681 92.2409 58.9726 92.8605 59.4025 93.5911C59.9051 94.3999 60.2371 95.1485 60.4038 95.8348C60.5704 96.5211 60.5917 97.137 60.4645 97.6891C60.3373 98.2413 60.0722 98.7415 59.6543 99.196C59.0993 99.8028 58.4606 100.217 57.7446 100.426C57.0305 100.64 56.2798 100.647 55.4976 100.447C54.7172 100.251 53.9392 99.8446 53.1653 99.2316C52.6977 98.8556 52.3003 98.451 51.9782 98.0161C51.6561 97.5811 51.4106 97.1474 51.2447 96.7085C51.0738 96.2715 50.9762 95.8426 50.9419 95.4258C50.9378 95.3144 50.9474 95.2082 50.9759 95.1052C51.0043 95.0022 51.049 94.9249 51.1043 94.8594C51.1892 94.7659 51.2871 94.7047 51.4013 94.6693C51.5155 94.6338 51.6322 94.6189 51.7513 94.6246C51.8705 94.6302 51.9739 94.6691 52.0578 94.7321C52.1523 94.8069 52.2167 94.8939 52.2592 94.9844C52.2966 95.0769 52.3221 95.212 52.3299 95.3757C52.3413 95.6349 52.429 95.9386 52.5795 96.2815C52.7318 96.6291 52.933 96.9676 53.1819 97.3083C53.4308 97.6491 53.7067 97.9413 54.0235 98.1899C54.8587 98.8534 55.6758 99.212 56.4815 99.2683C57.2872 99.3245 57.9651 99.0503 58.505 98.4496C58.8036 98.1188 58.9975 97.7604 59.073 97.3692C59.1534 96.9759 59.1005 96.5128 58.9172 95.9732C58.7339 95.4336 58.4117 94.7672 57.9506 93.9739C57.512 93.1931 57.2036 92.4887 57.0268 91.8496C56.8519 91.2151 56.8218 90.635 56.9332 90.1162C57.0447 89.5973 57.2972 89.1237 57.6957 88.6933C58.1935 88.1473 58.7982 87.7789 59.4997 87.592C60.2012 87.4051 60.94 87.3969 61.7059 87.5715C62.4719 87.7462 63.1955 88.1049 63.8698 88.645C64.2655 88.9587 64.5978 89.3034 64.8667 89.6792C65.1355 90.0549 65.3341 90.4591 65.4624 90.8917C65.5907 91.3244 65.6494 91.7583 65.6472 92.2006L65.6528 92.2145ZM64.323 87.2234C64.4437 87.0884 64.5662 87.0012 64.6886 86.9571C64.8091 86.9083 64.9295 86.9027 65.0474 86.9196C65.1621 86.9432 65.2673 86.9867 65.3619 87.0615C65.509 87.1797 65.584 87.3216 65.5937 87.49C65.6033 87.6583 65.5183 87.8381 65.3404 88.0339C64.7553 88.6529 64.0451 89.3816 63.2012 90.213C62.3591 91.049 61.4542 91.9319 60.4833 92.8685C59.5125 93.805 58.5385 94.7482 57.5613 95.6981C56.5841 96.6479 55.6616 97.5595 54.785 98.4256C53.9102 99.2964 53.1561 100.075 52.5244 100.767C52.3628 100.945 52.1964 101.04 52.017 101.058C51.8376 101.077 51.6847 101.031 51.5482 100.925C51.3923 100.8 51.3105 100.655 51.3008 100.487C51.2911 100.318 51.368 100.147 51.5245 99.9709C52.1562 99.2792 52.9104 98.5003 53.7851 97.6296C54.6599 96.7588 55.5893 95.8498 56.5614 94.902C57.5386 93.9521 58.5057 93.0064 59.4747 92.0652C60.4387 91.1261 61.3467 90.2365 62.1856 89.4071C63.0277 88.5711 63.7398 87.847 64.3249 87.228L64.323 87.2234Z"
        fill="#083B30" />
    <g opacity="0.3">
        <path
            d="M52.5227 83.629C52.353 83.6778 52.1784 83.6832 52.0187 83.7969C51.9887 84.0082 51.9987 84.1815 52.0736 84.3223C52.2732 84.1111 52.4778 83.9107 52.6824 83.7103C52.6375 83.6778 52.5876 83.6507 52.5277 83.629H52.5227ZM47.527 101.926C47.527 101.926 47.5569 101.932 47.5769 101.937C47.6817 102.208 47.8015 102.479 47.9262 102.739C47.4172 103.15 47.0529 102.273 47.532 101.926H47.527ZM53.5408 82.9303C53.4011 83.0494 53.2614 83.1686 53.1216 83.2932C53.1765 82.9249 53.3612 82.849 53.5408 82.9303ZM49.8427 87.1119C49.7129 87.3069 49.5882 87.5019 49.4634 87.7023C49.3686 87.426 49.4434 87.1931 49.8427 87.1119ZM48.1708 103.849C48.0676 103.625 48.0161 103.387 48.0161 103.134C48.041 103.112 48.066 103.102 48.0909 103.091C48.2357 103.372 48.3954 103.654 48.5651 103.93C48.4852 103.947 48.3604 103.925 48.1708 103.849ZM48.6649 86.2886C48.8495 85.9744 49.1041 85.8552 49.4434 86.0665C49.4883 86.1856 49.5283 86.3644 49.5432 86.5106C49.3187 86.7219 49.0841 86.8573 48.7647 86.6948C48.7297 86.5648 48.6948 86.424 48.6649 86.294V86.2886ZM52.937 82.5836C52.1384 82.6703 52.2033 81.6682 52.9469 81.7278C53.2614 81.9715 53.2713 82.3453 52.937 82.5836ZM48.7497 83.7265C48.9044 83.5424 49.0591 83.369 49.2188 83.1957C49.2338 83.2444 49.2438 83.2986 49.2388 83.3582C49.124 83.4882 48.9992 83.6182 48.8545 83.7861C48.8146 83.7699 48.7797 83.7482 48.7447 83.7319L48.7497 83.7265ZM58.851 80.0324C58.0425 79.4149 59.4549 78.6078 59.375 79.8157C59.2403 80.0595 59.0307 79.9999 58.851 80.0324ZM60.7076 79.572C60.8822 79.637 60.992 79.7237 61.0619 79.8212C60.8473 79.8266 60.6277 79.8428 60.4131 79.8645C60.498 79.7562 60.6028 79.6803 60.7126 79.5774L60.7076 79.572ZM46.3042 93.0214C46.4041 92.951 46.4789 92.8968 46.5488 92.8481C46.4639 92.3335 47.1626 92.5285 47.1876 92.9672C47.1626 93.0539 47.1427 93.146 47.1227 93.2326C47.1227 93.2326 47.1227 93.2435 47.1177 93.2435C46.7883 93.5576 46.5388 93.4114 46.3042 93.016V93.0214ZM50.9856 83.4449C50.9906 83.6128 50.9955 83.7428 51.0055 83.8944C50.8858 84.084 50.6262 84.0407 50.4266 84.1273C50.3168 84.0407 50.2569 83.9053 50.192 83.759C50.2569 83.6182 50.3218 83.4719 50.3867 83.3365C50.6163 83.2119 50.8159 83.2553 50.9856 83.4449ZM54.3294 81.5165C54.0998 81.977 53.5758 81.8686 53.5358 81.3432C53.5858 81.2241 53.6357 81.1157 53.6955 80.9857C54.0399 80.7528 54.3244 81.1536 54.3294 81.5165ZM51.4497 83.2769C51.3948 83.1253 51.3499 83.0169 51.31 82.9086C51.4048 82.6649 51.5695 82.5295 51.7991 82.4428C52.3331 82.7407 52.0436 83.6074 51.4447 83.2769H51.4497ZM58.2821 80.2816C58.0126 80.3628 57.748 80.4603 57.4785 80.5632C57.4636 79.8916 57.9427 79.7995 58.2821 80.2816ZM45.7902 91.6293C46.3442 90.8764 47.0429 92.2468 45.9199 92.2414C45.9249 91.9706 45.6005 91.8568 45.7902 91.6293ZM59.7244 78.7324C59.9589 78.7433 60.1885 78.7541 60.4231 78.7758C60.4281 78.8299 60.4331 78.8787 60.4381 78.9328C60.3682 79.0303 60.2933 79.1224 60.2235 79.2253C59.7793 79.3716 59.6495 79.0195 59.7244 78.7324ZM56.2808 79.4582C56.4355 79.8862 56.4504 80.3411 55.9065 80.2707C55.3774 79.9403 55.7867 79.2849 56.2808 79.4582ZM63.4625 80.027C63.3676 79.9349 63.2928 79.8266 63.183 79.7399C63.2528 79.5828 63.3077 79.4799 63.3826 79.3878C63.5723 79.4474 63.7569 79.5178 63.9466 79.5882C63.9466 79.7507 63.8767 79.9403 63.7869 80.1028C63.6771 80.0757 63.5673 80.0487 63.4575 80.027H63.4625ZM48.8545 85.1294C48.5301 86.1911 47.5619 85.3515 48.4203 84.7665C48.6399 84.8098 48.7647 84.9507 48.8545 85.1294ZM50.192 106.097C50.0972 106.016 50.0024 105.935 49.9076 105.848C49.7978 105.745 49.693 105.637 49.5832 105.528C49.6331 105.517 49.678 105.517 49.7229 105.523C49.8726 105.702 50.0323 105.875 50.192 106.048C50.192 106.065 50.192 106.086 50.192 106.102V106.097ZM45.0416 92.9889C45.0615 92.7126 45.0865 92.4364 45.1214 92.1601C45.5556 92.5176 45.3161 92.9185 45.0416 92.9889ZM49.119 88.2873C49.0541 88.401 48.9893 88.5148 48.9294 88.6285C48.8695 88.6664 48.8096 88.6989 48.7497 88.7369C48.6 88.6664 48.4652 88.6014 48.3205 88.5364C48.2007 87.8865 48.9443 87.7456 49.119 88.2873ZM47.4022 88.7206C47.6467 88.6989 47.8164 88.8127 47.9961 88.9644C48.1209 89.8527 46.7085 89.4735 47.4022 88.7206ZM45.6854 96.5855C45.8301 96.5259 45.9699 96.4663 46.0946 96.4122C46.2943 96.5151 46.2493 96.7426 46.3591 96.8672C46.3092 96.9917 46.2643 97.1055 46.2244 97.203C45.8151 97.4467 45.4408 97.0351 45.6854 96.5855ZM51.3649 84.4469C51.4946 84.5715 51.5944 84.6311 51.6843 84.734C51.5146 84.9236 51.3499 85.1132 51.1852 85.3136C51.1702 85.3027 51.1553 85.2973 51.1403 85.2811C50.8957 84.8965 50.8858 84.5607 51.3699 84.4469H51.3649ZM51.7292 81.0399C51.9288 80.9045 52.1285 80.7799 52.3331 80.6553C52.5876 80.8882 52.4379 81.3974 52.0486 81.3757C51.829 81.3378 51.7392 81.1916 51.7342 81.0399H51.7292ZM54.1248 79.7507C54.2944 79.6803 54.4641 79.6153 54.6338 79.5503C54.5889 79.637 54.534 79.7182 54.519 79.8212C54.3394 79.8428 54.2096 79.8103 54.1198 79.7507H54.1248ZM58.1074 78.7703C58.2172 78.7595 58.332 78.7541 58.4418 78.7487C58.327 78.8137 58.2022 78.8245 58.1074 78.7703ZM45.7602 99.1584C45.6854 98.9146 45.6155 98.6763 45.5506 98.4271C45.9199 98.2809 46.1795 99.0121 45.7602 99.1584ZM45.3161 97.4088C45.341 97.4467 45.366 97.4847 45.3909 97.5334C45.376 97.5388 45.366 97.5551 45.351 97.5659C45.341 97.5117 45.331 97.463 45.3211 97.4088H45.3161ZM48.2606 89.961C48.1708 90.156 48.0909 90.3456 48.0111 90.5406C47.9612 90.5298 47.9163 90.5243 47.8713 90.5298C47.8713 90.1506 48.0061 90.0152 48.2606 89.961ZM66.1126 80.8774C66.2074 80.9532 66.2972 81.0236 66.387 81.0941C66.2772 81.0345 66.1625 80.9803 66.0527 80.9261C66.0726 80.9099 66.0876 80.8991 66.1126 80.8828V80.8774ZM55.6819 81.4245C55.612 81.4624 55.5421 81.5057 55.4723 81.5436C55.4972 81.5003 55.5321 81.457 55.5771 81.4245C55.612 81.4191 55.6469 81.4191 55.6819 81.4245ZM45.4508 90.9902C45.3959 90.9902 45.351 90.9902 45.3061 90.9847C45.356 90.7193 45.4159 90.4485 45.4808 90.1885C45.8301 90.3348 45.7902 90.9089 45.4458 90.9956L45.4508 90.9902ZM50.9257 82.134C50.8159 82.0365 50.726 81.9553 50.6262 81.8686C50.8009 81.7278 50.9756 81.587 51.1503 81.4515C51.4198 81.6195 51.5645 82.042 50.9257 82.134ZM47.1227 100.805C47.1527 100.81 47.1726 100.821 47.1976 100.832C47.2475 101.011 47.3074 101.19 47.3673 101.368C47.3024 101.471 47.2026 101.569 47.0728 101.634C46.5937 101.336 46.5488 100.924 47.1227 100.805ZM46.3641 98.1563C46.439 98.0155 46.4739 97.8692 46.4639 97.7013C46.5388 97.7013 46.6037 97.6959 46.6736 97.6905C46.6835 97.9451 46.7085 98.1996 46.7334 98.4488C46.5638 98.6655 46.424 98.3405 46.3641 98.1509V98.1563ZM46.1944 100.372C46.1296 100.215 46.0697 100.052 46.0148 99.8896C46.0297 99.8734 46.0447 99.8625 46.0547 99.8463C46.1845 99.5592 46.7983 99.635 46.6436 100.009C46.6236 100.355 46.3991 100.453 46.1944 100.372ZM68.6229 82.5782C68.6229 82.5782 68.6379 82.5728 68.6429 82.5674C68.6928 82.6161 68.7427 82.6649 68.7876 82.7136C68.7327 82.6649 68.6728 82.6269 68.6179 82.5782H68.6229ZM56.9695 80.7691C56.7798 80.8557 56.5852 80.9424 56.3955 81.0399C56.3906 81.0074 56.3806 80.9749 56.3756 80.937C56.5553 80.8124 56.7649 80.8286 56.9495 80.6986C56.9545 80.7257 56.9595 80.7474 56.9645 80.7691H56.9695ZM50.4416 86.0502C50.237 86.0719 50.0972 86.0232 49.9375 85.9527C49.7678 85.3894 50.0224 85.1402 50.5264 85.3569C50.5514 85.6169 50.4116 85.8173 50.4416 86.0502ZM56.8048 79.1224C56.8946 79.0466 56.9745 78.9762 57.0643 78.9058C57.1292 78.8949 57.1891 78.8841 57.254 78.8787C57.3288 78.9166 57.4087 78.9491 57.4935 78.9924C57.5085 79.1278 57.5235 79.2578 57.5334 79.3932C57.4336 79.5124 57.3488 79.5612 57.214 79.6532C57.0643 79.4907 56.8248 79.4474 56.7998 79.1278L56.8048 79.1224ZM49.7129 82.6919C49.8626 82.5457 50.0174 82.3995 50.1721 82.2586C50.222 82.3561 50.2419 82.4861 50.192 82.6215C50.0423 83.0169 49.8427 82.9194 49.7079 82.6919H49.7129ZM45.0915 95.9138C45.0765 95.7568 45.0615 95.5997 45.0516 95.4372C45.4259 95.0255 46.0797 95.8109 45.3061 96.0818C45.2362 96.0276 45.1614 95.9788 45.0915 95.9138ZM46.7434 95.188C46.5089 95.3776 46.2992 95.3397 46.0597 95.2259C45.9549 94.4459 46.7235 94.3755 46.7434 95.188ZM55.2277 80.2978C55.5321 80.8286 55.1479 81.1699 54.6687 80.8828C54.6388 80.5145 54.8933 80.1191 55.2277 80.2978ZM52.8721 80.3466C53.0817 80.2328 53.2963 80.1245 53.5109 80.0216C53.5159 80.027 53.5259 80.0324 53.5309 80.0378C53.7754 80.4332 53.1915 80.6878 52.932 80.4386C52.907 80.4061 52.892 80.3736 52.8771 80.3411L52.8721 80.3466ZM67.5699 81.6411C67.7395 81.7711 67.9042 81.9065 68.0689 82.0528C68.029 82.0582 67.9841 82.0636 67.9442 82.0636C67.8094 81.9661 67.6796 81.874 67.5449 81.782C67.5449 81.7278 67.5549 81.679 67.5699 81.6411ZM46.6935 96.0872C46.6935 96.0872 46.6785 96.0601 46.6736 96.0384C46.6835 96.0384 46.6885 96.0276 46.6985 96.0222C46.6985 96.0438 46.6985 96.0655 46.6985 96.0818L46.6935 96.0872ZM49.1739 84.3007C49.3236 84.149 49.4833 84.0569 49.683 84.0678C50.1821 84.7665 49.3486 85.2702 49.1739 84.3007ZM61.531 79.4691C61.5859 79.2903 61.6358 79.1278 61.6907 78.9491C61.8604 78.9816 62.0351 79.0195 62.2048 79.0574C62.2597 79.1224 62.2846 79.2037 62.2497 79.3066C62.2048 79.5395 62.1449 79.5666 61.8754 79.4528C61.8604 79.5341 61.8504 79.5828 61.8405 79.6316C61.6758 79.6749 61.6209 79.5341 61.536 79.4637L61.531 79.4691ZM45.4508 94.0668C45.1264 93.5468 45.5456 93.2272 46.0248 93.4601C46.0497 93.5793 46.0697 93.6551 46.0896 93.731C45.9249 93.9801 45.6455 93.9151 45.4508 94.0668ZM65.0944 80.0866C65.2791 80.1787 65.4638 80.2707 65.6484 80.3736C65.4987 80.4386 65.334 80.4061 65.1992 80.4711C65.0645 80.3628 65.1294 80.222 65.0894 80.0866H65.0944ZM49.1639 105.09C49.0342 104.949 48.8994 104.802 48.7747 104.656C48.8196 104.586 48.8745 104.537 48.9394 104.499C49.0741 104.694 49.2188 104.889 49.3686 105.079C49.3137 105.111 49.2438 105.111 49.1689 105.09H49.1639ZM47.7565 87.3719C47.7466 87.2581 47.7366 87.1606 47.7266 87.0686C47.7715 86.9873 47.8164 86.9061 47.8663 86.814C48.9044 86.489 48.2556 87.7402 47.7565 87.3719ZM46.7584 89.9718C46.6586 90.026 46.5588 90.0802 46.449 90.1398C46.3691 90.0856 46.2843 90.026 46.1745 89.9556C46.1994 89.246 46.8782 89.2081 46.7584 89.9718ZM46.8832 88.2765C46.7185 88.1844 46.5687 88.1085 46.5338 87.9027C46.7135 87.6915 46.7434 87.6698 47.0529 87.5344C47.0678 87.9081 47.4222 88.0923 46.8832 88.2765ZM47.1077 86.0827C47.1926 85.9365 47.2774 85.7902 47.3673 85.644C47.4072 85.6277 47.4521 85.6061 47.492 85.5898C48.026 86.1423 47.3423 86.5594 47.1077 86.0827ZM47.2325 91.4181C47.1277 91.2827 47.0229 91.1418 46.9081 90.9956C47.2126 90.156 47.8913 91.1472 47.2325 91.4181ZM45.8401 88.9427C45.895 88.7748 45.9549 88.6069 46.0148 88.4389C46.0447 88.4498 46.0797 88.4606 46.1096 88.466C46.1595 88.6719 46.0397 88.8019 46.0098 88.9806C45.9349 88.9698 45.885 88.9644 45.8351 88.9427H45.8401Z"
            fill="#083B30" />
    </g>
</svg>