<svg width="316" height="271" viewBox="0 0 316 271" fill="none" xmlns="http://www.w3.org/2000/svg">
    <g clip-path="url(#clip0_2469_27567)">
        <path
            d="M94.9267 264.658C141.827 264.601 131.301 261.058 178.201 261.009C196.085 260.988 214.131 260.952 231.614 256.816C249.089 252.679 266.192 244.074 277.972 229.415C292.596 211.214 297.37 186.091 299.454 162.014C302.157 130.795 301.256 99.2009 296.764 68.2224C294.567 53.062 291.124 37.2156 281.422 26.0857C270.719 13.8103 254.525 9.61712 239.19 6.85939C187.727 -2.39668 134.934 -2.0007 83.3443 6.36442C67.3894 8.95244 50.7938 12.6648 38.3594 23.8654C23.9253 36.8692 17.6166 57.8774 15.6944 78.1715C13.7722 98.4655 15.5184 119.007 13.7722 139.315C11.8289 161.971 12.1387 189.93 13.3709 212.65C14.6101 235.369 33.0223 265.888 95.9266 264.658"
            fill="#74B7A7" fill-opacity="0.5" />
        <path
            d="M155.641 23.8223C155.402 23.8223 155.198 23.9849 155.148 24.2253C154.36 28.0154 148.276 57.3181 148.945 58.2585C149.656 59.2626 196.951 59.694 197.239 59.2626C197.528 58.8313 204.097 25.3991 203.098 24.6849C202.154 24.0061 160.246 23.8435 155.641 23.8223Z"
            fill="#DCF6E5" />
        <path
            d="M155.641 23.8225C155.641 23.8225 178.729 6.12351 182.362 6.03158C185.995 5.93966 203.091 24.8407 203.091 24.8407"
            fill="#DCF6E5" />
        <path
            d="M149.255 58.189C156.092 52.6311 162.71 46.8187 169.364 41.0486C169.794 40.6739 169.167 40.0516 168.745 40.4264C162.084 46.1964 155.472 52.0089 148.635 57.5667C148.192 57.9274 148.819 58.5496 149.255 58.189Z"
            fill="#498577" />
        <path
            d="M197.845 59.1787C192.726 53.4935 187.79 47.6457 182.672 41.9535C182.291 41.5292 181.672 42.1585 182.052 42.5757C187.171 48.2609 192.107 54.1087 197.225 59.8009C197.606 60.2252 198.225 59.5959 197.845 59.1787Z"
            fill="#498577" />
        <path
            d="M158.303 27.7182C158.303 27.7182 161.689 9.37572 163.189 9.12823C164.689 8.87367 199.718 9.38986 200.345 10.5212C200.971 11.6526 198.591 28.1636 198.591 28.1636C198.591 28.1636 179.207 43.6281 176.046 43.0059C172.885 42.3907 172.216 42.4331 170.075 40.2906C167.935 38.148 158.296 27.7182 158.296 27.7182H158.303Z"
            fill="#DCF6E5" />
        <path
            d="M155.177 24.7562C157.88 27.9665 160.661 31.1061 163.527 34.175C164.942 35.6882 166.372 37.1802 167.822 38.658C169.068 39.9238 170.294 41.2814 171.786 42.2643C175.004 44.3927 178.482 43.1623 181.475 41.2673C184.932 39.0823 188.248 36.6286 191.529 34.182C195.24 31.4172 198.866 28.5534 202.415 25.5836C202.851 25.2159 202.225 24.5936 201.795 24.9613C195.733 30.0313 189.424 34.8114 182.897 39.2662C179.912 41.3026 176.201 43.8624 172.589 41.7269C171.096 40.843 169.892 39.4995 168.681 38.2762C167.308 36.8832 165.949 35.469 164.611 34.0406C161.591 30.8162 158.655 27.514 155.803 24.134C155.437 23.7027 154.817 24.3249 155.184 24.7562H155.177Z"
            fill="#498577" />
        <path
            d="M159.112 27.6058C159.429 24.4733 160.098 21.3549 160.753 18.279C161.401 15.2313 162.091 12.1908 162.908 9.18555C162.767 9.29161 162.626 9.40475 162.485 9.51082C166.59 9.49668 170.695 9.51789 174.8 9.56032C181.517 9.62396 188.255 9.6876 194.958 10.1189C196.148 10.1967 197.338 10.2745 198.514 10.4442C198.887 10.4937 199.267 10.5573 199.633 10.6563C199.711 10.6776 199.964 10.7341 199.901 10.7341C200.056 10.7341 200.007 10.8826 199.908 10.6422C200.119 11.1584 200.971 10.9321 200.76 10.4088C200.563 9.92094 199.978 9.82195 199.514 9.72295C198.634 9.54617 197.732 9.46132 196.845 9.38354C193.846 9.11484 190.825 9.01584 187.812 8.92392C180.947 8.71178 174.075 8.65522 167.21 8.634C165.632 8.634 164.055 8.62693 162.478 8.634C162.288 8.634 162.105 8.76835 162.056 8.95927C161.218 12.0423 160.507 15.1748 159.852 18.3002C159.204 21.3761 158.549 24.4803 158.232 27.6128C158.176 28.1785 159.056 28.1715 159.112 27.6128V27.6058Z"
            fill="#498577" />
        <path
            d="M199.985 27.0753C200.38 21.7154 200.992 16.3767 201.394 11.0239C201.436 10.4582 200.556 10.4582 200.514 11.0239C200.119 16.3838 199.507 21.7225 199.105 27.0753C199.063 27.641 199.943 27.641 199.985 27.0753Z"
            fill="#498577" />
        <path
            d="M164.921 19.3252C166.358 19.007 167.752 18.5121 169.061 17.8262C169.906 17.3807 171.075 16.7301 171.026 15.6058C170.991 14.7715 170.23 14.2058 169.463 14.0926C168.554 13.9583 167.759 14.5098 167.484 15.3796C166.696 17.8827 169.484 19.1485 171.469 19.2616C173.539 19.3818 177.518 18.7383 177.996 16.1857C178.405 14.0007 175.645 13.2936 174.567 15.026C173.194 17.2322 176.018 19.2828 177.898 19.5727C180.081 19.9121 183.143 19.3747 184.89 17.9464C186.241 16.8433 186.706 14.1138 184.728 13.3219C183.756 12.933 182.728 13.4704 182.242 14.3472C181.665 15.3937 181.911 16.617 182.742 17.4443C185.333 20.0394 189.079 17.3241 192.071 17.6635C192.635 17.7272 192.628 16.8433 192.071 16.7796C190.382 16.5887 188.833 17.1968 187.206 17.5221C185.77 17.812 182.869 17.7625 182.791 15.6412C182.763 14.8917 183.404 13.8946 184.256 14.0926C184.918 14.2482 185.199 15.0402 185.192 15.6483C185.171 17.3029 183.249 17.9817 181.932 18.3282C180.468 18.7171 178.834 19 177.349 18.5404C176.581 18.2999 175.842 17.8474 175.434 17.1332C174.955 16.313 175.081 15.0967 176.18 14.9129C177.363 14.7149 177.271 16.2069 176.701 16.8221C176.088 17.4797 175.117 17.8262 174.279 18.0666C172.751 18.4979 170.681 18.6676 169.266 17.7837C168.526 17.3241 167.949 16.3342 168.393 15.4715C168.892 14.5028 170.61 15.0897 169.927 16.1362C169.47 16.8291 168.266 17.2534 167.541 17.5645C166.611 17.9605 165.654 18.2504 164.668 18.4696C164.112 18.5899 164.351 19.4455 164.9 19.3252H164.921Z"
            fill="#498577" />
        <path
            d="M164.435 23.1163C174.652 23.2224 184.868 23.3284 195.085 23.4345C195.648 23.4345 195.655 22.5577 195.085 22.5506C184.868 22.4446 174.652 22.3385 164.435 22.2324C163.872 22.2324 163.865 23.1092 164.435 23.1163Z"
            fill="#498577" />
        <path
            d="M164.935 26.7491C174.279 26.8269 183.615 26.9047 192.959 26.9825C193.522 26.9825 193.529 26.1057 192.959 26.0986C183.615 26.0208 174.279 25.943 164.935 25.8652C164.372 25.8652 164.365 26.7421 164.935 26.7491Z"
            fill="#498577" />
        <path
            d="M168.435 30.3695C173.941 30.2988 179.447 30.2281 184.946 30.1574C185.509 30.1503 185.516 29.2664 184.946 29.2735C179.44 29.3442 173.934 29.4149 168.435 29.4856C167.871 29.4927 167.864 30.3766 168.435 30.3695Z"
            fill="#498577" />
        <path
            d="M28.8611 156.102C28.6569 156.102 28.4879 156.243 28.4456 156.441C27.7838 159.616 22.6861 184.188 23.2423 184.973C23.8408 185.814 63.4887 186.175 63.7281 185.814C63.9675 185.454 69.4806 157.424 68.6427 156.823C67.8471 156.257 32.7125 156.116 28.854 156.102H28.8611Z"
            fill="#DCF6E5" />
        <path
            d="M28.8611 156.102C28.8611 156.102 48.2168 141.26 51.2655 141.182C54.3143 141.104 68.6497 156.95 68.6497 156.95"
            fill="#DCF6E5" />
        <path
            d="M23.5592 184.966C29.2906 180.306 34.8389 175.434 40.4224 170.597C40.8519 170.223 40.2252 169.6 39.8028 169.975C34.2193 174.812 28.6709 179.684 22.9396 184.344C22.496 184.704 23.1226 185.327 23.5592 184.966Z"
            fill="#498577" />
        <path
            d="M64.2984 185.695C60.0104 180.929 55.8703 176.022 51.5753 171.256C51.1951 170.832 50.5755 171.461 50.9557 171.878C55.2437 176.644 59.3838 181.552 63.6788 186.318C64.059 186.742 64.6786 186.113 64.2984 185.695Z"
            fill="#498577" />
        <path
            d="M31.0931 159.369C31.0931 159.369 33.9306 143.99 35.1909 143.778C36.4513 143.566 65.8193 143.997 66.3403 144.944C66.8613 145.892 64.8687 159.737 64.8687 159.737C64.8687 159.737 48.6181 172.698 45.9707 172.182C43.3233 171.666 42.76 171.701 40.9645 169.905C39.1691 168.109 31.0931 159.362 31.0931 159.362V159.369Z"
            fill="#DCF6E5" />
        <path
            d="M28.4245 156.93C30.7058 159.631 33.0434 162.276 35.4585 164.864C36.6484 166.137 37.8454 167.388 39.0635 168.633C40.1126 169.7 41.1546 170.846 42.422 171.666C45.0483 173.363 47.907 172.43 50.3713 170.903C53.3285 169.064 56.152 166.957 58.9472 164.878C62.0734 162.552 65.1363 160.126 68.1287 157.63C68.5652 157.262 67.9386 156.64 67.5091 157.008C62.4677 161.222 57.2363 165.196 51.8147 168.894C49.3011 170.613 46.1678 172.847 43.112 171.051C41.8517 170.309 40.8378 169.17 39.8168 168.131C38.6762 166.971 37.5496 165.797 36.4372 164.609C33.9024 161.908 31.4451 159.136 29.0582 156.308C28.6921 155.876 28.0725 156.499 28.4386 156.93H28.4245Z"
            fill="#498577" />
        <path
            d="M31.8464 159.271C32.114 156.64 32.6773 154.031 33.2265 151.45C33.7686 148.904 34.346 146.359 35.029 143.848C34.8881 143.954 34.7473 144.068 34.6065 144.174C38.0496 144.167 41.4856 144.181 44.9286 144.216C50.5614 144.273 56.2083 144.322 61.827 144.683C62.8339 144.746 63.8478 144.817 64.8476 144.959C65.1433 145.001 65.4461 145.051 65.7348 145.128C65.8052 145.15 66.0164 145.22 65.9601 145.199C66.1009 145.256 65.9812 145.213 65.9601 145.178C66.1854 145.701 66.9388 145.248 66.7205 144.732C66.5656 144.372 65.9953 144.28 65.6644 144.216C64.911 144.061 64.1294 143.99 63.3619 143.926C60.8694 143.707 58.3699 143.622 55.8703 143.544C50.1037 143.368 44.3372 143.318 38.5706 143.297C37.2469 143.297 35.9232 143.297 34.5924 143.297C34.4023 143.297 34.2193 143.431 34.17 143.622C33.4659 146.217 32.8674 148.848 32.3182 151.478C31.776 154.059 31.2339 156.661 30.9593 159.285C30.9029 159.85 31.7831 159.843 31.8394 159.285L31.8464 159.271Z"
            fill="#498577" />
        <path
            d="M66.115 158.831C66.4459 154.341 66.9599 149.865 67.2908 145.368C67.3331 144.802 66.4529 144.802 66.4107 145.368C66.0798 149.858 65.5658 154.334 65.2349 158.831C65.1926 159.397 66.0727 159.397 66.115 158.831Z"
            fill="#498577" />
        <path
            d="M36.6625 152.396C37.9369 152.113 39.1761 151.668 40.3238 151.038C41.0279 150.649 41.9221 150.062 41.8235 149.129C41.6475 147.524 39.331 147.51 38.7818 148.867C37.951 150.904 40.2041 152.177 41.8799 152.332C43.6753 152.495 47.0127 152.014 47.6253 149.928C48.1604 148.111 46.0129 147.1 44.83 148.486C43.3585 150.211 45.6257 152.226 47.231 152.566C49.111 152.962 51.8358 152.495 53.3637 151.286C54.5677 150.338 55.0184 148.019 53.3285 147.262C51.3641 146.378 50.2234 149.193 51.3289 150.579C53.3708 153.145 56.8561 150.748 59.4049 151.017C59.9682 151.074 59.9611 150.19 59.4049 150.133C57.5954 149.942 55.983 150.876 54.2086 150.897C53.3426 150.904 52.3498 150.649 51.8851 149.843C51.4979 149.179 51.8851 147.778 52.8709 148.033C53.5538 148.21 53.6876 149.2 53.4905 149.758C53.2088 150.564 52.2935 150.989 51.5472 151.25C50.146 151.738 48.3928 152.099 46.9494 151.583C46.1256 151.286 44.992 150.395 45.3299 149.362C45.4496 149.009 45.8721 148.648 46.2664 148.698C47.1395 148.811 46.8226 149.836 46.4283 150.246C45.2877 151.42 42.9923 151.689 41.4644 151.406C40.6688 151.257 39.7605 150.869 39.5493 149.999C39.4507 149.603 39.5 149.037 39.9084 148.818C40.183 148.669 40.7744 148.775 40.9012 149.108C41.3729 150.338 37.1765 151.399 36.4231 151.569C35.8739 151.689 36.1062 152.544 36.6554 152.424L36.6625 152.396Z"
            fill="#498577" />
        <path
            d="M36.233 155.579C44.8019 155.671 53.3637 155.756 61.9326 155.848C62.4959 155.848 62.5029 154.971 61.9326 154.964C53.3637 154.872 44.8019 154.787 36.233 154.695C35.6697 154.695 35.6627 155.572 36.233 155.579Z"
            fill="#498577" />
        <path
            d="M36.6554 158.626C44.485 158.69 52.3146 158.76 60.1513 158.824C60.7145 158.824 60.7216 157.947 60.1513 157.94C52.3217 157.877 44.4921 157.806 36.6554 157.742C36.0922 157.742 36.0851 158.619 36.6554 158.626Z"
            fill="#498577" />
        <path
            d="M39.5915 161.666C44.2034 161.61 48.8223 161.546 53.4341 161.489C53.9974 161.482 54.0045 160.598 53.4341 160.606C48.8223 160.662 44.2034 160.726 39.5915 160.782C39.0283 160.789 39.0212 161.673 39.5915 161.666Z"
            fill="#498577" />
        <path
            d="M104.7 176.637C104.7 176.637 90.3642 186.062 89.6037 183.835C89.3996 183.234 97.0038 171.545 97.0038 171.545C97.0038 171.545 88.4772 164.213 90.2586 163.392C92.0399 162.572 101.102 163.216 101.102 163.216C101.102 163.216 104.876 149.773 106.474 152.644C108.079 155.515 107.974 164.729 107.974 164.729C107.974 164.729 121.211 159.524 119.451 162.233C117.69 164.941 110.459 171.835 110.459 171.835C110.459 171.835 118.035 182.301 115.768 182.223C113.501 182.145 104.707 176.629 104.707 176.629L104.7 176.637Z"
            fill="#2D7766" />
        <path
            d="M59.3275 210.945C59.1303 210.945 58.9613 211.08 58.9261 211.271C58.2783 214.375 53.3074 238.353 53.8496 239.124C54.434 239.944 93.1313 240.297 93.3636 239.944C93.596 239.59 98.9753 212.232 98.1586 211.645C97.3841 211.094 63.0944 210.952 59.3275 210.945Z"
            fill="#DCF6E5" />
        <path
            d="M58.9472 211.172C60.7005 213.597 62.5241 215.98 64.3688 218.335C65.9108 220.3 67.4809 222.245 69.1285 224.126C70.4381 225.632 71.79 227.159 73.332 228.425C74.1136 229.069 75.0218 229.797 76.085 229.472C77.4017 229.069 78.6268 228.121 79.7393 227.343C83.5978 224.649 87.238 221.623 90.85 218.61C93.4129 216.468 95.9618 214.304 98.4684 212.098C98.8979 211.723 98.2712 211.101 97.8488 211.476C92.392 216.27 86.8437 221.029 81.0067 225.356C79.6337 226.375 78.2325 227.414 76.7258 228.227C75.7471 228.75 75.3668 228.828 74.4445 228.178C72.98 227.145 71.7407 225.724 70.5508 224.402C68.9736 222.648 67.4739 220.824 66.0023 218.985C63.8478 216.284 61.7425 213.533 59.7147 210.733C59.3838 210.281 58.6234 210.719 58.9543 211.179L58.9472 211.172Z"
            fill="#498577" />
        <path
            d="M54.1594 239.123C59.757 234.577 65.1715 229.818 70.6142 225.101C71.0437 224.727 70.417 224.104 69.9946 224.479C64.5448 229.203 59.1303 233.961 53.5398 238.501C53.0962 238.862 53.7228 239.484 54.1594 239.123Z"
            fill="#498577" />
        <path
            d="M93.9199 239.824C89.7305 235.171 85.696 230.384 81.5066 225.731C81.1264 225.307 80.5068 225.936 80.887 226.353C85.0764 231.006 89.1109 235.793 93.3003 240.446C93.6805 240.87 94.3001 240.241 93.9199 239.824Z"
            fill="#498577" />
        <path
            d="M51.8922 37.3984C51.7232 37.3984 51.5753 37.5186 51.5401 37.6813C50.9839 40.3683 46.6748 61.1149 47.1465 61.7796C47.6535 62.4938 81.1405 62.7978 81.3376 62.4938C81.5418 62.1897 86.1959 38.5157 85.4848 38.0066C84.8159 37.5257 55.1451 37.4126 51.8851 37.3984H51.8922Z"
            fill="#DCF6E5" />
        <path
            d="M51.5119 37.6174C53.0328 39.7246 54.61 41.7893 56.2153 43.8329C58.5811 46.8523 61.0032 50.1332 63.9886 52.5728C64.6716 53.1314 65.4672 53.7607 66.3896 53.4849C67.5232 53.1455 68.5793 52.3324 69.5369 51.6606C72.8955 49.3201 76.0639 46.6826 79.2042 44.0592C81.4221 42.2065 83.6259 40.3327 85.8016 38.4164C86.2311 38.0417 85.6045 37.4194 85.182 37.7942C80.4645 41.9449 75.6626 46.0603 70.6142 49.8009C69.4313 50.6777 68.2202 51.5758 66.9177 52.2758C66.0868 52.7213 65.7911 52.792 65.0095 52.2475C63.7703 51.3778 62.7142 50.1757 61.7073 49.0514C60.3273 47.524 59.0176 45.933 57.7362 44.3279C55.8633 41.9803 54.0397 39.5973 52.2724 37.1648C51.9414 36.7123 51.181 37.1507 51.5119 37.6103V37.6174Z"
            fill="#498577" />
        <path
            d="M47.4563 61.8213C52.3005 57.8898 56.9828 53.7673 61.6932 49.6873C62.1227 49.3126 61.4961 48.6903 61.0736 49.0651C56.3632 53.1522 51.6739 57.2675 46.8367 61.1991C46.3931 61.5597 47.0198 62.182 47.4563 61.8213Z"
            fill="#498577" />
        <path
            d="M81.8657 62.3445C78.2396 58.321 74.7472 54.1774 71.1211 50.1468C70.7409 49.7226 70.1213 50.3519 70.5015 50.7691C74.1276 54.7926 77.62 58.9362 81.2461 62.9668C81.6263 63.391 82.2459 62.7617 81.8657 62.3445Z"
            fill="#498577" />
        <path
            d="M132.385 22.4082C132.385 22.4082 134.546 33.0431 132.751 32.7603C132.265 32.6825 125.844 25.4205 125.844 25.4205C125.844 25.4205 118.416 29.4439 118.599 28.0721C118.782 26.7003 123.168 20.6828 123.168 20.6828C123.168 20.6828 114.564 13.244 117.127 13.2299C119.697 13.2157 125.787 16.3836 125.787 16.3836C125.787 16.3836 127.738 6.49818 128.822 8.49223C129.906 10.4863 131.54 17.2533 131.54 17.2533C131.54 17.2533 141.616 16.129 140.63 17.4937C139.644 18.8585 132.378 22.4082 132.378 22.4082H132.385Z"
            fill="#2D7766" />
        <path
            d="M254.588 35.1856C254.588 35.1856 272.48 36.7908 271.177 39.5273C270.825 40.2627 256.25 47.0792 256.25 47.0792C256.25 47.0792 259.095 60.875 257.011 59.9274C254.926 58.9799 247.477 49.0945 247.477 49.0945C247.477 49.0945 231.585 59.3122 232.782 55.1969C233.979 51.0815 241.908 42.8436 241.908 42.8436C241.908 42.8436 227.164 35.0159 230.846 34.231C234.529 33.4461 246.034 34.0684 246.034 34.0684C246.034 34.0684 249.047 17.423 250.744 19.6434C252.441 21.8707 254.595 35.1856 254.595 35.1856H254.588Z"
            fill="#2D7766" />
        <path
            d="M200.577 45.042C200.577 45.042 299.045 44.2005 307.093 45.6359C315.148 47.0714 317.303 50.2463 315.296 57.8336C313.613 64.2046 258.32 257.847 256.757 262.054C254.441 268.277 249.857 270.999 243.9 270.999C238.457 270.999 142.249 270.61 129.308 270.129C126.928 270.044 122.788 267.64 124.203 260.661C125.949 252.056 189.473 62.748 191.353 54.6092C193.36 45.9046 200.57 45.042 200.57 45.042H200.577Z"
            fill="#18A88B" />
        <path
            d="M202.696 53.1104C201.316 53.1104 200.07 54.0013 199.514 55.3873C190.966 76.9046 133.61 248.068 135.391 248.294C137.292 248.534 248.132 248.294 248.132 248.294L303.319 59.6653C304.023 57.254 303.53 52.9336 300.601 52.9336L202.703 53.1104H202.696Z"
            fill="#DCF6E5" />
        <path
            d="M174.138 156.957L170.174 166.588C171.117 166.192 262.629 169.614 262.629 169.614C262.629 169.614 265.495 161.263 265.784 159.255C266.072 157.247 174.138 156.957 174.138 156.957Z"
            fill="#498577" />
        <path
            d="M168.914 174.225L165.639 182.3C166.583 181.904 257.947 186.931 257.947 186.931C257.947 186.931 260.813 178.58 261.101 176.572C261.39 174.557 168.921 174.225 168.921 174.225H168.914Z"
            fill="#498577" />
        <path
            d="M156.543 213.25L153.268 221.325C154.212 220.929 245.576 225.957 245.576 225.957C245.576 225.957 248.442 217.606 248.73 215.598C249.019 213.582 156.55 213.25 156.55 213.25H156.543Z"
            fill="#498577" />
        <path
            d="M163.865 188.854L159.57 202.494C160.514 202.098 252.244 205.322 252.244 205.322C252.244 205.322 256.187 192.616 256.468 190.6C256.757 188.585 163.865 188.854 163.865 188.854Z"
            fill="#498577" />
        <path
            d="M184.728 125.497C184.728 125.497 274.698 124.012 273.275 125.653C271.853 127.293 265.812 151.738 265.812 151.738L174.42 149.164L184.728 125.497Z"
            fill="#498577" />
        <path
            d="M190.248 110.951C190.248 110.951 277.084 111.524 276.401 112.047C275.718 112.57 275.718 118.1 275.035 118.524C274.353 118.956 187.445 118.107 187.445 118.107L190.248 110.951Z"
            fill="#498577" />
        <path
            d="M194.001 99.9004C194.001 99.9004 280.837 100.473 280.154 100.996C279.471 101.52 279.471 107.049 278.788 107.474C278.105 107.905 191.198 107.056 191.198 107.056L194.001 99.9004Z"
            fill="#498577" />
        <path
            d="M230.381 62.8118C230.262 62.8118 230.156 62.8966 230.135 63.0098C229.741 64.9048 226.699 79.5703 227.03 80.037C227.389 80.539 251.047 80.7582 251.195 80.539C251.335 80.3269 254.624 63.5967 254.124 63.236C253.652 62.8966 232.684 62.8118 230.381 62.8047V62.8118Z"
            fill="#18A88B" />
        <path
            d="M230.001 63.031C231.079 64.523 232.198 65.9867 233.332 67.4363C235.007 69.5718 236.725 71.9052 238.838 73.6376C239.345 74.0548 239.922 74.5003 240.612 74.3235C241.408 74.1185 242.161 73.5316 242.823 73.072C245.224 71.4102 247.484 69.5293 249.723 67.6555C251.307 66.3332 252.877 64.9968 254.434 63.632C254.863 63.2573 254.236 62.635 253.814 63.0098C250.498 65.9231 247.132 68.8152 243.583 71.4456C242.753 72.0608 241.908 72.6901 240.999 73.1922C240.408 73.5174 240.253 73.5881 239.697 73.1922C238.824 72.577 238.084 71.7214 237.366 70.9294C236.416 69.8687 235.507 68.7727 234.62 67.6555C233.296 66.0009 232.008 64.3109 230.762 62.5926C230.431 62.14 229.67 62.5784 230.001 63.0381V63.031Z"
            fill="#083B30" />
        <path
            d="M227.34 80.165C230.762 77.386 234.071 74.4727 237.401 71.5877C237.831 71.2129 237.204 70.5907 236.782 70.9655C233.451 73.8505 230.142 76.7638 226.72 79.5427C226.277 79.9033 226.903 80.5256 227.34 80.165Z"
            fill="#083B30" />
        <path
            d="M251.652 80.3485C249.089 77.506 246.625 74.5785 244.062 71.7289C243.682 71.3046 243.062 71.9339 243.443 72.3511C246.005 75.1937 248.47 78.1211 251.033 80.9708C251.413 81.3951 252.033 80.7657 251.652 80.3485Z"
            fill="#083B30" />
        <path
            d="M123.922 264.339C126.027 264.388 128.132 264.431 130.237 264.473C135.715 264.586 141.186 264.693 146.664 264.784C154.24 264.919 161.816 265.046 169.399 265.152C177.813 265.272 186.234 265.371 194.648 265.442C202.64 265.506 210.624 265.548 218.616 265.527C224.911 265.513 231.212 265.47 237.507 265.279C239.626 265.216 241.746 265.138 243.865 264.99C245.104 264.905 246.393 264.848 247.604 264.558C248.935 264.247 249.216 262.847 249.667 261.687C250.765 258.845 251.716 255.946 252.666 253.053C254.194 248.422 255.673 243.776 257.137 239.123C259.024 233.113 260.89 227.095 262.735 221.078C264.903 214.007 267.058 206.936 269.198 199.851C271.543 192.108 273.867 184.365 276.19 176.615C278.598 168.568 280.999 160.514 283.4 152.467C285.773 144.477 288.146 136.493 290.512 128.503C292.751 120.944 294.983 113.378 297.208 105.819C299.2 99.052 301.193 92.2778 303.185 85.5108C304.833 79.8963 306.481 74.289 308.128 68.6745C309.325 64.5874 310.522 60.5003 311.719 56.4132C312.36 54.2141 313.001 52.015 313.648 49.8159C313.726 49.5401 313.81 49.2643 313.888 48.9886C314.05 48.4441 313.198 48.2107 313.036 48.7552C312.705 49.9007 312.367 51.0462 312.036 52.1918C311.099 55.3879 310.17 58.584 309.234 61.7802C307.804 66.6663 306.375 71.5524 304.939 76.4315C303.115 82.647 301.291 88.8554 299.461 95.0709C297.348 102.248 295.229 109.432 293.11 116.61C290.807 124.395 288.505 132.18 286.195 139.965C283.816 147.998 281.422 156.031 279.028 164.057C276.669 171.976 274.296 179.889 271.916 187.801C269.677 195.24 267.431 202.679 265.171 210.111C263.164 216.715 261.144 223.312 259.095 229.91C257.419 235.319 255.729 240.714 254.004 246.11C252.772 249.956 251.526 253.81 250.202 257.628C249.54 259.538 248.906 261.574 248.04 263.285C247.998 263.377 247.942 263.462 247.892 263.547C247.843 263.625 247.892 263.568 247.878 263.575C247.878 263.575 247.829 263.611 247.723 263.632C247.554 263.674 247.393 263.724 247.224 263.752C245.97 264.014 244.654 264.07 243.365 264.155C238.317 264.48 233.247 264.537 228.192 264.594C220.862 264.678 213.532 264.678 206.203 264.643C197.866 264.608 189.523 264.53 181.186 264.431C173.089 264.332 164.992 264.219 156.895 264.084C150.29 263.978 143.679 263.858 137.074 263.731C133.209 263.653 129.336 263.575 125.471 263.498C124.957 263.483 124.436 263.476 123.922 263.462C123.358 263.448 123.358 264.332 123.922 264.346V264.339Z"
            fill="#083B30" />
        <path
            d="M235.683 49.3058H257.011C257.574 49.3058 257.581 48.4219 257.011 48.4219H235.683C235.12 48.4219 235.113 49.3058 235.683 49.3058Z"
            fill="#083B30" />
        <path
            d="M225.819 89.5263C232.24 89.6677 238.662 89.8021 245.076 89.9435C245.991 89.9647 246.907 89.9859 247.822 90.0001C250.089 90.0496 250.089 86.514 247.822 86.4645C241.401 86.3231 234.979 86.1887 228.565 86.0473C227.65 86.0261 226.734 86.0049 225.819 85.9907C223.552 85.9413 223.552 89.4768 225.819 89.5263Z"
            fill="#18A88B" />
        <path
            d="M88.5898 196.611C88.3645 196.611 88.1815 196.767 88.1322 196.986C87.3999 200.508 81.753 227.703 82.3726 228.58C83.0345 229.513 126.935 229.909 127.196 229.513C127.463 229.11 133.561 198.082 132.631 197.417C131.751 196.788 92.8567 196.633 88.5828 196.618L88.5898 196.611Z"
            fill="#2ACF83" />
        <path
            d="M88.2096 196.831C90.2163 199.602 92.2864 202.318 94.3987 205.012C96.1096 207.19 97.8488 209.339 99.6724 211.432C101.179 213.165 102.728 214.926 104.502 216.382C105.369 217.096 106.389 217.938 107.572 217.57C109.086 217.103 110.487 216.022 111.769 215.124C116.148 212.062 120.281 208.625 124.379 205.203C127.266 202.792 130.132 200.352 132.955 197.87C133.385 197.495 132.758 196.873 132.336 197.248C126.125 202.707 119.803 208.123 113.156 213.052C111.6 214.204 110.023 215.378 108.312 216.29C107.206 216.877 106.742 216.941 105.699 216.198C104.059 215.032 102.665 213.455 101.327 211.963C99.5316 209.969 97.8276 207.897 96.1519 205.804C93.6946 202.721 91.2936 199.588 88.9841 196.399C88.6532 195.947 87.8928 196.385 88.2237 196.845L88.2096 196.831Z"
            fill="#083B30" />
        <path
            d="M82.6824 228.531C89.0264 223.376 95.1732 217.974 101.348 212.621C101.778 212.246 101.151 211.624 100.729 211.999C94.5465 217.351 88.4068 222.754 82.0628 227.909C81.6193 228.269 82.2459 228.892 82.6824 228.531Z"
            fill="#083B30" />
        <path
            d="M127.787 229.408C123.034 224.126 118.458 218.702 113.705 213.42C113.325 212.996 112.705 213.625 113.085 214.043C117.838 219.325 122.415 224.748 127.167 230.03C127.548 230.455 128.167 229.825 127.787 229.408Z"
            fill="#083B30" />
        <path
            d="M244.323 124.035C244.055 124.035 243.823 124.219 243.766 124.488C242.879 128.759 236.028 161.752 236.782 162.806C237.584 163.937 290.835 164.418 291.152 163.937C291.476 163.449 298.876 125.81 297.75 125.004C296.687 124.24 249.498 124.056 244.316 124.035H244.323Z"
            fill="#2ACF83" />
        <path
            d="M243.942 124.254C246.35 127.577 248.836 130.844 251.371 134.068C253.455 136.72 255.581 139.35 257.792 141.896C259.616 143.989 261.482 146.11 263.622 147.892C264.671 148.762 265.931 149.823 267.368 149.349C269.199 148.741 270.881 147.461 272.444 146.365C277.746 142.653 282.752 138.488 287.716 134.337C289.955 132.463 292.18 130.575 294.391 128.673C295.56 127.669 296.799 126.707 297.898 125.633C297.947 125.583 298.01 125.534 298.06 125.491C298.489 125.116 297.862 124.494 297.44 124.869C294.757 127.224 292.047 129.543 289.322 131.848C284.358 136.041 279.352 140.206 274.134 144.067C272.254 145.46 270.346 146.874 268.283 147.977C267.818 148.225 267.121 148.599 266.678 148.621C266.143 148.649 265.551 148.246 265.101 147.928C263.094 146.535 261.404 144.611 259.778 142.815C257.581 140.383 255.497 137.851 253.448 135.285C250.498 131.586 247.709 127.768 244.844 124.006C244.794 123.943 244.752 123.879 244.703 123.815C244.372 123.363 243.612 123.801 243.942 124.261V124.254Z"
            fill="#083B30" />
        <path
            d="M237.092 162.691C244.787 156.433 252.237 149.886 259.735 143.394C260.165 143.02 259.538 142.397 259.116 142.772C251.617 149.27 244.168 155.818 236.472 162.069C236.028 162.43 236.655 163.052 237.092 162.691Z"
            fill="#083B30" />
        <path
            d="M291.807 163.88C286.048 157.48 280.485 150.89 274.726 144.491C274.345 144.066 273.726 144.696 274.106 145.113C279.866 151.519 285.428 158.102 291.188 164.502C291.568 164.926 292.187 164.297 291.807 163.88Z"
            fill="#083B30" />
        <g opacity="0.3">
            <path
                d="M267.051 152.659C267.269 151.952 268.283 152.786 268.846 152.807C269.48 153.571 268.607 153.931 268.058 154.306C266.974 154.193 266.847 153.642 267.051 152.659ZM260.792 146.853C260.32 147.454 261.27 147.773 261.651 148.098C262.312 147.956 262.51 147.476 262.742 147.058C262.214 145.955 261.383 145.637 260.792 146.86V146.853ZM282.252 138.092C281.788 138.184 282.055 138.969 282.076 139.436C282.731 139.294 283.393 139.973 284.013 139.414C283.879 139.224 283.78 139.082 283.682 138.941C284.224 137.894 282.9 137.689 282.252 138.085V138.092ZM263.974 154.455C264.847 154.306 264.819 153.295 264.382 152.68C263.073 151.471 262.319 154.349 263.974 154.455ZM269.255 155.848C269.705 155.565 270.177 155.218 270.67 154.829C270.529 154.716 270.339 154.61 270.1 154.462C269.213 154.596 269.015 155.31 269.255 155.848ZM272.881 145.58C273.036 145.319 273.099 145.078 273.099 144.866C272.691 145.17 272.289 145.46 271.895 145.743C272.184 145.793 272.529 145.715 272.881 145.58ZM279.866 144.93C280.077 144.661 280.288 144.4 280.492 144.131C280.147 144.173 279.887 144.428 279.866 144.93ZM272.958 152.793C272.818 152.595 272.592 152.432 272.261 152.376C271.156 152.913 271.811 153.231 271.656 154.009C272.085 153.634 272.515 153.231 272.958 152.793ZM260.454 144.781C260.221 144.117 259.714 144.117 259.25 144.074C257.679 145.559 259.89 147.037 260.454 144.781ZM276.408 144.067C275.486 144.152 275.211 145.786 276.261 145.934C277.479 145.736 277.711 144.364 276.408 144.067ZM261.89 150.262C258.89 151.068 263.15 153.776 262.474 150.962C262.284 150.735 262.115 150.537 261.89 150.262ZM265.826 156.555C266.291 156.244 266.755 156.046 266.974 155.522C265.896 153.931 265.023 154.363 265.298 156.159C265.467 156.286 265.629 156.406 265.826 156.555ZM252.42 138.587C252.561 138.863 252.701 139.132 252.835 139.393C253.497 139.605 253.835 139.238 254.138 138.736C254.025 138.326 253.863 137.922 253.68 137.548H252.8C252.725 137.996 252.596 138.34 252.413 138.58L252.42 138.587ZM284.506 137.095C285.576 137.526 286.315 136.204 285.491 135.532C285.351 135.455 285.217 135.412 285.097 135.398C284.822 135.631 284.534 135.865 284.238 136.112C284.175 136.438 284.245 136.812 284.513 137.102L284.506 137.095ZM254.659 141.09C255.032 141.225 255.314 141.578 255.736 141.55C256.384 140.716 256.447 140.525 255.616 139.818C255.011 139.16 254.053 140.73 254.659 141.09ZM278.19 146.189C278.141 146.578 277.774 146.726 277.542 147.044C277.634 147.207 277.732 147.334 277.831 147.433C278.183 147.016 278.528 146.592 278.873 146.167C278.669 146.033 278.436 146.005 278.19 146.189ZM274.852 143.65C274.866 143.608 274.888 143.572 274.902 143.53C274.845 143.572 274.796 143.608 274.74 143.65H274.852ZM277.577 142.653C278.014 143.176 278.105 143.82 278.957 143.791C279.246 143.459 279.309 143.028 279.464 142.575C279.162 142.229 278.788 142.137 278.436 141.96C278.091 142.109 277.732 142.229 277.584 142.653H277.577ZM250.836 135.575C250.786 135.575 250.751 135.596 250.709 135.603C250.941 136.049 251.195 136.515 251.448 136.989C251.448 136.989 251.455 136.989 251.462 136.989C252.849 136.72 251.772 135.547 250.836 135.575ZM288.526 132.527C288.554 132.633 288.596 132.739 288.639 132.838C289.019 132.266 289.216 131.94 289.181 131.969C289.146 131.997 288.913 132.195 288.526 132.52V132.527ZM250.068 134.139C249.977 133.97 249.871 133.857 249.758 133.779C249.85 133.949 249.934 134.118 250.026 134.302C250.04 134.253 250.061 134.196 250.068 134.147V134.139ZM271.121 147.582C271.022 147.186 270.86 146.846 270.67 146.606C270.234 146.91 269.818 147.179 269.424 147.44C269.832 147.949 270.691 148.041 271.121 147.589V147.582ZM264.65 149.25C264.763 148.26 264.037 148.536 263.411 148.31C263.207 148.663 263.024 148.982 262.855 149.286C262.939 149.66 263.143 149.887 263.425 150.035C263.974 149.95 264.256 149.491 264.65 149.25ZM279.859 140.334C279.957 141.232 280.929 142.179 281.45 140.984C282.013 139.902 280.351 139.351 279.859 140.334ZM275 147.504C275.268 146.535 275.141 146.309 274.205 146.026C273.627 146.542 273.148 147.164 273.902 147.794C274.141 147.186 274.592 147.773 275 147.504ZM259.996 150.014C260.158 149.618 260.299 149.286 260.432 148.96C259.806 148.246 259.637 148.232 258.743 148.812C258.7 148.982 258.721 149.158 258.771 149.314C258.89 149.491 259.017 149.668 259.137 149.837C259.376 150.035 259.693 150.134 259.996 150.007V150.014ZM274.529 150.283C274.205 150.41 273.867 150.544 273.529 150.679C273.494 151.16 273.395 151.591 273.86 151.888C274.212 151.52 274.571 151.145 274.93 150.757C274.838 150.587 274.712 150.424 274.529 150.283ZM270.684 151.93C271.163 151.145 270.776 150.615 269.931 150.488C268.818 151.372 269.283 152.503 270.684 151.93ZM258.271 146.882C258.137 146.606 258.165 146.217 257.729 146.189C257.468 146.238 257.187 146.372 256.975 146.585C257.229 146.988 257.482 147.384 257.743 147.78C258.116 147.567 258.524 147.348 258.271 146.882ZM287.378 133.489C287.09 133.729 286.78 133.984 286.442 134.274C286.498 134.564 286.597 134.811 286.597 135.151C286.709 135.207 286.829 135.264 286.956 135.327C287.252 134.896 287.533 134.493 287.78 134.132C287.801 134.026 287.829 133.92 287.857 133.814C287.674 133.715 287.533 133.588 287.385 133.489H287.378ZM276.514 148.225C276.247 148.416 275.972 148.614 275.683 148.812C275.768 149.151 275.887 149.378 276.021 149.54C276.338 149.18 276.655 148.819 276.972 148.444C276.852 148.359 276.704 148.282 276.514 148.218V148.225ZM248.949 130.943C248.688 130.632 248.463 130.363 248.266 130.123C248.237 130.18 248.209 130.229 248.174 130.286C248.322 130.689 248.632 130.915 248.942 130.943H248.949ZM271.402 149.137C271.811 150.658 273.937 149.745 272.86 148.529C272.149 148.359 271.797 148.798 271.402 149.137ZM266.903 151.485C266.361 150.566 264.72 150.134 265.368 151.697C265.819 152.319 266.783 152.333 266.903 151.485ZM268.107 149.71V149.696C269.41 149.873 268.882 148.402 267.98 148.31C267.769 148.43 267.565 148.536 267.382 148.628C267.192 149.095 267.424 149.901 268.107 149.71ZM256.243 145.128C256.109 144.718 255.863 144.47 255.595 144.357C255.778 144.668 255.968 144.979 256.159 145.283C256.187 145.234 256.208 145.184 256.243 145.128ZM250.674 133.001C250.61 132.923 250.54 132.845 250.476 132.768C250.476 132.768 250.476 132.775 250.476 132.782C250.533 132.888 250.603 132.951 250.674 133.001ZM258.376 143.021C258.179 142.25 256.778 141.918 256.433 142.865C256.926 143.763 257.708 143.551 258.376 143.021Z"
                fill="#083B30" />
        </g>
        <path
            d="M106.896 48.5575C107.256 47.1291 106.854 45.5947 106.629 44.1593C106.333 42.2854 106.101 40.3762 105.643 38.5307C105.305 37.1518 103.327 37.7528 103.559 39.1105C103.862 40.85 104.369 42.5612 104.812 44.2653C105.2 45.7432 105.439 47.3978 106.382 48.6211C106.516 48.7979 106.833 48.812 106.896 48.5504V48.5575Z"
            fill="#18A88B" />
        <path
            d="M114.297 50.8066C115.754 49.4631 116.698 47.7307 117.641 45.9983C118.535 44.3578 120 42.4556 120.415 40.6101C120.612 39.7191 119.472 38.8847 118.789 39.6555C117.493 41.1263 116.775 43.481 115.944 45.2346C115.113 47.0024 114.289 48.7489 114.057 50.7005C114.043 50.8278 114.219 50.8773 114.297 50.7995V50.8066Z"
            fill="#18A88B" />
        <path
            d="M120 55.5365C123.21 55.2678 126.027 53.3162 129.012 52.2555C130.716 51.6474 129.554 49.0947 128.069 50.014C125.351 51.6969 122.049 52.8919 119.936 55.381C119.887 55.4375 119.915 55.5436 120 55.5365Z"
            fill="#18A88B" />
        <path
            d="M151.6 248.98C147.291 218.652 154.177 193.295 154.177 193.295L211.835 184.973C211.835 184.973 231.557 204.241 231.487 204.56C231.487 204.56 246.421 226.084 246.421 248.98"
            fill="#083B30" />
        <path
            d="M188.53 230.928C190.903 237.017 193.501 243.02 195.895 249.101C196.099 249.624 196.951 249.398 196.747 248.868C194.353 242.787 191.762 236.783 189.382 230.695C189.178 230.172 188.326 230.398 188.53 230.928Z"
            fill="#18A88B" />
        <path
            d="M188.635 230.475C185.009 229.11 181.383 227.738 177.75 226.373C177.222 226.175 176.99 227.024 177.518 227.229C181.144 228.594 184.77 229.966 188.403 231.33C188.931 231.528 189.163 230.673 188.635 230.475Z"
            fill="#18A88B" />
        <path
            d="M198.556 194.363C201.971 198.726 206.52 202.537 211.997 203.866C216.982 205.075 222.573 204.071 226.361 200.472C226.776 200.083 226.15 199.454 225.741 199.85C222.052 203.357 216.525 204.213 211.723 202.883C206.604 201.469 202.408 197.856 199.176 193.74C198.824 193.295 198.204 193.924 198.556 194.363Z"
            fill="#18A88B" />
        <path
            d="M151.719 215.917C159.098 213.336 163.992 206.194 163.689 198.345C163.668 197.779 162.788 197.772 162.809 198.345C163.091 205.791 158.5 212.614 151.48 215.068C150.952 215.252 151.177 216.107 151.712 215.924L151.719 215.917Z"
            fill="#18A88B" />
        <path
            d="M139.637 75.7871C141.369 80.4186 141.425 85.7432 139.693 90.403C137.982 95.0063 134.427 98.4005 130.836 101.561C125.189 106.532 119.345 112.338 120.007 120.519C120.063 121.212 121.098 121.24 121.105 120.519C121.197 109 131.047 104.595 137.342 96.6468C142.193 90.5303 142.911 82.8087 139.679 75.7588C139.665 75.7376 139.63 75.7588 139.637 75.78V75.7871Z"
            fill="#083B30" />
        <path
            d="M150.741 54.4825C146.699 56.5826 143.003 59.8848 140.566 64.3254C138.13 68.7732 137.053 74.4159 138.13 79.5919C139.01 83.8417 141.278 87.752 141.158 92.129C141.017 97.1848 137.764 101.244 134.518 104.433C131.272 107.622 128.505 111.292 126.224 115.534C123.175 121.198 122.056 132.229 131.779 133.912L164.478 131.19V51.7318C159.81 51.2863 155.05 52.2409 150.741 54.4754V54.4825Z"
            fill="#083B30" />
        <path
            d="M53.3356 118.306C53.3356 118.306 85.2665 140.622 102.792 144.186C120.317 147.75 154.606 142.602 154.606 142.602L160.556 114.233C160.556 114.233 110.508 119.147 106.066 118.037C101.63 116.92 72.1914 104.319 65.6432 102.742C60.6723 101.547 49.632 115.152 53.3285 118.313L53.3356 118.306Z"
            fill="#18A88B" />
        <path
            d="M147.34 128.107C137.806 128.475 128.139 127.853 118.613 127.633C105.171 127.315 91.7301 126.955 78.3029 126.375C74.1347 126.198 69.9594 126.007 65.8052 125.646C65.2701 125.597 65.1433 126.502 65.6784 126.594C74.8951 128.157 84.8018 127.676 94.11 127.959C107.671 128.376 121.239 128.687 134.814 128.828C138.989 128.871 143.172 128.913 147.347 128.715C147.734 128.694 147.734 128.1 147.347 128.114L147.34 128.107Z"
            fill="#DCF6E5" />
        <path
            d="M19.5951 66.4824C19.1515 66.4824 18.7713 66.7865 18.6798 67.2249C17.2152 74.2536 5.9426 128.588 7.18182 130.334C8.50553 132.194 96.1941 132.993 96.7292 132.194C97.2573 131.395 109.445 69.4028 107.593 68.0734C105.84 66.8148 28.1288 66.5107 19.6021 66.4824H19.5951Z"
            fill="#2ACF83" />
        <path
            d="M19.2149 66.7009C23.1438 72.1244 27.2064 77.4631 31.3465 82.7311C34.8037 87.1364 38.3312 91.4993 42.0066 95.7278C44.9779 99.1431 48.0337 102.601 51.512 105.514C53.1807 106.914 55.2226 108.682 57.5179 107.89C60.5526 106.851 63.3338 104.736 65.9319 102.905C74.6698 96.7602 82.9289 89.8941 91.1246 83.0352C96.68 78.3894 102.186 73.6872 107.636 68.9142C107.727 68.8364 107.819 68.7586 107.903 68.6808C108.333 68.306 107.706 67.6838 107.284 68.0586C102.806 71.9972 98.2712 75.8651 93.7157 79.7117C85.5129 86.6414 77.2327 93.5216 68.5934 99.8997C65.5235 102.17 62.3903 104.489 59.0036 106.264C58.215 106.674 57.1729 107.232 56.3491 107.261C55.3986 107.296 54.3776 106.575 53.5961 106.03C50.2798 103.697 47.4775 100.529 44.7737 97.5309C41.1406 93.5004 37.6905 89.3072 34.3038 85.0646C29.4666 79.0046 24.7632 72.8316 20.1936 66.5666C20.1161 66.4676 20.0457 66.3615 19.9683 66.2625C19.6374 65.81 18.8769 66.2484 19.2079 66.708L19.2149 66.7009Z"
            fill="#083B30" />
        <path
            d="M7.48458 129.938C17.2645 121.99 26.8121 113.766 36.3245 105.5C39.1409 103.053 41.9573 100.6 44.7808 98.16C45.2103 97.7852 44.5836 97.163 44.1611 97.5377C34.6347 105.79 25.1716 114.112 15.5043 122.202C12.6386 124.599 9.76587 126.968 6.86498 129.322C6.42139 129.683 7.04804 130.305 7.48458 129.945V129.938Z"
            fill="#083B30" />
        <path
            d="M97.5882 132.307C90.3008 124.21 83.2176 115.93 76.0217 107.756C73.846 105.281 71.6562 102.82 69.4524 100.373C69.0722 99.9491 68.4526 100.578 68.8328 100.996C76.1202 109.092 83.2035 117.372 90.3994 125.547C92.575 128.021 94.7648 130.482 96.9686 132.929C97.3488 133.353 97.9685 132.724 97.5882 132.307Z"
            fill="#083B30" />
        <g opacity="0.3">
            <path
                d="M33.4659 91.1167C33.4307 90.4237 33.5081 89.4126 34.4446 89.4762C36.3034 90.4803 33.3391 92.4319 33.4659 91.1167ZM79.9083 98.6262C80.2392 98.2019 80.5631 97.7777 80.887 97.3605C80.7391 97.2615 80.5842 97.1766 80.4223 97.0918C79.3873 97.4383 79.4858 98.1807 79.9083 98.6262ZM68.1639 105.747C68.4808 107.281 69.903 106.864 69.9171 105.57C69.727 104.552 68.2625 104.792 68.1639 105.747ZM75.8456 101.433C75.4795 101.794 76.0217 102.204 76.2118 102.522C76.3526 102.699 76.5075 102.742 76.6765 102.72C76.9511 102.381 77.2186 102.049 77.4932 101.709C77.1905 101.016 76.4653 100.748 75.8527 101.433H75.8456ZM65.6714 114.303C65.8122 113.971 65.9319 113.674 66.0727 113.334C64.3829 110.972 63.4535 114.925 65.6714 114.303ZM44.5977 108.462C45.6257 106.8 43.3937 106.857 43.0346 107.607C43.281 107.967 43.5204 108.321 43.7598 108.667C44.0485 108.596 44.3231 108.526 44.5907 108.462H44.5977ZM40.9645 103.64C40.8026 103.371 40.5562 103.173 40.2816 102.933C40.183 102.933 40.0985 102.954 40.021 102.975C40.2323 103.314 40.4505 103.654 40.6618 103.993C40.7181 103.894 40.8026 103.809 40.9645 103.64ZM91.3288 82.0728C91.3006 82.4405 91.2936 82.5748 91.364 82.8082C91.6175 82.4263 91.8569 82.0798 92.0681 81.7546C91.8146 81.8606 91.5682 81.9667 91.3218 82.0728H91.3288ZM77.6481 100.161C77.6693 100.493 77.9157 100.698 78.2185 100.783C78.5705 100.337 78.9226 99.8849 79.2746 99.4394C78.7747 99.0505 77.7538 99.4394 77.6481 100.161ZM74.3459 99.2697C73.5784 99.7152 73.7474 100.847 74.698 100.811C76.3526 100.875 75.4795 98.8242 74.3459 99.2697ZM42.6685 98.4777C43.4359 97.3746 41.1828 96.6039 41.1898 97.9332C41.0631 98.7676 42.3375 99.503 42.6685 98.4777ZM71.8604 98.3999C71.9449 98.5626 72.0365 98.7535 72.1491 98.9656C75.1979 98.9091 72.5223 95.5149 71.8604 98.3999ZM26.2559 77.9927C26.4882 78.4594 26.7488 78.9756 27.0234 79.5342C27.6923 78.2897 26.9811 77.4341 26.2559 77.9927ZM41.1828 101.9C41.1124 102.706 42.4572 103.343 42.7037 102.501C43.0205 101.052 41.8024 100.486 41.1828 101.9ZM32.5435 85.3325C32.8322 85.3113 32.9941 85.0851 33.0575 84.7951C32.7406 84.4204 32.4238 84.0527 32.121 83.692C31.3958 84.0527 31.1635 85.4245 32.5435 85.3255V85.3325ZM54.617 108.137C54.9691 108.872 56.1168 108.971 56.1168 107.904C56.1027 107.797 56.0816 107.698 56.0534 107.614C55.7013 107.713 55.4197 107.748 55.2085 107.706C55.0536 107.677 54.8635 107.599 54.6522 107.486C54.603 107.67 54.5818 107.882 54.617 108.144V108.137ZM60.3202 106.03C60.63 106.525 61.2215 106.298 61.6299 106.666C63.2775 105.174 60.5667 104.156 60.3202 106.03ZM57.5742 108.674C56.8138 109.332 56.0816 109.947 57.2292 110.569C57.7151 110.845 57.9615 110.209 58.2291 109.905C58.6304 109.36 57.8981 109.084 57.5742 108.674ZM52.2442 107.104C50.1953 106.779 50.0545 108.915 52.2724 108.292C52.5892 107.896 52.7089 107.529 52.2442 107.104ZM64.9391 106.708C65.9953 106.793 66.5445 105.216 65.2912 105.167C64.1928 104.962 63.9464 106.369 64.9391 106.708ZM32.5857 89.3419C32.7547 89.2429 32.9308 89.1368 33.1068 89.0378C33.1561 88.762 33.1983 88.5004 33.2124 88.4226C32.9096 88.0337 32.6773 87.7438 32.4801 87.4892C31.8112 87.4892 31.8887 88.0973 31.593 88.3448C31.7197 88.5782 31.8464 88.8115 31.9732 89.0519C32.1351 89.1934 32.3323 89.2994 32.5787 89.3489L32.5857 89.3419ZM65.0518 110.661C67.2063 109.495 64.5448 107.5 64.2421 110.06C64.4885 110.244 64.7561 110.442 65.0518 110.661ZM49.111 113.115C49.0476 113.327 48.9842 113.546 48.9209 113.758C50.4981 116.226 51.6246 111.573 49.111 113.115ZM78.479 93.0118C79.9224 92.9481 79.5844 91.9087 78.9719 91.5268C78.5916 91.8309 78.2044 92.142 77.8242 92.4461C77.9509 92.7289 78.1692 92.8845 78.486 93.0118H78.479ZM78.831 95.1967C78.0143 95.4301 78.0636 95.5149 77.8453 96.215C78.0213 97.9403 80.6828 96.1372 78.831 95.1967ZM86.893 88.8681C87.3506 88.4438 86.8155 88.0903 86.6606 87.6024C85.5481 87.369 85.4214 88.2458 85.7101 89.1085C86.3297 89.4691 86.5339 89.3631 86.893 88.861V88.8681ZM67.1007 102.925C66.1291 103.314 65.5869 104.212 66.8543 104.594C68.1076 104.884 68.0301 103.435 67.1007 102.925ZM55.645 110.697C55.1615 110.852 54.8377 111.161 54.6734 111.623C54.7931 111.8 54.9268 111.998 55.0677 112.196C55.3211 112.259 55.5746 112.323 55.8844 112.401C56.7223 111.906 56.4407 111.029 55.645 110.697ZM68.5653 108.943C68.4315 109.254 68.3047 109.565 68.178 109.855C68.2625 110.074 68.3329 110.265 68.4033 110.449C68.868 110.484 69.2834 110.527 69.6918 110.414C69.9101 109.608 69.558 108.589 68.5653 108.943ZM71.4521 104.531C71.5295 104.205 71.607 103.901 71.6844 103.576C69.6707 101.787 69.6073 105.697 71.4521 104.531ZM67.9104 100.118C67.5654 100.38 67.2204 100.634 66.8754 100.882C66.9388 100.903 66.9881 100.938 67.0655 100.946C67.5161 100.79 67.8048 100.521 67.9104 100.118ZM53.6947 108.695C52.6878 108.971 52.3428 110.173 53.406 110.548C54.3354 110.088 54.7367 109.275 53.6947 108.695ZM66.6571 112.365C67.6922 112.691 68.354 111.333 67.3753 110.817C66.4177 110.506 65.8685 111.786 66.6571 112.365ZM56.1027 118.694C55.5957 118.185 55.2014 118.439 54.7367 118.772C53.8425 120.115 56.7012 120.709 56.1027 118.694ZM59.5457 116.254C61.306 115.816 58.6304 113.334 58.6867 115.286C58.5882 115.83 58.9261 116.438 59.5457 116.254ZM89.7305 85.1982C90.0403 84.7527 90.329 84.3285 90.6106 83.9254C90.505 83.8547 90.3994 83.784 90.2797 83.7062C89.1391 84.0102 89.2165 84.8941 89.7375 85.1982H89.7305ZM49.0969 110.23C49.7728 110.831 50.0052 110.739 50.5966 109.933C50.3431 108.349 48.7871 108.681 49.0969 110.23ZM66.6712 106.963C66.0868 106.963 66.5093 107.819 66.2628 108.109C66.5867 108.66 67.0374 108.575 67.5373 108.49C67.6781 108.229 67.8189 107.953 67.9386 107.727C67.6992 107.076 67.1289 107.119 66.6712 106.956V106.963ZM35.0079 93.5987C34.8037 93.5209 34.5854 93.436 34.339 93.3441C34.5643 93.7542 34.7966 94.1573 35.029 94.5674C34.8741 94.2421 35.1487 93.9451 35.0008 93.5987H35.0079ZM36.4653 95.4937C36.1344 95.5503 35.895 95.6564 35.726 95.7907C35.9725 96.215 36.2189 96.6463 36.4653 97.0706C37.2187 96.9221 37.437 95.4796 36.4653 95.4937ZM48.3857 108.307C48.6322 107.713 48.5407 106.956 47.738 106.822C46.4847 107.55 46.9212 108.992 48.3857 108.307ZM73.8038 95.6281C73.7474 96.0382 74.1628 96.1726 74.191 96.5685C76.7891 97.5514 75.4725 94.3694 73.8038 95.6281ZM45.9425 110.591C46.2101 110.393 46.4776 110.18 46.8226 109.919C46.6748 109.608 46.548 109.353 46.4002 109.056C45.0131 108.49 44.5836 110.209 45.9355 110.591H45.9425ZM59.5739 111.934C60.8835 111.022 58.4755 110.195 58.3769 111.545C58.2995 112.372 60.2428 113.037 59.5739 111.934ZM30.2059 85.7285C30.4312 86.1599 30.6636 86.5912 30.8959 87.0367C31.0931 86.8033 31.1705 86.4922 31.2198 86.1599C30.7128 85.7215 30.4875 85.6012 30.1988 85.7285H30.2059ZM53.7087 116.445C53.4553 116.898 52.7582 116.891 52.7653 117.598C52.9765 117.944 53.1736 118.355 53.7862 118.298C54.6241 117.923 54.3565 116.962 53.7087 116.445ZM75.8456 98.1878C75.9583 98.407 76.071 98.6121 76.1766 98.8171C76.6835 98.902 77.1623 99.001 77.4369 98.4424C77.3665 98.1525 77.2961 97.8696 77.2186 97.5585C76.9652 97.4312 76.7117 97.2968 76.4582 97.1696C75.9794 97.4312 76.0217 97.8484 75.8456 98.1878ZM45.8721 101.144C45.675 101.278 45.4567 101.426 45.2595 101.554C45.1962 101.808 45.1398 102.042 45.0765 102.317C45.7454 103.046 45.8862 103.053 46.5551 102.459C46.5903 101.943 46.5692 101.285 45.8721 101.136V101.144ZM29.1638 81.2525C28.9174 80.7222 29.1145 79.9585 28.502 79.7252C28.1992 79.909 27.8824 80.0999 27.5866 80.2767C27.5585 80.4535 27.5866 80.6161 27.65 80.7717C27.6852 80.8424 27.7204 80.9131 27.7627 80.9909C28.0725 81.4576 28.7062 81.6839 29.1638 81.2525ZM63.9534 107.423C63.8055 107.034 62.8128 106.73 62.6156 107.161C62.348 107.663 62.5593 108.024 62.7987 108.533C63.538 108.703 64.1505 108.2 63.9534 107.423ZM48.6956 103.675C48.4491 103.477 48.2238 103.293 48.0055 103.123C47.1113 103.3 47.1395 103.534 47.0761 104.347C47.6957 105.33 48.5688 104.516 48.6956 103.675ZM45.3018 106.284C46.0552 106.829 46.8931 106.129 46.6114 105.245C45.7735 104.439 44.6822 105.33 45.3018 106.284ZM35.4514 92.043C35.5641 92.439 35.4866 93.0966 36.057 93.0613C37.9651 93.3158 36.8526 90.4379 35.4514 92.043ZM37.444 98.004C37.2328 98.6333 37.6482 98.7818 38.1693 99.0717C40.2956 97.6433 37.268 96.71 37.444 98.004ZM58.4051 118.637C58.5248 119.033 58.5318 119.302 58.5177 119.705C58.6445 119.762 58.7712 119.804 58.8909 119.84C59.2993 119.656 59.7288 119.436 60.1653 119.175C59.7429 118.531 59.0881 118.602 58.4051 118.63V118.637ZM57.6728 118.355C57.8559 118.086 58.046 117.81 58.2361 117.534C57.4686 115.279 55.5817 117.775 57.6728 118.355ZM39.4296 92.7006C39.6479 92.7431 39.8591 92.8279 40.0633 92.8774C39.8239 92.6016 39.5845 92.3329 39.3381 92.0572C39.3662 92.2764 39.3944 92.4956 39.4226 92.7006H39.4296ZM37.951 91.1309C38.0989 91.0743 38.2397 91.0177 38.3805 90.9682C38.0707 90.6147 37.7679 90.2682 37.4652 89.9217C37.3455 90.2116 37.437 90.6359 37.951 91.1379V91.1309ZM73.9587 104.036C74.0924 104.58 74.6557 104.743 75.1063 104.637C75.2964 104.41 75.4866 104.177 75.6767 103.951C75.6767 103.922 75.6767 103.901 75.6696 103.873C75.4161 102.819 74.1981 103.159 73.9657 104.043L73.9587 104.036ZM72.2266 101.398C72.1491 101.646 72.0787 101.893 72.0224 102.098C72.5857 103.519 74.6064 101.999 73.325 101.172C73.0011 101.363 72.6279 101.412 72.2266 101.398ZM69.5651 101.377C68.7554 100.74 68.4174 101.518 68.2062 102.254C68.8399 103.611 69.9101 102.487 69.5651 101.377ZM83.3866 92.0854C83.1894 91.7036 82.8585 91.5622 82.5276 91.4703C82.1262 91.5693 81.8868 91.647 81.6193 91.9652C81.8657 92.3824 82.0981 92.7643 82.3586 93.2027C82.9218 92.934 83.2528 92.5946 83.3866 92.0784V92.0854ZM69.9242 107.599C70.9592 109.487 72.6702 107.833 71.1141 106.949C70.762 107.246 70.2058 107.189 69.9242 107.599ZM51.9274 114.692C51.4627 114.847 50.7586 114.805 50.7445 115.448C50.8853 115.661 51.012 115.858 51.1458 116.064C51.4063 116.12 51.6669 116.17 51.8992 116.219C52.4907 115.696 52.6174 115.215 51.9203 114.685L51.9274 114.692ZM82.0769 95.3594C81.915 95.6776 81.7953 95.9321 81.6685 96.1867C81.6897 96.215 81.7038 96.2362 81.7249 96.2574C81.9643 95.9463 82.1966 95.6281 82.429 95.3169C82.3234 95.3169 82.2107 95.3169 82.0769 95.3523V95.3594ZM82.3656 89.158C82.7951 88.8681 83.1683 88.4509 83.1753 88.1256C82.8092 88.4226 82.4431 88.7196 82.0699 89.0237C82.1614 89.0732 82.253 89.1227 82.3656 89.158ZM33.7123 87.0367C34.1559 87.3054 34.6347 87.2064 34.8952 86.9377C34.5572 86.5488 34.2263 86.1599 33.9024 85.778C33.5997 85.9619 33.5363 86.4498 33.7123 87.0367ZM87.5196 86.3296C87.4985 86.8882 87.9139 87.2064 88.3223 87.2064C88.5546 86.874 88.78 86.5558 88.9982 86.2447C88.6884 85.5447 87.7168 85.4315 87.5196 86.3296ZM85.1186 86.7538V86.5276C84.83 86.7609 84.5413 87.0013 84.2456 87.2417C84.4568 87.2559 84.7455 87.1286 85.1186 86.7538ZM42.936 96.3847C43.0909 96.4483 43.2317 96.512 43.3726 96.5756C43.2529 96.4412 43.1332 96.314 43.0135 96.1796C42.9853 96.2433 42.9571 96.3069 42.936 96.3847ZM62.7564 112.351C62.9747 112.394 63.2211 112.033 63.4605 112.351C63.7422 112.429 63.8478 111.962 63.9745 111.807C63.8548 111.573 63.7633 111.39 63.6366 111.142C62.6015 110.619 61.82 111.545 62.7564 112.351ZM80.6687 93.2593C80.38 93.2663 80.1899 93.4148 80.2181 93.6411C80.2885 94.1714 79.852 94.1856 79.7252 94.624C80.7462 95.7483 82.0981 93.9593 80.6758 93.2593H80.6687ZM41.8235 95.0836C41.8728 95.0624 41.9151 95.0341 41.9644 95.0129C41.8235 94.8573 41.6898 94.7018 41.5489 94.5462C41.5067 94.6523 41.4644 94.7583 41.4222 94.8715C41.5841 94.9563 41.725 95.027 41.8235 95.0765V95.0836ZM66.0446 102.126C65.9671 101.95 65.8897 101.794 65.8052 101.667C65.4109 101.95 65.0236 102.232 64.6434 102.501C64.7561 102.593 64.9743 102.65 65.425 102.685C65.6221 102.487 65.8404 102.303 66.0516 102.133L66.0446 102.126ZM62.0382 117.117C61.5876 116.53 60.4611 116.863 60.3766 117.499C60.6089 117.994 61.2989 118.348 61.7777 118.114C61.8341 118.072 61.8974 118.029 61.9538 117.987C61.9749 117.966 61.996 117.952 62.0171 117.93C61.8833 117.669 62.0101 117.365 62.0312 117.117H62.0382ZM48.8293 105.931C49.294 106.885 50.8079 106.56 50.5473 105.471C49.4349 105.011 49.1391 105.096 48.8293 105.931ZM60.102 107.529C59.6373 106.595 58.7571 107.048 58.5037 107.868C58.6586 108.094 58.8064 108.299 58.9402 108.497C59.7851 108.561 59.7992 108.554 60.102 107.529ZM76.7117 95.1472C77.0356 94.9563 77.2961 94.6735 77.444 94.2139C77.3806 93.6057 76.9652 93.33 76.5849 93.429C76.4512 93.535 76.3104 93.6482 76.1766 93.7542C76.1132 93.8603 76.0498 93.9876 76.0217 94.1431C76.1907 94.4896 76.1554 94.9775 76.7117 95.1543V95.1472ZM63.9252 103.456C63.7915 103.392 63.6647 103.329 63.545 103.272C63.1437 103.555 62.7494 103.823 62.3621 104.078C62.9888 104.799 64.2843 104.573 63.9252 103.456ZM63.1789 116.262C63.5802 116.17 63.7915 116.078 64.0872 115.816C63.5661 114.904 63.8619 114.324 62.5804 114.925C62.6226 115.526 62.4114 116.085 63.1859 116.254L63.1789 116.262ZM71.0578 100.953C72.9729 98.9656 69.2341 98.6545 70.4874 100.755C70.6283 100.804 70.7972 100.861 71.0578 100.953ZM61.996 110.258C62.3903 109.289 61.1229 108.844 60.4963 109.487C60.1935 110.442 61.4679 110.803 61.996 110.258ZM29.9595 81.8394C29.6215 82.0728 30.0439 82.5182 30.1073 82.8152C30.2833 83.4375 31.0579 83.3244 31.3888 82.9001C31.3888 82.8718 31.3817 82.8435 31.3747 82.8152C31.079 82.4688 30.7903 82.1223 30.5087 81.7899C30.3397 81.7616 30.1566 81.7758 29.9524 81.8324L29.9595 81.8394ZM84.9285 89.7237C84.1751 88.9247 82.7599 90.8763 84.2667 90.9682C85.1961 90.8551 85.2947 90.6005 84.9285 89.7237ZM42.9149 105.761C42.4854 105.273 41.8939 105.146 41.5701 105.4C41.8235 105.789 42.0841 106.178 42.3375 106.567C42.5769 106.44 42.7882 106.178 42.9149 105.761ZM39.9647 95.4372C39.6502 95.6446 39.392 95.9038 39.1902 96.215C39.7535 97.9898 42.0488 95.3877 39.9647 95.4372ZM35.4021 88.1327C35.4655 89.0095 36.0781 89.1509 36.5217 88.8327C36.2259 88.4933 35.9302 88.1468 35.6415 87.8074C35.543 87.8923 35.4585 87.9984 35.4021 88.1327ZM44.7103 99.9132C44.6259 99.6798 44.5414 99.4606 44.4639 99.2343C43.8866 99.1636 43.4218 99.6798 43.0416 100.055C43.1191 100.627 43.5979 100.719 43.9499 100.96C44.1752 100.521 44.3794 100.238 44.7174 99.9132H44.7103ZM44.8371 103.767C44.6681 103.604 44.4991 103.449 44.3301 103.286C44.1189 103.42 43.964 103.597 43.7246 103.47C43.4359 103.357 43.2247 103.717 42.9994 103.838C43.3796 105.11 44.4146 104.863 44.8371 103.767ZM61.3201 114.352C61.6228 114.02 61.8904 113.716 62.2002 113.362C61.827 112.867 61.1863 112.613 60.6512 112.973C60.6089 113.256 60.5808 113.483 60.5385 113.751C60.8061 113.914 60.9398 114.232 61.3201 114.352ZM56.0816 115.88C56.1238 115.583 56.152 115.3 56.0112 114.953C55.7506 114.869 55.4549 114.77 55.131 114.656C54.1946 115.717 54.8212 116.509 56.0816 115.88ZM39.3521 99.7293C39.3451 101.568 41.5067 100.585 40.5773 99.3757C40.1337 99.3757 39.6901 99.2273 39.3521 99.7293ZM53.3356 114.381C54.3284 114.062 54.6452 113.49 53.8144 112.783C53.1807 112.86 53.0117 113.334 52.716 113.822C52.899 113.992 53.0962 114.168 53.3356 114.381ZM51.526 110.958C49.7799 111.517 52.0541 113.391 52.5047 111.51C52.3146 111.114 51.8922 111.142 51.526 110.958ZM73.7826 105.987C73.5644 105.676 73.339 105.358 73.0926 105.011C72.5082 105.181 72.304 105.641 71.8956 105.895C72.3885 106.525 73.3179 106.708 73.7897 105.987H73.7826ZM81.1123 90.9187C81.2883 90.4591 81.2179 90.0914 81.0419 89.8581C80.6828 90.148 80.3308 90.4379 79.9646 90.7278C80.204 90.8551 80.4434 90.9824 80.711 91.1238C80.8377 91.0601 80.9715 90.9894 81.1123 90.9187ZM37.5215 94.7937C37.9651 95.1755 38.7255 95.0907 38.9508 94.4896C38.8874 92.7643 36.923 94.0724 37.5215 94.7937ZM57.9897 113.956C58.039 113.801 58.0953 113.624 58.1516 113.447C58.039 113.228 57.9263 113.023 57.8136 112.804C57.3701 112.684 57.0603 112.783 56.7997 113.044C56.6871 113.461 56.8561 113.808 57.011 114.126C57.3982 114.275 57.6658 114.048 57.9897 113.956ZM47.3789 112.365C48.3365 111.941 48.6463 112.245 48.3294 111.029C48.2168 110.972 48.1041 110.909 47.921 110.817C47.745 110.937 47.576 111.057 47.4352 111.163C47.6957 111.672 46.6677 111.969 47.3718 112.358L47.3789 112.365Z"
                fill="#083B30" />
        </g>
        <path
            d="M181.172 61.4606C172.385 49.5953 153.74 51.5327 147.509 64.9254C145.537 69.161 144.749 74.7472 145.045 82.186C145.875 102.926 163.358 102.6 163.358 102.6L166.59 119.528L192.578 112.952L183.073 92.5805C183.073 92.5805 185.185 77.0948 183.707 67.3296C183.376 65.1588 182.453 63.2001 181.165 61.4606H181.172Z"
            fill="white" />
        <path
            d="M153.754 69.5996C153.754 70.3632 154.311 70.9784 154.993 70.9784C155.676 70.9784 156.233 70.3632 156.233 69.5996C156.233 68.8359 155.676 68.2207 154.993 68.2207C154.311 68.2207 153.754 68.8359 153.754 69.5996Z"
            fill="#083B30" />
        <path
            d="M168.315 69.5996C168.315 70.3632 168.871 70.9784 169.554 70.9784C170.237 70.9784 170.793 70.3632 170.793 69.5996C170.793 68.8359 170.237 68.2207 169.554 68.2207C168.871 68.2207 168.315 68.8359 168.315 69.5996Z"
            fill="#083B30" />
        <path
            d="M174.321 63.0812C171.751 61.2357 168.231 60.2174 165.217 61.7306C164.689 61.9923 165.083 62.7206 165.59 62.6287C168.547 62.0842 171.35 61.8862 174.046 63.5479C174.342 63.7318 174.589 63.2792 174.314 63.0812H174.321Z"
            fill="#083B30" />
        <path
            d="M162.865 81.5711C161.316 83.1338 159.641 83.947 157.479 82.9994C156.909 82.7519 156.402 83.5439 156.979 83.855C159.148 85.0359 162.429 84.3359 163.196 81.762C163.253 81.5711 163.006 81.4296 162.865 81.5711Z"
            fill="#083B30" />
        <path
            d="M172.751 99.5179C168.78 101.434 164.576 103.039 160.119 103.053C159.563 103.053 159.57 103.888 160.119 103.916C164.654 104.157 169.202 102.269 172.793 99.5886C172.835 99.5603 172.793 99.4967 172.751 99.5179Z"
            fill="#083B30" />
        <path
            d="M211.35 101.463C206.815 98.4648 200.521 87.151 200.521 87.151C198.183 81.4517 195.852 75.7524 193.515 70.0602C192.254 66.9842 190.973 63.88 189.149 61.2496C186.981 58.1241 184.777 55.4442 181.784 53.5562C176.525 50.2398 168.076 48.5286 160.232 51.7177L163.823 54.4259C168.371 57.8908 179.588 67.0903 180.623 74.1967C181.651 81.3103 180.207 100.091 180.933 107.586C181.658 115.089 185.516 119.537 187.375 124.911C189.234 130.285 198.528 127.322 198.528 127.322L217.511 127.336C224.052 113.477 215.884 104.461 211.343 101.456L211.35 101.463Z"
            fill="#083B30" />
        <g opacity="0.3">
            <path
                d="M166.372 76.0924C166.372 77.2238 168.132 78.1359 170.301 78.1359C172.469 78.1359 174.229 77.2238 174.229 76.0924C174.229 74.961 172.469 74.0488 170.301 74.0488C168.132 74.0488 166.372 74.961 166.372 76.0924Z"
                fill="#083B30" />
        </g>
        <path
            d="M194.564 80.2487C194.254 78.983 193.606 77.7668 192.564 76.989C191.522 76.2111 190.058 75.9495 188.896 76.5293L187.333 87.4471C189.206 88.5219 191.762 87.928 193.219 86.3299C194.677 84.7318 195.085 82.3489 194.571 80.2417L194.564 80.2487Z"
            fill="white" />
        <path
            d="M191.6 82.3502C191.135 81.5512 190.628 81.0633 189.635 81.0491C188.748 81.035 187.882 81.4946 187.389 82.23C187.108 82.6543 187.741 83.1351 188.086 82.7745C188.959 81.8623 190.403 81.5936 191.466 82.4492C191.536 82.5058 191.649 82.4351 191.593 82.3502H191.6Z"
            fill="#083B30" />
        <path
            d="M152.332 62.9755C156.366 60.5571 159.81 63.4634 159.725 67.897C159.662 71.2699 158.324 74.3882 156.852 77.351C156.557 77.9379 157.38 78.4329 157.732 77.8672C160.091 74.169 162.189 67.6565 159.817 63.5129C158.176 60.642 154.409 60.3238 152.086 62.6502C151.924 62.8128 152.135 63.0957 152.332 62.9755Z"
            fill="#083B30" />
        <path
            d="M160.556 114.233C160.556 114.233 150.501 119.543 144.418 134.046C143.369 136.549 138.891 149.341 139.644 154.488C142.172 171.77 148.22 191.074 156.423 194.985C167.076 200.062 213.173 193.86 211.843 184.986C210.512 176.105 211.582 120.37 208.688 117.591C205.801 114.819 187.03 113.377 187.03 113.377L160.549 114.233H160.556Z"
            fill="#18A88B" />
        <path
            d="M177.644 117.351C176.173 122.477 174.849 127.604 173.793 132.836C172.835 137.602 171.617 142.672 171.568 147.558C171.568 147.94 172.166 148.039 172.244 147.65C174.272 137.602 175.595 127.42 177.799 117.386C177.82 117.287 177.673 117.244 177.644 117.343V117.351Z"
            fill="#DCF6E5" />
        <path
            d="M173.11 184.003C173.518 188.225 173.814 192.227 175.088 196.314C175.286 196.943 176.257 196.682 176.074 196.038C174.962 192.121 173.68 188.069 173.265 183.996C173.258 183.897 173.096 183.897 173.11 183.996V184.003Z"
            fill="#DCF6E5" />
        <g opacity="0.3">
            <path
                d="M182.531 168.1C182.643 168.058 182.749 168.015 182.862 167.973C183.763 167.944 184.481 168.227 184.721 169.231C183.538 170.441 182.404 169.634 182.531 168.1ZM194.282 166.049C193.832 166.29 193.268 166.389 193.163 167.046C193.67 167.69 194.451 167.711 195 168.213C195.782 167.527 195.254 166.226 194.282 166.056V166.049ZM171.251 185.021C170.301 185.509 169.23 186.478 170.786 186.973C172.033 187.206 172.554 185.368 171.251 185.021ZM182.622 177.441C182.876 178.311 183.115 178.353 183.939 178.473C184.207 178.169 184.467 177.872 184.749 177.554C184.319 176.359 183.15 176.211 182.622 177.441ZM191.05 181.655C191.332 182.454 191.712 182.652 192.332 182.567C192.55 182.242 192.775 181.917 192.994 181.585C192.987 181.408 192.959 181.231 192.944 181.054C192.156 180.206 191.628 181.054 191.05 181.662V181.655ZM193.62 170.547C193.437 170.787 193.022 170.971 193.219 171.339C193.803 172.569 194.958 172.053 195.247 170.872C194.817 170.2 194.205 169.705 193.62 170.547ZM178.32 187.199C176.975 186.817 175.877 187.637 176.912 188.917C177.954 189.2 178.595 188.168 178.32 187.199ZM184.932 175.758C185.446 176.896 186.544 176.182 186.755 175.228C186.263 173.983 184.495 174.393 184.932 175.758ZM161.401 183.536C160.633 183.041 159.443 182.829 159.415 184.074C159.704 184.498 160.042 184.745 160.563 184.816C161.197 184.514 161.478 184.088 161.408 183.536H161.401ZM168.794 180.588C169.561 180.029 169.737 179.789 169.913 178.997C168.477 177.901 167.027 179.909 168.794 180.588ZM201.549 160.895C201.197 161.029 200.795 161.184 200.366 161.347C200.781 161.58 201.281 161.531 201.549 160.895ZM185.819 180.602C186.72 180.128 186.974 178.975 185.868 178.586C185.34 178.353 185.108 179.138 184.812 179.435C184.509 179.979 185.34 180.496 185.819 180.602ZM188.171 174.245C188.41 173.941 188.657 173.623 188.924 173.276C188.114 170.674 185.664 173.806 188.171 174.245ZM173.011 180.602C173.385 180.347 173.765 180.078 174.18 179.789C173.744 177.278 170.878 179.796 173.011 180.602ZM180.292 185.643C179.552 184.356 178.201 185.445 178.574 186.711C179.412 186.838 180.602 186.824 180.292 185.643ZM198.845 163.596C199.471 163.051 199.457 162.259 199.035 161.863C198.563 162.047 198.049 162.238 197.521 162.443C197.739 162.917 198.472 163.44 198.845 163.603V163.596ZM180.052 176.642C179.454 176.656 179.031 177.101 178.433 177.271C178.637 177.745 178.792 178.042 179.046 178.473C180.038 178.777 181.031 177.476 180.059 176.649L180.052 176.642ZM184.284 182.518C184.714 181.705 184.39 180.241 183.291 180.786C182.277 181.471 182.967 182.78 184.284 182.518ZM188.966 185.94C188.818 185.53 188.713 185.113 188.227 184.922C187.91 185.042 187.586 185.163 187.284 185.283C186.432 186.923 188.241 187.312 188.973 185.94H188.966ZM174.575 186.541H175.764C177.201 184.597 173.3 184.236 174.575 186.541ZM173.518 186.966C173.096 187.454 172.68 187.128 172.265 187.312C172.23 187.602 172.188 187.913 172.138 188.33C173.11 189.702 174.736 188.048 173.518 186.966ZM155.599 178.735C155.219 179.781 155.247 180.05 156.036 180.609C157.472 180.319 157.183 178.212 155.599 178.735ZM189.811 180.644C191.226 180.156 191.086 178.516 189.508 178.657C189.347 179.039 189.206 179.343 189.03 179.697C189.128 180.142 189.438 180.382 189.811 180.644ZM178.341 175.991C178.377 174.881 177.349 174.103 176.469 174.973C175.905 176.083 177.63 176.592 178.341 175.991ZM185.192 167.358C185.305 168.439 186.481 167.711 186.664 167.011C186.643 166.855 186.601 166.714 186.544 166.587C186.094 166.756 185.636 166.933 185.171 167.103C185.206 167.174 185.228 167.251 185.199 167.358H185.192ZM191.297 169.302C191.909 169.903 192.916 169.953 193.17 168.977C192.839 167.81 190.67 167.867 191.297 169.302ZM148.523 183.458C148.037 182.723 147.453 182.9 147.143 183.331C147.34 183.77 147.579 184.265 147.854 184.809C148.431 184.562 148.847 183.996 148.523 183.465V183.458ZM169.097 184.837C170.772 183.579 168.561 182.002 167.822 183.833C168.174 184.293 168.357 184.915 169.097 184.837ZM177.87 184.576C178.517 183.968 178.158 182.999 177.356 182.794C175.61 183.26 176.609 184.88 177.87 184.576ZM173.209 184.844C174.046 184.307 174.237 183.465 173.328 182.872C172.434 182.879 172.251 183.402 172.174 184.038C172.504 184.286 172.61 184.802 173.209 184.844ZM189.262 171.247C189.262 172.406 190.839 172.208 190.867 171.183C191.043 169.861 188.818 170.066 189.262 171.247ZM175.293 178.502C176.074 178 176.546 176.925 175.349 176.578C174.736 176.713 174.356 177.066 174.187 177.646C174.413 177.934 174.781 178.216 175.293 178.495V178.502ZM155.338 184.151C156.085 185.311 156.979 184.731 157.092 183.487C156.303 182.525 155.388 182.971 155.338 184.151ZM155.043 190.218C154.972 189.928 154.846 189.66 154.487 189.667C154.092 189.667 153.74 189.61 153.43 189.349C152.874 189.589 152.881 190.098 153.149 190.494C153.55 190.65 153.98 190.798 154.437 190.947C154.663 190.834 154.874 190.607 155.043 190.225V190.218ZM197.317 173.106C196.993 172.762 196.62 172.505 196.197 172.336C195.869 172.595 195.62 172.941 195.451 173.375C195.557 173.573 195.676 173.799 195.775 173.99C196.528 174.323 197.289 173.87 197.317 173.106ZM180.433 168.892C179.883 169.097 179.334 169.302 178.785 169.514C179.489 169.96 180.306 169.938 180.433 168.892ZM163.781 179.428C163.598 180.375 164.499 180.623 165.189 180.192C166.463 178.678 164.182 178.148 163.781 179.428ZM198.5 170.384C197.155 170.398 197.577 171.678 198.436 172.024C198.676 171.558 198.901 171.091 199.126 170.631C198.979 170.497 198.767 170.398 198.5 170.384ZM174.617 180.821C173.575 182.2 175.807 183.204 176.271 181.698C175.842 181.104 175.405 180.637 174.617 180.821ZM151.452 180.284C152.501 180.538 153.212 179.838 152.839 179.258C152.255 179.477 151.705 179.682 151.191 179.873C151.241 180.022 151.318 180.17 151.452 180.284ZM190.846 166.467C190.543 166.226 190.297 166.035 190.058 165.844C189.227 166.198 189.178 166.339 189.523 167.711C190.565 167.916 191.072 167.506 190.846 166.467ZM197.62 166.41C196.74 167.266 198.598 168.128 199.26 167.442C199.507 166.361 198.486 165.745 197.62 166.41ZM199.676 168.595C199.647 168.871 199.683 169.104 199.767 169.295C199.957 168.899 200.14 168.503 200.316 168.121C200 168.079 199.718 168.171 199.676 168.595ZM187.854 167.923C185.868 168.56 187.417 170.412 188.755 169.352C188.509 168.765 188.649 168.072 187.854 167.923ZM183.833 184.943C183.594 185.184 183.39 185.254 183.024 185.304C182.974 185.693 182.643 185.976 182.841 186.336C184.333 187.652 185.368 185.403 183.833 184.943ZM161.408 192.007C161.021 191.321 159.563 191.102 159.725 192.205C159.725 192.212 159.725 192.22 159.725 192.227C160.26 192.326 160.802 192.418 161.366 192.509C161.429 192.361 161.457 192.191 161.415 192.014L161.408 192.007ZM159.401 188.104C159.57 188.352 159.746 188.613 159.915 188.861C160.901 189.207 161.126 188.479 161.274 187.645C160.95 187.482 160.746 187.128 160.288 187.1C160.007 187.411 159.507 187.553 159.408 188.104H159.401ZM169.864 188.295C169.653 187.913 169.554 187.461 169.083 187.22C166.738 187.553 168.787 190.169 169.864 188.295ZM184.735 172.979C184.418 172.753 184.143 172.548 183.812 172.314C181.355 173.135 183.939 175.426 184.735 172.979ZM190.586 184.484C191.48 183.091 189.29 182.193 188.98 184.067C189.354 184.943 189.868 184.498 190.586 184.484ZM170.322 189.603C169.73 190.713 171.476 191.675 171.857 190.473C171.976 189.49 171.103 188.698 170.322 189.603ZM180.2 180.863C178.616 180.46 177.87 182.369 179.729 182.567C179.961 182.32 180.193 182.058 180.482 181.747C180.376 181.422 180.285 181.125 180.207 180.863H180.2ZM181.601 178.565C181.038 178.806 181.01 178.827 180.778 179.371C180.306 181.521 183.946 179.909 181.601 178.565ZM174.208 173.156C174.279 173.905 174.828 173.962 175.391 174.11C177.081 172.795 175.06 171.501 174.208 173.156ZM194.458 174.301C193.304 174.69 192.825 175.963 194.134 176.062C195.212 176.338 195.381 174.719 194.458 174.301ZM181.848 174.506C181.538 174.577 181.207 174.648 180.911 174.719C180.813 175.023 180.735 175.27 180.658 175.503C181.461 177.321 183.263 175.758 181.848 174.506ZM155.346 188.309C155.775 189.052 156.873 189.151 157.071 188.203C157.289 186.768 155.346 186.959 155.346 188.309ZM197.127 169.599C197.408 168.793 196.944 168.369 196.352 167.93C195.831 168.206 195.571 168.644 195.353 169.147C195.761 169.797 196.465 169.663 197.12 169.592L197.127 169.599ZM170.336 181.118C170.258 181.38 170.181 181.648 170.111 181.889C170.373 182.19 170.744 182.41 171.223 182.546C171.589 182.341 171.765 181.889 172.026 181.578C171.61 180.722 171.434 180.679 170.336 181.118ZM170.829 174.047C171.927 174.082 172.23 172.555 171.195 172.364C170.941 172.456 170.695 172.555 170.441 172.647C170.033 173.12 170.047 173.969 170.829 174.047ZM167.273 173.835C167.097 173.898 166.928 173.962 166.752 174.033C166.935 174.047 167.111 173.983 167.273 173.835ZM192.093 176.684C190.832 176.79 191.177 178 191.966 178.445C193.078 178.396 193.388 176.522 192.093 176.684ZM169.857 175.235C169.456 174.273 167.766 174.499 168.04 175.574C168.505 176.472 169.843 176.373 169.857 175.235ZM188.847 177.08C188.572 176.882 188.269 176.663 187.945 176.437C185.826 177.257 188.607 179.739 188.847 177.08ZM186.608 183.444C185.981 183.515 185.763 182.942 185.27 183.338C183.791 184.703 187.276 185.764 186.608 183.444ZM165.337 187.744C164.872 186.464 163.633 187.701 163.802 188.613C164.597 189.356 165.668 188.889 165.337 187.744ZM164.809 176.345C165.83 175.687 165.682 174.867 165.118 174.648C164.689 174.81 164.266 174.966 163.844 175.129C163.921 175.8 164.203 176.211 164.809 176.352V176.345ZM167.407 178.091C167.78 177.427 167.379 176.797 166.724 176.585C165.963 176.486 166.104 177.568 165.942 178.056C166.346 178.282 166.832 178.294 167.4 178.091H167.407ZM193.184 179.619C193.339 180.036 193.543 180.269 193.761 180.382C194.043 179.93 194.325 179.477 194.599 179.018C194.43 178.89 194.184 178.791 193.832 178.749C193.437 178.947 193.304 179.265 193.177 179.619H193.184ZM166.351 191.024C167.097 190.918 167.322 190.332 167.625 189.829C166.9 188.352 164.921 190.169 166.351 191.024ZM165.893 181.592C166.02 182.115 166.118 182.645 166.836 182.723C167.153 182.497 167.576 182.334 167.639 181.747C167.238 180.969 166.217 180.51 165.9 181.592H165.893ZM153.212 186.004C153.839 186.881 154.93 187.56 154.895 185.955C155.106 184.788 153.311 185.078 153.212 186.004ZM191.248 165.045C191.388 165.851 192.839 165.774 192.93 165.038C192.677 164.777 193.043 164.529 192.902 164.232C192.895 164.218 192.881 164.218 192.867 164.204C192.353 164.395 191.832 164.593 191.297 164.798C191.269 164.883 191.248 164.967 191.248 165.052V165.045ZM146.474 181.641L146.439 181.655C146.439 181.655 146.46 181.705 146.488 181.783C146.488 181.761 146.502 181.74 146.502 181.719C146.502 181.691 146.481 181.669 146.474 181.641ZM182.608 183.678C182.383 183.43 182.158 183.183 181.918 182.928C180.996 183.048 180.559 183.614 181.059 184.448C182.052 184.724 182.27 184.59 182.608 183.678ZM173.187 174.598C172.638 174.634 172.159 174.641 172.23 175.433C172.913 177.406 175.138 174.86 173.187 174.598ZM173.293 171.975C173.582 171.819 173.772 171.593 173.877 171.353C173.518 171.487 173.159 171.621 172.8 171.756C172.948 171.834 173.117 171.911 173.293 171.968V171.975ZM201.211 164.317C200.274 163.695 199.422 164.14 199.683 165.279C200.492 166.099 201.598 165.321 201.211 164.317ZM180.313 173.566C180.2 173.283 180.186 172.972 180.207 172.661C179.968 172.512 179.75 172.378 179.482 172.215C179.236 172.732 178.334 172.795 178.616 173.63C179.355 174.04 179.637 174.033 180.313 173.559V173.566ZM195.465 177.547C195.592 177.335 195.712 177.116 195.838 176.904C195.627 177.031 195.479 177.243 195.465 177.547ZM157.514 177.915C158.303 178.756 159.634 177.915 158.993 176.946C158.472 177.144 157.965 177.335 157.465 177.519C157.444 177.639 157.451 177.766 157.514 177.915ZM162.619 180.687C162.189 180.764 162.232 181.083 162.126 181.309C162.02 181.549 161.619 181.5 161.591 181.867C162.211 182.992 163.527 182.582 163.386 181.309C163.126 181.097 162.879 180.899 162.626 180.687H162.619ZM150.565 181.309C150.339 181.146 150.156 181.012 149.903 180.828C147.396 181.705 150.867 183.996 150.565 181.309ZM180.742 192.276C181.235 192.149 181.7 192 182.158 191.845C181.784 191.293 180.771 191.647 180.742 192.276ZM155.127 181.224C154.825 181.026 154.564 180.849 154.289 180.665C153.98 181.224 153.339 181.323 153.24 181.917C153.747 182.624 154.332 182.313 154.916 182.143C154.965 181.818 155.036 181.542 155.127 181.224ZM196.916 165.003C197.43 164.48 197.106 164.02 196.465 163.879C196.176 164.034 195.923 164.168 195.655 164.31C195.641 164.656 195.599 164.989 195.5 165.307C195.951 165.788 196.852 165.745 196.916 165.003ZM202.443 161.602C201.978 161.884 202.239 162.408 201.915 162.712C202.063 163.03 202.246 163.221 202.436 163.32C202.668 162.754 202.865 162.252 203.034 161.821C202.858 161.715 202.654 161.651 202.443 161.595V161.602ZM162.851 185.184C162.105 185.184 160.704 186.273 161.985 186.619C162.943 186.831 164.055 185.757 162.851 185.184ZM148.861 186.365C150.072 187.029 149.959 186.711 150.734 186.16C150.649 185.919 150.558 185.686 150.48 185.467C150.199 185.382 149.952 185.311 149.685 185.226C149.382 185.587 148.692 185.594 148.861 186.365ZM178.567 190.19C179.264 192.007 181.32 190.218 179.651 189.327C179.238 189.521 178.877 189.808 178.567 190.19ZM192.107 172.293C191.769 172.541 191.536 172.852 191.438 173.255C191.536 174.026 192.48 174.471 192.944 173.651C192.726 173 193.029 172.357 192.107 172.293ZM185.756 170.448C184.552 170.554 184.96 171.438 185.565 172.06C186.868 171.621 187.361 170.921 185.756 170.448ZM167.456 185.318C166.322 185.177 166.168 185.262 165.823 186.138C166.618 187.34 167.773 186.732 167.456 185.318ZM171.969 177.66C171.85 176.981 171.209 176.274 170.582 176.741C169.625 178.155 170.85 178.417 171.969 177.66ZM182.855 190.324C183.27 190.728 183.756 190.784 184.291 190.643C184.369 190.402 184.439 190.19 184.53 189.921C183.847 188.91 182.777 188.896 182.855 190.332V190.324ZM174.138 192.545C173.744 192.057 173.392 191.215 172.737 191.816C172.434 192.029 172.075 192.311 172.272 192.722C172.673 193.259 173.68 193.068 174.138 192.545ZM180.876 170.709V171.473C182.883 173.043 182.834 168.934 180.876 170.709ZM164.844 191.739C164.358 191.569 164.062 191.647 163.816 192.092C163.879 192.34 163.95 192.601 164.02 192.863C164.379 192.905 164.745 192.941 165.111 192.976H165.259C165.562 192.22 165.731 191.958 164.844 191.732V191.739ZM158.901 180.998C157.585 180.722 157.071 181.846 158.429 182.355C159.345 182.525 159.443 181.57 158.901 180.998ZM176.201 190.105C175.962 189.667 175.779 189.434 175.391 189.108C174.772 189.441 174.314 189.95 174.645 190.713C175.208 190.353 176.046 191.095 176.208 190.105H176.201ZM161.887 190.621C163.351 191.385 163.837 190.176 162.71 189.151C161.95 189.78 161.901 189.879 161.887 190.621ZM161.084 180.086C160.978 179.902 160.901 179.753 160.816 179.605C160.901 179.428 160.985 179.258 161.077 179.081C158.915 178.091 159.218 181.203 161.091 180.086H161.084ZM187.776 180.87C187.544 181.104 187.276 181.365 186.988 181.655C187.783 183.55 189.818 181.273 187.776 180.87ZM168.695 193.238C168.85 193.238 169.005 193.252 169.16 193.259C169.315 193.054 169.442 192.877 169.526 192.764C170.054 190.119 167.118 192.297 168.695 193.238ZM152.198 184.569C152.6 184.3 153.24 183.487 152.607 183.19C152.015 183.048 151.522 183.041 151.227 183.685C151.529 184.081 151.684 184.979 152.198 184.569ZM159.07 186.351C158.908 185.94 158.775 185.601 158.655 185.297C156.761 184.972 157.387 187.482 159.07 186.351ZM177.285 191.435C177.025 191.611 176.75 191.802 176.476 191.993C176.623 192.566 176.898 192.849 177.173 192.948C177.377 192.92 177.581 192.891 177.778 192.856C178.116 192.587 178.158 191.972 177.285 191.428V191.435ZM185.749 188.924C185.967 188.847 186.185 188.776 186.382 188.705C186.509 188.436 186.629 188.182 186.741 187.942C186.586 187.68 186.326 187.722 186.108 187.687C185.861 187.645 185.671 187.369 185.34 187.546C185.27 187.751 185.185 187.991 185.094 188.26C185.235 188.543 185.453 188.762 185.749 188.924ZM177.194 179.343C177.081 179.159 176.99 179.025 176.905 178.883C175.933 179.393 176.75 180.177 177.292 180.609C178.18 180.439 178.327 179.067 177.194 179.343ZM189.22 175.567C189.762 175.518 190.572 175.97 190.832 175.39C190.783 174.202 188.952 174.139 189.22 175.567ZM161.704 177.49C161.999 178.091 163.048 178.466 163.379 177.71C163.584 176.783 161.767 176.508 161.704 177.49ZM152.902 187.744C152.205 186.697 151.297 187.171 151.311 188.302C151.508 188.444 151.712 188.578 151.945 188.741C152.276 188.394 152.571 188.083 152.895 187.744H152.902ZM165.118 183.19C164.443 182.942 164.259 183.607 163.738 183.762C164.773 185.028 165.816 184.908 165.118 183.19ZM177.187 170.448C177.187 170.441 177.194 170.433 177.201 170.419L177.18 170.441L177.187 170.448ZM176.842 171.501C177.074 171.692 177.285 171.869 177.497 172.046C177.743 171.848 177.961 171.664 178.187 171.48C178.37 170.702 177.834 170.554 177.194 170.441C177.053 170.787 176.68 171.112 176.849 171.494L176.842 171.501ZM181.601 187.199C181.221 187.376 180.947 187.652 180.707 188.069C181.249 188.175 181.418 188.769 181.904 188.719C182.32 187.991 182.291 187.659 181.608 187.199H181.601ZM158.81 190.614C159.852 189.943 157.93 189.193 157.444 189.943C157.739 190.657 158.338 190.501 158.81 190.614ZM176.87 170.356C176.94 170.547 177.039 170.518 177.173 170.441C177.074 170.349 177.011 170.228 176.87 170.356ZM177.18 170.448L177.201 170.419C177.187 170.419 177.18 170.433 177.173 170.433C177.173 170.433 177.173 170.433 177.18 170.441V170.448ZM189.699 176.112C189.656 175.998 189.6 175.956 189.48 175.998C189.537 176.119 189.551 176.218 189.699 176.112Z"
                fill="#083B30" />
        </g>
        <path
            d="M138.461 151.78C138.968 142.856 142.911 134.279 148.706 127.604C149.072 127.18 148.466 126.557 148.086 126.982C141.728 133.989 138.708 142.411 138.25 151.78C138.25 151.921 138.461 151.921 138.468 151.78H138.461Z"
            fill="#083B30" />
        <path
            d="M111.051 120.951C110.811 117.833 109.973 107.721 108.903 103.867C107.636 99.285 99.9611 87.4268 96.7926 84.8812C95.0253 83.4599 93.5749 83.9337 92.6384 84.6267C91.6879 85.3267 91.4133 86.6348 91.9343 87.7026C93.4904 90.8987 98.1938 96.4283 98.1938 96.4283C95.1521 94.3918 88.5617 92.9918 85.7734 93.6282C82.9852 94.2646 84.8863 98.3375 84.8863 98.3375C82.7317 101.392 84.6328 103.301 91.8569 105.465C99.0809 107.629 99.5879 110.175 99.5879 110.175L95.7857 109.029C95.7857 109.029 89.4488 107.12 87.6745 108.145C85.9002 109.17 86.2804 111.32 89.5756 113.102C92.8708 114.884 96.4194 116.284 96.4194 116.284C96.4194 116.284 97.4333 119.975 98.4473 125.448C99.4612 130.921 107.319 134.867 107.319 134.867L107.34 134.789C109.495 138.607 116.24 145.983 117.437 145.445C119.014 144.738 127.498 134.584 127.329 133.021C127.175 131.635 113.783 123.122 111.058 120.951H111.051Z"
            fill="white" />
        <path
            d="M204.203 116.021C198.845 115.286 193.55 117.81 190.382 122.208C183.235 132.122 167.836 153.116 165.985 152.579C164.062 152.02 139.616 137.157 129.639 131.061C127.139 129.534 123.943 129.831 121.76 131.783L112.219 140.303C111.797 155.888 120.732 170.179 134.856 176.642C147.53 182.44 162.957 187.354 174.631 184.257C198.38 177.957 211.251 145.493 211.251 145.493C211.251 145.493 220.503 118.248 204.203 116.014V116.021Z"
            fill="#18A88B" />
        <path
            d="M8.51257 95.0994C8.51257 95.0994 7.76622 91.6629 9.04064 89.9587C10.6953 87.7526 17.3913 84.6483 19.8627 85.9282C22.334 87.2081 21.1934 90.4749 19.757 90.9416C18.3277 91.4083 14.6242 91.8609 13.3779 92.6882C12.2513 93.4377 12.5682 94.2933 12.5682 94.2933C12.5682 94.2933 19.9894 92.7589 21.6863 95.2196C23.3832 97.6804 20.9399 98.9532 20.9399 98.9532C20.9399 98.9532 23.7563 102.425 19.06 104.334C19.06 104.334 18.9473 106.661 17.0463 107.735C15.1452 108.81 10.125 109.369 10.125 109.369C10.125 109.369 9.74474 113.965 9.06881 113.993C6.81569 114.078 3.32335 106.576 5.39341 104.702C5.39341 104.702 4.91462 101.562 6.3721 99.9785L7.16774 99.2997C7.16774 99.2997 6.42843 96.1318 8.51257 95.0994Z"
            fill="white" />
        <path
            d="M98.5247 110.612C100.229 111.263 101.531 112.797 101.954 114.572C102.087 115.124 102.932 114.89 102.806 114.339C102.306 112.253 100.75 110.52 98.757 109.764C98.5317 109.679 98.2712 109.856 98.2149 110.075C98.1445 110.322 98.2994 110.535 98.5247 110.619V110.612Z"
            fill="#083B30" />
        <path
            d="M84.8792 98.7748C92.3779 98.4848 99.8343 102.282 104.538 108.059C104.897 108.498 105.516 107.868 105.157 107.437C100.313 101.49 92.5821 97.5939 84.8722 97.8909C84.3089 97.9121 84.3019 98.796 84.8722 98.7748H84.8792Z"
            fill="#083B30" />
        <path
            d="M97.4897 96.7043C100.109 97.7579 102.538 99.2782 104.629 101.173C105.052 101.555 105.671 100.933 105.249 100.551C103.031 98.5499 100.489 96.966 97.715 95.8558C97.1869 95.6437 96.9616 96.4993 97.4826 96.7114L97.4897 96.7043Z"
            fill="#083B30" />
        <path
            d="M163.865 117.287C163.865 117.287 161.274 109.565 163.675 108.71C166.076 107.854 182.355 102.897 184.826 107.19C187.298 111.482 187.037 113.377 187.037 113.377L163.865 117.294V117.287Z"
            fill="#18A88B" />
        <path
            d="M166.893 151.95C171.096 155.309 175.384 158.533 179.046 162.507C179.447 162.945 180.102 162.288 179.7 161.849C176.025 157.854 171.554 154.743 167.259 151.483C166.991 151.278 166.632 151.738 166.9 151.95H166.893Z"
            fill="#083B30" />
        <path
            d="M168.146 152.749C175.046 145.982 179.454 137.299 185.319 129.698C185.566 129.379 185.143 128.927 184.868 129.245C178.637 136.592 174.511 145.41 167.759 152.361C167.512 152.608 167.893 152.99 168.139 152.742L168.146 152.749Z"
            fill="#083B30" />
        <path
            d="M112.938 142.701C112.938 142.701 109.044 141.103 108.882 138.07C108.72 135.036 116.113 125.766 118.423 126.084C120.732 126.409 124.781 130.56 124.781 130.56L113.332 142.539"
            fill="#18A88B" />
        <path
            d="M112.283 140.962C115.261 136.981 118.768 133.545 123.126 131.105C123.626 130.829 123.175 130.044 122.682 130.341C118.303 132.929 114.494 136.317 111.867 140.715C111.698 140.991 112.107 141.21 112.29 140.962H112.283Z"
            fill="#083B30" />
        <path
            d="M112.086 140.091C110.875 139.327 109.882 138.436 109.227 137.135C108.981 136.655 108.276 137.079 108.509 137.56C109.178 138.946 110.389 140.141 111.896 140.537C112.163 140.607 112.318 140.232 112.086 140.091Z"
            fill="#083B30" />
        <path
            d="M118 126.077C120.338 126.714 122.45 128.107 123.929 130.037C124.076 130.228 124.309 130.327 124.534 130.193C124.717 130.087 124.837 129.775 124.689 129.585C123.063 127.47 120.802 125.922 118.232 125.215C117.683 125.066 117.451 125.915 118 126.07V126.077Z"
            fill="#083B30" />
        <path
            d="M162.858 53.5134C156.648 54.567 151.149 60.0471 150.037 66.2979C149.931 66.9131 150.783 67.1677 150.98 66.5596C152.952 60.3936 156.726 55.8681 162.879 53.5982C162.936 53.577 162.915 53.4992 162.858 53.5063V53.5134Z"
            fill="#083B30" />
        <path
            d="M164.238 52.5521C159.655 55.4795 155.838 60.7758 155.592 66.3761C155.571 66.8357 156.261 66.9135 156.374 66.4821C157.873 60.9738 159.979 56.5685 164.499 52.8915C164.689 52.7359 164.443 52.4177 164.238 52.545V52.5521Z"
            fill="#083B30" />
        <path
            d="M164.182 52.5729C161.901 57.0207 161.183 62.43 162.724 67.2525C162.936 67.9172 163.851 67.6344 163.752 66.9697C162.985 62.0058 162.999 57.5156 164.337 52.6366C164.358 52.5446 164.231 52.4881 164.189 52.5729H164.182Z"
            fill="#083B30" />
        <path
            d="M189.727 62.7561C192.98 72.8112 198.042 82.0814 205.28 89.8101C213.349 98.4227 226.079 104.681 224.326 118.533C224.263 119.014 225.073 119.12 225.171 118.646C227.424 107.148 217.961 99.9642 210.371 93.3386C201.02 85.1856 194.226 74.2961 189.931 62.6995C189.889 62.5793 189.692 62.6288 189.734 62.7561H189.727Z"
            fill="#083B30" />
        <path
            d="M13.2864 58.3429C13.2864 58.3429 14.6875 40.3753 17.3209 41.1036C18.032 41.3016 23.5592 54.9559 23.5592 54.9559C23.5592 54.9559 36.5287 52.2406 36.0217 54.2558C35.5148 56.2711 28.4386 63.5543 28.4386 63.5543C28.4386 63.5543 38.3523 75.0378 34.515 74.6277C30.6776 74.2176 22.1087 68.4546 22.1087 68.4546C22.1087 68.4546 17.5321 82.8867 16.2506 79.7259C14.9621 76.5652 13.6666 66.1777 13.6666 66.1777C13.6666 66.1777 -1.57014 66.1565 0.133779 64.2827C1.83066 62.4088 13.2864 58.3429 13.2864 58.3429Z"
            fill="#2D7766" />
        <path
            d="M104.129 78.942C110.981 78.942 116.536 73.3638 116.536 66.4827C116.536 59.6016 110.981 54.0234 104.129 54.0234C97.2775 54.0234 91.7231 59.6016 91.7231 66.4827C91.7231 73.3638 97.2775 78.942 104.129 78.942Z"
            fill="#18A88B" />
        <path
            d="M102.144 61.3204C102.165 61.186 102.228 61.087 102.341 61.0163C102.454 60.9456 102.566 60.9103 102.693 60.9103C103.031 60.8891 103.263 60.9598 103.404 61.1153C103.545 61.2709 103.601 61.3982 103.587 61.5042C103.58 61.5891 103.545 61.7871 103.489 62.1124C103.432 62.4306 103.369 62.8124 103.291 63.2508C103.214 63.6892 103.137 64.1418 103.045 64.6014C102.953 65.061 102.869 65.4782 102.784 65.853L102.073 65.8388C102.552 65.4428 103.017 65.1671 103.489 65.0115C103.953 64.8489 104.369 64.7711 104.735 64.7711C105.376 64.7711 105.946 64.9196 106.432 65.2095C106.925 65.4994 107.305 65.8954 107.579 66.4045C107.854 66.9136 107.995 67.4793 107.995 68.1157C107.995 68.7521 107.854 69.3744 107.572 69.9189C107.291 70.4633 106.889 70.9088 106.361 71.2411C105.833 71.5735 105.193 71.7432 104.439 71.7432C104.066 71.7432 103.693 71.7078 103.32 71.6442C102.946 71.5806 102.594 71.4816 102.263 71.3614C101.933 71.2411 101.63 71.0927 101.362 70.923C101.278 70.8735 101.207 70.8027 101.158 70.7037C101.109 70.6047 101.081 70.5128 101.081 70.4138C101.081 70.3078 101.109 70.1946 101.172 70.0603C101.235 69.9259 101.313 69.8199 101.404 69.7209C101.496 69.6289 101.602 69.5794 101.728 69.5794C101.806 69.5794 101.883 69.5936 101.968 69.6219C102.052 69.6502 102.13 69.6855 102.207 69.7209C102.432 69.834 102.658 69.933 102.883 70.0249C103.108 70.1168 103.355 70.1876 103.601 70.2371C103.855 70.2866 104.122 70.3148 104.411 70.3148C104.876 70.3148 105.256 70.2088 105.538 69.9966C105.819 69.7845 106.03 69.5087 106.164 69.1764C106.298 68.837 106.368 68.4834 106.368 68.1087C106.368 67.8117 106.305 67.5147 106.178 67.2177C106.052 66.9207 105.854 66.6732 105.58 66.4752C105.305 66.2772 104.932 66.1712 104.467 66.1712C104.038 66.1712 103.651 66.2419 103.298 66.3904C102.946 66.5389 102.559 66.7864 102.13 67.1399C102.024 67.2177 101.925 67.253 101.82 67.253C101.707 67.253 101.602 67.2248 101.489 67.1753C101.383 67.1258 101.299 67.0338 101.25 66.9136C101.2 66.7934 101.193 66.6379 101.228 66.4469C101.362 65.8459 101.475 65.2661 101.573 64.7004C101.672 64.1347 101.764 63.569 101.862 63.0033C101.954 62.4447 102.052 61.879 102.144 61.3204ZM101.665 61.4618C101.665 61.2992 101.7 61.1719 101.771 61.0588C101.841 60.9527 101.925 60.8749 102.031 60.8254C102.137 60.7759 102.228 60.7618 102.327 60.7688C102.608 60.7759 102.932 60.783 103.313 60.783C103.693 60.783 104.101 60.783 104.545 60.7688C104.988 60.7547 105.425 60.7406 105.861 60.7194C106.298 60.6981 106.706 60.6628 107.101 60.6274C107.291 60.6062 107.439 60.6628 107.551 60.783C107.664 60.9032 107.72 61.087 107.72 61.3275C107.72 61.5679 107.664 61.7659 107.544 61.8861C107.425 62.0063 107.256 62.0699 107.03 62.0911C106.629 62.1265 106.178 62.1619 105.671 62.1972C105.164 62.2326 104.643 62.2538 104.101 62.2679C103.559 62.2821 103.017 62.2821 102.475 62.2679C102.369 62.2608 102.256 62.2326 102.123 62.1972C101.989 62.1619 101.883 62.0841 101.792 61.9639C101.7 61.8437 101.658 61.6739 101.658 61.4477L101.665 61.4618Z"
            fill="#DCF6E5" />
        <path
            d="M86.9704 109.311C87.6463 110.047 88.6743 110.464 89.6671 110.351C90.6669 110.238 91.5611 109.672 92.0963 108.816C92.399 108.335 91.6386 107.89 91.3358 108.371C90.9627 108.972 90.3078 109.403 89.5967 109.474C88.8363 109.552 88.097 109.241 87.59 108.682C87.2098 108.265 86.5831 108.887 86.9704 109.304V109.311Z"
            fill="#083B30" />
        <path
            d="M92.8285 85.0007C93.0397 86.1392 93.8143 87.1715 94.8634 87.6595C96.004 88.1969 97.37 88.1049 98.4402 87.4332C98.919 87.1291 98.4754 86.3654 97.9966 86.6695C97.1869 87.1857 96.1167 87.3059 95.2436 86.8675C94.4127 86.4503 93.8495 85.6795 93.6805 84.7674C93.6382 84.534 93.3566 84.3997 93.1383 84.4562C92.8919 84.527 92.7863 84.7674 92.8285 85.0007Z"
            fill="#083B30" />
        <path
            d="M84.2737 98.4424C83.9287 99.1919 84.2667 99.9839 84.837 100.521C85.3721 101.03 86.0762 101.32 86.8085 101.37C88.2519 101.462 89.5897 100.408 89.9276 99.0151C90.0614 98.4636 89.2095 98.2303 89.0757 98.7818C88.8504 99.7293 88.0125 100.479 87.0267 100.493C86.5268 100.5 86.0199 100.345 85.6185 100.033C85.3228 99.8142 84.844 99.298 85.0341 98.8879C85.1327 98.6687 85.0975 98.4141 84.8792 98.2798C84.6891 98.1666 84.3793 98.2232 84.2737 98.4353V98.4424Z"
            fill="#083B30" />
        <path
            d="M84.668 94.7087C85.4848 95.7552 86.724 96.5755 88.097 96.4906C89.4136 96.4128 90.5261 95.4936 90.7021 94.1572C90.7303 93.9167 90.4768 93.7188 90.2656 93.7188C90.0051 93.7188 89.8572 93.9238 89.8291 94.1572C89.7094 95.1118 88.7166 95.6421 87.8365 95.6138C86.7873 95.5785 85.9283 94.8855 85.3017 94.0865C85.1538 93.8955 84.8299 93.9309 84.6821 94.0865C84.499 94.2703 84.5342 94.5249 84.6821 94.7087H84.668Z"
            fill="#083B30" />
        <path
            d="M166.294 107.981C165.886 110.739 166.653 113.949 168.132 116.297C168.4 116.721 169.188 116.452 168.984 115.936C167.928 113.263 167.28 110.781 166.675 107.981C166.632 107.797 166.322 107.783 166.294 107.981Z"
            fill="#083B30" />
        <path
            d="M172.603 106.645C173.061 108.003 173.765 109.261 174.251 110.612C174.743 111.97 175.11 113.363 175.462 114.763C175.624 115.399 176.567 115.13 176.433 114.494C175.877 111.764 174.849 108.561 173.082 106.369C172.899 106.143 172.504 106.383 172.596 106.652L172.603 106.645Z"
            fill="#083B30" />
        <path
            d="M178.517 105.881C180.855 107.988 181.721 110.534 182.291 113.532C182.397 114.084 183.214 113.928 183.235 113.405C183.348 110.23 181.32 107.239 178.855 105.443C178.602 105.259 178.285 105.669 178.517 105.881Z"
            fill="#083B30" />
        <path
            d="M117.247 135.532C121.528 139.195 126.189 142.483 130.674 145.898C135.596 149.653 140.602 153.394 145.946 156.519C155.374 162.027 166.315 164.502 176.947 161.172C177.292 161.066 177.152 160.535 176.799 160.62C164.724 163.562 153.958 160.924 143.608 154.284C134.568 148.479 126.752 140.595 117.366 135.376C117.275 135.327 117.155 135.454 117.247 135.532Z"
            fill="#DCF6E5" />
        <path
            d="M178.905 159.884C184.897 157.12 189.593 151.371 193.142 145.94C197.62 139.095 200.732 131.43 203.738 123.843C203.971 123.263 203.041 123.016 202.809 123.589C199.824 130.914 196.909 138.311 192.649 145.007C188.847 150.982 184.164 155.26 178.771 159.701C178.665 159.793 178.799 159.934 178.912 159.884H178.905Z"
            fill="#DCF6E5" />
        <path
            d="M112.677 146.653C119.859 157.783 129.005 167.138 140.552 173.714C151.931 180.191 166.245 184.335 179.391 182.518C179.729 182.468 179.644 181.91 179.313 181.917C165.386 182.27 152.571 179.951 140.383 172.844C129.421 166.452 120 157.012 112.839 146.554C112.769 146.455 112.607 146.547 112.677 146.653Z"
            fill="#DCF6E5" />
        <path
            d="M194.134 114.566C195.43 117.281 196.338 120.244 196.718 123.235C196.803 123.9 197.746 123.78 197.627 123.115C197.049 119.968 195.965 117.19 194.254 114.502C194.205 114.425 194.099 114.495 194.134 114.573V114.566Z"
            fill="#DCF6E5" />
        <path
            d="M200.309 164.042C201.133 172.874 201.809 181.812 203.267 190.559C203.351 191.061 204.203 190.948 204.161 190.439C203.414 181.6 202.126 172.74 200.746 163.986C200.711 163.738 200.288 163.795 200.309 164.042Z"
            fill="#DCF6E5" />
        <path
            d="M137.314 177.951C142.615 180.906 148.635 182.533 154.55 183.685C159.69 184.682 165.006 185.404 170.251 185.29C176.166 185.156 181.932 182.214 186.727 178.933C192.085 175.271 196.359 170.243 200.19 165.053C204.618 159.05 208.632 152.587 211.631 145.735C211.857 145.218 211.096 144.766 210.871 145.289C208.322 151.13 205.006 156.652 201.38 161.878C197.739 167.125 193.684 172.364 188.685 176.388C185.805 178.707 182.559 180.638 179.179 182.137C176.743 183.219 174.117 184.18 171.441 184.357C166.583 184.675 161.591 184.025 156.81 183.211C150.29 182.094 143.573 180.447 137.743 177.194C137.25 176.918 136.8 177.682 137.299 177.958L137.314 177.951Z"
            fill="#083B30" />
        <path
            d="M5.44269 105.322C9.25187 103.576 14.4552 101.412 18.1094 104.7C18.5319 105.082 19.1515 104.453 18.7291 104.078C14.7298 100.472 9.20962 102.621 4.99206 104.559C4.47807 104.792 4.92165 105.556 5.43565 105.322H5.44269Z"
            fill="#083B30" />
        <path
            d="M6.99875 100.162C9.28004 99.2776 11.6669 98.7049 14.1031 98.5139C15.2931 98.422 16.4971 98.415 17.687 98.4998C18.715 98.5776 19.7711 98.7544 20.4541 99.6029C20.8062 100.048 21.4258 99.419 21.0737 98.9806C20.4119 98.1604 19.4261 97.828 18.4122 97.6937C17.1589 97.524 15.8704 97.5311 14.6101 97.6018C11.9204 97.7503 9.273 98.3372 6.75936 99.313C6.23833 99.518 6.46364 100.374 6.99171 100.169L6.99875 100.162Z"
            fill="#083B30" />
        <path
            d="M7.87888 96.0951C10.9699 94.6879 14.3777 94.1223 17.7574 94.398C18.3207 94.4475 18.3207 93.5636 17.7574 93.5141C14.2158 93.2172 10.6671 93.8606 7.43529 95.3314C6.9213 95.5648 7.36488 96.3284 7.87888 96.0951Z"
            fill="#083B30" />
        <path
            d="M15.9197 86.3803C16.4196 87.1581 17.2293 87.6672 18.1376 87.7733C19.0389 87.8794 19.9753 87.5117 20.602 86.8611C20.9963 86.451 20.3766 85.8288 19.9823 86.2389C19.5247 86.7197 18.8628 86.9743 18.201 86.9036C17.5884 86.8329 17.011 86.4652 16.6801 85.9419C16.3774 85.4681 15.6099 85.9065 15.9197 86.3874V86.3803Z"
            fill="#083B30" />
        <path
            d="M17.5321 94.6179C17.7011 95.4877 18.3207 96.2867 19.1304 96.6473C20.0246 97.0504 21.0948 96.9726 21.9046 96.421C22.1017 96.2867 22.1862 96.0321 22.0595 95.8129C21.9468 95.6149 21.6581 95.523 21.4539 95.6574C20.8906 96.0392 20.1443 96.1453 19.5177 95.8624C18.9121 95.5867 18.5037 95.028 18.37 94.3846C18.3207 94.1512 18.0461 94.0169 17.8278 94.0734C17.5814 94.1441 17.4758 94.3846 17.518 94.6179H17.5321Z"
            fill="#083B30" />
        <path
            d="M18.5037 98.2244C18.0813 99.1648 18.1235 100.317 18.7361 101.173C19.3205 101.986 20.2992 102.474 21.3061 102.41C21.5455 102.396 21.7426 102.22 21.7426 101.972C21.7426 101.746 21.5384 101.512 21.3061 101.534C20.616 101.583 19.9119 101.293 19.4965 100.735C19.06 100.148 18.9685 99.3275 19.2642 98.6769C19.3628 98.4577 19.3275 98.2032 19.1093 98.0688C18.9192 97.9557 18.6094 98.0123 18.5037 98.2244Z"
            fill="#083B30" />
        <path
            d="M14.251 102.834C13.9482 104.015 14.5326 105.394 15.6592 105.91C16.8209 106.44 18.2221 106.037 18.9544 105.005C19.0952 104.814 18.9896 104.51 18.7995 104.396C18.5812 104.269 18.3348 104.361 18.1939 104.552C17.7292 105.203 16.7505 105.45 16.0535 105.118C15.2931 104.75 14.8988 103.838 15.0959 103.06C15.2367 102.508 14.3918 102.275 14.2439 102.827L14.251 102.834Z"
            fill="#083B30" />
        <path
            d="M188.741 127.109C195.578 124.04 202.126 121.806 209.66 121.304C209.822 121.289 209.822 121.042 209.66 121.049C202.415 121.445 194.916 123.149 188.664 126.975C188.579 127.024 188.649 127.144 188.741 127.109Z"
            fill="#083B30" />
        <path
            d="M150.67 142.588C155.247 134.173 158.648 125.377 164.182 117.478C164.464 117.082 163.816 116.722 163.541 117.104C157.951 124.726 153.55 133.558 150.206 142.397C150.1 142.666 150.537 142.843 150.67 142.595V142.588Z"
            fill="#DCF6E5" />
        <path
            d="M124.541 130.489C124.499 130.511 124.562 130.489 124.64 130.489C124.752 130.489 124.858 130.497 124.971 130.511C125.323 130.56 125.668 130.673 125.999 130.779C127.062 131.119 128.097 131.564 129.118 132.024C132.145 133.374 135.103 134.902 138.039 136.436C144.678 139.908 151.22 143.571 157.824 147.092C161.204 148.896 164.499 150.882 167.731 152.947C168.209 153.251 168.653 152.488 168.174 152.184C162.168 148.344 155.867 145.042 149.607 141.641C143.031 138.063 136.469 134.35 129.632 131.288C128.477 130.772 127.301 130.249 126.083 129.881C125.478 129.697 124.703 129.443 124.091 129.733C123.577 129.973 124.027 130.737 124.534 130.497L124.541 130.489Z"
            fill="#083B30" />
    </g>
    <defs>
        <clipPath id="clip0_2469_27567">
            <rect width="316" height="271" fill="white" />
        </clipPath>
    </defs>
</svg>