<svg width="416" height="245" viewBox="0 0 416 245" fill="none" xmlns="http://www.w3.org/2000/svg">
    <g clip-path="url(#clip0_2917_145480)">
        <path
            d="M153.875 244.967C200.841 244.914 190.299 241.621 237.265 241.575C255.175 241.556 273.246 241.523 290.753 237.678C308.254 233.834 325.38 225.836 337.176 212.213C351.821 195.297 356.602 171.947 358.689 149.57C361.396 120.556 360.494 91.1927 355.995 62.4016C353.795 48.3116 350.347 33.5842 340.631 23.2402C329.914 11.8315 313.697 7.93443 298.34 5.37142C246.805 -3.23108 193.938 -2.86306 142.276 4.91139C126.299 7.31668 109.68 10.7669 97.2278 21.1766C82.7735 33.2622 76.4559 52.787 74.531 71.6481C72.6061 90.5092 74.3547 109.6 72.6061 128.475C70.66 149.531 70.9703 175.516 72.2042 196.631C73.4451 217.746 91.8832 246.11 154.876 244.967"
            fill="#74B7A7" fill-opacity="0.5" />
        <path
            d="M214.853 33.8242C214.614 33.8242 214.41 33.9869 214.361 34.2273C213.572 38.0174 207.489 67.32 208.157 68.2605C208.869 69.2646 256.163 69.6959 256.452 69.2646C256.74 68.8332 263.31 35.4011 262.31 34.6869C261.366 34.0081 219.458 33.8454 214.853 33.8242Z"
            fill="#DCF6E5" />
        <path
            d="M214.854 33.8225C214.854 33.8225 237.941 16.1235 241.574 16.0316C245.207 15.9397 262.303 34.8407 262.303 34.8407"
            fill="#DCF6E5" />
        <path
            d="M208.467 68.187C215.304 62.6292 221.923 56.8167 228.576 51.0467C229.006 50.6719 228.379 50.0497 227.957 50.4244C221.296 56.1945 214.684 62.0069 207.848 67.5648C207.404 67.9254 208.031 68.5477 208.467 68.187Z"
            fill="#498577" />
        <path
            d="M257.057 69.1787C251.938 63.4935 247.003 57.6457 241.884 51.9535C241.504 51.5292 240.884 52.1585 241.264 52.5757C246.383 58.2609 251.319 64.1087 256.438 69.8009C256.818 70.2252 257.437 69.5959 257.057 69.1787Z"
            fill="#498577" />
        <path
            d="M217.515 37.7201C217.515 37.7201 220.902 19.3777 222.401 19.1302C223.901 18.8756 258.93 19.3918 259.557 20.5232C260.183 21.6546 257.803 38.1656 257.803 38.1656C257.803 38.1656 238.42 53.6301 235.258 53.0078C232.097 52.3927 231.428 52.4351 229.287 50.2925C227.147 48.15 217.508 37.7201 217.508 37.7201H217.515Z"
            fill="#DCF6E5" />
        <path
            d="M214.389 34.7562C217.092 37.9665 219.874 41.1061 222.739 44.175C224.155 45.6882 225.584 47.1802 227.034 48.658C228.281 49.9238 229.506 51.2814 230.998 52.2643C234.216 54.3927 237.694 53.1623 240.687 51.2673C244.144 49.0823 247.46 46.6286 250.741 44.182C254.452 41.4172 258.078 38.5534 261.627 35.5836C262.063 35.2159 261.437 34.5936 261.007 34.9613C254.945 40.0313 248.636 44.8114 242.109 49.2662C239.124 51.3026 235.413 53.8624 231.801 51.7269C230.308 50.843 229.104 49.4995 227.893 48.2762C226.52 46.8832 225.161 45.469 223.824 44.0406C220.803 40.8162 217.867 37.514 215.015 34.134C214.649 33.7027 214.03 34.3249 214.396 34.7562H214.389Z"
            fill="#498577" />
        <path
            d="M218.325 37.6038C218.641 34.4713 219.31 31.353 219.965 28.277C220.613 25.2294 221.303 22.1888 222.12 19.1836C221.979 19.2897 221.838 19.4028 221.697 19.5089C225.802 19.4947 229.907 19.5159 234.012 19.5584C240.729 19.622 247.467 19.6856 254.17 20.117C255.36 20.1948 256.55 20.2725 257.726 20.4423C258.099 20.4917 258.479 20.5554 258.846 20.6544C258.923 20.6756 259.176 20.7322 259.113 20.7322C259.268 20.7322 259.219 20.8807 259.12 20.6402C259.331 21.1564 260.183 20.9302 259.972 20.4069C259.775 19.919 259.191 19.82 258.726 19.721C257.846 19.5442 256.944 19.4594 256.057 19.3816C253.058 19.1129 250.037 19.0139 247.024 18.922C240.159 18.7098 233.287 18.6533 226.422 18.632C224.845 18.632 223.267 18.625 221.69 18.632C221.5 18.632 221.317 18.7664 221.268 18.9573C220.43 22.0403 219.719 25.1728 219.064 28.2982C218.416 31.3742 217.761 34.4784 217.444 37.6109C217.388 38.1766 218.268 38.1695 218.325 37.6109V37.6038Z"
            fill="#498577" />
        <path
            d="M259.198 37.0733C259.592 31.7134 260.205 26.3747 260.606 21.0219C260.648 20.4562 259.768 20.4562 259.726 21.0219C259.332 26.3818 258.719 31.7205 258.318 37.0733C258.275 37.639 259.156 37.639 259.198 37.0733Z"
            fill="#498577" />
        <path
            d="M224.133 29.3272C225.57 29.009 226.964 28.514 228.274 27.8281C229.118 27.3826 230.287 26.7321 230.238 25.6078C230.203 24.7734 229.442 24.2077 228.675 24.0946C227.767 23.9602 226.971 24.5118 226.696 25.3815C225.908 27.8847 228.696 29.1504 230.682 29.2636C232.752 29.3838 236.73 28.7403 237.209 26.1876C237.617 24.0027 234.857 23.2955 233.78 25.028C232.407 27.2342 235.23 29.2848 237.11 29.5747C239.293 29.9141 242.355 29.3767 244.102 27.9483C245.454 26.8452 245.918 24.1158 243.94 23.3238C242.968 22.9349 241.94 23.4723 241.454 24.3491C240.877 25.3957 241.123 26.619 241.954 27.4463C244.545 30.0414 248.291 27.3261 251.283 27.6655C251.847 27.7291 251.84 26.8452 251.283 26.7816C249.594 26.5907 248.045 27.1988 246.418 27.5241C244.982 27.814 242.081 27.7645 242.003 25.6432C241.975 24.8936 242.616 23.8966 243.468 24.0946C244.13 24.2501 244.411 25.0421 244.404 25.6502C244.383 27.3049 242.461 27.9837 241.144 28.3302C239.68 28.7191 238.046 29.0019 236.561 28.5423C235.793 28.3019 235.054 27.8493 234.646 27.1352C234.167 26.3149 234.294 25.0987 235.392 24.9148C236.575 24.7168 236.483 26.2088 235.913 26.824C235.3 27.4816 234.329 27.8281 233.491 28.0685C231.963 28.4999 229.893 28.6696 228.478 27.7857C227.738 27.3261 227.161 26.3361 227.605 25.4734C228.105 24.5047 229.823 25.0916 229.14 26.1381C228.682 26.8311 227.478 27.2554 226.753 27.5665C225.823 27.9625 224.866 28.2524 223.88 28.4716C223.324 28.5918 223.563 29.4474 224.112 29.3272H224.133Z"
            fill="#498577" />
        <path
            d="M223.648 33.1144C233.864 33.2204 244.081 33.3265 254.297 33.4326C254.861 33.4326 254.868 32.5557 254.297 32.5487C244.081 32.4426 233.864 32.3365 223.648 32.2305C223.084 32.2305 223.077 33.1073 223.648 33.1144Z"
            fill="#498577" />
        <path
            d="M224.148 36.7511C233.491 36.8289 242.827 36.9066 252.171 36.9844C252.734 36.9844 252.741 36.1076 252.171 36.1005C242.827 36.0228 233.491 35.945 224.148 35.8672C223.584 35.8672 223.577 36.744 224.148 36.7511Z"
            fill="#498577" />
        <path
            d="M227.647 40.3695C233.153 40.2988 238.659 40.2281 244.158 40.1574C244.721 40.1503 244.728 39.2664 244.158 39.2735C238.652 39.3442 233.146 39.4149 227.647 39.4856C227.084 39.4927 227.077 40.3766 227.647 40.3695Z"
            fill="#498577" />
        <path
            d="M58.0734 146.102C57.8692 146.102 57.7002 146.243 57.658 146.441C56.9961 149.616 51.8984 174.188 52.4547 174.973C53.0532 175.814 92.701 176.175 92.9404 175.814C93.1798 175.454 98.6929 147.424 97.855 146.823C97.0594 146.257 61.9248 146.116 58.0664 146.102H58.0734Z"
            fill="#DCF6E5" />
        <path
            d="M58.0732 146.1C58.0732 146.1 77.4289 131.258 80.4777 131.18C83.5264 131.102 97.8619 146.949 97.8619 146.949"
            fill="#DCF6E5" />
        <path
            d="M52.7715 174.966C58.5029 170.306 64.0512 165.434 69.6347 160.597C70.0642 160.223 69.4375 159.6 69.0151 159.975C63.4316 164.812 57.8832 169.684 52.1519 174.344C51.7083 174.704 52.3349 175.327 52.7715 174.966Z"
            fill="#498577" />
        <path
            d="M93.5107 175.693C89.2228 170.928 85.0826 166.02 80.7876 161.254C80.4074 160.83 79.7878 161.459 80.168 161.877C84.456 166.642 88.5961 171.55 92.8911 176.316C93.2713 176.74 93.8909 176.111 93.5107 175.693Z"
            fill="#498577" />
        <path
            d="M60.3054 149.367C60.3054 149.367 63.1429 133.988 64.4033 133.776C65.6636 133.564 95.0316 133.995 95.5527 134.942C96.0737 135.89 94.0811 149.735 94.0811 149.735C94.0811 149.735 77.8305 162.696 75.1831 162.18C72.5356 161.664 71.9724 161.699 70.1769 159.903C68.3814 158.107 60.3054 149.36 60.3054 149.36V149.367Z"
            fill="#DCF6E5" />
        <path
            d="M57.6368 146.928C59.918 149.629 62.2556 152.274 64.6707 154.862C65.8606 156.135 67.0576 157.386 68.2757 158.631C69.3248 159.699 70.3669 160.844 71.6343 161.664C74.2606 163.361 77.1192 162.428 79.5835 160.901C82.5408 159.062 85.3642 156.955 88.1595 154.876C91.2857 152.55 94.3485 150.124 97.3409 147.628C97.7775 147.26 97.1508 146.638 96.7213 147.006C91.68 151.22 86.4485 155.194 81.0269 158.892C78.5133 160.611 75.3801 162.845 72.3243 161.049C71.0639 160.307 70.05 159.168 69.0291 158.129C67.8884 156.969 66.7619 155.795 65.6494 154.607C63.1147 151.906 60.6573 149.134 58.2704 146.306C57.9043 145.875 57.2847 146.497 57.6508 146.928H57.6368Z"
            fill="#498577" />
        <path
            d="M61.0587 149.267C61.3263 146.636 61.8895 144.027 62.4387 141.446C62.9809 138.9 63.5583 136.355 64.2412 133.845C64.1004 133.951 63.9596 134.064 63.8188 134.17C67.2618 134.163 70.6978 134.177 74.1409 134.212C79.7737 134.269 85.4206 134.318 91.0393 134.679C92.0461 134.743 93.06 134.813 94.0599 134.955C94.3556 134.997 94.6583 135.047 94.947 135.124C95.0174 135.146 95.2287 135.216 95.1723 135.195C95.3132 135.252 95.1935 135.209 95.1723 135.174C95.3977 135.697 96.151 135.245 95.9328 134.728C95.7779 134.368 95.2076 134.276 94.8766 134.212C94.1232 134.057 93.3417 133.986 92.5742 133.922C90.0817 133.703 87.5821 133.618 85.0826 133.54C79.316 133.364 73.5494 133.314 67.7829 133.293C66.4591 133.293 65.1354 133.293 63.8047 133.293C63.6146 133.293 63.4315 133.427 63.3822 133.618C62.6781 136.213 62.0796 138.844 61.5304 141.474C60.9883 144.055 60.4461 146.657 60.1715 149.281C60.1152 149.846 60.9953 149.839 61.0517 149.281L61.0587 149.267Z"
            fill="#498577" />
        <path
            d="M95.3274 148.829C95.6583 144.339 96.1723 139.863 96.5032 135.366C96.5455 134.8 95.6654 134.8 95.6231 135.366C95.2922 139.856 94.7782 144.332 94.4473 148.829C94.405 149.395 95.2852 149.395 95.3274 148.829Z"
            fill="#498577" />
        <path
            d="M65.8748 142.396C67.1492 142.113 68.3884 141.668 69.5361 141.038C70.2402 140.649 71.1344 140.062 71.0359 139.129C70.8598 137.524 68.5433 137.51 67.9942 138.867C67.1633 140.904 69.4164 142.177 71.0922 142.332C72.8876 142.495 76.2251 142.014 76.8376 139.928C77.3728 138.111 75.2253 137.1 74.0424 138.486C72.5708 140.211 74.838 142.226 76.4433 142.566C78.3233 142.962 81.0482 142.495 82.5761 141.286C83.7801 140.338 84.2307 138.019 82.5408 137.262C80.5764 136.378 79.4358 139.193 80.5412 140.579C82.5831 143.145 86.0684 140.748 88.6172 141.017C89.1805 141.074 89.1735 140.19 88.6172 140.133C86.8077 139.942 85.1953 140.876 83.421 140.897C82.5549 140.904 81.5622 140.649 81.0974 139.843C80.7102 139.179 81.0974 137.778 82.0832 138.033C82.7662 138.21 82.8999 139.2 82.7028 139.758C82.4212 140.564 81.5058 140.989 80.7595 141.25C79.3583 141.738 77.6051 142.099 76.1617 141.583C75.3379 141.286 74.2043 140.395 74.5423 139.362C74.662 139.009 75.0844 138.648 75.4787 138.698C76.3518 138.811 76.035 139.836 75.6407 140.246C74.5 141.42 72.2047 141.689 70.6768 141.406C69.8811 141.257 68.9728 140.869 68.7616 139.999C68.663 139.603 68.7123 139.037 69.1207 138.818C69.3953 138.669 69.9868 138.775 70.1135 139.108C70.5852 140.338 66.3888 141.399 65.6354 141.569C65.0862 141.689 65.3186 142.544 65.8678 142.424L65.8748 142.396Z"
            fill="#498577" />
        <path
            d="M65.4454 145.575C74.0143 145.667 82.5761 145.752 91.145 145.844C91.7083 145.844 91.7153 144.967 91.145 144.96C82.5761 144.868 74.0143 144.783 65.4454 144.691C64.8821 144.691 64.875 145.568 65.4454 145.575Z"
            fill="#498577" />
        <path
            d="M65.8677 148.626C73.6973 148.69 81.5269 148.76 89.3635 148.824C89.9268 148.824 89.9339 147.947 89.3635 147.94C81.534 147.877 73.7044 147.806 65.8677 147.742C65.3045 147.742 65.2974 148.619 65.8677 148.626Z"
            fill="#498577" />
        <path
            d="M68.8038 151.666C73.4156 151.61 78.0345 151.546 82.6464 151.489C83.2096 151.482 83.2167 150.598 82.6464 150.606C78.0345 150.662 73.4156 150.726 68.8038 150.782C68.2405 150.789 68.2334 151.673 68.8038 151.666Z"
            fill="#498577" />
        <path
            d="M163.912 156.637C163.912 156.637 149.576 166.062 148.816 163.835C148.612 163.234 156.216 151.545 156.216 151.545C156.216 151.545 147.689 144.213 149.471 143.392C151.252 142.572 160.314 143.216 160.314 143.216C160.314 143.216 164.088 129.773 165.686 132.644C167.292 135.515 167.186 144.729 167.186 144.729C167.186 144.729 180.423 139.524 178.663 142.233C176.903 144.941 169.671 151.835 169.671 151.835C169.671 151.835 177.248 162.301 174.98 162.223C172.713 162.145 163.919 156.629 163.919 156.629L163.912 156.637Z"
            fill="#2D7766" />
        <path
            d="M118.54 190.945C118.342 190.945 118.174 191.08 118.138 191.271C117.491 194.375 112.52 218.353 113.062 219.124C113.646 219.944 152.343 220.297 152.576 219.944C152.808 219.59 158.188 192.232 157.371 191.645C156.596 191.094 122.307 190.952 118.54 190.945Z"
            fill="#DCF6E5" />
        <path
            d="M118.16 191.172C119.913 193.597 121.736 195.98 123.581 198.335C125.123 200.3 126.693 202.245 128.341 204.126C129.65 205.632 131.002 207.159 132.544 208.425C133.326 209.069 134.234 209.797 135.297 209.472C136.614 209.069 137.839 208.121 138.952 207.343C142.81 204.649 146.45 201.623 150.062 198.61C152.625 196.468 155.174 194.304 157.681 192.098C158.11 191.723 157.484 191.101 157.061 191.476C151.604 196.27 146.056 201.029 140.219 205.356C138.846 206.375 137.445 207.414 135.938 208.227C134.959 208.75 134.579 208.828 133.657 208.178C132.192 207.145 130.953 205.724 129.763 204.402C128.186 202.648 126.686 200.824 125.215 198.985C123.06 196.284 120.955 193.533 118.927 190.733C118.596 190.281 117.836 190.719 118.167 191.179L118.16 191.172Z"
            fill="#498577" />
        <path
            d="M113.372 219.123C118.969 214.577 124.384 209.818 129.826 205.101C130.256 204.727 129.629 204.104 129.207 204.479C123.757 209.203 118.343 213.961 112.752 218.501C112.308 218.862 112.935 219.484 113.372 219.123Z"
            fill="#498577" />
        <path
            d="M153.132 219.824C148.943 215.171 144.908 210.384 140.719 205.731C140.339 205.307 139.719 205.936 140.099 206.353C144.289 211.006 148.323 215.793 152.512 220.446C152.893 220.87 153.512 220.241 153.132 219.824Z"
            fill="#498577" />
        <path
            d="M330.42 159.422C330.251 159.422 330.103 159.542 330.068 159.705C329.512 162.392 325.202 183.138 325.674 183.803C326.181 184.517 359.668 184.821 359.865 184.517C360.069 184.213 364.724 160.539 364.012 160.03C363.344 159.549 333.673 159.436 330.413 159.422H330.42Z"
            fill="#DCF6E5" />
        <path
            d="M330.039 159.643C331.56 161.75 333.137 163.815 334.743 165.858C337.109 168.878 339.531 172.159 342.516 174.598C343.199 175.157 343.995 175.786 344.917 175.51C346.051 175.171 347.107 174.358 348.064 173.686C351.423 171.345 354.591 168.708 357.732 166.085C359.95 164.232 362.153 162.358 364.329 160.442C364.759 160.067 364.132 159.445 363.709 159.82C358.992 163.97 354.19 168.086 349.142 171.826C347.959 172.703 346.748 173.601 345.445 174.301C344.614 174.747 344.319 174.817 343.537 174.273C342.298 173.403 341.242 172.201 340.235 171.077C338.855 169.549 337.545 167.958 336.264 166.353C334.391 164.006 332.567 161.623 330.8 159.19C330.469 158.738 329.708 159.176 330.039 159.636V159.643Z"
            fill="#498577" />
        <path
            d="M325.984 183.849C330.828 179.917 335.51 175.795 340.221 171.715C340.65 171.34 340.024 170.718 339.601 171.092C334.891 175.18 330.201 179.295 325.364 183.226C324.921 183.587 325.547 184.209 325.984 183.849Z"
            fill="#498577" />
        <path
            d="M360.393 184.37C356.767 180.346 353.275 176.203 349.649 172.172C349.269 171.748 348.649 172.377 349.029 172.794C352.655 176.818 356.148 180.962 359.774 184.992C360.154 185.416 360.774 184.787 360.393 184.37Z"
            fill="#498577" />
        <path
            d="M171.597 22.4082C171.597 22.4082 173.759 33.0431 171.963 32.7603C171.477 32.6825 165.056 25.4205 165.056 25.4205C165.056 25.4205 157.628 29.4439 157.811 28.0721C157.994 26.7003 162.38 20.6828 162.38 20.6828C162.38 20.6828 153.776 13.244 156.339 13.2299C158.909 13.2157 165 16.3836 165 16.3836C165 16.3836 166.95 6.49818 168.034 8.49223C169.119 10.4863 170.752 17.2533 170.752 17.2533C170.752 17.2533 180.828 16.129 179.842 17.4937C178.856 18.8585 171.59 22.4082 171.59 22.4082H171.597Z"
            fill="#2D7766" />
        <path
            d="M313.801 15.1876C313.801 15.1876 331.692 16.7927 330.389 19.5292C330.037 20.2646 315.462 27.0812 315.462 27.0812C315.462 27.0812 318.307 40.8769 316.223 39.9294C314.139 38.9818 306.689 29.0964 306.689 29.0964C306.689 29.0964 290.798 39.3142 291.995 35.1988C293.192 31.0834 301.12 22.8456 301.12 22.8456C301.12 22.8456 286.376 15.0179 290.058 14.233C293.741 13.4481 305.246 14.0704 305.246 14.0704C305.246 14.0704 308.259 -2.57502 309.956 -0.354695C311.653 1.8727 313.808 15.1876 313.808 15.1876H313.801Z"
            fill="#2D7766" />
        <path
            d="M116.787 55.3332C116.335 53.9316 115.181 52.8431 114.229 51.7452C112.986 50.3129 111.777 48.817 110.411 47.4944C109.393 46.5043 108.034 48.0625 108.95 49.0907C110.129 50.4053 111.466 51.5878 112.745 52.7979C113.857 53.8459 114.937 55.1222 116.385 55.6595C116.592 55.7386 116.868 55.5826 116.784 55.3272L116.787 55.3332Z"
            fill="#18A88B" />
        <path
            d="M124.254 53.3173C124.778 51.4055 124.66 49.4364 124.542 47.4673C124.431 45.6022 124.665 43.213 124.039 41.4278C123.734 40.5677 122.325 40.4647 122.154 41.4802C121.835 43.4141 122.474 45.7915 122.699 47.7189C122.931 49.6583 123.158 51.576 123.995 53.3542C124.051 53.4696 124.226 53.4183 124.251 53.3113L124.254 53.3173Z"
            fill="#18A88B" />
        <path
            d="M131.598 54.3082C134.178 52.3788 135.532 49.2312 137.502 46.7496C138.625 45.3309 136.287 43.7819 135.514 45.3487C134.101 48.2162 131.934 50.9797 131.462 54.2099C131.45 54.284 131.53 54.359 131.598 54.3082Z"
            fill="#18A88B" />
        <path
            d="M315.973 69.8293C316.732 66.8126 315.884 63.5719 315.408 60.5403C314.784 56.5828 314.293 52.5506 313.326 48.6529C312.613 45.7407 308.434 47.0101 308.925 49.8775C309.564 53.5512 310.635 57.1653 311.572 60.7643C312.39 63.8856 312.895 67.3801 314.888 69.9637C315.17 70.3371 315.839 70.3669 315.973 69.8144V69.8293Z"
            fill="#18A88B" />
        <path
            d="M331.602 74.5756C334.68 71.7382 336.673 68.0793 338.666 64.4205C340.554 60.9558 343.647 56.9386 344.525 53.0408C344.941 51.1591 342.532 49.3969 341.09 51.0247C338.353 54.131 336.837 59.104 335.082 62.8076C333.327 66.5411 331.587 70.2298 331.097 74.3516C331.067 74.6204 331.439 74.725 331.602 74.5607V74.5756Z"
            fill="#18A88B" />
        <path
            d="M343.647 84.5729C350.428 84.0055 356.376 79.8837 362.681 77.6436C366.28 76.3592 363.826 70.9681 360.689 72.9095C354.949 76.4638 347.975 78.9876 343.513 84.2444C343.409 84.3639 343.469 84.5879 343.647 84.5729Z"
            fill="#18A88B" />
        <path
            d="M131.595 107.695C130.659 107.695 129.856 108.337 129.662 109.263C126.569 124.108 102.762 238.861 105.379 242.549C108.174 246.477 293.371 248.165 294.501 246.477C295.616 244.79 321.357 113.863 317.446 111.055C313.743 108.397 149.618 107.755 131.61 107.695H131.595Z"
            fill="#2ACF83" />
        <path
            d="M130.792 108.156C139.09 119.61 147.67 130.885 156.414 142.011C163.715 151.315 171.165 160.529 178.928 169.46C185.203 176.673 191.657 183.976 199.003 190.129C202.527 193.086 206.84 196.819 211.687 195.146C218.097 192.951 223.97 188.486 229.458 184.618C247.912 171.64 265.355 157.139 282.664 142.653C294.397 132.842 306.025 122.911 317.535 112.83C317.729 112.666 317.922 112.502 318.1 112.337C319.007 111.546 317.684 110.232 316.792 111.023C307.334 119.341 297.758 127.51 288.136 135.634C270.812 150.27 253.325 164.801 235.079 178.271C228.595 183.065 221.978 187.963 214.825 191.712C213.16 192.578 210.959 193.758 209.219 193.817C207.211 193.892 205.055 192.369 203.405 191.219C196.401 186.291 190.482 179.6 184.772 173.268C177.099 164.756 169.812 155.9 162.66 146.939C152.444 134.141 142.51 121.104 132.859 107.872C132.696 107.663 132.547 107.439 132.383 107.23C131.684 106.274 130.078 107.2 130.777 108.171L130.792 108.156Z"
            fill="#083B30" />
        <path
            d="M106.018 241.715C126.673 224.929 146.837 207.561 166.927 190.103C172.875 184.936 178.824 179.754 184.787 174.602C185.694 173.81 184.37 172.496 183.478 173.288C163.358 190.716 143.373 208.293 122.955 225.377C116.903 230.44 110.836 235.443 104.709 240.416C103.773 241.178 105.096 242.492 106.018 241.73V241.715Z"
            fill="#083B30" />
        <path
            d="M296.315 246.712C280.924 229.613 265.965 212.125 250.767 194.862C246.172 189.635 241.547 184.438 236.893 179.27C236.09 178.374 234.781 179.703 235.584 180.585C250.975 197.684 265.935 215.172 281.132 232.436C285.727 237.662 290.352 242.859 295.007 248.027C295.81 248.923 297.118 247.594 296.315 246.712Z"
            fill="#083B30" />
        <g opacity="0.3">
            <path
                d="M160.89 159.723C160.816 158.259 160.979 156.123 162.957 156.258C166.883 158.378 160.622 162.5 160.89 159.723ZM258.975 175.582C259.674 174.686 260.358 173.79 261.042 172.909C260.73 172.7 260.403 172.521 260.061 172.342C257.875 173.074 258.083 174.642 258.975 175.582ZM234.171 190.621C234.841 193.862 237.844 192.981 237.874 190.248C237.473 188.097 234.38 188.605 234.171 190.621ZM250.395 181.511C249.622 182.273 250.767 183.139 251.168 183.811C251.466 184.184 251.793 184.274 252.15 184.229C252.73 183.512 253.295 182.811 253.875 182.094C253.235 180.63 251.704 180.063 250.41 181.511H250.395ZM228.907 208.691C229.205 207.989 229.457 207.362 229.755 206.645C226.186 201.657 224.223 210.005 228.907 208.691ZM184.4 196.356C186.571 192.846 181.857 192.966 181.099 194.549C181.619 195.31 182.125 196.057 182.631 196.789C183.24 196.639 183.82 196.49 184.385 196.356H184.4ZM176.727 186.171C176.385 185.603 175.864 185.185 175.285 184.677C175.076 184.677 174.898 184.722 174.734 184.767C175.18 185.484 175.641 186.201 176.088 186.917C176.206 186.708 176.385 186.529 176.727 186.171ZM283.095 140.622C283.036 141.399 283.021 141.682 283.17 142.175C283.705 141.369 284.21 140.637 284.657 139.95C284.121 140.174 283.601 140.398 283.08 140.622H283.095ZM254.202 178.823C254.247 179.525 254.767 179.958 255.406 180.137C256.15 179.196 256.893 178.241 257.637 177.3C256.581 176.479 254.425 177.3 254.202 178.823ZM247.228 176.941C245.607 177.882 245.964 180.272 247.971 180.197C251.466 180.331 249.622 176.001 247.228 176.941ZM180.326 175.269C181.946 172.939 177.188 171.311 177.203 174.119C176.935 175.881 179.627 177.434 180.326 175.269ZM241.978 175.105C242.157 175.448 242.35 175.851 242.588 176.299C249.027 176.18 243.376 169.011 241.978 175.105ZM145.663 132.005C146.153 132.991 146.704 134.081 147.283 135.261C148.696 132.632 147.194 130.825 145.663 132.005ZM177.188 182.497C177.039 184.199 179.879 185.543 180.4 183.766C181.069 180.705 178.497 179.51 177.188 182.497ZM158.942 147.507C159.552 147.462 159.894 146.984 160.027 146.372C159.358 145.58 158.689 144.803 158.05 144.042C156.518 144.803 156.027 147.701 158.942 147.492V147.507ZM205.561 195.669C206.304 197.222 208.728 197.431 208.728 195.176C208.698 194.952 208.654 194.743 208.594 194.564C207.851 194.773 207.256 194.847 206.81 194.758C206.483 194.698 206.081 194.534 205.635 194.295C205.531 194.683 205.486 195.131 205.561 195.684V195.669ZM217.606 191.218C218.26 192.264 219.509 191.786 220.372 192.562C223.851 189.411 218.126 187.261 217.606 191.218ZM211.806 196.804C210.2 198.193 208.654 199.492 211.078 200.806C212.104 201.388 212.624 200.044 213.189 199.402C214.037 198.252 212.49 197.67 211.806 196.804ZM200.549 193.488C196.222 192.801 195.925 197.311 200.609 195.997C201.278 195.161 201.531 194.384 200.549 193.488ZM227.361 192.652C229.591 192.831 230.751 189.501 228.104 189.396C225.785 188.963 225.264 191.935 227.361 192.652ZM159.031 155.974C159.388 155.765 159.76 155.541 160.132 155.332C160.236 154.75 160.325 154.197 160.355 154.033C159.715 153.211 159.224 152.599 158.808 152.061C157.395 152.061 157.559 153.346 156.934 153.868C157.202 154.361 157.47 154.854 157.737 155.362C158.079 155.66 158.496 155.884 159.016 155.989L159.031 155.974ZM227.599 201C232.149 198.536 226.528 194.325 225.889 199.731C226.409 200.119 226.974 200.537 227.599 201ZM193.932 206.182C193.798 206.63 193.664 207.093 193.531 207.541C196.862 212.753 199.241 202.927 193.932 206.182ZM255.957 163.725C259.005 163.59 258.291 161.395 256.998 160.589C256.195 161.231 255.377 161.888 254.574 162.53C254.841 163.128 255.302 163.456 255.971 163.725H255.957ZM256.7 168.339C254.975 168.832 255.079 169.012 254.618 170.49C254.99 174.134 260.611 170.326 256.7 168.339ZM273.727 154.974C274.693 154.077 273.563 153.331 273.236 152.3C270.887 151.808 270.619 153.659 271.229 155.481C272.537 156.243 272.968 156.019 273.727 154.959V154.974ZM231.926 184.662C229.874 185.484 228.729 187.38 231.406 188.187C234.052 188.799 233.889 185.738 231.926 184.662ZM207.732 201.075C206.711 201.403 206.027 202.055 205.68 203.031C205.932 203.405 206.215 203.823 206.512 204.241C207.048 204.375 207.583 204.51 208.237 204.674C210.007 203.629 209.412 201.777 207.732 201.075ZM235.019 197.371C234.737 198.028 234.469 198.685 234.201 199.298C234.38 199.761 234.528 200.164 234.677 200.552C235.658 200.627 236.536 200.716 237.398 200.477C237.859 198.775 237.116 196.624 235.019 197.371ZM241.116 188.052C241.28 187.365 241.443 186.723 241.607 186.036C237.354 182.258 237.22 190.516 241.116 188.052ZM233.636 178.734C232.907 179.286 232.179 179.824 231.45 180.346C231.584 180.391 231.688 180.466 231.852 180.481C232.803 180.152 233.413 179.585 233.636 178.734ZM203.613 196.848C201.486 197.431 200.758 199.97 203.003 200.761C204.966 199.79 205.814 198.073 203.613 196.848ZM230.989 204.599C233.175 205.286 234.573 202.419 232.506 201.329C230.484 200.672 229.324 203.375 230.989 204.599ZM208.698 217.965C207.628 216.89 206.795 217.428 205.814 218.129C203.925 220.967 209.962 222.221 208.698 217.965ZM215.97 212.813C219.688 211.887 214.037 206.645 214.156 210.767C213.948 211.917 214.661 213.201 215.97 212.813ZM279.72 147.223C280.374 146.282 280.984 145.386 281.578 144.535C281.355 144.385 281.132 144.236 280.879 144.072C278.47 144.714 278.634 146.581 279.734 147.223H279.72ZM193.902 200.089C195.33 201.359 195.821 201.164 197.07 199.462C196.534 196.117 193.248 196.819 193.902 200.089ZM231.019 193.19C229.785 193.19 230.677 194.997 230.156 195.609C230.84 196.774 231.792 196.595 232.848 196.415C233.145 195.863 233.443 195.28 233.696 194.803C233.19 193.429 231.985 193.518 231.019 193.175V193.19ZM164.147 164.964C163.715 164.8 163.254 164.621 162.734 164.427C163.21 165.293 163.7 166.144 164.191 167.01C163.864 166.323 164.444 165.696 164.132 164.964H164.147ZM167.225 168.967C166.526 169.086 166.02 169.31 165.663 169.594C166.184 170.49 166.704 171.401 167.225 172.297C168.816 171.983 169.277 168.937 167.225 168.967ZM192.4 196.027C192.921 194.773 192.728 193.175 191.032 192.891C188.385 194.429 189.307 197.476 192.4 196.027ZM246.083 169.25C245.964 170.117 246.841 170.4 246.901 171.237C252.388 173.312 249.607 166.592 246.083 169.25ZM187.24 200.851C187.805 200.433 188.37 199.985 189.099 199.432C188.787 198.775 188.519 198.237 188.207 197.61C185.277 196.415 184.37 200.044 187.225 200.851H187.24ZM216.03 203.688C218.795 201.762 213.71 200.015 213.502 202.867C213.338 204.614 217.442 206.018 216.03 203.688ZM154.005 148.343C154.481 149.254 154.971 150.165 155.462 151.106C155.879 150.613 156.042 149.956 156.146 149.254C155.076 148.328 154.6 148.074 153.99 148.343H154.005ZM203.642 213.216C203.107 214.172 201.635 214.157 201.65 215.65C202.096 216.382 202.512 217.248 203.806 217.129C205.576 216.337 205.011 214.306 203.642 213.216ZM250.395 174.657C250.633 175.12 250.871 175.553 251.094 175.986C252.165 176.165 253.176 176.374 253.756 175.194C253.607 174.582 253.458 173.985 253.295 173.327C252.759 173.059 252.224 172.775 251.689 172.506C250.678 173.059 250.767 173.94 250.395 174.657ZM187.092 180.899C186.675 181.183 186.214 181.496 185.798 181.765C185.664 182.303 185.545 182.796 185.411 183.378C186.824 184.916 187.121 184.931 188.534 183.677C188.608 182.587 188.564 181.198 187.092 180.884V180.899ZM151.804 138.89C151.284 137.77 151.7 136.157 150.406 135.664C149.767 136.052 149.098 136.455 148.473 136.829C148.414 137.202 148.473 137.546 148.607 137.874C148.681 138.023 148.756 138.173 148.845 138.337C149.499 139.323 150.838 139.801 151.804 138.89ZM225.279 194.16C224.967 193.339 222.87 192.697 222.454 193.608C221.888 194.668 222.335 195.43 222.84 196.505C224.402 196.863 225.695 195.803 225.279 194.16ZM193.055 186.245C192.534 185.827 192.058 185.439 191.597 185.08C189.709 185.454 189.768 185.947 189.634 187.664C190.943 189.74 192.787 188.022 193.055 186.245ZM185.887 191.756C187.478 192.906 189.248 191.427 188.653 189.561C186.883 187.858 184.579 189.74 185.887 191.756ZM165.083 161.679C165.321 162.515 165.158 163.904 166.362 163.829C170.392 164.367 168.043 158.289 165.083 161.679ZM169.292 174.268C168.846 175.597 169.723 175.911 170.823 176.523C175.314 173.507 168.92 171.535 169.292 174.268ZM213.561 217.846C213.814 218.682 213.829 219.25 213.799 220.101C214.067 220.22 214.334 220.31 214.587 220.384C215.45 219.996 216.357 219.533 217.279 218.981C216.386 217.622 215.003 217.771 213.561 217.831V217.846ZM212.014 217.248C212.401 216.681 212.803 216.098 213.204 215.516C211.583 210.752 207.598 216.024 212.014 217.248ZM173.485 163.068C173.946 163.157 174.392 163.337 174.824 163.441C174.318 162.859 173.812 162.291 173.292 161.709C173.351 162.172 173.411 162.635 173.47 163.068H173.485ZM170.362 159.752C170.675 159.633 170.972 159.513 171.269 159.409C170.615 158.662 169.976 157.93 169.336 157.199C169.084 157.811 169.277 158.707 170.362 159.767V159.752ZM246.41 187.007C246.692 188.157 247.882 188.5 248.834 188.276C249.235 187.798 249.637 187.306 250.038 186.828C250.038 186.768 250.038 186.723 250.023 186.663C249.488 184.438 246.915 185.155 246.425 187.022L246.41 187.007ZM242.752 181.437C242.588 181.959 242.439 182.482 242.32 182.915C243.51 185.917 247.778 182.706 245.071 180.959C244.387 181.362 243.599 181.466 242.752 181.437ZM237.131 181.392C235.421 180.048 234.707 181.69 234.261 183.244C235.599 186.111 237.859 183.736 237.131 181.392ZM266.321 161.768C265.905 160.962 265.206 160.663 264.507 160.469C263.66 160.678 263.154 160.843 262.589 161.515C263.109 162.396 263.6 163.202 264.15 164.128C265.34 163.561 266.039 162.844 266.321 161.754V161.768ZM237.889 194.534C240.075 198.521 243.689 195.027 240.402 193.16C239.659 193.787 238.484 193.668 237.889 194.534ZM199.88 209.513C198.899 209.841 197.412 209.751 197.382 211.11C197.679 211.559 197.947 211.977 198.23 212.41C198.78 212.529 199.33 212.634 199.821 212.738C201.07 211.633 201.338 210.618 199.865 209.498L199.88 209.513ZM263.555 168.683C263.213 169.355 262.961 169.893 262.693 170.43C262.738 170.49 262.767 170.535 262.812 170.58C263.317 169.922 263.808 169.25 264.299 168.593C264.076 168.593 263.838 168.593 263.555 168.668V168.683ZM264.165 155.586C265.072 154.974 265.86 154.092 265.875 153.405C265.102 154.033 264.329 154.66 263.541 155.302C263.734 155.407 263.927 155.511 264.165 155.586ZM161.41 151.106C162.347 151.673 163.358 151.464 163.909 150.897C163.195 150.075 162.496 149.254 161.812 148.447C161.172 148.836 161.039 149.866 161.41 151.106ZM275.05 149.612C275.006 150.792 275.883 151.464 276.745 151.464C277.236 150.762 277.712 150.09 278.173 149.433C277.519 147.955 275.467 147.716 275.05 149.612ZM269.979 150.508V150.03C269.37 150.523 268.76 151.031 268.136 151.539C268.582 151.569 269.191 151.3 269.979 150.508ZM180.891 170.848C181.218 170.983 181.515 171.117 181.813 171.252C181.56 170.968 181.307 170.699 181.054 170.415C180.995 170.55 180.935 170.684 180.891 170.848ZM222.751 204.569C223.212 204.659 223.732 203.897 224.238 204.569C224.833 204.734 225.056 203.748 225.324 203.419C225.071 202.927 224.877 202.538 224.61 202.016C222.424 200.911 220.773 202.867 222.751 204.569ZM260.581 164.248C259.972 164.262 259.57 164.576 259.63 165.054C259.778 166.174 258.856 166.204 258.589 167.13C260.745 169.504 263.6 165.726 260.596 164.248H260.581ZM178.541 168.101C178.645 168.056 178.734 167.996 178.839 167.951C178.541 167.623 178.259 167.294 177.961 166.966C177.872 167.19 177.783 167.414 177.694 167.652C178.036 167.832 178.333 167.981 178.541 168.086V168.101ZM229.695 182.975C229.532 182.601 229.368 182.273 229.19 182.004C228.357 182.601 227.539 183.199 226.736 183.766C226.974 183.96 227.435 184.08 228.387 184.155C228.803 183.736 229.264 183.348 229.71 182.99L229.695 182.975ZM221.234 214.635C220.282 213.395 217.903 214.097 217.725 215.441C218.215 216.487 219.673 217.233 220.684 216.741C220.803 216.651 220.937 216.561 221.056 216.472C221.1 216.427 221.145 216.397 221.19 216.352C220.907 215.8 221.175 215.158 221.219 214.635H221.234ZM193.337 191.009C194.319 193.025 197.516 192.338 196.966 190.039C194.616 189.068 193.992 189.247 193.337 191.009ZM217.145 194.384C216.163 192.413 214.305 193.369 213.769 195.101C214.096 195.579 214.409 196.012 214.691 196.43C216.476 196.565 216.505 196.55 217.145 194.384ZM252.224 168.235C252.908 167.832 253.458 167.234 253.771 166.264C253.637 164.979 252.759 164.397 251.956 164.606C251.674 164.83 251.377 165.069 251.094 165.293C250.96 165.517 250.826 165.786 250.767 166.114C251.124 166.846 251.049 167.877 252.224 168.25V168.235ZM225.219 185.782C224.937 185.648 224.669 185.514 224.416 185.394C223.569 185.991 222.736 186.559 221.918 187.097C223.242 188.62 225.978 188.142 225.219 185.782ZM223.643 212.828C224.491 212.634 224.937 212.44 225.561 211.887C224.461 209.961 225.086 208.736 222.379 210.005C222.468 211.275 222.022 212.455 223.658 212.813L223.643 212.828ZM240.283 180.496C244.328 176.299 236.432 175.642 239.079 180.078C239.376 180.182 239.733 180.302 240.283 180.496ZM221.145 200.149C221.978 198.103 219.301 197.162 217.978 198.521C217.338 200.537 220.03 201.299 221.145 200.149ZM153.484 140.129C152.771 140.622 153.663 141.563 153.797 142.19C154.168 143.504 155.804 143.265 156.503 142.369C156.503 142.309 156.488 142.25 156.473 142.19C155.849 141.458 155.239 140.726 154.644 140.025C154.287 139.965 153.901 139.995 153.47 140.114L153.484 140.129ZM269.578 156.781C267.987 155.093 264.998 159.215 268.18 159.409C270.143 159.17 270.351 158.632 269.578 156.781ZM180.846 190.651C179.939 189.62 178.69 189.352 178.006 189.889C178.541 190.711 179.091 191.532 179.627 192.353C180.132 192.085 180.578 191.532 180.846 190.651ZM174.615 168.847C173.951 169.285 173.406 169.833 172.98 170.49C174.169 174.238 179.017 168.743 174.615 168.847ZM164.979 153.42C165.113 155.272 166.407 155.571 167.344 154.899C166.719 154.182 166.095 153.45 165.485 152.733C165.277 152.913 165.098 153.137 164.979 153.42ZM184.638 178.3C184.46 177.808 184.281 177.345 184.118 176.867C182.898 176.717 181.917 177.808 181.114 178.599C181.277 179.809 182.288 180.003 183.032 180.511C183.508 179.585 183.939 178.987 184.653 178.3H184.638ZM184.906 186.439C184.549 186.096 184.192 185.767 183.835 185.424C183.389 185.708 183.062 186.081 182.556 185.812C181.946 185.573 181.5 186.335 181.024 186.589C181.827 189.277 184.013 188.754 184.906 186.439ZM219.717 208.796C220.357 208.094 220.922 207.452 221.576 206.705C220.788 205.66 219.435 205.122 218.305 205.884C218.215 206.481 218.156 206.959 218.067 207.526C218.632 207.87 218.914 208.542 219.717 208.796ZM208.654 212.021C208.743 211.394 208.802 210.797 208.505 210.065C207.955 209.886 207.33 209.677 206.646 209.438C204.668 211.678 205.992 213.351 208.654 212.021ZM173.322 177.912C173.307 181.795 177.872 179.719 175.909 177.165C174.972 177.165 174.035 176.852 173.322 177.912ZM202.854 208.855C204.951 208.183 205.62 206.974 203.865 205.48C202.527 205.645 202.17 206.645 201.546 207.676C201.932 208.034 202.349 208.407 202.854 208.855ZM199.033 201.627C195.345 202.807 200.148 206.765 201.1 202.792C200.698 201.956 199.806 202.016 199.033 201.627ZM246.038 191.129C245.577 190.472 245.101 189.8 244.581 189.068C243.346 189.426 242.915 190.397 242.053 190.935C243.094 192.264 245.057 192.652 246.053 191.129H246.038ZM261.518 159.304C261.89 158.334 261.741 157.557 261.369 157.064C260.611 157.677 259.868 158.289 259.094 158.901C259.6 159.17 260.105 159.439 260.671 159.737C260.938 159.603 261.221 159.454 261.518 159.304ZM169.455 167.488C170.392 168.295 171.998 168.115 172.474 166.846C172.34 163.202 168.191 165.965 169.455 167.488ZM212.684 207.959C212.788 207.631 212.907 207.258 213.026 206.884C212.788 206.421 212.55 205.988 212.312 205.525C211.375 205.271 210.721 205.48 210.171 206.033C209.933 206.914 210.29 207.646 210.617 208.318C211.435 208.631 212 208.154 212.684 207.959ZM190.274 204.599C192.296 203.703 192.951 204.345 192.281 201.777C192.043 201.657 191.806 201.523 191.419 201.329C191.047 201.583 190.69 201.836 190.393 202.06C190.943 203.136 188.772 203.763 190.259 204.584L190.274 204.599Z"
                fill="#083B30" />
        </g>
        <path
            d="M118.271 90.5015C118.271 90.5015 121.23 52.5542 126.792 54.0924C128.294 54.5106 139.967 83.3481 139.967 83.3481C139.967 83.3481 167.358 77.6135 166.288 81.8697C165.217 86.1259 150.272 101.508 150.272 101.508C150.272 101.508 171.21 125.761 163.106 124.895C155.001 124.028 136.904 111.857 136.904 111.857C136.904 111.857 127.238 142.337 124.532 135.662C121.81 128.986 119.074 107.048 119.074 107.048C119.074 107.048 86.8946 107.004 90.4932 103.046C94.077 99.0886 118.271 90.5015 118.271 90.5015Z"
            fill="#2D7766" />
        <path
            d="M310.129 134.002C324.6 134.002 336.331 122.221 336.331 107.689C336.331 93.1561 324.6 81.375 310.129 81.375C295.658 81.375 283.927 93.1561 283.927 107.689C283.927 122.221 295.658 134.002 310.129 134.002Z"
            fill="#18A88B" />
        <path
            d="M305.936 96.7892C305.98 96.5054 306.114 96.2964 306.352 96.147C306.59 95.9977 306.828 95.923 307.096 95.923C307.809 95.8782 308.3 96.0275 308.597 96.3561C308.895 96.6846 309.014 96.9535 308.984 97.1775C308.969 97.3567 308.895 97.7748 308.776 98.4618C308.657 99.1338 308.523 99.9403 308.36 100.866C308.196 101.792 308.032 102.748 307.839 103.719C307.646 104.689 307.467 105.57 307.289 106.362L305.787 106.332C306.798 105.496 307.78 104.913 308.776 104.585C309.757 104.241 310.635 104.077 311.408 104.077C312.761 104.077 313.966 104.391 314.992 105.003C316.033 105.615 316.836 106.451 317.416 107.527C317.996 108.602 318.293 109.797 318.293 111.141C318.293 112.485 317.996 113.799 317.401 114.949C316.806 116.099 315.958 117.04 314.843 117.742C313.728 118.444 312.375 118.802 310.783 118.802C309.995 118.802 309.207 118.727 308.419 118.593C307.631 118.458 306.887 118.249 306.188 117.995C305.49 117.742 304.85 117.428 304.285 117.07C304.107 116.965 303.958 116.816 303.854 116.607C303.75 116.398 303.69 116.203 303.69 115.994C303.69 115.77 303.75 115.531 303.884 115.248C304.017 114.964 304.181 114.74 304.374 114.531C304.568 114.337 304.791 114.232 305.058 114.232C305.222 114.232 305.385 114.262 305.564 114.322C305.742 114.381 305.906 114.456 306.069 114.531C306.545 114.77 307.021 114.979 307.497 115.173C307.973 115.367 308.493 115.516 309.014 115.621C309.549 115.726 310.114 115.785 310.724 115.785C311.705 115.785 312.508 115.561 313.103 115.113C313.698 114.665 314.144 114.083 314.427 113.381C314.709 112.664 314.858 111.917 314.858 111.126C314.858 110.499 314.724 109.871 314.456 109.244C314.189 108.617 313.772 108.094 313.192 107.676C312.612 107.258 311.824 107.034 310.843 107.034C309.936 107.034 309.118 107.183 308.374 107.497C307.631 107.81 306.813 108.333 305.906 109.08C305.683 109.244 305.475 109.319 305.252 109.319C305.014 109.319 304.791 109.259 304.553 109.155C304.33 109.05 304.151 108.856 304.047 108.602C303.943 108.348 303.928 108.02 304.002 107.616C304.285 106.347 304.523 105.122 304.731 103.928C304.939 102.733 305.133 101.538 305.341 100.343C305.534 99.1637 305.742 97.969 305.936 96.7892ZM304.924 97.0879C304.924 96.7444 304.999 96.4756 305.147 96.2366C305.296 96.0126 305.475 95.8483 305.698 95.7438C305.921 95.6393 306.114 95.6094 306.322 95.6243C306.917 95.6393 307.601 95.6542 308.404 95.6542C309.207 95.6542 310.07 95.6542 311.006 95.6243C311.943 95.5945 312.865 95.5646 313.787 95.5198C314.709 95.475 315.572 95.4003 316.404 95.3256C316.806 95.2808 317.118 95.4003 317.356 95.6542C317.594 95.9081 317.713 96.2964 317.713 96.8041C317.713 97.3119 317.594 97.73 317.341 97.9839C317.088 98.2378 316.732 98.3722 316.256 98.417C315.408 98.4917 314.456 98.5663 313.386 98.641C312.315 98.7157 311.215 98.7605 310.07 98.7903C308.925 98.8202 307.78 98.8202 306.635 98.7903C306.411 98.7754 306.174 98.7157 305.891 98.641C305.608 98.5663 305.385 98.4021 305.192 98.1482C304.999 97.8943 304.91 97.5359 304.91 97.058L304.924 97.0879Z"
            fill="#DCF6E5" />
    </g>
    <defs>
        <clipPath id="clip0_2917_145480">
            <rect width="416" height="245" fill="white" />
        </clipPath>
    </defs>
</svg>