<svg width="1920" height="1080" viewBox="0 0 1920 1080" fill="none" xmlns="http://www.w3.org/2000/svg">
    <g clip-path="url(#clip0_192_5854)">
        <mask id="mask0_192_5854" style="mask-type:luminance" maskUnits="userSpaceOnUse" x="0" y="0" width="1920"
            height="1080">
            <path d="M1920 0H0V1080H1920V0Z" fill="white" />
        </mask>
        <g mask="url(#mask0_192_5854)">
            <path d="M1920 0H0V1080H1920V0Z" fill="#03372C" />
            <path d="M1314.3 977.249V1063.8H2179.81V977.249H1314.3Z" fill="url(#paint0_linear_192_5854)"
                fill-opacity="0.3" />
            <path d="M1314.3 890.699V977.25H2179.81V890.699H1314.3Z" fill="url(#paint1_linear_192_5854)"
                fill-opacity="0.3" />
            <path d="M1314.3 804.152V890.703H2179.81V804.152H1314.3Z" fill="url(#paint2_linear_192_5854)"
                fill-opacity="0.3" />
            <path d="M1314.3 717.605V804.156H2179.81V717.605H1314.3Z" fill="url(#paint3_linear_192_5854)"
                fill-opacity="0.3" />
            <path d="M1314.3 631.051V717.602H2179.81V631.051H1314.3Z" fill="url(#paint4_linear_192_5854)"
                fill-opacity="0.3" />
            <path d="M1314.3 544.504V631.055H2179.81V544.504H1314.3Z" fill="url(#paint5_linear_192_5854)"
                fill-opacity="0.3" />
            <path d="M1314.3 457.957V544.508H2179.81V457.957L1314.3 457.957Z" fill="url(#paint6_linear_192_5854)"
                fill-opacity="0.3" />
            <path d="M1314.3 371.406V457.957L2179.81 457.957V371.406L1314.3 371.406Z"
                fill="url(#paint7_linear_192_5854)" fill-opacity="0.3" />
            <path d="M1314.3 284.851V371.402L2179.81 371.402V284.851L1314.3 284.851Z"
                fill="url(#paint8_linear_192_5854)" fill-opacity="0.3" />
            <path d="M1314.3 198.449V285L2179.81 285V198.449L1314.3 198.449Z" fill="url(#paint9_linear_192_5854)"
                fill-opacity="0.3" />
            <path d="M1314.3 111.449V198L2179.81 198V111.449L1314.3 111.449Z" fill="url(#paint10_linear_192_5854)"
                fill-opacity="0.3" />
            <path d="M1314.3 25.4491V112L2179.81 112V25.4491L1314.3 25.4491Z" fill="url(#paint11_linear_192_5854)"
                fill-opacity="0.3" />
            <g opacity="0.5">
                <path d="M1317.31 1058H2027.81" stroke="white" stroke-opacity="0.2" />
                <path d="M1317.31 972H2027.81" stroke="white" stroke-opacity="0.2" />
                <path d="M1317.31 886H2027.81" stroke="white" stroke-opacity="0.2" />
                <path d="M1317.31 800H2027.81" stroke="white" stroke-opacity="0.2" />
                <path d="M1317.31 714H2027.81" stroke="white" stroke-opacity="0.2" />
                <path d="M1317.31 628H2027.81" stroke="white" stroke-opacity="0.2" />
                <path d="M1317.31 542H2027.81" stroke="white" stroke-opacity="0.2" />
                <path d="M1317.31 456H2027.81" stroke="white" stroke-opacity="0.2" />
                <path d="M1317.31 370H2027.81" stroke="white" stroke-opacity="0.2" />
                <path d="M1317.31 284H2027.81" stroke="white" stroke-opacity="0.2" />
                <path d="M1317.31 198H2027.81" stroke="white" stroke-opacity="0.2" />
                <path d="M1317.31 112H2027.81" stroke="white" stroke-opacity="0.2" />
                <path d="M1317.31 26H2027.81" stroke="white" stroke-opacity="0.2" />
            </g>
            <path
                d="M1153.15 770.907C1153.34 770.907 1153.52 770.876 1153.69 770.784C1153.86 770.722 1154.02 770.63 1154.14 770.491C1154.28 770.368 1154.37 770.214 1154.43 770.044C1154.53 769.874 1154.56 769.705 1154.56 769.504C1154.54 769.381 1154.53 769.258 1154.51 769.135C1154.45 768.903 1154.33 768.703 1154.16 768.518C1154.06 768.441 1153.97 768.379 1153.88 768.302C1153.66 768.179 1153.43 768.117 1153.18 768.117C1153 768.117 1152.81 768.148 1152.64 768.241C1152.48 768.302 1152.32 768.395 1152.2 768.533C1152.06 768.657 1151.97 768.811 1151.9 768.98C1151.81 769.15 1151.78 769.319 1151.78 769.52C1151.8 769.643 1151.81 769.767 1151.83 769.89C1151.89 770.121 1152.01 770.321 1152.18 770.506C1152.27 770.583 1152.37 770.645 1152.46 770.722C1152.68 770.845 1152.91 770.907 1153.15 770.907Z"
                fill="#083B30" />
            <g opacity="0.4">
                <path
                    d="M847.098 895.459C848.745 894.299 850.443 893.022 850.813 892.501C851.569 891.408 844.66 873.359 842.895 869.796C842.038 868.065 828.017 868.939 828.017 868.939C824.386 869.057 819.931 869.712 814.501 870.973C800.061 874.317 773.062 878.687 769.145 880.283C769.145 880.283 724.294 904.097 719.654 907.996C716.376 910.769 711.484 913.441 711.333 915.827C711.097 916.113 711.013 916.449 711.114 916.802C711.114 916.802 716.628 936.296 718.999 939.489C719.738 940.481 721.621 940.716 723.857 940.565C727.976 953.136 733.523 969.723 739.239 981.739C742.399 988.36 744.702 993.419 748.922 994.124C752.755 994.763 795.186 990.881 809.492 986.041C828.068 979.756 857.184 956.682 860.21 950.06C861.874 946.396 853.603 916.768 847.098 895.442V895.459Z"
                    fill="#18A88B" fill-opacity="0.2" />
                <path
                    d="M806.519 885.555L729.172 902.108C729.172 902.108 745.125 891.907 749.732 890.596C754.338 889.286 822.069 875.959 821.766 877.118C821.464 878.278 806.519 885.555 806.519 885.555Z"
                    fill="#18A88B" fill-opacity="0.2" />
                <path
                    d="M734.334 911.788C734.805 913.351 765.569 991.699 769.267 992.808C772.965 993.917 785.725 990.254 785.725 990.254L753.65 907.688L734.351 911.788H734.334Z"
                    fill="#18A88B" fill-opacity="0.2" />
                <path
                    d="M771.791 883.729C771.791 883.729 782.55 857.714 788.417 849.564C794.284 841.413 806.674 833.867 815.684 841.867C824.695 849.866 834.664 862.907 824.51 871.545C814.356 880.167 778.431 888.401 778.431 888.401L771.791 883.729Z"
                    fill="#18A88B" fill-opacity="0.2" />
                <path
                    d="M777.591 885.807C790.502 873.102 806.405 863.708 825.182 865.808C826.191 865.926 826.225 864.464 825.401 864.162C810.137 858.38 783.155 870.128 775.842 884.463C775.288 885.555 776.666 886.732 777.591 885.807Z"
                    fill="#18A88B" fill-opacity="0.2" />
                <path
                    d="M764.86 883.504C764.86 883.504 746.89 871.169 739.795 868.379C732.701 865.589 722.026 866.026 720.295 875.152C718.563 884.277 718.513 897.117 728.364 898.36C738.198 899.604 763.045 889.42 763.045 889.42L764.86 883.487V883.504Z"
                    fill="#18A88B" fill-opacity="0.2" />
                <path
                    d="M723.821 896.646C734.143 887.823 746.953 890.983 759.141 892.479C760.788 892.68 761.057 890.042 759.527 889.622C747.827 886.395 730.529 884.681 722.325 895.487C721.636 896.394 723.048 897.285 723.804 896.63L723.821 896.646Z"
                    fill="#18A88B" fill-opacity="0.2" />
                <path
                    d="M761.767 887.865C757.026 883.462 750.689 880.269 745.023 877.21C743.359 876.319 741.88 878.857 743.544 879.748C749.243 882.773 755.194 886.806 761.515 888.319C761.767 888.386 761.986 888.05 761.784 887.865H761.767Z"
                    fill="#18A88B" fill-opacity="0.2" />
                <path
                    d="M806.523 885.546C806.523 885.546 835.892 970.532 837.893 970.213C839.893 969.893 850.971 961.911 851.56 959.474C852.148 957.037 821.788 877.109 821.788 877.109L806.54 885.546H806.523Z"
                    fill="#18A88B" fill-opacity="0.2" />
                <path
                    d="M837.033 912.541C835.654 913.314 835.318 914.255 835.537 915.045C836.596 914.407 837.621 913.801 838.613 913.196C838.142 912.894 837.588 912.659 837.033 912.541ZM847.523 902.962C846.598 903.533 845.707 904.071 844.631 904.76C846.481 910.894 851.692 905.533 847.523 902.962ZM804.941 930.977C805.49 930.013 805.507 929.039 804.991 928.053C800.587 925.7 799.763 933.178 804.941 930.977ZM829.485 906.659C829.619 906.239 829.754 905.802 829.905 905.348L827.081 907.079C827.703 907.466 828.51 907.449 829.485 906.659ZM843.455 898.559C842.11 898.945 841.051 899.517 839.874 900.424C840.883 905.029 847.489 900.727 843.455 898.559ZM775.539 941.043C775.841 940.623 776.211 940.086 776.631 939.481C776.009 937.716 775.034 936.22 773 937.413C772.008 939.245 773.017 941.783 775.555 941.043H775.539ZM737.563 947.665C735.949 945.967 733.78 947.362 733.78 949.127C734.991 949.009 736.336 948.858 737.781 948.69C737.781 948.354 737.748 948.018 737.563 947.665ZM729.023 944.035C729.947 946.035 729.981 946.068 731.948 945.883C734.923 943.01 730.216 939.464 729.023 944.035ZM829.569 913.533C826.845 911.163 824.895 913.953 826.896 916.474C828.678 917.196 830.981 915.146 829.569 913.533ZM841.404 908.155C840.967 908.827 840.614 909.382 840.21 909.987C840.395 910.743 840.815 911.264 841.37 911.55C842.446 910.894 843.455 910.272 844.362 909.701C844.194 908.373 843.219 907.836 841.404 908.172V908.155ZM811.917 921.465C813.75 922.608 815.212 920.793 815.111 918.894C812.943 916.474 809.715 919.062 811.917 921.465ZM800.973 924.944C800.772 924.439 800.469 923.952 800.133 923.566L797.124 925.414C797.948 926.977 800.217 927.112 800.99 924.944H800.973ZM817.465 922.977V923.986C817.028 924.171 816.624 924.355 816.154 924.557C816.322 925.112 816.49 925.599 816.658 926.137C816.658 926.137 816.675 926.137 816.692 926.137C817.818 925.481 818.944 924.826 820.087 924.154C820.054 923.767 819.987 923.313 819.886 922.759C819.146 922.624 818.104 922.389 817.482 922.944L817.465 922.977ZM778.8 942.035C778.043 942.237 777.674 942.59 777.556 943.026C778.665 942.842 779.725 942.674 780.75 942.489C780.313 942.052 779.657 941.901 778.817 942.035H778.8ZM741.228 945.9C741.614 944.976 743.06 944.522 742.539 943.094C741.967 942.623 741.396 942.169 740.706 941.598C737.966 942.438 738.067 946.337 741.228 945.883V945.9ZM743.564 939.195C743.867 942.522 747.632 941.312 747.313 938.405C746.876 937.783 746.338 937.397 745.783 937.229L744.354 937.464C743.934 937.783 743.632 938.338 743.547 939.195H743.564ZM737.411 938.573L733.612 939.178C733.898 941.615 739.227 941.732 737.411 938.573ZM753.214 938.859C753.5 940.539 755.315 941.43 756.643 940.17C757.198 938.018 756.828 937.615 754.979 936.792C753.886 937.044 753.516 937.951 753.214 938.876V938.859ZM818.221 913.213C817.347 913.734 816.389 914.154 816.171 915.516C817.263 920.171 822.626 914.642 818.221 913.213ZM811.346 929.246C812.018 928.859 812.707 928.456 813.397 928.053C812.523 927.969 811.682 928.338 811.346 929.246ZM805.059 920.541L803.646 921.398C804.016 921.398 804.403 921.364 804.773 921.297C804.874 921.028 804.974 920.776 805.059 920.541ZM785.827 931.33C785.827 931.128 785.827 930.96 785.827 930.775L783.759 931.111C784.381 931.296 785.054 931.431 785.827 931.33ZM834.141 908.424C832.998 907.869 830.645 908.844 830.258 909.987C831.048 913.297 835.486 911.936 834.141 908.424ZM847.271 897.483C846.834 896.139 846.531 895.164 846.531 895.164L845.438 895.836C845.438 895.836 845.405 895.954 845.405 896.021C845.455 897.517 846.329 897.752 847.288 897.483H847.271ZM760.863 941.716C759.551 942.169 758.291 942.623 757.988 944.472C758.526 945.211 759.081 945.615 759.585 945.783C760.039 945.715 760.51 945.648 760.964 945.581C761.855 944.909 762.123 943.178 760.846 941.716H760.863ZM749.33 941.833C749.028 942.724 748.725 943.598 748.389 944.573C749.145 944.875 749.515 945.783 750.44 945.951C751.146 944.707 753.55 943.547 751.432 942.371C750.827 941.917 750.053 941.262 749.33 941.833ZM792.047 928.809C792.787 930.036 792.165 932.237 794.148 931.229C795.913 931.061 795.661 928.91 795.308 927.599C793.997 927.464 792.938 927.801 792.047 928.809ZM798.805 932.741C798.233 933.279 797.208 932.893 796.838 933.867C796.972 934.506 797.124 935.128 797.258 935.716C797.847 936.271 798.57 936.405 799.225 936.254C799.612 936.035 800.032 935.8 800.436 935.565C800.822 935.161 801.091 934.657 801.125 934.035C800.066 933.884 799.595 933.498 798.805 932.758V932.741ZM781.237 934.17C780.044 931.767 777.052 932.607 777.825 935.346C778.985 937.06 781.843 936.287 781.237 934.17ZM824.744 920.574C824.593 919.835 824.475 919.196 824.307 918.339C823.181 917.146 820.81 918.389 820.978 919.784C821.432 921.314 823.954 922.272 824.744 920.574ZM810.404 924.053C809.766 923.65 809.16 923.28 808.438 922.826C807.765 923.246 807.109 923.666 806.504 924.053C806.605 927.834 809.715 927.313 810.421 924.053H810.404ZM838.529 906.827C840.849 904.172 838.563 903.231 836.394 904.037C835.89 904.928 835.116 905.701 836.159 906.827H838.529ZM791.946 939.699C792.081 939.85 792.198 939.985 792.333 940.102C792.45 940.052 792.585 940.018 792.652 939.968C792.988 939.783 793.862 939.296 795.123 938.573C793.947 937.38 792.03 937.279 791.929 939.699H791.946ZM744.018 947.446C743.8 947.614 743.648 947.782 743.564 947.967C744.607 947.833 745.666 947.698 746.742 947.564C745.985 947.06 744.892 947.295 744.018 947.463V947.446ZM784.566 937.212C783.894 937.766 783.272 938.254 782.633 938.775C782.65 939.497 782.364 940.287 783.339 940.691C786.583 940.254 788.164 939.548 784.566 937.212ZM759.972 936.792C760.879 936.237 761.115 935.397 761.417 934.708L758.391 935.195C758.778 935.8 759.417 936.338 759.955 936.792H759.972ZM726.804 949.463C726.905 949.53 727.224 949.564 727.728 949.564C728.401 948.774 728.418 947.648 727.022 946.976C726.552 947.077 726.064 947.194 725.543 947.312C725.913 948.32 726.35 949.144 726.821 949.463H726.804ZM771.638 934.338C771.504 933.968 771.353 933.565 771.185 933.128L768.747 933.515C767.537 935.279 769.974 939.044 771.638 934.321V934.338ZM822.912 911.6L822.878 911.65C822.878 911.65 822.912 911.65 822.912 911.634V912.423C823.635 912.591 824.24 912.692 824.845 912.323C824.576 911.65 824.195 911.303 823.702 911.281L823.752 911.23C824.021 910.894 824.29 910.558 824.576 910.188C824.307 909.802 824.055 909.449 823.803 909.079L820.911 910.844C820.861 911.062 820.794 911.281 820.726 911.533C821.522 911.846 822.25 911.869 822.912 911.6ZM790.584 933.716C787.474 930.926 786.281 935.8 789.727 936.607C791.021 935.8 790.668 934.725 790.584 933.716ZM768.226 944.203C768.377 944.287 768.512 944.354 768.663 944.421C769.52 944.287 770.361 944.152 771.201 944.035C770.663 942.018 767.301 941.228 768.226 944.203ZM765.351 940.674C766.192 939.817 766.847 938.926 766.242 937.75C763.418 936.439 761.686 941.531 765.351 940.674ZM727.644 940.153L725.543 940.489C726.35 940.909 727.174 940.724 727.644 940.153Z"
                    fill="#18A88B" fill-opacity="0.2" />
                <path
                    d="M722.268 943.148C745.181 942.207 767.876 937.753 789.427 929.905C791.949 928.981 790.856 924.931 788.318 925.855C767.102 933.586 744.828 938.022 722.268 938.947C719.578 939.064 719.561 943.266 722.268 943.148Z"
                    fill="#18A88B" fill-opacity="0.2" />
                <path
                    d="M791.313 929.809C811.637 919.44 831.407 907.962 850.773 895.879C853.06 894.45 850.958 890.82 848.655 892.249C829.289 904.332 809.519 915.81 789.195 926.179C786.791 927.406 788.909 931.036 791.313 929.809Z"
                    fill="#18A88B" fill-opacity="0.2" />
                <path
                    d="M733.68 911.921C733.68 911.921 756.324 892.779 764.124 889.3C771.924 885.821 779.036 887.754 779.036 887.754L754.408 907.669L733.68 911.937V911.921Z"
                    fill="#18A88B" fill-opacity="0.2" />
                <path
                    d="M759.737 895.105C759.737 895.105 757.619 883.963 765.335 880.635C773.068 877.325 777.556 881.19 780.566 887.862L759.737 895.088V895.105Z"
                    fill="#18A88B" fill-opacity="0.2" />
                <path
                    d="M776.321 883.033C778.977 881.302 780.641 877.908 782.659 875.504C784.76 873 787.752 870.765 789.299 867.908C790.039 866.53 788.576 865.169 787.231 865.841C784.172 867.37 781.801 870.984 779.75 873.639C777.851 876.126 775.279 879.034 774.892 882.21C774.808 882.916 775.766 883.386 776.321 883.033Z"
                    fill="#18A88B" fill-opacity="0.2" />
                <path
                    d="M789.879 866.284C790.081 866.284 790.282 866.25 790.467 866.15C790.652 866.082 790.82 865.982 790.955 865.83C791.106 865.696 791.207 865.528 791.274 865.343C791.375 865.158 791.409 864.973 791.409 864.755C791.392 864.62 791.375 864.486 791.358 864.351C791.291 864.099 791.157 863.881 790.972 863.679L790.669 863.444C790.434 863.309 790.182 863.242 789.913 863.242C789.711 863.242 789.509 863.276 789.324 863.377C789.139 863.444 788.971 863.545 788.837 863.696C788.685 863.83 788.585 863.998 788.517 864.183C788.416 864.368 788.383 864.553 788.383 864.771C788.4 864.906 788.416 865.04 788.433 865.175C788.5 865.427 788.635 865.645 788.82 865.847C788.921 865.931 789.022 865.998 789.122 866.082C789.358 866.217 789.61 866.284 789.879 866.284Z"
                    fill="#18A88B" fill-opacity="0.2" />
                <path
                    d="M713.627 918.091C732.522 914.327 751.434 910.563 770.246 906.428C773.574 905.689 776.987 905.067 780.248 904.059C783.039 903.185 785.695 901.723 788.301 900.446C798.942 895.219 809.449 889.673 819.956 884.161C827.705 880.077 835.455 875.993 843.188 871.859C845.575 870.582 843.457 866.952 841.07 868.229C823.923 877.388 806.759 886.53 789.376 895.236C787.477 896.177 785.594 897.118 783.678 898.042C782.921 898.395 782.165 898.765 781.408 899.101C781.122 899.236 780.853 899.353 780.568 899.471C780.046 899.689 780.702 899.437 780.114 899.656C777.575 900.614 774.852 901.084 772.213 901.672C760.848 904.227 749.417 906.546 738.002 908.882C729.513 910.613 721.023 912.327 712.517 914.024C709.861 914.545 710.987 918.596 713.627 918.075V918.091Z"
                    fill="#18A88B" fill-opacity="0.2" />
                <path
                    d="M774.03 879.575C769.525 877.777 764.027 878.382 760.531 881.961C757.824 884.734 756.58 889.053 758.816 892.549C762.094 897.674 770.332 897.809 774.719 894.297C779.678 890.33 780.233 883.222 775.123 879.138C773.004 877.457 770.651 880.449 772.853 882.096C777.325 885.44 774.08 891.742 769.441 892.717C765.759 893.49 759.976 891.389 761.792 886.65C763.658 881.81 769.457 881.642 773.795 881.423C774.887 881.373 775.005 879.978 774.047 879.592L774.03 879.575Z"
                    fill="#18A88B" fill-opacity="0.2" />
                <path
                    d="M722.215 894.128C722.131 889.557 721.156 884.986 721.66 880.415C722.232 875.322 723.073 874.163 727.628 871.323C732.369 868.365 734.269 868.449 739.446 870.062C748.188 872.768 755.45 878.566 762.965 883.507C764.427 884.465 766.008 882.33 764.814 881.12C756.879 873.138 739.446 861.441 727.494 865.794C715.693 870.079 716.55 885.221 721.307 894.414C721.543 894.851 722.249 894.649 722.232 894.162L722.215 894.128Z"
                    fill="#18A88B" fill-opacity="0.2" />
                <path
                    d="M772.904 881.224C779.141 868.553 784.924 853.848 797.28 845.815C807.417 839.21 818.092 842.016 823.858 852.738C828.38 861.175 827.556 872.552 818.109 877.174C817.083 877.678 818.024 879.342 819.016 878.72C834.096 869.292 831.255 845.277 814.225 839.227C791.547 831.16 776.871 864.923 771.895 880.787C771.71 881.375 772.635 881.779 772.904 881.207V881.224Z"
                    fill="#18A88B" fill-opacity="0.2" />
                <path
                    d="M782.248 904.512C791.679 931.233 802.438 957.449 811.449 984.355C812.121 986.355 815.298 985.498 814.609 983.481C805.565 956.542 796.016 929.502 783.105 904.159C782.87 903.688 782.063 904.008 782.248 904.529V904.512Z"
                    fill="#18A88B" fill-opacity="0.2" />
            </g>
            <g opacity="0.4" filter="url(#filter12_f_192_5854)">
                <path
                    d="M351.775 290.147C352.668 289.519 353.588 288.826 353.788 288.544C354.199 287.952 350.453 278.168 349.496 276.237C349.032 275.298 341.432 275.772 341.432 275.772C339.463 275.836 337.048 276.191 334.105 276.874C326.277 278.687 311.642 281.056 309.519 281.921C309.519 281.921 285.206 294.83 282.691 296.943C280.914 298.446 278.262 299.895 278.18 301.188C278.053 301.343 278.007 301.525 278.062 301.717C278.062 301.717 281.051 312.284 282.336 314.015C282.737 314.553 283.757 314.68 284.969 314.598C287.202 321.412 290.209 330.404 293.307 336.917C295.021 340.507 296.269 343.249 298.556 343.631C300.634 343.977 323.635 341.873 331.389 339.249C341.459 335.842 357.242 323.334 358.883 319.745C359.785 317.759 355.301 301.699 351.775 290.138V290.147Z"
                    fill="#18A88B" fill-opacity="0.2" />
                <path
                    d="M329.777 284.78L287.85 293.753C287.85 293.753 296.498 288.223 298.994 287.513C301.491 286.802 338.206 279.578 338.042 280.207C337.878 280.835 329.777 284.78 329.777 284.78Z"
                    fill="#18A88B" fill-opacity="0.2" />
                <path
                    d="M290.648 299C290.904 299.847 307.58 342.318 309.585 342.919C311.589 343.52 318.506 341.534 318.506 341.534L301.119 296.777L290.658 299H290.648Z"
                    fill="#18A88B" fill-opacity="0.2" />
                <path
                    d="M310.953 283.793C310.953 283.793 316.785 269.691 319.966 265.272C323.146 260.854 329.862 256.764 334.746 261.1C339.631 265.436 345.035 272.506 339.531 277.188C334.027 281.861 314.553 286.325 314.553 286.325L310.953 283.793Z"
                    fill="#18A88B" fill-opacity="0.2" />
                <path
                    d="M314.097 284.917C321.096 278.03 329.716 272.937 339.895 274.076C340.442 274.14 340.46 273.347 340.014 273.183C331.739 270.049 317.113 276.417 313.149 284.188C312.849 284.78 313.596 285.418 314.097 284.917Z"
                    fill="#18A88B" fill-opacity="0.2" />
                <path
                    d="M307.197 283.667C307.197 283.667 297.455 276.98 293.61 275.468C289.764 273.956 283.978 274.193 283.039 279.139C282.1 284.086 282.073 291.046 287.413 291.72C292.744 292.394 306.213 286.874 306.213 286.874L307.197 283.658V283.667Z"
                    fill="#18A88B" fill-opacity="0.2" />
                <path
                    d="M284.95 290.796C290.545 286.013 297.489 287.726 304.096 288.537C304.989 288.646 305.135 287.216 304.305 286.988C297.963 285.239 288.586 284.31 284.139 290.167C283.765 290.659 284.531 291.142 284.941 290.787L284.95 290.796Z"
                    fill="#18A88B" fill-opacity="0.2" />
                <path
                    d="M305.52 286.033C302.95 283.646 299.515 281.915 296.444 280.257C295.541 279.775 294.739 281.15 295.642 281.633C298.731 283.273 301.957 285.459 305.383 286.279C305.52 286.316 305.638 286.133 305.529 286.033H305.52Z"
                    fill="#18A88B" fill-opacity="0.2" />
                <path
                    d="M329.781 284.776C329.781 284.776 345.701 330.845 346.786 330.672C347.87 330.499 353.875 326.171 354.194 324.851C354.513 323.53 338.056 280.203 338.056 280.203L329.79 284.776H329.781Z"
                    fill="#18A88B" fill-opacity="0.2" />
                <path
                    d="M346.318 299.408C345.571 299.827 345.389 300.337 345.507 300.765C346.081 300.419 346.637 300.091 347.175 299.763C346.92 299.599 346.619 299.472 346.318 299.408ZM352.005 294.215C351.503 294.525 351.021 294.817 350.437 295.19C351.44 298.515 354.265 295.609 352.005 294.215ZM328.922 309.401C329.22 308.879 329.229 308.351 328.95 307.816C326.562 306.541 326.115 310.595 328.922 309.401ZM342.227 296.219C342.3 295.992 342.373 295.755 342.455 295.509L340.924 296.447C341.261 296.657 341.698 296.648 342.227 296.219ZM349.799 291.828C349.07 292.038 348.496 292.348 347.858 292.84C348.405 295.336 351.986 293.004 349.799 291.828ZM312.984 314.858C313.148 314.63 313.349 314.339 313.576 314.011C313.239 313.054 312.711 312.244 311.608 312.89C311.07 313.883 311.617 315.259 312.993 314.858H312.984ZM292.398 318.447C291.524 317.527 290.348 318.283 290.348 319.24C291.004 319.176 291.733 319.094 292.517 319.003C292.517 318.821 292.499 318.639 292.398 318.447ZM287.769 316.48C288.27 317.564 288.289 317.582 289.355 317.482C290.968 315.924 288.416 314.002 287.769 316.48ZM342.272 299.945C340.796 298.661 339.739 300.173 340.823 301.54C341.789 301.931 343.038 300.82 342.272 299.945ZM348.688 297.03C348.451 297.395 348.259 297.695 348.041 298.023C348.141 298.433 348.369 298.716 348.669 298.87C349.253 298.515 349.799 298.178 350.291 297.868C350.2 297.149 349.672 296.857 348.688 297.039V297.03ZM332.704 304.245C333.697 304.865 334.49 303.881 334.435 302.851C333.26 301.54 331.51 302.942 332.704 304.245ZM326.772 306.131C326.662 305.858 326.498 305.593 326.316 305.384L324.685 306.386C325.131 307.233 326.361 307.306 326.781 306.131H326.772ZM335.711 305.065V305.612C335.474 305.712 335.256 305.812 335 305.921C335.091 306.222 335.183 306.486 335.274 306.778C335.274 306.778 335.283 306.778 335.292 306.778C335.903 306.422 336.513 306.067 337.133 305.703C337.114 305.493 337.078 305.247 337.023 304.947C336.622 304.874 336.057 304.746 335.72 305.047L335.711 305.065ZM314.752 315.396C314.342 315.505 314.141 315.696 314.078 315.933C314.679 315.833 315.253 315.742 315.809 315.642C315.572 315.405 315.217 315.323 314.761 315.396H314.752ZM294.385 317.491C294.595 316.99 295.378 316.744 295.096 315.97C294.786 315.715 294.476 315.469 294.102 315.159C292.617 315.614 292.672 317.728 294.385 317.482V317.491ZM295.652 313.856C295.816 315.66 297.857 315.004 297.684 313.428C297.447 313.091 297.155 312.881 296.855 312.79L296.08 312.918C295.852 313.091 295.688 313.391 295.643 313.856H295.652ZM292.316 313.519L290.257 313.847C290.412 315.168 293.301 315.232 292.316 313.519ZM300.882 313.674C301.037 314.585 302.021 315.068 302.741 314.384C303.042 313.218 302.842 313 301.839 312.553C301.247 312.69 301.046 313.182 300.882 313.683V313.674ZM336.121 299.772C335.647 300.055 335.128 300.282 335.009 301.02C335.602 303.544 338.509 300.547 336.121 299.772ZM332.394 308.463C332.759 308.254 333.132 308.035 333.506 307.816C333.032 307.771 332.576 307.971 332.394 308.463ZM328.986 303.744L328.22 304.209C328.421 304.209 328.631 304.191 328.831 304.154C328.886 304.008 328.94 303.872 328.986 303.744ZM318.561 309.593C318.561 309.483 318.561 309.392 318.561 309.292L317.44 309.474C317.777 309.574 318.142 309.647 318.561 309.593ZM344.751 297.176C344.131 296.875 342.856 297.404 342.646 298.023C343.074 299.818 345.48 299.08 344.751 297.176ZM351.868 291.245C351.631 290.517 351.467 289.988 351.467 289.988L350.875 290.353C350.875 290.353 350.856 290.416 350.856 290.453C350.884 291.264 351.358 291.391 351.877 291.245H351.868ZM305.029 315.223C304.318 315.469 303.634 315.715 303.47 316.717C303.762 317.117 304.063 317.336 304.336 317.427C304.582 317.391 304.837 317.354 305.083 317.318C305.566 316.953 305.712 316.015 305.02 315.223H305.029ZM298.777 315.286C298.613 315.769 298.449 316.243 298.267 316.771C298.677 316.935 298.878 317.427 299.379 317.518C299.761 316.844 301.065 316.216 299.916 315.578C299.588 315.332 299.169 314.977 298.777 315.286ZM321.933 308.226C322.334 308.891 321.997 310.085 323.072 309.538C324.029 309.447 323.892 308.281 323.701 307.57C322.99 307.497 322.416 307.68 321.933 308.226ZM325.596 310.358C325.286 310.649 324.73 310.44 324.53 310.968C324.603 311.314 324.685 311.652 324.758 311.97C325.077 312.271 325.468 312.344 325.824 312.262C326.033 312.143 326.261 312.016 326.48 311.888C326.69 311.67 326.835 311.396 326.854 311.059C326.279 310.977 326.024 310.768 325.596 310.367V310.358ZM316.073 311.132C315.426 309.83 313.804 310.285 314.223 311.77C314.852 312.699 316.401 312.28 316.073 311.132ZM339.657 303.762C339.575 303.362 339.511 303.015 339.42 302.551C338.809 301.904 337.525 302.578 337.616 303.334C337.862 304.163 339.229 304.682 339.657 303.762ZM331.884 305.648C331.538 305.429 331.209 305.229 330.818 304.983C330.453 305.211 330.098 305.439 329.77 305.648C329.824 307.698 331.51 307.415 331.893 305.648H331.884ZM347.129 296.311C348.387 294.871 347.148 294.361 345.972 294.798C345.699 295.281 345.279 295.7 345.844 296.311H347.129ZM321.878 314.129C321.951 314.211 322.015 314.284 322.088 314.348C322.151 314.321 322.224 314.302 322.261 314.275C322.443 314.175 322.917 313.911 323.6 313.519C322.962 312.872 321.924 312.818 321.869 314.129H321.878ZM295.898 318.329C295.779 318.42 295.697 318.511 295.652 318.611C296.217 318.539 296.791 318.466 297.374 318.393C296.964 318.12 296.372 318.247 295.898 318.338V318.329ZM317.878 312.781C317.513 313.082 317.176 313.346 316.83 313.628C316.839 314.02 316.684 314.448 317.212 314.667C318.971 314.43 319.828 314.047 317.878 312.781ZM304.546 312.553C305.038 312.253 305.165 311.797 305.329 311.424L303.689 311.688C303.899 312.016 304.245 312.307 304.537 312.553H304.546ZM286.566 319.422C286.621 319.459 286.794 319.477 287.067 319.477C287.432 319.049 287.441 318.438 286.685 318.074C286.43 318.129 286.165 318.192 285.883 318.256C286.083 318.803 286.32 319.249 286.575 319.422H286.566ZM310.87 311.223C310.797 311.023 310.715 310.804 310.624 310.567L309.302 310.777C308.646 311.734 309.968 313.774 310.87 311.214V311.223ZM338.664 298.898L338.645 298.925C338.645 298.925 338.664 298.925 338.664 298.916V299.344C339.056 299.435 339.384 299.49 339.712 299.289C339.566 298.925 339.359 298.737 339.092 298.725L339.119 298.697C339.265 298.515 339.411 298.333 339.566 298.132C339.42 297.923 339.283 297.732 339.147 297.531L337.579 298.488C337.552 298.606 337.515 298.725 337.479 298.861C337.91 299.031 338.305 299.043 338.664 298.898ZM321.14 310.886C319.454 309.374 318.807 312.016 320.675 312.453C321.377 312.016 321.185 311.433 321.14 310.886ZM309.02 316.571C309.102 316.616 309.175 316.653 309.257 316.689C309.722 316.616 310.177 316.544 310.633 316.48C310.341 315.387 308.519 314.958 309.02 316.571ZM307.462 314.658C307.917 314.193 308.273 313.71 307.945 313.073C306.414 312.362 305.475 315.122 307.462 314.658ZM287.022 314.375L285.883 314.558C286.32 314.785 286.767 314.685 287.022 314.375Z"
                    fill="#18A88B" fill-opacity="0.2" />
                <path
                    d="M284.109 315.999C296.529 315.488 308.831 313.074 320.514 308.82C321.881 308.319 321.289 306.124 319.913 306.625C308.412 310.815 296.338 313.22 284.109 313.721C282.651 313.785 282.642 316.062 284.109 315.999Z"
                    fill="#18A88B" fill-opacity="0.2" />
                <path
                    d="M321.536 308.768C332.554 303.147 343.27 296.925 353.768 290.375C355.007 289.601 353.868 287.633 352.62 288.408C342.122 294.958 331.405 301.18 320.388 306.8C319.085 307.466 320.233 309.433 321.536 308.768Z"
                    fill="#18A88B" fill-opacity="0.2" />
                <path
                    d="M290.295 299.07C290.295 299.07 302.57 288.694 306.798 286.808C311.026 284.922 314.881 285.97 314.881 285.97L301.531 296.765L290.295 299.079V299.07Z"
                    fill="#18A88B" fill-opacity="0.2" />
                <path
                    d="M304.42 289.958C304.42 289.958 303.271 283.918 307.454 282.115C311.646 280.32 314.079 282.415 315.71 286.032L304.42 289.949V289.958Z"
                    fill="#18A88B" fill-opacity="0.2" />
                <path
                    d="M313.408 283.411C314.848 282.473 315.75 280.633 316.844 279.33C317.983 277.973 319.605 276.761 320.443 275.213C320.844 274.466 320.051 273.728 319.322 274.092C317.664 274.921 316.379 276.88 315.267 278.319C314.238 279.667 312.843 281.243 312.634 282.965C312.588 283.348 313.108 283.603 313.408 283.411Z"
                    fill="#18A88B" fill-opacity="0.2" />
                <path
                    d="M320.758 274.332C320.868 274.332 320.977 274.314 321.077 274.26C321.177 274.223 321.269 274.169 321.342 274.087C321.424 274.014 321.478 273.923 321.515 273.822C321.569 273.722 321.588 273.622 321.588 273.503C321.578 273.431 321.569 273.358 321.56 273.285C321.524 273.148 321.451 273.03 321.351 272.92L321.187 272.793C321.059 272.72 320.922 272.684 320.777 272.684C320.667 272.684 320.558 272.702 320.458 272.756C320.357 272.793 320.266 272.848 320.193 272.93C320.111 273.002 320.057 273.094 320.02 273.194C319.965 273.294 319.947 273.394 319.947 273.513C319.956 273.585 319.965 273.658 319.975 273.731C320.011 273.868 320.084 273.986 320.184 274.096C320.239 274.141 320.294 274.178 320.348 274.223C320.476 274.296 320.612 274.332 320.758 274.332Z"
                    fill="#18A88B" fill-opacity="0.2" />
                <path
                    d="M279.424 302.417C289.666 300.376 299.918 298.335 310.115 296.094C311.92 295.693 313.77 295.356 315.537 294.81C317.05 294.336 318.49 293.544 319.902 292.851C325.671 290.018 331.366 287.012 337.062 284.024C341.263 281.81 345.464 279.596 349.655 277.355C350.949 276.663 349.801 274.695 348.507 275.388C339.212 280.352 329.908 285.308 320.486 290.027C319.456 290.537 318.435 291.047 317.396 291.548C316.986 291.74 316.576 291.94 316.166 292.122C316.011 292.195 315.866 292.259 315.711 292.323C315.428 292.441 315.784 292.305 315.465 292.423C314.089 292.942 312.612 293.197 311.182 293.516C305.021 294.901 298.825 296.158 292.637 297.424C288.035 298.363 283.433 299.292 278.822 300.212C277.383 300.494 277.993 302.69 279.424 302.407V302.417Z"
                    fill="#18A88B" fill-opacity="0.2" />
                <path
                    d="M312.167 281.54C309.724 280.565 306.744 280.893 304.849 282.833C303.382 284.336 302.708 286.678 303.92 288.572C305.697 291.351 310.162 291.424 312.54 289.52C315.228 287.37 315.529 283.516 312.759 281.303C311.611 280.392 310.335 282.013 311.529 282.906C313.953 284.719 312.194 288.135 309.679 288.664C307.683 289.083 304.548 287.944 305.532 285.375C306.544 282.751 309.688 282.66 312.039 282.542C312.631 282.514 312.695 281.758 312.176 281.549L312.167 281.54Z"
                    fill="#18A88B" fill-opacity="0.2" />
                <path
                    d="M284.08 289.428C284.034 286.951 283.506 284.473 283.779 281.995C284.089 279.235 284.545 278.606 287.014 277.066C289.584 275.463 290.614 275.509 293.42 276.383C298.159 277.85 302.096 280.993 306.169 283.671C306.962 284.19 307.818 283.033 307.171 282.377C302.87 278.05 293.42 271.71 286.941 274.069C280.544 276.392 281.009 284.6 283.588 289.583C283.715 289.82 284.098 289.711 284.089 289.447L284.08 289.428Z"
                    fill="#18A88B" fill-opacity="0.2" />
                <path
                    d="M311.556 282.431C314.937 275.562 318.072 267.591 324.769 263.236C330.264 259.656 336.051 261.177 339.177 266.989C341.628 271.562 341.181 277.73 336.06 280.235C335.504 280.508 336.015 281.41 336.552 281.073C344.726 275.963 343.186 262.945 333.955 259.665C321.662 255.292 313.707 273.594 311.009 282.194C310.909 282.512 311.41 282.731 311.556 282.421V282.431Z"
                    fill="#18A88B" fill-opacity="0.2" />
                <path
                    d="M316.622 295.058C321.734 309.542 327.567 323.754 332.451 338.339C332.816 339.423 334.538 338.958 334.164 337.865C329.262 323.262 324.086 308.604 317.087 294.866C316.959 294.611 316.522 294.784 316.622 295.067V295.058Z"
                    fill="#18A88B" fill-opacity="0.2" />
            </g>
            <g opacity="0.4" filter="url(#filter13_f_192_5854)">
                <path
                    d="M842.328 131.459C840.681 130.299 838.983 129.022 838.613 128.501C837.856 127.408 844.766 109.359 846.531 105.796C847.388 104.065 861.408 104.939 861.408 104.939C865.04 105.057 869.495 105.712 874.924 106.973C889.365 110.317 916.363 114.687 920.28 116.283C920.28 116.283 965.132 140.097 969.772 143.996C973.05 146.769 977.942 149.441 978.093 151.827C978.328 152.113 978.412 152.449 978.312 152.802C978.312 152.802 972.798 172.296 970.427 175.489C969.688 176.481 967.805 176.716 965.569 176.565C961.45 189.136 955.903 205.723 950.187 217.739C947.026 224.36 944.723 229.419 940.504 230.124C936.671 230.763 894.24 226.881 879.934 222.041C861.358 215.756 832.242 192.682 829.216 186.06C827.551 182.396 835.822 152.768 842.328 131.442V131.459Z"
                    fill="#18A88B" fill-opacity="0.2" />
                <path
                    d="M882.907 121.551L960.254 138.104C960.254 138.104 944.3 127.903 939.694 126.592C935.088 125.282 867.357 111.955 867.659 113.114C867.962 114.274 882.907 121.551 882.907 121.551Z"
                    fill="#18A88B" fill-opacity="0.2" />
                <path
                    d="M955.092 147.784C954.621 149.347 923.857 227.695 920.159 228.804C916.46 229.913 903.701 226.25 903.701 226.25L935.776 143.684L955.075 147.784H955.092Z"
                    fill="#18A88B" fill-opacity="0.2" />
                <path
                    d="M917.635 119.733C917.635 119.733 906.876 93.7183 901.009 85.5675C895.142 77.4168 882.752 69.8711 873.741 77.8706C864.731 85.8701 854.762 98.9112 864.916 107.549C875.07 116.171 910.994 124.405 910.994 124.405L917.635 119.733Z"
                    fill="#18A88B" fill-opacity="0.2" />
                <path
                    d="M911.835 121.807C898.924 109.102 883.021 99.7078 864.243 101.808C863.235 101.926 863.201 100.464 864.025 100.162C879.289 94.3804 906.271 106.128 913.583 120.463C914.138 121.555 912.76 122.732 911.835 121.807Z"
                    fill="#18A88B" fill-opacity="0.2" />
                <path
                    d="M924.565 119.504C924.565 119.504 942.536 107.169 949.63 104.379C956.725 101.589 967.4 102.026 969.131 111.152C970.863 120.277 970.913 133.117 961.062 134.36C951.227 135.604 926.381 125.42 926.381 125.42L924.565 119.487V119.504Z"
                    fill="#18A88B" fill-opacity="0.2" />
                <path
                    d="M965.605 132.65C955.283 123.827 942.473 126.987 930.285 128.482C928.638 128.684 928.369 126.046 929.898 125.625C941.599 122.399 958.897 120.685 967.101 131.491C967.79 132.398 966.378 133.289 965.622 132.633L965.605 132.65Z"
                    fill="#18A88B" fill-opacity="0.2" />
                <path
                    d="M927.659 123.865C932.399 119.462 938.737 116.269 944.402 113.21C946.067 112.319 947.546 114.857 945.882 115.748C940.183 118.773 934.232 122.806 927.911 124.319C927.659 124.386 927.44 124.05 927.642 123.865H927.659Z"
                    fill="#18A88B" fill-opacity="0.2" />
                <path
                    d="M882.902 121.55C882.902 121.55 853.534 206.536 851.533 206.216C849.533 205.897 838.454 197.914 837.866 195.478C837.278 193.041 867.638 113.113 867.638 113.113L882.886 121.55H882.902Z"
                    fill="#18A88B" fill-opacity="0.2" />
                <path
                    d="M852.393 148.541C853.771 149.314 854.108 150.255 853.889 151.045C852.83 150.407 851.805 149.801 850.813 149.196C851.283 148.894 851.838 148.659 852.393 148.541ZM841.903 138.962C842.828 139.533 843.718 140.071 844.794 140.76C842.945 146.894 837.734 141.533 841.903 138.962ZM884.485 166.977C883.936 166.013 883.919 165.039 884.434 164.053C888.839 161.7 889.663 169.178 884.485 166.977ZM859.941 142.659C859.807 142.239 859.672 141.802 859.521 141.348L862.345 143.079C861.723 143.466 860.916 143.449 859.941 142.659ZM845.971 134.559C847.316 134.945 848.375 135.517 849.552 136.424C848.543 141.029 841.937 136.727 845.971 134.559ZM913.887 177.043C913.585 176.623 913.215 176.086 912.794 175.481C913.416 173.716 914.392 172.22 916.426 173.413C917.417 175.245 916.409 177.783 913.87 177.043H913.887ZM951.863 183.665C953.477 181.967 955.645 183.362 955.645 185.127C954.435 185.009 953.09 184.858 951.644 184.69C951.644 184.354 951.678 184.018 951.863 183.665ZM960.403 180.035C959.478 182.035 959.445 182.068 957.478 181.883C954.502 179.01 959.209 175.464 960.403 180.035ZM859.857 149.533C862.58 147.163 864.53 149.953 862.53 152.474C860.748 153.196 858.445 151.146 859.857 149.533ZM848.022 144.155C848.459 144.827 848.812 145.382 849.216 145.987C849.031 146.743 848.61 147.264 848.056 147.55C846.98 146.894 845.971 146.272 845.063 145.701C845.231 144.373 846.206 143.836 848.022 144.172V144.155ZM877.508 157.465C875.676 158.608 874.213 156.793 874.314 154.894C876.483 152.474 879.711 155.062 877.508 157.465ZM888.452 160.944C888.654 160.439 888.957 159.952 889.293 159.566L892.302 161.414C891.478 162.977 889.209 163.112 888.435 160.944H888.452ZM871.961 158.977V159.986C872.398 160.171 872.801 160.355 873.272 160.557C873.104 161.112 872.936 161.599 872.768 162.137C872.768 162.137 872.751 162.137 872.734 162.137C871.608 161.481 870.481 160.826 869.338 160.154C869.372 159.767 869.439 159.313 869.54 158.759C870.28 158.624 871.322 158.389 871.944 158.944L871.961 158.977ZM910.626 178.035C911.382 178.237 911.752 178.59 911.87 179.026C910.76 178.842 909.701 178.674 908.676 178.489C909.113 178.052 909.769 177.901 910.609 178.035H910.626ZM948.198 181.9C947.812 180.976 946.366 180.522 946.887 179.094C947.459 178.623 948.03 178.169 948.719 177.598C951.46 178.438 951.359 182.337 948.198 181.883V181.9ZM945.862 175.195C945.559 178.522 941.793 177.312 942.113 174.405C942.55 173.783 943.088 173.397 943.642 173.229L945.071 173.464C945.492 173.783 945.794 174.338 945.878 175.195H945.862ZM952.014 174.573L955.814 175.178C955.528 177.615 950.199 177.732 952.014 174.573ZM936.212 174.859C935.926 176.539 934.111 177.43 932.783 176.17C932.228 174.018 932.598 173.615 934.447 172.792C935.54 173.044 935.909 173.951 936.212 174.876V174.859ZM871.204 149.213C872.078 149.734 873.037 150.154 873.255 151.516C872.163 156.171 866.8 150.642 871.204 149.213ZM878.08 165.246C877.408 164.859 876.718 164.456 876.029 164.053C876.903 163.969 877.744 164.338 878.08 165.246ZM884.367 156.541L885.779 157.398C885.41 157.398 885.023 157.364 884.653 157.297C884.552 157.028 884.451 156.776 884.367 156.541ZM903.599 167.33C903.599 167.128 903.599 166.96 903.599 166.775L905.667 167.111C905.045 167.296 904.372 167.431 903.599 167.33ZM855.284 144.424C856.428 143.869 858.781 144.844 859.168 145.987C858.378 149.297 853.94 147.936 855.284 144.424ZM842.155 133.483C842.592 132.139 842.895 131.164 842.895 131.164L843.987 131.836C843.987 131.836 844.021 131.954 844.021 132.021C843.971 133.517 843.096 133.752 842.138 133.483H842.155ZM928.563 177.716C929.874 178.169 931.135 178.623 931.438 180.472C930.9 181.211 930.345 181.615 929.841 181.783C929.387 181.715 928.916 181.648 928.462 181.581C927.571 180.909 927.302 179.178 928.58 177.716H928.563ZM940.095 177.833C940.398 178.724 940.701 179.598 941.037 180.573C940.28 180.875 939.91 181.783 938.986 181.951C938.28 180.707 935.876 179.547 937.994 178.371C938.599 177.917 939.373 177.262 940.095 177.833ZM897.379 164.809C896.639 166.036 897.261 168.237 895.278 167.229C893.512 167.061 893.765 164.91 894.118 163.599C895.429 163.464 896.488 163.801 897.379 164.809ZM890.621 168.741C891.192 169.279 892.218 168.893 892.588 169.867C892.453 170.506 892.302 171.128 892.168 171.716C891.579 172.271 890.856 172.405 890.201 172.254C889.814 172.035 889.394 171.8 888.99 171.565C888.604 171.161 888.335 170.657 888.301 170.035C889.36 169.884 889.831 169.498 890.621 168.758V168.741ZM908.188 170.17C909.382 167.767 912.374 168.607 911.601 171.346C910.441 173.06 907.583 172.287 908.188 170.17ZM864.682 156.574C864.833 155.835 864.951 155.196 865.119 154.339C866.245 153.146 868.615 154.389 868.447 155.784C867.993 157.314 865.472 158.272 864.682 156.574ZM879.021 160.053C879.66 159.65 880.265 159.28 880.988 158.826C881.661 159.246 882.316 159.666 882.922 160.053C882.821 163.834 879.711 163.313 879.005 160.053H879.021ZM850.897 142.827C848.577 140.172 850.863 139.231 853.032 140.037C853.536 140.928 854.309 141.701 853.267 142.827H850.897ZM897.48 175.699C897.345 175.85 897.228 175.985 897.093 176.102C896.975 176.052 896.841 176.018 896.774 175.968C896.437 175.783 895.563 175.296 894.302 174.573C895.479 173.38 897.396 173.279 897.497 175.699H897.48ZM945.408 183.446C945.626 183.614 945.777 183.782 945.862 183.967C944.819 183.833 943.76 183.698 942.684 183.564C943.441 183.06 944.533 183.295 945.408 183.463V183.446ZM904.86 173.212C905.532 173.766 906.154 174.254 906.793 174.775C906.776 175.497 907.062 176.287 906.087 176.691C902.842 176.254 901.262 175.548 904.86 173.212ZM929.454 172.792C928.546 172.237 928.311 171.397 928.008 170.708L931.034 171.195C930.648 171.8 930.009 172.338 929.471 172.792H929.454ZM962.622 185.463C962.521 185.53 962.202 185.564 961.697 185.564C961.025 184.774 961.008 183.648 962.403 182.976C962.874 183.077 963.362 183.194 963.883 183.312C963.513 184.32 963.076 185.144 962.605 185.463H962.622ZM917.787 170.338C917.922 169.968 918.073 169.565 918.241 169.128L920.679 169.515C921.889 171.279 919.452 175.044 917.787 170.321V170.338ZM866.514 147.6L866.548 147.65C866.548 147.65 866.514 147.65 866.514 147.634V148.423C865.791 148.591 865.186 148.692 864.581 148.323C864.85 147.65 865.231 147.303 865.724 147.281L865.674 147.23C865.405 146.894 865.136 146.558 864.85 146.188C865.119 145.802 865.371 145.449 865.623 145.079L868.515 146.844C868.565 147.062 868.632 147.281 868.699 147.533C867.904 147.846 867.175 147.869 866.514 147.6ZM898.841 169.716C901.951 166.926 903.145 171.8 899.699 172.607C898.404 171.8 898.757 170.725 898.841 169.716ZM921.2 180.203C921.049 180.287 920.914 180.354 920.763 180.421C919.905 180.287 919.065 180.152 918.224 180.035C918.762 178.018 922.125 177.228 921.2 180.203ZM924.075 176.674C923.234 175.817 922.578 174.926 923.184 173.75C926.008 172.439 927.739 177.531 924.075 176.674ZM961.781 176.153L963.883 176.489C963.076 176.909 962.252 176.724 961.781 176.153Z"
                    fill="#18A88B" fill-opacity="0.2" />
                <path
                    d="M967.158 179.148C944.245 178.207 921.55 173.753 899.998 165.905C897.477 164.981 898.57 160.931 901.108 161.855C922.323 169.586 944.598 174.022 967.158 174.947C969.848 175.064 969.865 179.266 967.158 179.148Z"
                    fill="#18A88B" fill-opacity="0.2" />
                <path
                    d="M898.113 165.809C877.788 155.44 858.019 143.962 838.653 131.879C836.366 130.45 838.468 126.82 840.771 128.249C860.137 140.332 879.907 151.81 900.231 162.179C902.635 163.406 900.517 167.036 898.113 165.809Z"
                    fill="#18A88B" fill-opacity="0.2" />
                <path
                    d="M955.746 147.917C955.746 147.917 933.102 128.775 925.302 125.296C917.501 121.818 910.39 123.75 910.39 123.75L935.018 143.665L955.746 147.933V147.917Z"
                    fill="#18A88B" fill-opacity="0.2" />
                <path
                    d="M929.689 131.105C929.689 131.105 931.807 119.963 924.091 116.635C916.358 113.325 911.869 117.19 908.86 123.862L929.689 131.088V131.105Z"
                    fill="#18A88B" fill-opacity="0.2" />
                <path
                    d="M913.105 119.033C910.449 117.302 908.785 113.908 906.767 111.504C904.666 109 901.674 106.765 900.127 103.908C899.387 102.53 900.85 101.169 902.195 101.841C905.254 103.37 907.625 106.984 909.676 109.639C911.575 112.126 914.147 115.034 914.534 118.21C914.618 118.916 913.66 119.386 913.105 119.033Z"
                    fill="#18A88B" fill-opacity="0.2" />
                <path
                    d="M899.547 102.284C899.345 102.284 899.143 102.25 898.958 102.15C898.773 102.082 898.605 101.982 898.471 101.83C898.32 101.696 898.219 101.528 898.151 101.343C898.051 101.158 898.017 100.973 898.017 100.755C898.034 100.62 898.051 100.486 898.067 100.351C898.135 100.099 898.269 99.8808 898.454 99.6791L898.757 99.4438C898.992 99.3094 899.244 99.2422 899.513 99.2422C899.715 99.2422 899.917 99.2758 900.102 99.3766C900.286 99.4438 900.455 99.5447 900.589 99.6959C900.74 99.8304 900.841 99.9984 900.908 100.183C901.009 100.368 901.043 100.553 901.043 100.771C901.026 100.906 901.009 101.04 900.993 101.175C900.925 101.427 900.791 101.645 900.606 101.847C900.505 101.931 900.404 101.998 900.303 102.082C900.068 102.217 899.816 102.284 899.547 102.284Z"
                    fill="#18A88B" fill-opacity="0.2" />
                <path
                    d="M975.799 154.091C956.904 150.327 937.992 146.563 919.18 142.428C915.852 141.689 912.439 141.067 909.178 140.059C906.387 139.185 903.731 137.723 901.125 136.446C890.484 131.219 879.977 125.673 869.47 120.161C861.72 116.077 853.971 111.993 846.238 107.859C843.85 106.582 845.969 102.952 848.356 104.229C865.503 113.388 882.667 122.53 900.049 131.236C901.949 132.177 903.832 133.118 905.748 134.042C906.505 134.395 907.261 134.765 908.018 135.101C908.303 135.236 908.572 135.353 908.858 135.471C909.379 135.689 908.724 135.437 909.312 135.656C911.851 136.614 914.574 137.084 917.213 137.672C928.577 140.227 940.009 142.546 951.423 144.882C959.913 146.613 968.402 148.327 976.909 150.024C979.565 150.545 978.439 154.596 975.799 154.075V154.091Z"
                    fill="#18A88B" fill-opacity="0.2" />
                <path
                    d="M915.396 115.579C919.901 113.78 925.398 114.386 928.895 117.965C931.602 120.738 932.846 125.057 930.61 128.553C927.332 133.678 919.094 133.813 914.707 130.3C909.747 126.334 909.193 119.226 914.303 115.142C916.421 113.461 918.775 116.453 916.573 118.1C912.101 121.444 915.345 127.746 919.985 128.721C923.667 129.494 929.45 127.393 927.634 122.654C925.768 117.814 919.968 117.646 915.631 117.427C914.539 117.377 914.421 115.982 915.379 115.596L915.396 115.579Z"
                    fill="#18A88B" fill-opacity="0.2" />
                <path
                    d="M967.211 130.128C967.295 125.557 968.27 120.986 967.765 116.415C967.194 111.322 966.353 110.163 961.798 107.323C957.057 104.365 955.157 104.449 949.979 106.062C941.238 108.768 933.975 114.566 926.461 119.507C924.998 120.465 923.418 118.33 924.612 117.12C932.547 109.138 949.979 97.441 961.932 101.794C973.733 106.079 972.876 121.221 968.118 130.414C967.883 130.851 967.177 130.649 967.194 130.162L967.211 130.128Z"
                    fill="#18A88B" fill-opacity="0.2" />
                <path
                    d="M916.522 117.224C910.285 104.553 904.502 89.8476 892.146 81.8145C882.009 75.2099 871.334 78.0165 865.568 88.7385C861.046 97.1749 861.87 108.552 871.317 113.174C872.343 113.678 871.401 115.342 870.409 114.72C855.33 105.292 858.171 81.2768 875.201 75.2267C897.878 67.16 912.554 100.923 917.53 116.787C917.715 117.375 916.791 117.779 916.522 117.207V117.224Z"
                    fill="#18A88B" fill-opacity="0.2" />
                <path
                    d="M907.178 140.516C897.747 167.237 886.988 193.453 877.977 220.359C877.305 222.359 874.128 221.502 874.817 219.485C883.861 192.546 893.41 165.506 906.32 140.163C906.556 139.692 907.363 140.012 907.178 140.532V140.516Z"
                    fill="#18A88B" fill-opacity="0.2" />
            </g>
            <g opacity="0.4" filter="url(#filter14_f_192_5854)">
                <path
                    d="M476.792 847.093C476.792 847.093 458.493 817.821 435.378 836.372C435.378 836.372 447.528 823.06 440.122 811.032C432.715 799.005 421 792.332 421 792.332C421 792.332 443.789 795.5 451.51 783.507C462.124 767.027 458.493 757 458.493 757C458.493 757 470.245 768.889 482.928 770.138C495.611 771.387 502.534 761.082 502.534 761.082C502.534 761.082 491.399 780.477 499.871 793.118C508.343 805.759 521.825 811.136 521.825 811.136C521.825 811.136 500.271 807.135 486.861 824.783C473.452 842.432 476.792 847.093 476.792 847.093Z"
                    fill="#18A88B" fill-opacity="0.5" />
            </g>
            <path
                d="M657.723 337.244C657.723 337.244 651.156 322.591 640.125 330.197C640.125 330.197 646.097 324.529 643.45 318.514C640.802 312.499 636 308.791 636 308.791C636 308.791 645.82 311.382 649.791 306.125C655.25 298.888 654.163 294 654.163 294C654.163 294 658.719 300.163 664.209 301.364C669.698 302.565 673.239 298.056 673.239 298.056C673.239 298.056 667.41 306.641 670.488 312.994C673.577 319.346 679.211 322.528 679.211 322.528C679.211 322.528 669.975 319.599 663.234 327.247C656.492 334.895 657.723 337.244 657.723 337.244Z"
                fill="#18A88B" fill-opacity="0.2" />
            <g opacity="0.4" filter="url(#filter15_f_192_5854)">
                <path
                    d="M228.877 976.403C228.877 976.403 229.799 954.66 234.126 958.442C238.452 962.223 242.093 973.827 242.093 973.827L253.488 971.913C257.861 971.227 265.473 970.377 254.551 978.436L249.043 982.69C249.043 982.69 256.443 998.973 254.67 1001.19C253.015 1003.27 241.691 992.403 241.691 992.403C241.691 992.403 233.676 1012.66 231.17 1006.89C228.688 1001.12 227.979 986.991 227.979 986.991C227.979 986.991 206.655 983.682 213.274 980.114C214.669 979.357 228.877 976.427 228.877 976.427V976.403Z"
                    fill="#18A88B" />
            </g>
            <g opacity="0.4" filter="url(#filter16_f_192_5854)">
                <path
                    d="M1029.5 967.929C1029.5 967.929 1041.01 941.341 1044.56 948.1C1048.11 954.86 1047.14 971.025 1047.14 971.025L1062.22 974.074C1067.99 975.303 1077.85 977.855 1060.45 982.676L1051.56 985.323C1051.56 985.323 1053 1009.07 1049.74 1011.01C1046.69 1012.81 1037.8 993.902 1037.8 993.902C1037.8 993.902 1018.2 1015.27 1017.84 1006.9C1017.49 998.534 1023.35 980.644 1023.35 980.644C1023.35 980.644 998.436 966.369 1008.32 965.093C1010.42 964.833 1029.48 967.929 1029.48 967.929H1029.5Z"
                    fill="#18A88B" fill-opacity="0.4" />
            </g>
            <g filter="url(#filter17_f_192_5854)">
                <path
                    d="M60.2431 762.137C60.2431 762.137 65.2607 750.528 66.799 753.481C68.3373 756.433 67.9204 763.491 67.9204 763.491L74.4907 764.816C77.0067 765.349 81.3054 766.472 73.7143 768.575L69.8469 769.727C69.8469 769.727 70.4795 780.097 69.0562 780.947C67.7335 781.739 63.8517 773.472 63.8517 773.472C63.8517 773.472 55.3118 782.79 55.1536 779.146C54.9955 775.502 57.5546 767.682 57.5546 767.682C57.5546 767.682 46.7 761.46 51.0131 760.898C51.9332 760.783 60.2287 762.137 60.2287 762.137H60.2431Z"
                    fill="#DCF6E5" fill-opacity="0.2" />
            </g>
        </g>
    </g>
    <defs>
        <filter id="filter12_f_192_5854" x="273.4" y="254.4" width="90.2002" height="93.8684"
            filterUnits="userSpaceOnUse" color-interpolation-filters="sRGB">
            <feFlood flood-opacity="0" result="BackgroundImageFix" />
            <feBlend mode="normal" in="SourceGraphic" in2="BackgroundImageFix" result="shape" />
            <feGaussianBlur stdDeviation="2.3" result="effect1_foregroundBlur_192_5854" />
        </filter>
        <filter id="filter13_f_192_5854" x="823.299" y="68.3" width="160.827" height="167.593"
            filterUnits="userSpaceOnUse" color-interpolation-filters="sRGB">
            <feFlood flood-opacity="0" result="BackgroundImageFix" />
            <feBlend mode="normal" in="SourceGraphic" in2="BackgroundImageFix" result="shape" />
            <feGaussianBlur stdDeviation="2.85" result="effect1_foregroundBlur_192_5854" />
        </filter>
        <filter id="filter14_f_192_5854" x="411.3" y="747.3" width="120.225" height="109.493"
            filterUnits="userSpaceOnUse" color-interpolation-filters="sRGB">
            <feFlood flood-opacity="0" result="BackgroundImageFix" />
            <feBlend mode="normal" in="SourceGraphic" in2="BackgroundImageFix" result="shape" />
            <feGaussianBlur stdDeviation="4.85" result="effect1_foregroundBlur_192_5854" />
        </filter>
        <filter id="filter15_f_192_5854" x="204.7" y="950.7" width="62.7681" height="64.524"
            filterUnits="userSpaceOnUse" color-interpolation-filters="sRGB">
            <feFlood flood-opacity="0" result="BackgroundImageFix" />
            <feBlend mode="normal" in="SourceGraphic" in2="BackgroundImageFix" result="shape" />
            <feGaussianBlur stdDeviation="3.65" result="effect1_foregroundBlur_192_5854" />
        </filter>
        <filter id="filter16_f_192_5854" x="999.101" y="940.1" width="78.0694" height="77.9312"
            filterUnits="userSpaceOnUse" color-interpolation-filters="sRGB">
            <feFlood flood-opacity="0" result="BackgroundImageFix" />
            <feBlend mode="normal" in="SourceGraphic" in2="BackgroundImageFix" result="shape" />
            <feGaussianBlur stdDeviation="3.45" result="effect1_foregroundBlur_192_5854" />
        </filter>
        <filter id="filter17_f_192_5854" x="40.6" y="743.6" width="46.8" height="46.8005" filterUnits="userSpaceOnUse"
            color-interpolation-filters="sRGB">
            <feFlood flood-opacity="0" result="BackgroundImageFix" />
            <feBlend mode="normal" in="SourceGraphic" in2="BackgroundImageFix" result="shape" />
            <feGaussianBlur stdDeviation="4.7" result="effect1_foregroundBlur_192_5854" />
        </filter>
        <linearGradient id="paint0_linear_192_5854" x1="1758.08" y1="959.94" x2="1758.08" y2="1084.25"
            gradientUnits="userSpaceOnUse">
            <stop stop-color="white" stop-opacity="0.05" />
            <stop offset="0.666667" stop-color="#282828" stop-opacity="0.622603" />
            <stop offset="1" stop-color="white" stop-opacity="0.05" />
        </linearGradient>
        <linearGradient id="paint1_linear_192_5854" x1="1758.07" y1="873.39" x2="1758.07" y2="997.7"
            gradientUnits="userSpaceOnUse">
            <stop stop-color="white" stop-opacity="0.05" />
            <stop offset="0.666667" stop-color="#282828" stop-opacity="0.622603" />
            <stop offset="1" stop-color="white" stop-opacity="0.05" />
        </linearGradient>
        <linearGradient id="paint2_linear_192_5854" x1="1758.07" y1="786.843" x2="1758.07" y2="911.153"
            gradientUnits="userSpaceOnUse">
            <stop stop-color="white" stop-opacity="0.05" />
            <stop offset="0.666667" stop-color="#282828" stop-opacity="0.622603" />
            <stop offset="1" stop-color="white" stop-opacity="0.05" />
        </linearGradient>
        <linearGradient id="paint3_linear_192_5854" x1="1758.07" y1="700.296" x2="1758.07" y2="824.606"
            gradientUnits="userSpaceOnUse">
            <stop stop-color="white" stop-opacity="0.05" />
            <stop offset="0.666667" stop-color="#282828" stop-opacity="0.622603" />
            <stop offset="1" stop-color="white" stop-opacity="0.05" />
        </linearGradient>
        <linearGradient id="paint4_linear_192_5854" x1="1758.07" y1="613.742" x2="1758.07" y2="738.052"
            gradientUnits="userSpaceOnUse">
            <stop stop-color="white" stop-opacity="0.05" />
            <stop offset="0.666667" stop-color="#282828" stop-opacity="0.622603" />
            <stop offset="1" stop-color="white" stop-opacity="0.05" />
        </linearGradient>
        <linearGradient id="paint5_linear_192_5854" x1="1758.08" y1="527.195" x2="1758.08" y2="651.505"
            gradientUnits="userSpaceOnUse">
            <stop stop-color="white" stop-opacity="0.05" />
            <stop offset="0.666667" stop-color="#282828" stop-opacity="0.622603" />
            <stop offset="1" stop-color="white" stop-opacity="0.05" />
        </linearGradient>
        <linearGradient id="paint6_linear_192_5854" x1="1758.07" y1="440.648" x2="1758.07" y2="564.958"
            gradientUnits="userSpaceOnUse">
            <stop stop-color="white" stop-opacity="0.05" />
            <stop offset="0.666667" stop-color="#282828" stop-opacity="0.622603" />
            <stop offset="1" stop-color="white" stop-opacity="0.05" />
        </linearGradient>
        <linearGradient id="paint7_linear_192_5854" x1="1758.07" y1="354.097" x2="1758.07" y2="478.407"
            gradientUnits="userSpaceOnUse">
            <stop stop-color="white" stop-opacity="0.05" />
            <stop offset="0.666667" stop-color="#282828" stop-opacity="0.622603" />
            <stop offset="1" stop-color="white" stop-opacity="0.05" />
        </linearGradient>
        <linearGradient id="paint8_linear_192_5854" x1="1758.07" y1="267.542" x2="1758.07" y2="391.852"
            gradientUnits="userSpaceOnUse">
            <stop stop-color="white" stop-opacity="0.05" />
            <stop offset="0.666667" stop-color="#282828" stop-opacity="0.622603" />
            <stop offset="1" stop-color="white" stop-opacity="0.05" />
        </linearGradient>
        <linearGradient id="paint9_linear_192_5854" x1="1758.07" y1="181.14" x2="1758.07" y2="305.45"
            gradientUnits="userSpaceOnUse">
            <stop stop-color="white" stop-opacity="0.05" />
            <stop offset="0.666667" stop-color="#282828" stop-opacity="0.622603" />
            <stop offset="1" stop-color="white" stop-opacity="0.05" />
        </linearGradient>
        <linearGradient id="paint10_linear_192_5854" x1="1758.07" y1="94.1401" x2="1758.07" y2="218.45"
            gradientUnits="userSpaceOnUse">
            <stop stop-color="white" stop-opacity="0.05" />
            <stop offset="0.666667" stop-color="#282828" stop-opacity="0.622603" />
            <stop offset="1" stop-color="white" stop-opacity="0.05" />
        </linearGradient>
        <linearGradient id="paint11_linear_192_5854" x1="1758.07" y1="8.14008" x2="1758.07" y2="132.45"
            gradientUnits="userSpaceOnUse">
            <stop stop-color="white" stop-opacity="0.05" />
            <stop offset="0.666667" stop-color="#282828" stop-opacity="0.622603" />
            <stop offset="1" stop-color="white" stop-opacity="0.05" />
        </linearGradient>
        <clipPath id="clip0_192_5854">
            <rect width="1920" height="1080" fill="white" />
        </clipPath>
    </defs>
</svg>