<svg width="340" height="309" viewBox="0 0 340 309" fill="none" xmlns="http://www.w3.org/2000/svg">
    <g clip-path="url(#clip0_2792_81039)">
        <path
            d="M339.724 165.87C335.664 249.989 280.39 285.052 214.168 295.806C185.166 300.516 154.066 300.56 124.25 298.023C26.3606 289.686 -6.29897 225.233 0.977784 139.785C8.24708 54.3448 105.584 -7.13822 203.473 1.19087C301.355 9.52742 343.859 80.2127 339.724 165.862V165.87Z"
            fill="#459F8A" />
        <path
            d="M286.167 94.6775C289.078 119 289.115 143.63 286.219 167.96C283.368 191.873 277.756 215.419 269.919 238.183C265.411 251.273 260.157 264.103 254.321 276.656C253.791 277.798 255.53 278.686 256.06 277.544C266.434 255.214 274.942 231.981 280.853 208.068C286.667 184.529 289.929 160.37 290.302 136.121C290.511 122.232 289.772 108.343 288.122 94.5581C287.973 93.3117 286.018 93.4311 286.174 94.6849L286.167 94.6775Z"
            fill="#2D7766" />
        <path
            d="M290.137 125.746C300.676 111.603 300.713 90.5344 290.22 76.3541C288.219 73.6524 285.585 71.0327 282.241 70.6894C279.144 70.3685 276.099 72.1672 274.285 74.6972C272.472 77.2273 271.718 80.3694 271.427 83.4667C270.673 91.43 272.688 99.4904 276.181 106.693C279.674 113.887 284.6 120.306 289.869 126.329"
            fill="#2D7766" />
        <path
            d="M285.966 180.728C291.929 164.13 285.824 143.964 271.651 133.455C268.949 131.455 265.665 129.716 262.367 130.358C259.314 130.955 256.926 133.567 255.926 136.508C254.926 139.456 255.127 142.68 255.747 145.733C257.344 153.577 261.628 160.697 267.068 166.563C272.509 172.429 279.084 177.131 285.884 181.355"
            fill="#2D7766" />
        <path
            d="M289.682 152.413C305.266 151.712 319.715 139.942 323.551 124.821C324.282 121.941 324.596 118.672 322.961 116.186C321.446 113.888 318.513 112.813 315.767 112.985C313.02 113.156 310.445 114.403 308.162 115.94C302.28 119.881 297.892 125.777 294.922 132.203C291.951 138.629 290.309 145.584 289.137 152.563"
            fill="#2D7766" />
        <path
            d="M278.868 209.522C296.026 211.254 313.714 200.701 320.334 184.781C321.596 181.751 322.469 178.221 321.081 175.243C319.797 172.489 316.752 170.84 313.722 170.586C310.692 170.332 307.676 171.287 304.93 172.594C297.87 175.96 292.123 181.706 287.839 188.252C283.555 194.797 280.652 202.148 278.249 209.597"
            fill="#2D7766" />
        <path
            d="M260.351 263.513C262.904 246.459 253.216 228.286 237.626 220.904C234.655 219.501 231.177 218.456 228.132 219.703C225.318 220.852 223.527 223.815 223.124 226.83C222.729 229.845 223.535 232.905 224.706 235.704C227.729 242.921 233.192 248.937 239.529 253.527C245.865 258.117 253.067 261.371 260.389 264.132"
            fill="#2D7766" />
        <path
            d="M290.563 122.948C293.175 109.506 290.138 92.7733 283.951 80.6379C283.801 80.3468 283.346 80.5857 283.45 80.8842C285.936 87.9221 288.302 94.7063 289.429 102.132C290.481 109.081 290.324 115.947 290.466 122.94C290.466 122.992 290.548 123 290.563 122.94V122.948Z"
            fill="#459F8A" />
        <path
            d="M284.846 178.946C284.846 172.751 282.45 166.154 279.995 160.556C277.614 155.115 274.606 149.704 270.673 145.226C270.367 144.876 269.808 145.376 270.061 145.756C273.666 151.01 277.099 156.115 279.592 162.026C281.928 167.557 282.921 173.296 284.682 178.976C284.712 179.073 284.846 179.035 284.846 178.946Z"
            fill="#459F8A" />
        <path
            d="M312.901 126.113C304.84 132.74 297.228 140.659 291.854 149.667C291.586 150.115 292.28 150.593 292.608 150.19C299.191 141.943 305.624 133.845 313.125 126.374C313.259 126.24 313.058 126.001 312.908 126.12L312.901 126.113Z"
            fill="#459F8A" />
        <path
            d="M307.826 185.737C298.302 191.506 287.734 198.201 280.704 207.022C280.502 207.276 280.816 207.716 281.099 207.485C285.54 203.85 289.466 199.611 293.929 195.977C298.385 192.342 303.012 188.894 307.878 185.819C307.93 185.789 307.878 185.707 307.826 185.737Z"
            fill="#459F8A" />
        <path
            d="M266.412 251.944C282.794 257.333 302.34 250.825 312.229 236.697C314.11 234.003 315.722 230.749 315.006 227.539C314.341 224.569 311.729 222.308 308.818 221.405C305.915 220.509 302.766 220.785 299.803 221.472C292.183 223.24 285.339 227.614 279.749 233.085C274.159 238.555 269.74 245.108 265.792 251.862"
            fill="#2D7766" />
        <path
            d="M299.81 234.943C289.279 238.525 277.51 242.802 268.755 249.885C268.442 250.138 268.74 250.579 269.091 250.4C274.002 247.907 278.569 244.742 283.488 242.227C288.787 239.518 294.242 237.055 299.84 235.033C299.9 235.01 299.87 234.921 299.81 234.943Z"
            fill="#459F8A" />
        <path
            d="M259.523 263.273C255.523 253.332 248.313 242.891 239.73 236.345C239.297 236.017 238.79 236.577 239.163 236.972C243.178 241.174 247.283 245.047 250.783 249.734C254.015 254.063 256.642 258.69 259.247 263.407C259.329 263.557 259.583 263.437 259.523 263.273Z"
            fill="#459F8A" />
        <path
            d="M276.33 218.307C278.883 201.254 269.195 183.08 253.604 175.699C250.634 174.296 247.156 173.251 244.111 174.498C241.297 175.647 239.506 178.61 239.103 181.625C238.708 184.64 239.514 187.7 240.685 190.499C243.708 197.716 249.171 203.732 255.508 208.321C261.844 212.911 269.046 216.165 276.368 218.927"
            fill="#2D7766" />
        <path
            d="M275.502 218.068C271.502 208.127 264.292 197.686 255.709 191.14C255.276 190.812 254.769 191.371 255.142 191.767C259.157 195.969 263.262 199.842 266.762 204.529C269.994 208.858 272.621 213.485 275.226 218.202C275.308 218.351 275.569 218.232 275.502 218.068Z"
            fill="#459F8A" />
        <path
            d="M265.635 48.1872L268.74 38.7461L272.263 48.1872C272.263 48.1872 279.301 49.3814 279.383 50.0381C279.465 50.68 272.651 52.6876 272.651 52.6876C272.651 52.6876 269.792 61.8451 268.747 59.7703C267.703 57.6955 266.688 53.1056 266.688 53.1056C266.688 53.1056 257.829 51.2621 257.829 50.359C257.829 49.3814 265.65 48.1798 265.65 48.1798L265.635 48.1872Z"
            fill="#2D7766" />
        <path
            d="M218.825 275.2L214.168 295.806C214.168 295.806 261.799 290.313 283.435 271.185C283.435 271.185 221.326 264.147 218.825 275.2Z"
            fill="#CBF1D7" />
        <path
            d="M72.6857 78.6076C71.9543 79.4733 57.341 97.2585 57.341 97.2585C57.341 97.2585 40.4888 81.6452 41.8173 90.2205C43.1458 98.8034 44.2354 111.402 44.2354 111.402C44.2354 111.402 25.286 111.633 28.9729 115.051C32.6598 118.469 45.0116 126.425 45.0116 126.425C45.0116 126.425 30.4432 149.666 37.9364 146.166C45.4296 142.665 55.2065 135.874 55.2065 135.874C55.2065 135.874 84.2464 160.458 80.5595 153.174C76.8651 145.89 71.0811 127.925 71.0811 127.925C71.0811 127.925 104.099 117.745 99.3522 114.521C94.613 111.29 73.4395 108.297 73.4395 108.297C73.4395 108.297 74.3127 76.6746 72.6931 78.6001L72.6857 78.6076Z"
            fill="#2D7766" />
        <path
            d="M53.4153 233.039C53.4153 233.039 48.4596 210.283 54.1094 214.194C59.7666 218.105 67.8568 228.442 67.8568 228.442L80.3878 224.837C83.097 224.061 85.336 227.031 83.8433 229.419L77.7682 239.152C77.7682 239.152 93.5606 260.989 87.6496 258.937C81.7387 256.884 67.4911 251.936 67.4911 251.936C67.4911 251.936 66.1627 274.841 62.1698 268.393C58.1769 261.945 54.5422 245.488 54.5422 245.488C54.5422 245.488 28.2937 241.443 36.466 239.211C44.6384 236.987 53.4153 233.017 53.4153 233.017V233.039Z"
            fill="#2D7766" />
        <path
            d="M124.929 32.2759C124.929 32.2759 127.019 18.909 129.265 22.2153C131.504 25.5215 133.721 32.8207 133.721 32.8207L141.266 33.4998C142.893 33.6491 143.483 35.7239 142.177 36.7091L136.841 40.702C136.841 40.702 140.811 55.8451 138.042 53.4941C135.273 51.1432 128.594 45.471 128.594 45.471C128.594 45.471 123.063 57.599 122.257 53.2702C121.451 48.9415 122.929 39.2615 122.929 39.2615C122.929 39.2615 109.562 31.5594 114.458 32.0669C119.354 32.5744 124.937 32.2684 124.937 32.2684L124.929 32.2759Z"
            fill="#2D7766" />
        <path
            d="M201.622 115.663C201.622 115.663 185.718 126.268 187.009 120.775C188.3 115.282 193.778 105.99 193.778 105.99L187.27 97.4897C185.867 95.6537 187.464 93.049 189.741 93.4744L198.995 95.2059C198.995 95.2059 210.959 76.5923 211.16 81.7197C211.362 86.8544 211.854 99.2286 211.854 99.2286C211.854 99.2286 229.766 93.3774 226.027 98.3629C222.296 103.348 210.81 111.058 210.81 111.058C210.81 111.058 215.586 132.336 211.429 126.753C207.279 121.171 201.615 115.655 201.615 115.655L201.622 115.663Z"
            fill="#2D7766" />
        <path
            d="M192.693 302.689L83.2106 297.967C63.9896 297.14 52.9099 277.316 63.2654 262.285L122.235 176.661L181.205 91.0368C191.561 76.0055 215.577 77.0459 224.442 92.9048L274.946 183.258L325.45 273.611C334.316 289.47 321.38 308.261 302.159 307.426L192.676 302.704L192.693 302.689Z"
            fill="#CBF1D7" stroke="#083B30" stroke-width="3" stroke-miterlimit="10" />
        <path
            d="M81.8554 279.697C78.6167 279.476 76.413 276.532 78.2911 273.745C78.6083 273.279 78.9338 272.822 79.251 272.356C80.7702 270.153 82.2978 267.943 83.8169 265.741C86.3295 262.093 88.8503 258.446 91.3628 254.799C94.6933 249.976 98.0155 245.152 101.346 240.321C105.269 234.63 109.192 228.938 113.124 223.246C117.439 216.986 121.755 210.726 126.079 204.466C130.561 197.969 135.044 191.464 139.526 184.967C144.009 178.462 148.499 171.958 152.982 165.453C157.247 159.272 161.513 153.091 165.77 146.902C169.609 141.336 173.441 135.779 177.28 130.213C180.469 125.587 183.658 120.961 186.846 116.335C189.217 112.901 191.579 109.467 193.95 106.033C195.277 104.107 196.604 102.189 197.923 100.263C198.132 99.9627 198.324 99.6548 198.549 99.3627C200.544 96.6708 204.951 96.9787 206.621 99.8127C207.305 100.981 207.94 102.173 208.599 103.349C210.227 106.254 211.846 109.159 213.474 112.064C215.903 116.406 218.332 120.748 220.769 125.09C223.824 130.545 226.879 136.008 229.935 141.462C233.44 147.723 236.938 153.983 240.444 160.235C244.2 166.945 247.956 173.663 251.712 180.373C255.585 187.288 259.459 194.211 263.332 201.127C267.121 207.908 270.919 214.681 274.709 221.462C278.248 227.785 281.787 234.109 285.326 240.432C288.423 245.966 291.52 251.492 294.617 257.025C297.121 261.501 299.634 265.985 302.138 270.461C303.866 273.548 305.585 276.627 307.313 279.713C308.081 281.087 308.882 282.452 309.617 283.834C311.219 286.834 308.44 289.391 305.318 289.32C304.976 289.313 304.633 289.289 304.291 289.273C301.971 289.17 299.65 289.076 297.338 288.973C293.114 288.792 288.891 288.61 284.667 288.428C278.907 288.184 273.148 287.931 267.388 287.686C260.46 287.386 253.524 287.086 246.596 286.794C238.899 286.463 231.195 286.131 223.499 285.8C215.319 285.444 207.147 285.097 198.966 284.742C190.711 284.387 182.456 284.031 174.2 283.676C166.229 283.337 158.257 282.989 150.286 282.642C142.999 282.326 135.711 282.01 128.424 281.703C122.114 281.434 115.803 281.158 109.493 280.889C104.56 280.676 99.6265 280.463 94.6933 280.25C91.5047 280.116 88.3161 279.974 85.1275 279.84C84.0423 279.792 82.9572 279.745 81.8721 279.697C80.4196 279.634 80.428 281.766 81.8721 281.829C83.0657 281.876 84.251 281.931 85.4446 281.979C88.7668 282.121 92.0807 282.263 95.4029 282.405C100.478 282.626 105.553 282.839 110.628 283.06C117.081 283.337 123.533 283.613 129.985 283.897C137.481 284.221 144.977 284.544 152.473 284.868C160.561 285.215 168.649 285.563 176.738 285.91C185.077 286.273 193.424 286.629 201.763 286.992C209.985 287.347 218.207 287.702 226.42 288.057C234.142 288.389 241.871 288.72 249.592 289.052C256.445 289.344 263.298 289.644 270.143 289.936C275.744 290.181 281.353 290.418 286.954 290.662C290.936 290.836 294.917 291.002 298.899 291.176C300.886 291.262 302.872 291.349 304.859 291.436C306.662 291.507 308.423 291.215 309.892 290.141C312.388 288.302 312.964 285.334 311.528 282.713C310.719 281.229 309.876 279.761 309.049 278.284C307.255 275.087 305.468 271.882 303.674 268.685C301.094 264.083 298.523 259.48 295.944 254.878C292.764 249.194 289.584 243.518 286.403 237.835C282.797 231.401 279.2 224.959 275.594 218.525C271.746 211.657 267.906 204.79 264.058 197.922C260.151 190.943 256.245 183.965 252.338 176.986C248.549 170.221 244.767 163.456 240.978 156.69C237.48 150.43 233.975 144.178 230.477 137.918C227.472 132.55 224.475 127.19 221.47 121.822C219.133 117.638 216.788 113.462 214.45 109.278C212.956 106.602 211.454 103.933 209.96 101.257C209.058 99.639 208.24 97.7523 206.654 96.6393C203.441 94.3894 198.783 95.2341 196.579 98.3049C196.337 98.6444 196.112 98.9838 195.87 99.3312C194.476 101.352 193.09 103.365 191.696 105.386C189.25 108.931 186.813 112.475 184.367 116.019C181.087 120.78 177.798 125.548 174.518 130.308C170.586 136.008 166.654 141.715 162.723 147.415C158.391 153.698 154.059 159.982 149.726 166.266C145.185 172.85 140.645 179.433 136.112 186.017C131.58 192.593 127.047 199.169 122.506 205.745C118.191 212.005 113.867 218.273 109.551 224.533C105.662 230.177 101.772 235.822 97.8736 241.466L88.1158 255.62C85.7118 259.109 83.3078 262.591 80.9038 266.08C79.5599 268.03 78.216 269.98 76.8721 271.922C76.6634 272.222 76.4547 272.514 76.2544 272.822C75.0858 274.614 74.9689 276.65 76.029 278.521C77.206 280.613 79.4263 281.671 81.8721 281.837C83.3161 281.931 83.3161 279.8 81.8721 279.705L81.8554 279.697Z"
            fill="#083B30" />
        <path
            d="M176.935 152.613C176.935 152.613 177.612 218.955 184.107 223.695C190.603 228.435 205.965 226.573 207.109 224.665C208.253 222.756 220.894 152.518 218.222 152.021C180.676 145.026 176.935 152.613 176.935 152.613Z"
            fill="#083B30" />
        <path
            d="M202.438 266.328C211.271 261.147 213.985 250.182 208.5 241.838C203.014 233.494 191.406 230.93 182.573 236.112C173.74 241.294 171.025 252.258 176.511 260.602C181.996 268.946 193.604 271.51 202.438 266.328Z"
            fill="#083B30" />
        <path
            d="M111.169 88.2155C126.239 74.6191 151.512 82.8606 157.031 101.844C158.776 107.845 158.559 115.353 156.38 125.046C155.277 129.943 151.445 134.108 149.4 137.152C140.157 150.93 125.98 147.72 125.98 147.72L116.646 170.134L94.4121 157.058L100.849 130.141C100.849 130.141 101.576 109.336 105.951 96.8593C106.928 94.0832 108.965 90.203 111.169 88.2155Z"
            fill="white" />
        <path
            d="M141.477 84.365C141.477 84.365 149.183 87.7877 154.568 95.4377C154.568 95.4377 158.425 95.6664 158.559 88.5606C158.684 81.6204 147.496 78.9627 147.496 78.9627C147.496 78.9627 153.14 66.1075 128.377 64.4119C113.064 63.363 108.372 77.2828 108.372 77.2828C99.5638 77.0304 86.6894 87.007 87.9334 95.9819C90.9809 118.017 100.85 130.139 100.85 130.139L105.842 103.939C105.842 103.939 110.969 105.848 112.046 98.7817C112.847 93.545 112.705 92.1569 114.826 88.1821C116.947 84.2072 124.503 81.8334 124.503 81.8334C124.503 81.8334 133.244 89.3099 142.612 83.9943"
            fill="#40213F" />
        <path
            d="M148.582 107.521C148.398 108.522 147.48 109.201 146.528 109.051C145.576 108.901 144.95 107.962 145.126 106.969C145.309 105.967 146.228 105.289 147.179 105.439C148.131 105.589 148.757 106.527 148.582 107.521Z"
            fill="#40213F" />
        <path
            d="M129.245 103.9C129.062 104.901 128.143 105.58 127.192 105.43C126.24 105.28 125.614 104.341 125.789 103.34C125.973 102.338 126.891 101.66 127.843 101.81C128.795 101.96 129.421 102.898 129.245 103.9Z"
            fill="#40213F" />
        <path
            d="M120.429 94.1993C122.341 93.4895 124.745 93.4027 126.757 93.5605C128.794 93.7182 130.406 94.5542 132.309 95.0589C133.437 95.3586 134.029 94.0731 133.194 93.3949C129.504 90.3979 123.827 91.439 119.944 93.2687C119.301 93.5762 119.777 94.4438 120.429 94.2072V94.1993Z"
            fill="#40213F" />
        <path
            d="M151.337 97.8112C148.858 94.0966 143.439 93.4657 140.266 96.6913C135.499 101.542 136.826 111.258 139.448 116.731C139.932 117.733 141.727 117.196 141.41 116.1C140.216 112.007 139.014 107.922 139.557 103.616C139.924 100.706 141.093 97.2433 144.499 96.6124C146.52 96.2417 149.108 97.1487 150.728 98.3159C151.053 98.5446 151.571 98.1503 151.346 97.8112H151.337Z"
            fill="#40213F" />
        <path
            d="M105.834 103.947C103.472 101.723 99.4055 101.329 97.7691 102.117C96.1327 102.906 94.9387 104.357 94.204 105.95C92.985 108.592 92.9934 111.818 94.6465 114.239C96.2996 116.66 101.317 118.624 104.181 117.638L105.834 103.947Z"
            fill="white" />
        <path
            d="M98.0194 109.577C98.5955 109.333 99.8395 109.349 100.441 109.459C101.409 109.633 101.918 110.216 102.478 110.926C103.129 111.754 104.331 110.839 103.981 109.988C103.488 108.82 102.161 107.976 100.858 107.827C100.24 107.756 99.5139 107.827 98.9462 108.095C98.3116 108.394 98.1864 108.844 97.8107 109.349C97.7105 109.483 97.8775 109.648 98.0277 109.585L98.0194 109.577Z"
            fill="#40213F" />
        <path
            d="M113.524 141.663C117.665 146.048 122.624 149.282 128.995 149.676C130.13 149.747 130.197 148.178 129.103 148.028C123.117 147.215 118.734 144.361 113.632 141.545C113.557 141.506 113.457 141.592 113.524 141.663Z"
            fill="#40213F" />
        <path
            d="M109.967 78.1451C109.14 74.1309 110.075 69.951 111.921 66.3074C112.363 65.4241 110.844 64.943 110.401 65.8184C108.339 69.8879 108.255 73.9495 109.332 78.2634C109.433 78.6499 110.059 78.5316 109.975 78.1373L109.967 78.1451Z"
            fill="#40213F" />
        <path
            d="M109.216 77.5096C107.137 75.4118 105.45 73.0695 104.148 70.4669C103.638 69.4495 101.952 70.2382 102.494 71.2319C103.956 73.9054 105.826 76.3108 108.088 78.4245C108.765 79.0554 109.875 78.1721 109.216 77.5096Z"
            fill="#40213F" />
        <path
            d="M166.95 101.462C168.002 99.3957 167.459 96.8562 166.174 94.9083C164.888 92.9603 162.959 91.4855 161.072 90.0501C163.702 88.2677 163.452 84.1983 161.281 81.9269C159.11 79.6556 155.712 78.8433 152.489 78.5594C151.287 78.4568 149.918 78.3228 149.2 77.4079C148.632 76.6824 148.682 75.6965 148.549 74.8053C147.981 71.0198 144.015 68.5749 140.224 67.2263C134.547 65.2074 128.21 64.5134 122.366 66.0512C116.521 67.5891 111.261 71.5561 109.124 76.9268L125.597 71.8084C123.56 73.5356 122.516 76.2565 122.908 78.8196C122.933 78.9537 122.967 79.0878 123 79.2218C121.464 78.5278 119.218 78.3307 118.325 76.0987L108.782 78.3937C105.208 76.1934 100.341 76.0278 96.6001 77.9836C92.8681 79.9316 90.4301 83.9144 90.4969 87.9444C86.9318 86.3355 82.3147 89.2851 81.8722 92.9918C81.4297 96.6985 84.4521 100.263 88.2009 101.438C91.9497 102.613 96.1493 101.754 99.6225 99.9636C100.474 104.349 106.294 107.132 110.543 105.192C114.793 103.252 116.087 97.2111 112.981 93.8593C117.072 93.7884 123.05 93.1101 124.428 82.3134C125.246 83.3781 126.332 84.2535 127.592 84.8213C128.26 85.121 129.003 85.3655 129.421 85.9333C129.863 86.5327 129.813 87.3214 129.88 88.0469C130.18 91.6038 133.47 94.4351 137.069 95.5076C140.675 96.5723 144.558 96.2411 148.315 95.831C149.375 100.713 154.176 104.64 159.444 104.932C162.392 105.098 165.656 103.978 166.933 101.47L166.95 101.462Z"
            fill="#40213F" />
        <path
            d="M85.4207 100.078C89.5369 102.664 92.8348 102.735 97.527 101.663C99.8564 101.126 99.2887 102.404 100.925 103.966C102.42 105.385 104.156 105.992 106.193 106.276C106.895 106.379 107.12 105.227 106.419 105.109C103.213 104.565 100.975 102.767 99.8731 99.8961C99.7646 99.6122 99.3054 99.486 99.0466 99.6359C94.9471 101.955 89.7289 102.191 85.5126 99.9435C85.4124 99.8882 85.3205 100.022 85.4207 100.078Z"
            fill="#A0D2F4" />
        <g opacity="0.3">
            <path
                d="M130.73 112.331C130.271 114.066 126.973 114.784 123.366 113.94C119.751 113.096 117.188 110.998 117.647 109.263C118.106 107.528 121.404 106.811 125.011 107.654C128.626 108.498 131.189 110.596 130.73 112.331Z"
                fill="#40213F" />
        </g>
        <g opacity="0.3">
            <path
                d="M155.507 116.75C155.962 115.016 153.976 113.06 151.071 112.38C148.166 111.7 145.443 112.554 144.988 114.287C144.533 116.021 146.519 117.977 149.424 118.657C152.329 119.337 155.052 118.483 155.507 116.75Z"
                fill="#40213F" />
        </g>
        <path
            d="M139.723 123.695C139.664 123.727 139.606 123.75 139.539 123.766C139.656 123.743 139.765 123.719 139.882 123.695C139.289 123.687 138.846 124.129 138.437 124.492C137.719 125.131 137.869 126.243 138.771 126.645C139.589 127.008 140.783 126.479 140.741 125.533C140.725 125.233 140.7 124.933 140.675 124.642C140.666 124.515 140.658 124.405 140.608 124.287C140.574 124.176 140.524 124.082 140.433 123.995C140.382 123.932 140.382 123.94 140.433 124.019C140.332 123.735 140.032 123.545 139.715 123.695H139.723Z"
            fill="#40213F" />
        <g opacity="0.3">
            <path
                d="M140.499 140.662C141.184 140.812 141.334 141.34 141.668 141.695C141.434 145.181 136.984 141.837 140.499 140.662ZM147.521 135.788C146.803 135.961 146.402 135.961 145.776 136.411C145.617 139.613 150.393 137.578 147.521 135.788ZM133.761 142.61C133.561 143.335 133.411 144.006 133.302 144.613C133.853 144.392 134.204 143.738 133.761 142.61ZM142.854 141.143C143.004 141.506 143.154 141.861 143.321 142.255C146.728 143.264 145.225 138.036 142.854 141.143ZM146.235 132.176C145.701 132.61 144.966 132.854 145.074 133.737C145.3 134.439 146.327 134.723 146.928 134.25C146.961 133.84 147.345 133.69 147.546 133.406C147.871 132.767 146.803 132.239 146.243 132.176H146.235ZM154.551 121.324C156.054 122.01 157.273 120.37 155.87 119.447C155.761 119.36 155.653 119.313 155.553 119.273C155.152 119.573 154.709 119.896 154.242 120.259C154.142 120.685 154.217 121.127 154.551 121.324ZM139.481 137.176C138.303 137.468 137.936 138.722 138.821 139.463C140.674 140.031 141.234 137.539 139.481 137.176ZM136.283 145.417C135.941 146.34 136.141 146.656 136.617 147.011C137.185 146.845 137.769 146.656 138.37 146.443C138.47 145.607 137.51 144.787 136.283 145.417ZM142.703 131.285C143.046 130.89 142.904 130.37 142.561 129.976C142.06 130.441 141.568 130.898 141.1 131.348C141.534 131.663 142.152 131.726 142.703 131.285ZM136.851 144.108C137.093 143.88 137.31 143.682 137.585 143.422C137.736 141.182 135.039 140.962 135.448 143.233C136.041 143.328 136.283 143.974 136.842 144.108H136.851ZM149.007 132.065C148.397 133.84 150.919 134.116 151.403 132.554C151.186 132.207 150.994 131.908 150.819 131.624C150.373 131.577 149.77 131.724 149.007 132.065ZM143.446 133.138C142.979 133.335 142.57 133.296 142.01 133.233C142.136 133.777 141.526 133.643 141.301 133.935C141.209 134.573 141.676 134.928 142.102 135.338C143.137 135.125 144.54 134.116 143.446 133.146V133.138ZM152.255 121.844C152.255 121.844 152.271 121.789 152.28 121.766C152.221 121.813 152.163 121.86 152.104 121.908C152.155 121.892 152.205 121.868 152.255 121.844ZM152.121 127.199C151.837 127.736 151.988 128.264 152.004 128.769C154.509 130.851 154.618 126.561 152.121 127.199ZM150.101 128.288C148.23 127.444 147.888 129.005 148.765 130.173C149.55 130.252 150.042 129.889 150.585 129.368C150.41 128.974 150.251 128.619 150.101 128.288ZM140.04 145.134C139.998 145.37 139.956 145.607 139.915 145.851C140.633 145.552 141.342 145.212 142.027 144.85C141.459 144.195 140.942 144.897 140.048 145.141L140.04 145.134ZM133.077 146.214C132.985 147.216 133.01 147.815 133.01 147.815C133.427 147.76 133.945 147.665 134.521 147.539C134.555 147.515 134.588 147.492 134.621 147.468C134.78 146.514 133.786 145.977 133.077 146.214ZM148.815 124.55C148.314 124.96 147.805 125.386 147.304 125.811C148.038 127.57 150.827 125.512 148.815 124.55ZM146.611 129.55C146.486 129.282 146.385 129.053 146.26 128.793C145.626 129.092 145.041 128.603 144.599 129.084C144.031 129.999 145.116 131.261 146.143 130.733C146.193 130.236 146.302 129.897 146.611 129.55ZM154.935 123.193C155.102 123.824 154.843 124.668 155.619 124.881C155.82 124.936 156.095 124.983 156.338 124.96L156.663 123.587C156.354 122.925 155.686 122.531 154.926 123.193H154.935ZM138.12 135.938C139.063 135.827 140.315 135.338 139.739 134.25C139.314 134.179 138.896 134.1 138.47 134.029C138.245 134.282 138.028 134.526 137.819 134.763C137.811 134.771 137.802 134.786 137.794 134.794C137.752 134.842 137.719 134.881 137.685 134.928C137.577 135.228 137.811 135.749 138.12 135.938ZM137.109 138.982C136.892 138.698 136.675 138.414 136.416 138.083C136.074 138.044 135.757 138.122 135.481 138.264C135.281 138.651 135.097 139.029 134.93 139.4C134.98 139.526 135.056 139.652 135.181 139.771C136.127 139.886 136.767 139.623 137.101 138.982H137.109ZM151.537 125.709C151.971 125.74 152.347 125.764 152.772 125.796C153.349 125.338 153.248 122.665 152.489 124.1C150.56 123.532 151.37 124.699 151.537 125.709ZM144.081 137.326C143.513 137.342 143.463 136.861 143.087 136.569C142.611 136.908 142.419 137.365 142.136 137.799C142.394 138.146 142.645 138.477 142.879 138.793C143.271 138.414 144.891 137.823 144.081 137.326Z"
                fill="#40213F" />
        </g>
        <path
            d="M102.953 202.198C95.5141 214.304 72.9464 247.017 72.9464 247.017C72.9464 247.017 65.6909 228.121 61.2241 205.471C59.1452 194.958 53.9771 158.206 57.7342 150.659C62.0507 142.007 82.0052 143.009 91.7403 143.9C95.0466 144.208 97.209 144.499 97.2675 144.413C97.2675 144.413 106.66 154.902 117.347 157.449C121.255 158.388 123.626 158.198 125.079 157.567C127.592 156.503 127.291 154.137 127.291 154.137C141.159 158.372 107.62 194.626 102.953 202.205V202.198Z"
            fill="#2ACF83" />
        <path
            d="M117.047 162.607C104.94 159.721 93.786 146.424 91.7488 143.893C94.9465 143.94 97.3427 144.24 97.4012 144.161C97.4012 144.161 106.677 154.894 117.356 157.442C121.263 158.38 123.634 158.191 125.087 157.56L126.899 158.672C126.899 158.672 130.439 165.786 117.047 162.6V162.607Z"
            fill="#CBF1D7" />
        <g opacity="0.3">
            <path
                d="M92.9102 208.53L92.7182 208.411C92.426 209.231 91.5827 208.924 90.873 208.861C90.3554 208.34 90.3804 207.741 90.6225 207.118L90.8146 207.236C90.8146 206.779 91.0567 206.44 91.4073 206.14C92.1671 206.763 93.8119 207.299 92.9186 208.522L92.9102 208.53ZM86.2225 204.428C85.1789 205.596 87.4499 206.676 88.1345 205.604L88.3265 205.722C88.8358 204.279 87.1743 203.009 86.2225 204.436V204.428ZM107.688 194.302L109.091 192.196C107.68 191.581 106.561 193.466 107.688 194.302ZM90.6977 197.441C90.539 196.077 89.5538 195.501 88.2848 196.329C88.4434 196.873 88.2013 197.473 88.6521 197.954C89.3702 197.891 90.4889 198.372 90.6977 197.449V197.441ZM84.9618 196.834C83.8514 198.301 85.2457 199.61 86.665 198.364C87.6753 197.496 85.9053 196.116 84.9618 196.834ZM91.2487 203.04C89.2115 203.79 89.7626 205.47 91.8916 205.233L92.5762 204.239C92.2673 203.703 91.9 203.269 91.2487 203.04ZM104.207 198.222C104.424 198.309 104.657 198.403 104.891 198.498L106.094 196.692C105.785 196.629 105.459 196.566 105.108 196.495C104.357 197.062 104.059 197.638 104.215 198.222H104.207ZM80.3865 193.868L79.9607 194.767C79.9607 194.886 79.944 195.012 79.944 195.17C80.0859 196.179 81.5971 196.132 82.2316 195.477C82.1732 194.901 82.073 194.318 81.5971 193.766C80.9959 193.782 80.6286 193.789 80.3781 193.876L80.3865 193.868ZM103.447 194.342C104.006 194.98 104.975 195.02 105.668 194.736C105.918 194.002 105.517 193.466 105.317 192.867C105.15 192.883 104.991 192.906 104.833 192.922L103.447 193.868C103.447 194.034 103.447 194.192 103.447 194.342ZM111.746 188.198L110.268 189.207C110.435 189.365 110.61 189.515 110.769 189.665L111.746 188.198ZM93.311 199.144C92.785 199.555 92.6848 200.122 93.2692 200.848C94.4131 201.234 95.2563 200.343 95.1227 199.555L93.862 200.414L93.311 199.144ZM89.988 199.539C89.7375 199.72 89.4787 199.909 89.1948 200.115C89.1447 200.493 89.103 200.88 89.0529 201.266C90.7311 202.654 92.8935 199.61 89.988 199.539ZM84.3941 193.04C84.1853 193.19 83.985 193.34 83.7345 193.521C84.0935 197.149 88.6104 193.703 84.3941 193.04ZM98.4457 200.02C99.5895 199.129 98.4958 197.922 97.352 198.025L96.7926 198.411C96.4836 199.515 97.1432 200.359 98.4457 200.02ZM88.3265 192.37C87.0658 192.953 87.2912 194.231 88.577 194.594C90.5808 194.01 89.8377 192.638 88.3265 192.37ZM96.8427 207.425C96.7508 206.077 95.7573 205.47 94.5049 206.274C94.0958 207.63 95.9243 208.53 96.8427 207.425ZM94.0373 202.622C93.9205 203.214 93.695 203.648 93.8036 204.271C96.3417 205.47 96.9095 201.55 94.0373 202.622ZM86.0472 200.154C85.229 200.391 84.9201 201.384 85.5128 201.968C86.0722 202.283 86.6984 201.818 87.3664 201.968C87.9758 200.785 87.1743 200.288 86.0472 200.154ZM92.2506 196.684L92.1337 196.4C92.1337 196.455 92.117 196.495 92.1087 196.55C92.1588 196.597 92.2005 196.637 92.2506 196.676V196.684ZM88.9443 190.154C88.8776 189.704 88.8275 189.294 88.7607 188.876C88.0092 188.584 87.5166 189.129 86.8988 189.255C86.8487 189.633 86.8153 189.988 86.7569 190.406C88.1178 191.55 87.8256 190.651 88.936 190.154H88.9443ZM99.0552 207.268L100.207 205.541C99.9068 205.02 99.2472 204.839 98.4791 205.69C98.4206 206.258 98.5793 206.944 99.0552 207.268ZM101.752 195.304C101.794 195.185 101.802 195.083 101.827 194.972L100.859 195.635C101.142 195.659 101.46 195.564 101.752 195.304ZM81.5136 197.599C80.8874 197.614 80.9626 198.245 80.8958 198.758C80.495 199.657 82.1314 200.099 82.574 199.476C83.0415 198.774 82.5239 197.346 81.5136 197.599ZM101.961 202.906L103.121 201.156C102.645 201.061 102.236 200.982 101.752 200.895C101.234 201.558 100.834 203.159 101.952 202.906H101.961ZM97.8529 201.992C97.1432 203.033 98.095 204.089 99.2639 203.356C100.783 202.528 98.9884 200.974 97.8529 201.992ZM87.0074 185.233C85.9637 185.343 86.0722 186.132 85.7884 186.676C85.9804 186.904 86.1641 187.125 86.3394 187.338C87.1326 187.283 87.692 187.031 87.9425 186.699L87.4081 185.469C87.2829 185.39 87.166 185.311 86.999 185.24L87.0074 185.233ZM101.176 197.236C99.2138 199.018 102.403 200.422 102.604 198.253C102.211 197.827 101.969 197.204 101.176 197.236ZM85.4127 183.261C85.421 183.442 85.4544 183.624 85.5212 183.813C85.9387 183.774 86.306 183.734 86.6483 183.695L85.9637 182.102L85.4127 183.261ZM84.8282 191.266C85.0175 190.708 84.9952 190.212 84.7614 189.775C84.4442 189.712 84.1185 189.57 83.7846 189.594C83.0582 190.035 83.0248 191.132 83.7512 191.542C84.1269 191.447 84.4776 191.36 84.8282 191.274V191.266ZM84.0434 186.542C83.985 186.526 83.9349 186.51 83.8764 186.51L83.1834 187.969C83.7595 187.756 84.3106 187.188 84.0351 186.55L84.0434 186.542ZM95.1144 210.651C95.44 210.99 95.7573 211.463 96.0996 211.708L97.185 210.075C96.9846 209.854 96.7258 209.673 96.4836 209.594C96.0411 209.571 95.6153 209.815 95.2062 209.933C95.1728 210.178 95.1478 210.422 95.1144 210.643V210.651ZM78.9588 199.973L79.1508 200.091C78.6665 199.539 79.1257 199.034 79.2927 198.545C78.9337 198.301 78.6248 198.182 78.366 198.159L77.3808 200.233C77.7899 200.611 78.3827 200.667 78.9671 199.973H78.9588ZM81.5387 202.504C82.1398 203.017 82.9831 203.498 83.7345 202.906C84.4776 202.078 83.2753 201.203 82.4404 201.053C82.1732 201.234 81.906 201.432 81.6305 201.621C81.5971 201.928 81.5637 202.236 81.5303 202.504H81.5387ZM83.5591 217.299C83.3254 216.495 82.6407 215.896 81.714 216.156C80.3447 217.473 80.854 219.034 82.958 218.238C83.1918 217.993 83.4172 217.599 83.5591 217.292V217.299ZM77.1052 218.293C77.3223 219.831 79.0757 219.579 79.585 218.364C79.4347 217.78 79.1842 217.252 78.6415 216.905C77.2388 216.992 77.314 217.276 77.0969 218.301L77.1052 218.293ZM81.4969 209.602C80.8123 207.962 78.8335 209.381 79.3762 210.817C80.4449 211.826 82.2149 211.116 81.4969 209.602ZM79.1675 224.366L81.1629 224.973C81.1629 224.311 80.3865 223.774 79.1675 224.366ZM83.8931 208.388C83.5925 208.656 83.3003 208.916 82.9497 209.216C82.9998 209.46 83.0498 209.728 83.0916 209.957C85.2874 211.692 86.8571 208.348 83.8848 208.388H83.8931ZM68.0214 219.997L67.6206 220.84L68.0631 220.975C68.1883 220.675 68.1549 220.328 68.0214 219.997ZM83.4089 207C85.1371 206.518 84.511 205.217 83.4172 204.342C82.407 205.052 81.4385 207.205 83.4089 207ZM75.3352 217.899C74.7174 217.883 74.1329 217.875 73.4066 217.859C72.3963 221.14 76.5125 220.265 75.3352 217.899ZM83.8764 225.525C84.1686 225.257 84.4358 225.02 84.6863 224.8C84.9284 223.49 82.9998 222.796 82.3986 223.9C82.3986 224.847 82.6992 225.801 83.8848 225.525H83.8764ZM93.1022 213.979C92.2172 214.026 91.8916 215.556 92.6681 216.093C92.8434 216.124 93.002 216.132 93.1523 216.124L94.3129 214.381C93.9956 214.113 93.528 214.066 93.1022 213.979ZM88.7523 207.615C87.6502 207.189 86.9405 208.206 86.8153 209.129C87.5584 209.421 88.2013 209.894 89.0863 209.334C89.2867 208.745 89.1753 208.172 88.7523 207.615ZM87.4248 224.729L88.4685 223.167C88.4518 223.128 88.4351 223.088 88.4184 223.049C87.6419 222.781 86.9573 222.591 86.2476 223.057C86.1056 224.113 86.7652 224.642 87.4332 224.729H87.4248ZM86.2476 213.474C86.1056 212.071 85.5796 211.787 84.2438 212.197C83.0832 214.003 84.7781 214.618 86.2476 213.474ZM74.7675 214.744C74.0161 214.523 73.3314 214.476 72.4965 214.539C71.5531 216.889 76.0115 216.889 74.7675 214.744ZM83.3087 222.055C83.8931 221.432 84.1853 220.785 83.7261 219.934C81.4886 219.003 81.2464 222.118 83.3087 222.055ZM92.6681 210.951C92.2089 210.769 91.7413 210.627 91.3072 210.998C91.232 211.605 92.0252 211.976 92.0085 212.607C92.3926 213.112 92.8184 212.496 93.2024 212.307C94.388 211.834 93.3444 209.381 92.6681 210.951ZM70.835 218.443C70.4176 218.616 70.0836 218.758 69.7162 218.916C69.3238 219.941 70.2506 220.738 71.336 220.58C72.2377 219.665 72.0791 218.94 70.8434 218.451L70.835 218.443ZM74.0745 222.378C74.0912 222.544 74.1663 222.71 74.2749 222.875L75.8779 223.364C75.9865 223.277 76.0867 223.167 76.1785 223.017C76.9132 221.235 74.7842 220.62 74.0745 222.386V222.378ZM77.5728 211.842C78.2825 209.981 76.5876 209.208 75.4104 210.825C75.8278 211.779 76.4791 212.433 77.5728 211.842ZM81.0377 212.607C80.662 212.985 79.944 213.12 80.1276 214.074C80.5785 214.216 80.6453 214.87 81.3049 214.973C81.6138 214.768 82.0312 214.5 82.3569 214.303C82.3402 213.651 81.9004 213.085 81.0377 212.607ZM79.8354 220.911C79.1424 220.785 78.4745 220.604 77.9068 221.306C77.9819 221.7 78.0737 222.142 78.1656 222.599C79.7686 223.104 80.7288 222.378 79.8354 220.911ZM87.6419 219.579C86.974 219.019 86.0389 219.066 85.4962 219.87C85.229 221.613 88.769 221.653 87.6419 219.579ZM89.9629 214.831C89.2449 214.555 88.9193 215.131 88.3933 215.288C88.5937 215.793 88.3432 216.337 88.8024 216.771C90.5474 217 91.1318 216.116 89.9629 214.831ZM86.0889 217.599C86.3394 217.331 86.5899 217.063 86.8821 216.755C86.6567 216.337 86.4646 215.967 86.2559 215.572C85.8886 215.58 85.5212 215.588 85.1872 215.596C84.5861 216.045 84.6612 216.605 84.7865 217.173C85.1455 217.528 85.5629 217.709 86.0889 217.607V217.599ZM89.5956 211.534C89.1698 211.369 88.7607 211.211 88.3516 211.045C88.1011 211.227 87.8673 211.4 87.6335 211.566C87.2077 213.356 90.6977 213.877 89.5956 211.534ZM78.0236 215.462C79.3595 213.987 77.698 212.859 76.4624 214.168C75.7527 215.296 77.1303 215.549 78.0236 215.462ZM80.9041 206.858C80.4032 206.116 79.7686 205.73 78.8586 205.817C77.506 207.181 80.0108 208.656 80.9041 206.858ZM90.2218 220.525L91.2821 218.924C91.2738 218.829 91.2487 218.743 91.1819 218.648C90.7728 218.609 90.3721 218.569 89.8795 218.514C88.8108 219.381 89.3117 220.541 90.2134 220.525H90.2218ZM73.0559 212.449C73.9075 212.851 73.8741 211.834 73.9576 211.345C73.8157 210.73 72.9808 210.722 72.3128 210.927L71.9371 211.724C71.9789 212.339 71.5698 212.583 73.0559 212.449ZM75.7443 203.687L75.21 204.815C75.21 204.815 75.2434 204.815 75.2601 204.815C76.1284 204.736 75.903 204.208 75.7443 203.687ZM77.8483 202.504C77.7648 202.93 77.6813 203.348 77.9903 203.774C78.3159 203.853 78.6916 203.947 79.0339 204.026C79.4013 203.805 79.7519 203.608 80.0775 203.411C79.5182 202.118 79.3679 202.055 77.8483 202.504ZM70.2422 215.304L69.5326 216.795L69.8832 217.008C71.528 216.566 71.1773 215.706 70.2422 215.304ZM75.8445 206.424C75.2601 206.865 74.8009 207.212 74.35 207.552C75.4688 208.963 76.3037 208.427 76.955 207.102C76.5959 206.834 76.2453 206.566 75.8445 206.424Z"
                fill="#40213F" />
        </g>
        <path
            d="M61.9088 146.659C61.099 146.77 48.1995 155.28 46.4128 175.793C44.6344 196.306 24.5296 244.918 72.9464 247.008L97.4679 211.345C97.4679 211.345 76.7703 218.317 77.6887 217.678C78.6072 217.039 102.427 140.95 61.9088 146.659Z"
            fill="white" />
        <g opacity="0.3">
            <path
                d="M78.0482 216.971C77.2885 217.113 77.2801 217.445 77.1131 218.257C77.5055 217.91 77.6892 217.681 77.6892 217.681L78.0482 216.971ZM44.8937 211.112C45.3613 211.135 45.6702 210.567 46.0125 210.291C45.904 209.889 46.1294 208.785 45.4615 208.895C44.71 208.951 44.3093 208.753 43.7165 209.384C43.2322 210.347 44.0755 210.772 44.8937 211.119V211.112ZM67.6535 221.467C68.5135 220.883 68.1044 219.787 67.4198 219.148C64.9317 218.982 65.8418 221.79 67.6535 221.467ZM68.096 213.407C68.6304 213.407 69.1063 213.438 69.6323 213.525C69.6573 213.438 69.6991 213.359 69.7325 213.273L67.9541 212.862C67.9875 213.028 68.0376 213.202 68.096 213.407ZM75.3348 217.902C74.7169 217.886 74.1325 217.878 73.4061 217.863C72.8467 219.676 73.857 220.213 74.6752 219.937C74.8171 219.858 74.9423 219.787 75.0759 219.708C75.5101 219.361 75.7439 218.722 75.3348 217.902ZM46.5385 218.068C47.0951 217.799 47.4013 217.368 47.4569 216.774C46.096 214.44 43.3992 217.547 46.5385 218.068ZM64.4641 212.35C64.0634 213.367 64.2053 214.448 65.6581 214.306C65.9169 214.109 66.1674 213.911 66.4679 213.675C66.3093 213.288 66.2926 212.847 66.1423 212.437L64.9067 212.153C64.7647 212.192 64.6228 212.255 64.4725 212.342L64.4641 212.35ZM64.3723 221.135C64.4809 220.473 63.0364 219.913 62.452 220.173C61.901 220.497 62.427 221.112 62.0763 221.53C62.0763 221.687 62.118 221.806 62.1765 221.9C62.8361 221.987 63.4706 222.058 64.0717 222.113C64.0884 221.719 63.9048 221.325 64.3723 221.135ZM52.6417 209.329L51.3727 209.037C51.8402 209.471 52.2159 209.495 52.6417 209.329ZM74.767 214.747C74.0156 214.526 73.331 214.479 72.496 214.542C71.5526 216.892 76.011 216.892 74.767 214.747ZM49.4607 210.047C49.5943 209.684 49.7195 209.353 49.8531 209.006C49.7696 208.848 49.6778 208.73 49.586 208.619L48.1916 208.296C47.2732 208.872 46.9894 210.749 49.4607 210.039V210.047ZM63.5708 217.413C63.0114 215.56 61.2247 216.246 61.4 217.957C62.0178 218.793 63.7461 218.557 63.5708 217.413ZM70.8346 218.446C70.4171 218.62 70.0831 218.762 69.7158 218.919C69.3234 219.945 70.2501 220.741 71.3355 220.583C72.2372 219.669 72.0786 218.943 70.8429 218.454L70.8346 218.446ZM52.7753 215.836C53.293 216.885 54.537 216.49 55.0797 215.615C54.7958 213.903 52.4748 214.124 52.7753 215.836ZM44.9438 212.452C43.825 213.691 45.1943 215.181 46.5218 214.211C46.7556 213.154 46.2546 211.884 44.9438 212.452ZM53.5852 219.306C53.7689 219.598 53.9609 219.897 54.1279 220.165C55.3552 220.15 55.6224 219.96 56.1484 218.738C55.8395 218.462 55.4137 218.06 54.9461 218.123L54.6372 218.572C54.37 218.533 54.1195 218.493 53.8357 218.446C53.7522 218.746 53.6687 219.006 53.5852 219.298V219.306ZM58.3025 213.974C57.7264 213.959 57.1419 213.864 56.6243 214.408C55.7142 216.814 59.9473 215.899 58.3025 213.974ZM57.6846 212.279C58.7951 210.56 57.0751 209.826 55.7059 210.985C55.614 211.608 56.307 211.703 56.4824 212.121C56.8748 212.2 57.2338 212.484 57.6763 212.279H57.6846ZM49.945 219.29C50.5962 219.463 51.2558 219.637 51.9321 219.81C51.5898 219.061 50.6379 218.604 49.945 219.29ZM49.4357 213.683C49.7863 213.438 50.1119 213.217 50.3624 213.044C50.4376 212.618 50.5044 212.271 50.5628 211.916C50.1203 211.948 49.4524 211.522 48.9514 211.506L48.0581 212.799C48.4755 213.202 48.918 213.493 49.4357 213.683ZM67.3196 216.459C66.9439 215.875 65.5328 215.631 64.9985 216.025C64.3556 217.736 66.8687 218.422 67.3196 216.459ZM78.0232 215.465C78.0983 215.386 78.1568 215.307 78.2069 215.236L76.2782 214.795C76.345 215.394 77.3302 215.536 78.0232 215.473V215.465ZM40.9863 206.719L40.9613 208.154C41.3537 207.854 41.2869 207.2 40.9863 206.719ZM54.0945 211.001C52.2994 210.331 51.4144 212.011 53.0509 212.894C54.1863 213.383 54.2865 211.719 54.0945 211.001ZM58.5446 221.309C59.1207 221.419 59.6968 221.522 60.2562 221.617C59.8721 220.583 58.9454 220.733 58.5446 221.309ZM41.362 215.047C42.247 215.481 42.7897 214.448 43.0235 213.761C42.4391 213.328 41.8379 213.162 41.1032 213.359C41.0949 213.651 40.9446 213.943 40.836 214.211L40.8193 214.866C40.9112 214.952 41.0698 215.023 41.3537 215.047H41.362ZM41.8964 216.963C42.247 217.074 42.6812 217.208 43.1821 217.358C43.1571 217.263 43.1321 217.176 43.0987 217.074C42.6896 217.145 42.3389 216.743 41.8964 216.963ZM57.5844 217.713C57.334 218.525 58.2273 219.692 59.129 219.164C59.2877 218.785 59.4213 218.47 59.6049 218.036C59.438 217.176 57.9351 217.042 57.5844 217.713ZM49.419 215.41C48.3002 217.129 49.9366 217.799 51.2641 216.553C51.0805 216.191 50.9135 215.844 50.7047 215.426C50.2539 215.426 49.8197 215.418 49.4106 215.41H49.419ZM69.8828 217.011C71.8031 216.498 71.0099 215.41 69.7325 215.142C69.2232 215.394 68.6137 215.52 68.764 216.325L69.8911 217.011H69.8828ZM41.1283 209.519C41.0531 209.511 40.9863 209.511 40.9279 209.519L40.8945 211.427C41.1784 211.482 41.4622 211.514 41.7795 211.443C41.7795 210.701 41.696 210.023 41.1366 209.519H41.1283ZM62.2015 213.209C61.5113 213.031 60.7794 213.278 60.0057 213.951C60.284 214.319 60.6208 214.542 61.0159 214.621H60.9826C60.9826 214.621 60.9993 214.629 61.0076 214.629L60.7655 214.976C61.0577 215.26 61.3082 215.481 61.7089 215.489C61.7869 215.11 61.7145 214.845 61.4919 214.692H61.5336V214.684C61.759 214.613 61.9928 214.542 62.2433 214.455C62.2266 214.014 62.2099 213.596 62.2015 213.202V213.209ZM60.5651 211.514C60.707 211.427 60.8323 211.34 60.9492 211.246L59.9556 211.017C60.0558 211.269 60.2228 211.466 60.5651 211.514Z"
                fill="#40213F" />
        </g>
        <path
            d="M117.356 159.705C117.356 159.705 119.802 157.284 124.194 154.586C127.158 152.765 130.606 151.503 132.952 153.703C135.298 155.903 133.537 158.845 132.176 160.138C130.806 161.424 127.759 162.591 127.759 162.591C127.759 162.591 131.115 164.957 131.157 168.167C131.199 171.385 128.293 172.331 128.293 172.331C128.293 172.331 130.055 178.427 124.361 177.82C124.361 177.82 124.519 178.522 124.361 179.421C124.002 181.527 121.664 182.797 119.51 182.142L117.331 181.48L111.637 189.019C111.637 189.019 102.144 183.041 104.231 178.696C106.318 174.358 108.456 174.752 108.456 174.752C108.456 174.752 106.727 168.38 111.829 166.337C111.829 166.337 109.516 160.817 117.356 159.705Z"
            fill="white" />
        <path
            d="M125.045 177.727C120.169 173.129 112.639 172.072 106.602 175.227C105.934 175.574 106.469 176.576 107.136 176.229C112.697 173.326 119.652 174.218 124.16 178.469C124.703 178.973 125.588 178.232 125.045 177.727Z"
            fill="#40213F" />
        <path
            d="M128.702 171.677C126.022 169.571 122.958 167.923 119.669 166.835C117.131 165.999 113.616 164.839 111.178 166.448C110.551 166.858 111.345 167.694 111.962 167.284C113.131 166.511 114.709 166.756 116.012 167.024C117.431 167.316 118.834 167.71 120.186 168.207C123.05 169.256 125.697 170.762 128.06 172.616C128.644 173.073 129.287 172.134 128.702 171.677Z"
            fill="#40213F" />
        <path
            d="M129.704 163.854C126.038 160.171 120.436 158.507 115.201 159.555C114.45 159.705 114.7 160.802 115.452 160.652C120.269 159.69 125.446 161.212 128.819 164.595C129.345 165.123 130.23 164.374 129.704 163.854Z"
            fill="#40213F" />
        <path
            d="M118.19 181.426C116.203 181.229 114.249 180.7 112.463 179.864C112.179 179.73 111.828 179.754 111.645 180.03C111.486 180.259 111.528 180.669 111.82 180.803C113.807 181.734 115.936 182.317 118.14 182.538C118.9 182.617 118.958 181.497 118.199 181.418L118.19 181.426Z"
            fill="#40213F" />
        <path
            d="M132.451 154.121C131.85 154.902 130.832 155.399 129.796 155.383C128.686 155.367 127.609 154.776 127.05 153.869C126.891 153.608 126.549 153.474 126.256 153.616C125.981 153.742 125.831 154.105 125.989 154.365C126.766 155.612 128.193 156.471 129.738 156.495C131.199 156.518 132.585 155.832 133.445 154.72C133.896 154.137 132.894 153.529 132.451 154.113V154.121Z"
            fill="#40213F" />
        <path
            d="M130.598 167.994C128.828 168.412 126.882 167.868 125.697 166.543C124.536 165.241 124.319 163.38 124.995 161.834C125.288 161.172 124.152 160.833 123.86 161.495C123.025 163.404 123.401 165.707 124.812 167.292C126.256 168.909 128.686 169.611 130.848 169.098C131.591 168.924 131.341 167.828 130.598 168.002V167.994Z"
            fill="#40213F" />
        <path
            d="M127.943 175.06C126.173 175.392 124.261 174.713 123.192 173.325C122.165 171.993 122.065 170.076 122.892 168.641C123.251 168.01 122.265 167.395 121.898 168.033C120.829 169.895 120.921 172.229 122.224 173.98C123.543 175.739 125.972 176.583 128.185 176.165C128.936 176.023 128.686 174.926 127.935 175.068L127.943 175.06Z"
            fill="#40213F" />
        <path
            d="M122.641 180.35C121.046 180.539 119.393 179.861 118.45 178.638C117.54 177.463 117.398 175.878 117.949 174.537C118.224 173.867 117.097 173.528 116.813 174.198C116.104 175.909 116.404 177.905 117.556 179.38C118.767 180.933 120.879 181.682 122.883 181.446C123.643 181.359 123.392 180.263 122.633 180.35H122.641Z"
            fill="#40213F" />
        <path
            d="M118.099 159.641L117.431 159.002C117.715 158.734 124.527 152.361 130.038 152.369C131.574 152.369 132.868 152.866 133.904 153.844L133.962 153.915C133.962 153.915 136.467 157.637 133.027 160.429C129.762 163.087 127.817 163.032 127.734 163.024L127.775 162.125C127.775 162.125 129.47 162.125 132.401 159.743C135.081 157.566 133.428 154.806 133.186 154.435C132.334 153.647 131.307 153.26 130.03 153.26C124.912 153.252 118.165 159.562 118.09 159.625L118.099 159.641Z"
            fill="#40213F" />
        <path
            d="M75.6435 215.585C70.8678 215.135 66.092 214.812 61.4332 213.629C55.1296 212.028 48.9011 210.111 42.7979 207.872C40.1846 206.909 37.3709 205.711 36.0768 203.376C34.8495 201.184 35.3254 198.605 35.8264 196.255C37.1455 190.079 38.8654 183.573 40.9778 177.161C42.7645 171.727 44.8351 166.372 47.1729 161.341C49.8279 155.623 54.1277 150.662 59.6966 147.295C64.7228 144.258 71.16 142.216 77.5888 145.276C91.2982 151.814 87.0317 174.984 87.0317 174.984L85.5122 190.994L83.8924 207.998C82.3979 212.761 84.2097 216.405 75.6518 215.6L75.6435 215.585Z"
            fill="#2ACF83" />
        <path
            d="M75.6435 215.584C70.8678 215.134 66.092 214.811 61.4332 213.628C55.1296 212.027 48.9011 210.11 42.7979 207.871C40.1846 206.908 37.3709 205.71 36.0768 203.375C34.8495 201.183 35.3254 198.604 35.8264 196.254C37.1455 190.078 38.8654 183.572 40.9778 177.16C50.596 182.176 69.1729 190.638 85.5122 190.985L83.8924 207.989C82.3979 212.752 84.2097 216.396 75.6518 215.591L75.6435 215.584Z"
            fill="#A0D2F4" />
        <path
            d="M76.5369 146.24C83.2162 150.877 87.3657 158.267 88.7517 165.909C88.7934 166.162 89.2359 166.13 89.2276 165.87C88.8519 157.289 84.2682 150.562 76.8959 145.72C76.5452 145.491 76.2029 146.003 76.5369 146.24Z"
            fill="#40213F" />
        <path
            d="M85.4701 179.67C85.2029 186.697 84.6352 193.708 83.7419 200.68C83.291 204.165 82.765 207.643 82.1639 211.113C81.88 212.738 81.8883 214.544 79.7843 214.797C78.9578 214.891 78.0895 214.883 77.2629 214.946C76.5115 215.002 76.4447 216.121 77.2045 216.066C79.1248 215.924 81.6295 216.2 82.6398 214.292C83.0071 213.598 83.0656 212.754 83.1992 212.005C83.3745 211.035 83.5415 210.065 83.7001 209.095C84.0174 207.147 84.3179 205.206 84.5851 203.251C85.6705 195.443 86.3551 187.596 86.6557 179.725C86.6808 179.007 85.4952 178.952 85.4701 179.67Z"
            fill="#40213F" />
        <path
            d="M86.3557 185.672C88.4012 183.937 90.5553 182.328 92.8012 180.837C93.0684 180.664 93.0433 180.254 92.8513 180.049C92.6175 179.796 92.2752 179.828 92.0164 180.001C89.7705 181.492 87.6164 183.109 85.5708 184.836C85.0031 185.317 85.7879 186.153 86.3557 185.672Z"
            fill="#40213F" />
        <path
            d="M53.051 168.794C53.051 168.794 50.229 172.643 51.4229 174.031C52.6168 175.411 66.5599 179.355 67.5451 179.465C68.4051 179.56 70.6343 174.536 69.3736 173.605C68.1212 172.675 54.7125 168.518 53.051 168.794Z"
            fill="#CBF1D7" />
    </g>
    <defs>
        <clipPath id="clip0_2792_81039">
            <rect width="340" height="308.124" fill="white" transform="translate(0 0.4375)" />
        </clipPath>
    </defs>
</svg>