<svg width="190" height="190" viewBox="0 0 190 190" fill="none" xmlns="http://www.w3.org/2000/svg">
<circle cx="95" cy="95" r="95" fill="black"/>
<path d="M60.882 36.9612V44.3725H44.2067V146.277H60.882V153.688H36.7954V36.9612H60.882Z" fill="white"/>
<path d="M122.941 76.9586C121.792 66.8658 113.007 63.6292 101.972 62.8564L101.727 48.8335L93.1912 48.9838L93.4302 62.6372C91.1861 62.6762 88.8934 62.7607 86.615 62.8459L86.3764 49.1018L77.8456 49.2507L78.0875 63.2697C76.2406 63.3398 74.4259 63.4062 72.6565 63.438L72.6547 63.3942L60.882 63.5953L61.0434 72.7119C61.0434 72.7119 67.3445 72.482 67.2419 72.5993C70.6988 72.5398 71.8595 74.5277 72.2177 76.2539L72.4971 92.2291C72.7354 92.226 73.0468 92.2304 73.4005 92.2732C73.1158 92.2784 72.8123 92.2822 72.4987 92.2906L72.8871 114.67C72.7549 115.761 72.1456 117.508 69.7299 117.554C69.8412 117.648 63.5253 117.661 63.5253 117.661L62.0069 127.884L73.1152 127.69C75.1825 127.657 77.217 127.656 79.2145 127.633L79.4659 141.816L87.9924 141.668L87.7468 127.635C90.089 127.643 92.3544 127.622 94.5669 127.582L94.807 141.55L103.343 141.399L103.098 127.242C117.434 126.168 127.415 122.378 128.426 108.879C129.244 98.0107 124.055 93.2582 115.875 91.4443C120.781 88.8376 123.797 84.3436 122.944 76.9589L122.941 76.9586ZM111.528 107.493C111.718 118.092 93.549 117.203 87.7641 117.31L87.4383 98.5181C93.2247 98.4189 111.336 96.438 111.528 107.493ZM107.095 81.0501C107.261 90.6926 92.1065 89.8318 87.288 89.9162L86.9912 72.8737C91.8097 72.7894 106.918 70.9934 107.095 81.0501Z" fill="#C53400"/>
<path d="M152.597 153.688V36.9612H128.511V44.3725H145.186V146.277H128.511V153.688H152.597Z" fill="white"/>
</svg>
