<svg
            width="37"
            height="37"
            viewBox="0 0 37 37"
            fill="none"
            xmlns="http://www.w3.org/2000/svg"
        >
            <g clipPath="url(#clip0_15_1008)">
                <path
                    d="M1.28697 18.9154C1.28697 28.6058 9.1409 36.4597 18.8313 36.4597C28.5217 36.4597 36.3756 28.6058 36.3756 18.9154C36.3756 9.22502 28.5194 1.37109 18.8313 1.37109C9.14317 1.37109 1.28697 9.22502 1.28697 18.9154Z"
                    fill="#0C0C4F"
                    stroke="#EC796B"
                    strokeWidth="0.911392"
                />
                <path
                    fillRule="evenodd"
                    clipRule="evenodd"
                    d="M10.8907 14.6754L11.335 13.3037C11.4262 13.0235 11.6449 12.807 11.9252 12.7227L13.3037 12.2989C13.495 12.2397 13.4973 11.9708 13.3059 11.9093L11.932 11.465C11.654 11.3738 11.4353 11.1551 11.351 10.8749L10.9272 9.49637C10.868 9.30498 10.5991 9.30498 10.5376 9.49409L10.0933 10.8657C10.0021 11.1437 9.7834 11.3624 9.50315 11.4467L8.12467 11.8705C7.93328 11.9298 7.931 12.1986 8.12239 12.2602L9.49631 12.7045C9.77429 12.7956 9.99302 13.0166 10.0796 13.2969L10.5034 14.6754C10.5626 14.8667 10.8315 14.869 10.893 14.6776L10.8907 14.6754Z"
                    fill="#FAFAFA"
                />
                <path
                    fillRule="evenodd"
                    clipRule="evenodd"
                    d="M32.6958 13.8754C32.1262 13.2397 31.2399 12.882 30.3763 12.7339C29.5059 12.5926 28.5946 12.6063 27.7356 12.759C25.9994 13.0529 24.4204 13.7729 23.0442 14.6592C22.3287 15.0944 21.7204 15.598 21.087 16.1129C20.7816 16.3726 20.5059 16.6483 20.2166 16.9218L19.4259 17.7078C18.5692 18.6056 17.7216 19.4213 16.9037 20.098C16.0834 20.7724 15.3133 21.2828 14.5568 21.6405C13.8004 22.0005 12.9915 22.2101 11.9366 22.2443C10.8908 22.2807 9.65354 22.0916 8.32974 21.7818C6.99911 21.4719 5.6024 21.0299 4.04164 20.6494C4.5862 22.16 5.40645 23.4952 6.45911 24.7164C7.52544 25.9149 8.85607 27.0086 10.5649 27.7286C12.2487 28.4645 14.3654 28.7266 16.3454 28.3301C18.33 27.9473 20.0708 27.0291 21.4789 25.9673C22.8892 24.8942 24.033 23.6729 24.9946 22.4015C25.2611 22.0506 25.4001 21.8547 25.5938 21.579L26.1247 20.7906C26.4938 20.303 26.831 19.7494 27.1956 19.2663C27.9133 18.2547 28.6196 17.2453 29.4399 16.3157C29.8523 15.844 30.2897 15.3929 30.8047 14.96C31.0622 14.7481 31.3378 14.5407 31.6454 14.3539C31.9576 14.1534 32.2857 13.9962 32.6913 13.8732L32.6958 13.8754Z"
                    fill="#EC796B"
                />
                <path
                    fillRule="evenodd"
                    clipRule="evenodd"
                    d="M32.6958 13.8752C32.0852 12.3327 30.9482 11.0362 29.4239 10.0793C27.9087 9.13143 25.8034 8.6484 23.7186 9.0608C22.6887 9.25903 21.6907 9.64409 20.8135 10.1545C19.9409 10.6626 19.1593 11.2755 18.4849 11.934C18.1477 12.2643 17.8401 12.6084 17.5371 12.9524L16.7487 13.9595L15.5297 15.5795C13.9758 17.6643 12.3034 20.1069 9.55555 20.8292C6.8601 21.54 5.69124 20.9112 4.0439 20.6514C4.34466 21.4284 4.71833 22.1826 5.22187 22.8456C5.71858 23.5223 6.30415 24.158 7.03099 24.7049C7.39782 24.9669 7.78744 25.2243 8.21808 25.4431C8.64871 25.655 9.11124 25.8418 9.60567 25.9808C10.59 26.2497 11.6973 26.3454 12.7682 26.1995C13.8414 26.056 14.8667 25.7165 15.7621 25.2654C16.6644 24.8188 17.4505 24.2742 18.1523 23.7C19.5467 22.5403 20.6335 21.2598 21.5495 19.9656C22.0097 19.3185 22.429 18.66 22.8163 17.9993L23.272 17.2132C23.411 16.9831 23.5523 16.753 23.6958 16.5365C24.2723 15.673 24.8373 14.9803 25.5231 14.4585C26.1999 13.9254 27.1409 13.5312 28.4009 13.44C29.654 13.3466 31.1009 13.5175 32.6912 13.8752H32.6958Z"
                    fill="#FAFAFA"
                />
                <path
                    fillRule="evenodd"
                    clipRule="evenodd"
                    d="M25.9128 26.6849C25.9128 27.8173 26.831 28.7355 27.9634 28.7355C29.0958 28.7355 30.0118 27.8173 30.0118 26.6849C30.0118 25.5525 29.0958 24.6343 27.9634 24.6343C26.831 24.6343 25.9128 25.5525 25.9128 26.6849Z"
                    fill="#EC796B"
                />
            </g>
            <defs>
                <clipPath id="clip0_15_1008">
                    <rect
                        width="36"
                        height="36"
                        fill="white"
                        transform="translate(0.831268 0.915527)"
                    />
                </clipPath>
            </defs>
        </svg>

